<?xml version="1.0" encoding="utf-8"?>
<!-- Generator: Adobe Illustrator 20.0.0, SVG Export Plug-In . SVG Version: 6.00 Build 0)  -->
<svg version="1.1" id="Ebene_1" xmlns="http://www.w3.org/2000/svg" xmlns:xlink="http://www.w3.org/1999/xlink" x="0px" y="0px"
	 viewBox="0 0 24.6 205" style="enable-background:new 0 0 24.6 205;" xml:space="preserve">
<style type="text/css">
	.st0{fill:#888888;}
</style>
<path class="st0" d="M7.9,3.5C7.8,2.1,7,1.3,6.6,1L6.3,0.6L5.9,0.4C5,0,4.3,0,3.8,0H3.5L3.2,0.1C1.1,0.5-0.3,2.5,0.1,4.7l16.5,97.8
	L0.1,200.2c-0.2,1,0,2.1,0.6,3c0.6,0.9,1.5,1.5,2.5,1.7l0.3,0.1H4c1.9,0,3.6-1.3,4-3.3l16.6-98.5l0-1.1L7.9,3.5z"/>
</svg>
