<?xml version="1.0" encoding="utf-8"?>
<!-- Generator: Adobe Illustrator 20.0.0, SVG Export Plug-In . SVG Version: 6.00 Build 0)  -->
<svg version="1.1" id="Ebene_1" xmlns="http://www.w3.org/2000/svg" xmlns:xlink="http://www.w3.org/1999/xlink" x="0px" y="0px"
	 viewBox="0 0 810.3 646.9" style="enable-background:new 0 0 810.3 646.9;" xml:space="preserve">
<style type="text/css">
	.st0{fill:#878787;stroke:#FFFFFF;stroke-width:10;stroke-miterlimit:10;}
	.st1{fill:#6B6B6B;stroke:#FFFFFF;stroke-width:10;stroke-miterlimit:10;}
	.st2{fill:#515151;stroke:#FFFFFF;stroke-width:10;stroke-miterlimit:10;}
	.st3{fill:#ADADAD;stroke:#FFFFFF;stroke-width:10;stroke-miterlimit:10;}
	.st4{fill:#828282;stroke:#FFFFFF;stroke-width:10;stroke-miterlimit:10;}
	.st5{fill:#A3A3A3;stroke:#FFFFFF;stroke-width:10;stroke-miterlimit:10;}
	.st6{fill:#7F7F7F;stroke:#FFFFFF;stroke-width:10;stroke-miterlimit:10;}
	.st7{fill:#636363;stroke:#FFFFFF;stroke-width:10;stroke-miterlimit:10;}
	.st8{fill:#BBBBBC;stroke:#FFFFFF;stroke-width:10;stroke-miterlimit:10;}
	.st9{enable-background:new    ;}
	.st10{fill:#FFFFFF;}
	.st11{fill:#474646;stroke:#FFFFFF;stroke-width:10;stroke-miterlimit:10;}
</style>
<circle class="st0" cx="436.4" cy="281.6" r="158.5"/>
<circle class="st1" cx="155.8" cy="309.9" r="150.8"/>
<circle class="st2" cx="205.6" cy="541" r="100.9"/>
<circle class="st3" cx="416" cy="498.7" r="83.2"/>
<circle class="st4" cx="592.1" cy="475.3" r="66.6"/>
<circle class="st5" cx="682.4" cy="194.2" r="76.8"/>
<circle class="st6" cx="520.4" cy="90.3" r="85.3"/>
<circle class="st7" cx="736.3" cy="383.3" r="69"/>
<circle class="st8" cx="626.7" cy="327.5" r="55.8"/>
<g class="st9">
	<path class="st10" d="M399.9,198.8v9.9h-1.2c-5.4,0.1-9.8,1.5-13.1,4.2c-3.3,2.7-5.3,6.6-6,11.4c3.2-3.3,7.3-4.9,12.2-4.9
		c5.3,0,9.4,1.9,12.5,5.7c3.1,3.8,4.7,8.7,4.7,14.9c0,3.9-0.9,7.5-2.6,10.7c-1.7,3.2-4.1,5.7-7.2,7.4s-6.6,2.7-10.6,2.7
		c-6.4,0-11.5-2.2-15.4-6.6c-3.9-4.4-5.9-10.3-5.9-17.7V232c0-6.6,1.2-12.4,3.7-17.4c2.5-5,6-8.9,10.7-11.7c4.6-2.8,10-4.1,16.1-4.2
		H399.9z M388.2,229.1c-1.9,0-3.7,0.5-5.3,1.5c-1.6,1-2.7,2.3-3.5,4v3.6c0,4,0.8,7.1,2.4,9.4c1.6,2.3,3.8,3.4,6.6,3.4
		c2.6,0,4.7-1,6.3-3c1.6-2,2.4-4.7,2.4-7.9c0-3.3-0.8-5.9-2.4-8C393.1,230.1,390.9,229.1,388.2,229.1z"/>
	<path class="st10" d="M455.6,215.5c0,2.9-0.7,5.5-2.2,7.8c-1.5,2.3-3.5,4.1-6.1,5.4c2.9,1.4,5.3,3.4,7,5.8c1.7,2.5,2.6,5.4,2.6,8.7
		c0,5.4-1.8,9.6-5.5,12.7c-3.7,3.1-8.6,4.7-14.9,4.7s-11.3-1.6-15-4.7c-3.7-3.1-5.5-7.4-5.5-12.7c0-3.4,0.9-6.3,2.6-8.8
		c1.7-2.5,4-4.4,6.9-5.8c-2.6-1.4-4.6-3.2-6-5.4c-1.5-2.3-2.2-4.9-2.2-7.8c0-5.2,1.7-9.3,5.2-12.3c3.4-3.1,8.1-4.6,14-4.6
		c5.9,0,10.5,1.5,14,4.6C453.9,206.2,455.6,210.3,455.6,215.5z M444.8,242.5c0-2.6-0.8-4.7-2.3-6.3c-1.5-1.6-3.6-2.4-6.1-2.4
		c-2.5,0-4.6,0.8-6.1,2.3c-1.5,1.6-2.3,3.7-2.3,6.3c0,2.6,0.7,4.7,2.2,6.2s3.6,2.4,6.2,2.4c2.6,0,4.6-0.8,6.1-2.3
		C444.1,247.3,444.8,245.2,444.8,242.5z M443.6,216.1c0-2.4-0.6-4.2-1.9-5.7c-1.2-1.4-3-2.1-5.3-2.1c-2.2,0-4,0.7-5.2,2.1
		c-1.2,1.4-1.9,3.3-1.9,5.7c0,2.4,0.6,4.3,1.9,5.8c1.2,1.5,3,2.2,5.3,2.2s4-0.7,5.3-2.2C443,220.4,443.6,218.5,443.6,216.1z"/>
	<path class="st10" d="M505.7,234.9c0,8.4-1.7,14.8-5.2,19.2c-3.5,4.4-8.5,6.6-15.2,6.6c-6.6,0-11.6-2.2-15.1-6.5
		s-5.3-10.6-5.4-18.7v-11.1c0-8.4,1.8-14.9,5.3-19.2c3.5-4.4,8.6-6.6,15.1-6.6c6.6,0,11.6,2.2,15.1,6.5c3.5,4.3,5.3,10.6,5.4,18.7
		V234.9z M493.7,222.7c0-5-0.7-8.7-2.1-11c-1.4-2.3-3.5-3.4-6.4-3.4c-2.8,0-4.9,1.1-6.3,3.3c-1.3,2.2-2.1,5.6-2.1,10.2v14.7
		c0,4.9,0.7,8.6,2,11c1.3,2.4,3.5,3.6,6.5,3.6c2.9,0,5.1-1.2,6.4-3.5c1.3-2.3,2-5.8,2-10.6V222.7z"/>
</g>
<g class="st9">
	<path class="st10" d="M329.5,286.7h-8.4v5.7h9.9v3.5h-14.3v-21.3H331v3.6h-9.9v5.1h8.4V286.7z"/>
	<path class="st10" d="M341.5,288.5h-8.2v-3.4h8.2V288.5z"/>
	<path class="st10" d="M351,274.6l5.5,15.5l5.4-15.5h5.8v21.3h-4.4v-5.8l0.4-10.1l-5.8,15.9h-3l-5.7-15.9l0.4,10v5.8h-4.4v-21.3H351
		z"/>
	<path class="st10" d="M380.4,295.9c-0.2-0.4-0.3-0.9-0.4-1.4c-1,1.1-2.4,1.7-4,1.7c-1.6,0-2.8-0.4-3.9-1.3s-1.5-2-1.5-3.4
		c0-1.7,0.6-3,1.9-3.9s3-1.4,5.4-1.4h1.9v-0.9c0-0.7-0.2-1.3-0.6-1.8s-1-0.7-1.8-0.7c-0.7,0-1.3,0.2-1.7,0.5s-0.6,0.8-0.6,1.4h-4.2
		c0-0.9,0.3-1.8,0.8-2.5s1.4-1.4,2.4-1.8c1-0.4,2.2-0.7,3.5-0.7c2,0,3.5,0.5,4.7,1.5c1.1,1,1.7,2.4,1.7,4.1v6.9
		c0,1.5,0.2,2.6,0.6,3.4v0.2H380.4z M376.9,293c0.6,0,1.2-0.1,1.7-0.4c0.5-0.3,0.9-0.7,1.2-1.1v-2.7h-1.6c-2.1,0-3.2,0.7-3.4,2.2
		l0,0.2c0,0.5,0.2,1,0.6,1.3S376.3,293,376.9,293z"/>
	<path class="st10" d="M387.3,276c0-0.6,0.2-1.2,0.6-1.6s1-0.6,1.7-0.6c0.7,0,1.3,0.2,1.7,0.6s0.6,0.9,0.6,1.6
		c0,0.6-0.2,1.2-0.7,1.6s-1,0.6-1.7,0.6s-1.3-0.2-1.7-0.6S387.3,276.6,387.3,276z M391.8,295.9h-4.2v-15.8h4.2V295.9z"/>
	<path class="st10" d="M399.7,295.9h-4.2v-22.5h4.2V295.9z"/>
	<path class="st10" d="M411.8,291.5c0-0.5-0.3-0.9-0.8-1.2c-0.5-0.3-1.3-0.6-2.5-0.8c-3.8-0.8-5.7-2.4-5.7-4.8
		c0-1.4,0.6-2.6,1.8-3.5s2.7-1.4,4.6-1.4c2,0,3.6,0.5,4.8,1.4c1.2,0.9,1.8,2.2,1.8,3.7h-4.2c0-0.6-0.2-1.1-0.6-1.5
		c-0.4-0.4-1-0.6-1.8-0.6c-0.7,0-1.3,0.2-1.7,0.5s-0.6,0.7-0.6,1.2c0,0.5,0.2,0.8,0.7,1.1s1.2,0.5,2.2,0.7c1.1,0.2,1.9,0.4,2.7,0.7
		c2.2,0.8,3.4,2.2,3.4,4.3c0,1.4-0.6,2.6-1.9,3.5c-1.2,0.9-2.8,1.3-4.8,1.3c-1.3,0-2.5-0.2-3.5-0.7c-1-0.5-1.8-1.1-2.4-1.9
		s-0.9-1.7-0.9-2.7h4c0,0.8,0.3,1.3,0.8,1.7s1.2,0.6,2.1,0.6c0.8,0,1.4-0.2,1.8-0.5C411.6,292.5,411.8,292,411.8,291.5z"/>
	<path class="st10" d="M431,292.5h7.7v3.4h-13.2v-2.6l7.5-9.9h-7.2v-3.4h12.7v2.5L431,292.5z"/>
	<path class="st10" d="M455.2,290.2l2.1-10.1h4.1l-4,15.8h-3.5l-3-10l-3,10h-3.5l-4-15.8h4.1l2.1,10.1l2.9-10.1h3.1L455.2,290.2z"/>
	<path class="st10" d="M463.4,276c0-0.6,0.2-1.2,0.6-1.6c0.4-0.4,1-0.6,1.7-0.6c0.7,0,1.3,0.2,1.7,0.6s0.6,0.9,0.6,1.6
		c0,0.6-0.2,1.2-0.7,1.6c-0.4,0.4-1,0.6-1.7,0.6s-1.3-0.2-1.7-0.6S463.4,276.6,463.4,276z M467.9,295.9h-4.2v-15.8h4.2V295.9z"/>
	<path class="st10" d="M480,291.5c0-0.5-0.3-0.9-0.8-1.2c-0.5-0.3-1.3-0.6-2.5-0.8c-3.8-0.8-5.7-2.4-5.7-4.8c0-1.4,0.6-2.6,1.8-3.5
		s2.7-1.4,4.6-1.4c2,0,3.6,0.5,4.8,1.4s1.8,2.2,1.8,3.7h-4.2c0-0.6-0.2-1.1-0.6-1.5c-0.4-0.4-1-0.6-1.8-0.6c-0.7,0-1.3,0.2-1.7,0.5
		s-0.6,0.7-0.6,1.2c0,0.5,0.2,0.8,0.7,1.1s1.2,0.5,2.2,0.7c1.1,0.2,1.9,0.4,2.7,0.7c2.2,0.8,3.4,2.2,3.4,4.3c0,1.4-0.6,2.6-1.9,3.5
		c-1.2,0.9-2.8,1.3-4.8,1.3c-1.3,0-2.5-0.2-3.5-0.7c-1-0.5-1.8-1.1-2.4-1.9s-0.9-1.7-0.9-2.7h4c0,0.8,0.3,1.3,0.8,1.7
		s1.2,0.6,2.1,0.6c0.8,0,1.4-0.2,1.8-0.5C479.8,292.5,480,292,480,291.5z"/>
	<path class="st10" d="M493.4,292.8c0.8,0,1.4-0.2,1.9-0.6s0.7-1,0.8-1.7h4c0,1.1-0.3,2.1-0.9,3c-0.6,0.9-1.4,1.6-2.4,2.1
		c-1,0.5-2.1,0.7-3.3,0.7c-2.3,0-4.1-0.7-5.4-2.2s-2-3.4-2-6v-0.3c0-2.4,0.6-4.4,1.9-5.8s3.1-2.2,5.3-2.2c2,0,3.6,0.6,4.8,1.7
		c1.2,1.1,1.8,2.6,1.8,4.5h-4c0-0.8-0.3-1.5-0.8-2s-1.1-0.8-1.9-0.8c-1,0-1.7,0.4-2.2,1.1c-0.5,0.7-0.8,1.9-0.8,3.5v0.4
		c0,1.6,0.2,2.8,0.7,3.5C491.6,292.5,492.4,292.8,493.4,292.8z"/>
	<path class="st10" d="M506.6,281.8c1.1-1.3,2.5-2,4.2-2c3.4,0,5.2,2,5.2,6v10.2h-4.2v-10.1c0-0.9-0.2-1.6-0.6-2s-1-0.7-1.9-0.7
		c-1.2,0-2.1,0.5-2.7,1.4v11.3h-4.2v-22.5h4.2V281.8z"/>
	<path class="st10" d="M526.5,296.2c-2.3,0-4.2-0.7-5.7-2.1s-2.2-3.3-2.2-5.7V288c0-1.6,0.3-3,0.9-4.3c0.6-1.3,1.5-2.2,2.6-2.9
		c1.1-0.7,2.4-1,3.9-1c2.2,0,3.9,0.7,5.1,2.1c1.2,1.4,1.9,3.3,1.9,5.8v1.7H523c0.1,1,0.5,1.9,1.2,2.5c0.7,0.6,1.6,0.9,2.6,0.9
		c1.6,0,2.9-0.6,3.8-1.8l2.1,2.3c-0.6,0.9-1.5,1.6-2.6,2.1C529,296,527.8,296.2,526.5,296.2z M526,283.2c-0.8,0-1.5,0.3-2,0.9
		c-0.5,0.6-0.9,1.4-1,2.4h5.9v-0.3c0-0.9-0.3-1.7-0.8-2.2S526.9,283.2,526,283.2z"/>
	<path class="st10" d="M539.3,280.1l0.1,1.8c1.1-1.4,2.7-2.1,4.6-2.1c1.7,0,2.9,0.5,3.8,1.5s1.2,2.5,1.3,4.4v10.2h-4.2v-10.2
		c0-0.9-0.2-1.6-0.6-2s-1-0.6-1.9-0.6c-1.2,0-2.1,0.5-2.7,1.5v11.2h-4.2v-15.8H539.3z"/>
</g>
<g class="st9">
	<path class="st10" d="M388,326.6l4.8-16h4.9l-7.4,21.3h-4.6l-7.4-21.3h4.9L388,326.6z"/>
	<path class="st10" d="M406.1,332.2c-2.3,0-4.2-0.7-5.7-2.1s-2.2-3.3-2.2-5.7V324c0-1.6,0.3-3,0.9-4.3c0.6-1.3,1.5-2.2,2.6-2.9
		c1.1-0.7,2.4-1,3.9-1c2.2,0,3.9,0.7,5.1,2.1s1.9,3.3,1.9,5.8v1.7h-10.1c0.1,1,0.5,1.9,1.2,2.5s1.6,0.9,2.6,0.9
		c1.6,0,2.9-0.6,3.8-1.8l2.1,2.3c-0.6,0.9-1.5,1.6-2.6,2.1C408.6,332,407.4,332.2,406.1,332.2z M405.6,319.2c-0.8,0-1.5,0.3-2,0.9
		s-0.9,1.4-1,2.4h5.9v-0.3c0-0.9-0.3-1.7-0.8-2.2S406.5,319.2,405.6,319.2z"/>
	<path class="st10" d="M423.9,320c-0.6-0.1-1.1-0.1-1.5-0.1c-1.6,0-2.7,0.5-3.1,1.6v10.4H415v-15.8h4l0.1,1.9c0.8-1.5,2-2.2,3.5-2.2
		c0.5,0,0.9,0.1,1.3,0.2L423.9,320z"/>
	<path class="st10" d="M431.8,312.2v3.9h2.7v3.1h-2.7v7.9c0,0.6,0.1,1,0.3,1.3s0.7,0.4,1.3,0.4c0.5,0,0.9,0,1.2-0.1v3.2
		c-0.8,0.3-1.7,0.4-2.6,0.4c-3,0-4.5-1.5-4.5-4.5v-8.5h-2.3v-3.1h2.3v-3.9H431.8z"/>
	<path class="st10" d="M445.7,320c-0.6-0.1-1.1-0.1-1.5-0.1c-1.6,0-2.7,0.5-3.1,1.6v10.4h-4.2v-15.8h4l0.1,1.9
		c0.8-1.5,2-2.2,3.5-2.2c0.5,0,0.9,0.1,1.3,0.2L445.7,320z"/>
	<path class="st10" d="M447.7,312c0-0.6,0.2-1.2,0.6-1.6s1-0.6,1.7-0.6c0.7,0,1.3,0.2,1.7,0.6s0.6,0.9,0.6,1.6
		c0,0.6-0.2,1.2-0.7,1.6s-1,0.6-1.7,0.6s-1.3-0.2-1.7-0.6S447.7,312.6,447.7,312z M452.2,331.9H448v-15.8h4.2V331.9z"/>
	<path class="st10" d="M463,332.2c-2.3,0-4.2-0.7-5.7-2.1s-2.2-3.3-2.2-5.7V324c0-1.6,0.3-3,0.9-4.3c0.6-1.3,1.5-2.2,2.6-2.9
		c1.1-0.7,2.4-1,3.9-1c2.2,0,3.9,0.7,5.1,2.1s1.9,3.3,1.9,5.8v1.7h-10.1c0.1,1,0.5,1.9,1.2,2.5s1.6,0.9,2.6,0.9
		c1.6,0,2.9-0.6,3.8-1.8l2.1,2.3c-0.6,0.9-1.5,1.6-2.6,2.1C465.5,332,464.3,332.2,463,332.2z M462.5,319.2c-0.8,0-1.5,0.3-2,0.9
		s-0.9,1.4-1,2.4h5.9v-0.3c0-0.9-0.3-1.7-0.8-2.2S463.4,319.2,462.5,319.2z"/>
	<path class="st10" d="M486.2,324.2c0,2.5-0.5,4.5-1.6,5.9c-1.1,1.4-2.6,2.1-4.5,2.1c-1.7,0-3.1-0.7-4.1-2l-0.2,1.7h-3.8v-22.5h4.2
		v8.1c1-1.1,2.3-1.7,3.9-1.7c1.9,0,3.5,0.7,4.5,2.1c1.1,1.4,1.6,3.4,1.6,6V324.2z M482,323.8c0-1.6-0.3-2.8-0.8-3.5
		c-0.5-0.7-1.3-1.1-2.3-1.1c-1.3,0-2.3,0.6-2.8,1.7v6.3c0.5,1.1,1.5,1.7,2.8,1.7c1.4,0,2.3-0.7,2.7-2
		C481.9,326.1,482,325.2,482,323.8z"/>
</g>
<g class="st9">
	<path class="st10" d="M341.4,366.3c-1,1.3-2.5,1.9-4.3,1.9c-1.7,0-3-0.5-3.9-1.5s-1.4-2.4-1.4-4.3v-10.4h4.2v10.3
		c0,1.7,0.8,2.5,2.3,2.5c1.4,0,2.4-0.5,3-1.5v-11.2h4.2v15.8h-4L341.4,366.3z"/>
	<path class="st10" d="M352.6,352.1l0.1,1.8c1.1-1.4,2.7-2.1,4.6-2.1c1.7,0,2.9,0.5,3.8,1.5s1.2,2.5,1.3,4.4v10.2h-4.2v-10.2
		c0-0.9-0.2-1.6-0.6-2s-1-0.6-1.9-0.6c-1.2,0-2.1,0.5-2.7,1.5v11.2h-4.2v-15.8H352.6z"/>
	<path class="st10" d="M364.9,359.9c0-2.5,0.6-4.4,1.7-5.9s2.6-2.2,4.5-2.2c1.5,0,2.8,0.6,3.8,1.7v-8.1h4.2v22.5h-3.8l-0.2-1.7
		c-1.1,1.3-2.4,2-4.1,2c-1.9,0-3.4-0.7-4.5-2.2C365.4,364.5,364.9,362.5,364.9,359.9z M369.1,360.2c0,1.5,0.3,2.6,0.8,3.4
		c0.5,0.8,1.3,1.2,2.3,1.2c1.3,0,2.2-0.6,2.8-1.7v-6.3c-0.5-1.1-1.4-1.7-2.7-1.7C370.1,355.2,369.1,356.9,369.1,360.2z"/>
	<path class="st10" d="M401.2,362.3c0-0.8-0.3-1.5-0.9-1.9c-0.6-0.4-1.6-0.9-3.2-1.4c-1.5-0.5-2.7-1-3.6-1.5
		c-2.4-1.3-3.6-3.1-3.6-5.3c0-1.2,0.3-2.2,1-3.1s1.6-1.6,2.8-2.1s2.6-0.8,4.1-0.8c1.5,0,2.9,0.3,4.1,0.8s2.1,1.3,2.8,2.3
		s1,2.1,1,3.4h-4.4c0-1-0.3-1.7-0.9-2.3c-0.6-0.5-1.5-0.8-2.6-0.8c-1.1,0-1.9,0.2-2.5,0.7c-0.6,0.5-0.9,1.1-0.9,1.8
		c0,0.7,0.3,1.3,1,1.7s1.7,0.9,3.1,1.3c2.5,0.8,4.3,1.7,5.5,2.8c1.1,1.1,1.7,2.5,1.7,4.2c0,1.8-0.7,3.3-2.1,4.3s-3.3,1.6-5.6,1.6
		c-1.6,0-3.1-0.3-4.5-0.9c-1.3-0.6-2.4-1.4-3.1-2.5s-1.1-2.3-1.1-3.6h4.4c0,2.4,1.4,3.5,4.2,3.5c1,0,1.9-0.2,2.4-0.6
		C400.9,363.7,401.2,363.1,401.2,362.3z"/>
	<path class="st10" d="M422.6,360.2c0,2.4-0.6,4.4-1.7,5.9c-1.1,1.5-2.6,2.2-4.5,2.2c-1.6,0-2.9-0.6-3.9-1.7v7.5h-4.2v-21.9h3.9
		l0.1,1.6c1-1.2,2.4-1.8,4-1.8c2,0,3.5,0.7,4.6,2.2s1.6,3.4,1.6,6V360.2z M418.4,359.8c0-1.5-0.3-2.6-0.8-3.4
		c-0.5-0.8-1.3-1.2-2.3-1.2c-1.3,0-2.2,0.5-2.7,1.5v6.5c0.5,1,1.4,1.6,2.8,1.6C417.4,364.8,418.4,363.1,418.4,359.8z"/>
	<path class="st10" d="M424.6,359.9c0-1.6,0.3-3,0.9-4.2s1.5-2.2,2.6-2.9s2.5-1,4-1c2.1,0,3.9,0.7,5.2,2c1.4,1.3,2.1,3.1,2.3,5.3
		l0,1.1c0,2.4-0.7,4.4-2,5.9c-1.4,1.5-3.2,2.2-5.5,2.2s-4.1-0.7-5.5-2.2s-2-3.5-2-6V359.9z M428.8,360.2c0,1.5,0.3,2.7,0.8,3.5
		s1.4,1.2,2.4,1.2c1,0,1.8-0.4,2.4-1.2c0.6-0.8,0.9-2,0.9-3.8c0-1.5-0.3-2.6-0.9-3.4s-1.4-1.2-2.4-1.2c-1,0-1.8,0.4-2.4,1.2
		C429.1,357.2,428.8,358.5,428.8,360.2z"/>
	<path class="st10" d="M446.1,352.1l0.1,1.8c1.1-1.4,2.7-2.1,4.6-2.1c1.7,0,2.9,0.5,3.8,1.5s1.2,2.5,1.3,4.4v10.2h-4.2v-10.2
		c0-0.9-0.2-1.6-0.6-2s-1-0.6-1.9-0.6c-1.2,0-2.1,0.5-2.7,1.5v11.2h-4.2v-15.8H446.1z"/>
	<path class="st10" d="M467.6,363.5c0-0.5-0.3-0.9-0.8-1.2c-0.5-0.3-1.3-0.6-2.5-0.8c-3.8-0.8-5.7-2.4-5.7-4.8
		c0-1.4,0.6-2.6,1.8-3.5s2.7-1.4,4.6-1.4c2,0,3.6,0.5,4.8,1.4s1.8,2.2,1.8,3.7h-4.2c0-0.6-0.2-1.1-0.6-1.5c-0.4-0.4-1-0.6-1.8-0.6
		c-0.7,0-1.3,0.2-1.7,0.5s-0.6,0.7-0.6,1.2c0,0.5,0.2,0.8,0.7,1.1s1.2,0.5,2.2,0.7c1.1,0.2,1.9,0.4,2.7,0.7c2.2,0.8,3.4,2.2,3.4,4.3
		c0,1.4-0.6,2.6-1.9,3.5c-1.2,0.9-2.8,1.3-4.8,1.3c-1.3,0-2.5-0.2-3.5-0.7c-1-0.5-1.8-1.1-2.4-1.9s-0.9-1.7-0.9-2.7h4
		c0,0.8,0.3,1.3,0.8,1.7s1.2,0.6,2.1,0.6c0.8,0,1.4-0.2,1.8-0.5C467.4,364.5,467.6,364,467.6,363.5z"/>
	<path class="st10" d="M473.8,359.9c0-1.6,0.3-3,0.9-4.2s1.5-2.2,2.6-2.9c1.1-0.7,2.5-1,4-1c2.1,0,3.9,0.7,5.2,2
		c1.4,1.3,2.1,3.1,2.3,5.3l0,1.1c0,2.4-0.7,4.4-2,5.9c-1.4,1.5-3.2,2.2-5.5,2.2s-4.1-0.7-5.5-2.2c-1.4-1.5-2-3.5-2-6V359.9z
		 M478,360.2c0,1.5,0.3,2.7,0.8,3.5s1.4,1.2,2.4,1.2c1,0,1.8-0.4,2.4-1.2c0.6-0.8,0.9-2,0.9-3.8c0-1.5-0.3-2.6-0.9-3.4
		s-1.4-1.2-2.4-1.2c-1,0-1.8,0.4-2.4,1.2C478.3,357.2,478,358.5,478,360.2z"/>
	<path class="st10" d="M500.3,356c-0.6-0.1-1.1-0.1-1.5-0.1c-1.6,0-2.7,0.5-3.1,1.6v10.4h-4.2v-15.8h4l0.1,1.9
		c0.8-1.5,2-2.2,3.5-2.2c0.5,0,0.9,0.1,1.3,0.2L500.3,356z"/>
	<path class="st10" d="M502.3,348c0-0.6,0.2-1.2,0.6-1.6c0.4-0.4,1-0.6,1.7-0.6c0.7,0,1.3,0.2,1.7,0.6s0.6,0.9,0.6,1.6
		c0,0.6-0.2,1.2-0.7,1.6c-0.4,0.4-1,0.6-1.7,0.6s-1.3-0.2-1.7-0.6S502.3,348.6,502.3,348z M506.8,367.9h-4.2v-15.8h4.2V367.9z"/>
	<path class="st10" d="M514.2,352.1l0.1,1.8c1.1-1.4,2.7-2.1,4.6-2.1c1.7,0,2.9,0.5,3.8,1.5s1.2,2.5,1.3,4.4v10.2h-4.2v-10.2
		c0-0.9-0.2-1.6-0.6-2s-1-0.6-1.9-0.6c-1.2,0-2.1,0.5-2.7,1.5v11.2h-4.2v-15.8H514.2z"/>
	<path class="st10" d="M526.5,359.9c0-2.4,0.6-4.4,1.7-5.9c1.2-1.5,2.7-2.2,4.7-2.2c1.7,0,3.1,0.6,4.1,1.8l0.2-1.5h3.8v15.3
		c0,1.4-0.3,2.6-0.9,3.6c-0.6,1-1.5,1.8-2.7,2.3s-2.5,0.8-4,0.8c-1.2,0-2.3-0.2-3.4-0.7c-1.1-0.5-1.9-1.1-2.5-1.8l1.9-2.6
		c1.1,1.2,2.3,1.8,3.8,1.8c1.1,0,2-0.3,2.6-0.9c0.6-0.6,0.9-1.5,0.9-2.6v-0.8c-1,1.1-2.3,1.7-3.9,1.7c-1.9,0-3.4-0.7-4.6-2.2
		c-1.2-1.5-1.8-3.5-1.8-5.9V359.9z M530.7,360.2c0,1.4,0.3,2.6,0.9,3.4s1.4,1.2,2.4,1.2c1.3,0,2.2-0.5,2.8-1.5v-6.7
		c-0.6-1-1.5-1.5-2.7-1.5c-1,0-1.8,0.4-2.4,1.3S530.7,358.5,530.7,360.2z"/>
</g>
<g class="st9">
	<path class="st10" d="M602.3,464.5h-20v-4l9.4-10c1.3-1.4,2.2-2.6,2.9-3.7c0.6-1.1,0.9-2.1,0.9-3c0-1.3-0.3-2.3-1-3.1
		c-0.7-0.7-1.6-1.1-2.8-1.1c-1.3,0-2.3,0.5-3.1,1.3c-0.8,0.9-1.1,2.1-1.1,3.5h-5.8c0-1.8,0.4-3.4,1.3-4.9s2-2.6,3.6-3.5
		c1.5-0.8,3.3-1.2,5.3-1.2c3,0,5.3,0.7,7,2.2c1.7,1.4,2.5,3.5,2.5,6.1c0,1.4-0.4,2.9-1.1,4.4c-0.7,1.5-2,3.2-3.8,5.2l-6.6,7h12.5
		V464.5z"/>
</g>
<g class="st9">
	<path class="st10" d="M563.6,476.9c0,1-0.2,1.9-0.5,2.7s-0.9,1.3-1.5,1.8c-0.7,0.4-1.4,0.6-2.3,0.6c-0.9,0-1.6-0.2-2.3-0.6
		c-0.7-0.4-1.2-1-1.6-1.8c-0.4-0.8-0.6-1.6-0.6-2.6v-0.5c0-1,0.2-1.9,0.5-2.7s0.9-1.4,1.5-1.8s1.4-0.6,2.3-0.6s1.6,0.2,2.3,0.6
		s1.2,1,1.5,1.8s0.5,1.7,0.5,2.7V476.9z M556.5,470c0-0.3,0.1-0.5,0.3-0.6c0.2-0.2,0.4-0.3,0.7-0.3c0.3,0,0.5,0.1,0.7,0.3
		c0.2,0.2,0.3,0.4,0.3,0.6s-0.1,0.5-0.3,0.6c-0.2,0.2-0.4,0.3-0.7,0.3c-0.3,0-0.5-0.1-0.7-0.3C556.6,470.5,556.5,470.3,556.5,470z
		 M561.4,476.5c0-1.1-0.2-1.9-0.6-2.5s-0.9-0.8-1.7-0.8c-0.7,0-1.3,0.3-1.6,0.8c-0.4,0.6-0.6,1.4-0.6,2.4v0.5c0,1,0.2,1.9,0.6,2.4
		s0.9,0.9,1.7,0.9c0.7,0,1.3-0.3,1.6-0.8c0.4-0.6,0.6-1.4,0.6-2.4V476.5z M559.9,470c0-0.2,0.1-0.5,0.3-0.6c0.2-0.2,0.4-0.3,0.7-0.3
		c0.3,0,0.5,0.1,0.7,0.3c0.2,0.2,0.3,0.4,0.3,0.6c0,0.2-0.1,0.5-0.3,0.6s-0.4,0.3-0.7,0.3c-0.3,0-0.5-0.1-0.7-0.3
		S559.9,470.3,559.9,470z"/>
	<path class="st10" d="M565.5,481.8v-6.1h-1.1v-1.5h1.1v-0.6c0-0.9,0.2-1.5,0.7-2c0.5-0.5,1.2-0.7,2.1-0.7c0.3,0,0.6,0,1,0.1l0,1.6
		c-0.2,0-0.4-0.1-0.6-0.1c-0.8,0-1.1,0.4-1.1,1.1v0.6h1.5v1.5h-1.5v6.1H565.5z"/>
	<path class="st10" d="M570.7,481.8v-6.1h-1.1v-1.5h1.1v-0.6c0-0.9,0.2-1.5,0.7-2c0.5-0.5,1.2-0.7,2.1-0.7c0.3,0,0.6,0,1,0.1l0,1.6
		c-0.2,0-0.4-0.1-0.6-0.1c-0.8,0-1.1,0.4-1.1,1.1v0.6h1.5v1.5h-1.5v6.1H570.7z"/>
	<path class="st10" d="M578.7,482c-1.1,0-2-0.3-2.7-1c-0.7-0.7-1.1-1.6-1.1-2.7V478c0-0.8,0.1-1.5,0.4-2.1c0.3-0.6,0.7-1.1,1.3-1.4
		c0.5-0.3,1.2-0.5,1.9-0.5c1,0,1.9,0.3,2.5,1c0.6,0.7,0.9,1.6,0.9,2.8v0.8h-4.9c0.1,0.5,0.3,0.9,0.6,1.2s0.8,0.5,1.3,0.5
		c0.8,0,1.4-0.3,1.8-0.9l1,1.1c-0.3,0.4-0.7,0.8-1.2,1C579.9,481.9,579.3,482,578.7,482z M578.4,475.7c-0.4,0-0.7,0.1-1,0.4
		c-0.3,0.3-0.4,0.7-0.5,1.2h2.8v-0.2c0-0.5-0.1-0.8-0.4-1.1C579.2,475.8,578.9,475.7,578.4,475.7z"/>
	<path class="st10" d="M584.8,474.2l0.1,0.9c0.5-0.7,1.3-1,2.2-1c0.8,0,1.4,0.2,1.8,0.7c0.4,0.5,0.6,1.2,0.6,2.1v4.9h-2v-4.9
		c0-0.4-0.1-0.7-0.3-0.9c-0.2-0.2-0.5-0.3-0.9-0.3c-0.6,0-1,0.2-1.3,0.7v5.4h-2v-7.6H584.8z"/>
	<path class="st10" d="M593.5,472.3v1.9h1.3v1.5h-1.3v3.8c0,0.3,0.1,0.5,0.2,0.6c0.1,0.1,0.3,0.2,0.6,0.2c0.2,0,0.4,0,0.6,0v1.5
		c-0.4,0.1-0.8,0.2-1.2,0.2c-1.4,0-2.2-0.7-2.2-2.2v-4.1h-1.1v-1.5h1.1v-1.9H593.5z"/>
	<path class="st10" d="M598.1,481.8h-2V471h2V481.8z"/>
	<path class="st10" d="M599.7,472.2c0-0.3,0.1-0.6,0.3-0.8c0.2-0.2,0.5-0.3,0.8-0.3c0.3,0,0.6,0.1,0.8,0.3s0.3,0.4,0.3,0.8
		c0,0.3-0.1,0.6-0.3,0.8c-0.2,0.2-0.5,0.3-0.8,0.3c-0.3,0-0.6-0.1-0.8-0.3S599.7,472.5,599.7,472.2z M601.9,481.8h-2v-7.6h2V481.8z"
		/>
	<path class="st10" d="M606.7,480.3c0.4,0,0.7-0.1,0.9-0.3c0.2-0.2,0.4-0.5,0.4-0.8h1.9c0,0.5-0.1,1-0.4,1.4c-0.3,0.4-0.7,0.8-1.1,1
		c-0.5,0.2-1,0.4-1.6,0.4c-1.1,0-2-0.3-2.6-1c-0.6-0.7-0.9-1.7-0.9-2.9v-0.1c0-1.2,0.3-2.1,0.9-2.8c0.6-0.7,1.5-1,2.6-1
		c1,0,1.7,0.3,2.3,0.8c0.6,0.5,0.9,1.3,0.9,2.2H608c0-0.4-0.1-0.7-0.4-1c-0.2-0.2-0.5-0.4-0.9-0.4c-0.5,0-0.8,0.2-1.1,0.5
		c-0.2,0.3-0.4,0.9-0.4,1.7v0.2c0,0.8,0.1,1.4,0.4,1.7S606.3,480.3,606.7,480.3z"/>
	<path class="st10" d="M613.1,475c0.5-0.6,1.2-1,2-1c1.7,0,2.5,1,2.5,2.9v4.9h-2V477c0-0.4-0.1-0.8-0.3-1c-0.2-0.2-0.5-0.3-0.9-0.3
		c-0.6,0-1,0.2-1.3,0.7v5.4h-2V471h2V475z"/>
	<path class="st10" d="M622.7,482c-1.1,0-2-0.3-2.7-1c-0.7-0.7-1.1-1.6-1.1-2.7V478c0-0.8,0.1-1.5,0.4-2.1c0.3-0.6,0.7-1.1,1.3-1.4
		c0.5-0.3,1.2-0.5,1.9-0.5c1,0,1.9,0.3,2.5,1c0.6,0.7,0.9,1.6,0.9,2.8v0.8H621c0.1,0.5,0.3,0.9,0.6,1.2s0.8,0.5,1.3,0.5
		c0.8,0,1.4-0.3,1.8-0.9l1,1.1c-0.3,0.4-0.7,0.8-1.2,1C623.9,481.9,623.3,482,622.7,482z M622.5,475.7c-0.4,0-0.7,0.1-1,0.4
		c-0.3,0.3-0.4,0.7-0.5,1.2h2.8v-0.2c0-0.5-0.1-0.8-0.4-1.1C623.2,475.8,622.9,475.7,622.5,475.7z"/>
</g>
<g class="st9">
	<path class="st10" d="M541.1,496.7l2.3-7.7h2.4l-3.6,10.3H540l-3.6-10.3h2.3L541.1,496.7z"/>
	<path class="st10" d="M549.8,499.4c-1.1,0-2-0.3-2.7-1c-0.7-0.7-1.1-1.6-1.1-2.7v-0.2c0-0.8,0.1-1.5,0.4-2.1
		c0.3-0.6,0.7-1.1,1.3-1.4c0.5-0.3,1.2-0.5,1.9-0.5c1,0,1.9,0.3,2.5,1c0.6,0.7,0.9,1.6,0.9,2.8v0.8h-4.9c0.1,0.5,0.3,0.9,0.6,1.2
		c0.3,0.3,0.8,0.5,1.3,0.5c0.8,0,1.4-0.3,1.8-0.9l1,1.1c-0.3,0.4-0.7,0.8-1.2,1C551,499.3,550.5,499.4,549.8,499.4z M549.6,493.1
		c-0.4,0-0.7,0.1-1,0.4c-0.3,0.3-0.4,0.7-0.5,1.2h2.8v-0.2c0-0.5-0.1-0.8-0.4-1.1C550.4,493.2,550,493.1,549.6,493.1z"/>
	<path class="st10" d="M558.4,493.5c-0.3,0-0.5-0.1-0.7-0.1c-0.8,0-1.3,0.3-1.5,0.8v5h-2v-7.6h1.9l0.1,0.9c0.4-0.7,1-1,1.7-1
		c0.2,0,0.4,0,0.6,0.1L558.4,493.5z"/>
	<path class="st10" d="M563.6,499.2c-0.1-0.2-0.2-0.4-0.2-0.7c-0.5,0.5-1.1,0.8-1.9,0.8c-0.7,0-1.4-0.2-1.9-0.6s-0.7-1-0.7-1.6
		c0-0.8,0.3-1.4,0.9-1.9s1.5-0.7,2.6-0.7h0.9v-0.4c0-0.4-0.1-0.6-0.3-0.8c-0.2-0.2-0.5-0.3-0.9-0.3c-0.3,0-0.6,0.1-0.8,0.2
		c-0.2,0.2-0.3,0.4-0.3,0.7h-2c0-0.4,0.1-0.9,0.4-1.2c0.3-0.4,0.7-0.7,1.2-0.9s1.1-0.3,1.7-0.3c0.9,0,1.7,0.2,2.2,0.7
		c0.6,0.5,0.8,1.1,0.8,2v3.3c0,0.7,0.1,1.3,0.3,1.6v0.1H563.6z M561.9,497.8c0.3,0,0.6-0.1,0.8-0.2s0.4-0.3,0.6-0.5v-1.3h-0.8
		c-1,0-1.6,0.4-1.6,1.1l0,0.1c0,0.3,0.1,0.5,0.3,0.6C561.4,497.7,561.6,497.8,561.9,497.8z"/>
	<path class="st10" d="M568.8,491.6l0.1,0.9c0.5-0.7,1.3-1,2.2-1c0.8,0,1.4,0.2,1.8,0.7c0.4,0.5,0.6,1.2,0.6,2.1v4.9h-2v-4.9
		c0-0.4-0.1-0.7-0.3-0.9s-0.5-0.3-0.9-0.3c-0.6,0-1,0.2-1.3,0.7v5.4h-2v-7.6H568.8z"/>
	<path class="st10" d="M579.1,497.1c0-0.2-0.1-0.4-0.4-0.6c-0.2-0.1-0.6-0.3-1.2-0.4c-1.8-0.4-2.7-1.2-2.7-2.3
		c0-0.7,0.3-1.2,0.8-1.7c0.6-0.5,1.3-0.7,2.2-0.7c1,0,1.7,0.2,2.3,0.7c0.6,0.5,0.9,1,0.9,1.8h-2c0-0.3-0.1-0.5-0.3-0.7
		s-0.5-0.3-0.9-0.3c-0.3,0-0.6,0.1-0.8,0.2c-0.2,0.2-0.3,0.4-0.3,0.6c0,0.2,0.1,0.4,0.3,0.5c0.2,0.1,0.6,0.3,1.1,0.4
		c0.5,0.1,0.9,0.2,1.3,0.3c1.1,0.4,1.6,1.1,1.6,2.1c0,0.7-0.3,1.3-0.9,1.7c-0.6,0.4-1.4,0.6-2.3,0.6c-0.6,0-1.2-0.1-1.7-0.3
		c-0.5-0.2-0.9-0.5-1.2-0.9c-0.3-0.4-0.4-0.8-0.4-1.3h1.9c0,0.4,0.2,0.6,0.4,0.8c0.2,0.2,0.6,0.3,1,0.3c0.4,0,0.7-0.1,0.9-0.2
		C579,497.6,579.1,497.4,579.1,497.1z"/>
	<path class="st10" d="M584.9,489.7v1.9h1.3v1.5h-1.3v3.8c0,0.3,0.1,0.5,0.2,0.6c0.1,0.1,0.3,0.2,0.6,0.2c0.2,0,0.4,0,0.6,0v1.5
		c-0.4,0.1-0.8,0.2-1.2,0.2c-1.4,0-2.2-0.7-2.2-2.2v-4.1h-1.1v-1.5h1.1v-1.9H584.9z"/>
	<path class="st10" d="M591.7,499.2c-0.1-0.2-0.2-0.4-0.2-0.7c-0.5,0.5-1.1,0.8-1.9,0.8c-0.7,0-1.4-0.2-1.9-0.6
		c-0.5-0.4-0.7-1-0.7-1.6c0-0.8,0.3-1.4,0.9-1.9c0.6-0.4,1.5-0.7,2.6-0.7h0.9v-0.4c0-0.4-0.1-0.6-0.3-0.8c-0.2-0.2-0.5-0.3-0.9-0.3
		c-0.3,0-0.6,0.1-0.8,0.2c-0.2,0.2-0.3,0.4-0.3,0.7h-2c0-0.4,0.1-0.9,0.4-1.2s0.7-0.7,1.2-0.9s1.1-0.3,1.7-0.3
		c0.9,0,1.7,0.2,2.2,0.7c0.6,0.5,0.8,1.1,0.8,2v3.3c0,0.7,0.1,1.3,0.3,1.6v0.1H591.7z M590.1,497.8c0.3,0,0.6-0.1,0.8-0.2
		s0.4-0.3,0.6-0.5v-1.3h-0.8c-1,0-1.6,0.4-1.6,1.1l0,0.1c0,0.3,0.1,0.5,0.3,0.6C589.5,497.7,589.7,497.8,590.1,497.8z"/>
	<path class="st10" d="M597.2,499.2h-2v-10.8h2V499.2z"/>
	<path class="st10" d="M601,499.2h-2v-10.8h2V499.2z"/>
	<path class="st10" d="M605.2,489.7v1.9h1.3v1.5h-1.3v3.8c0,0.3,0.1,0.5,0.2,0.6c0.1,0.1,0.3,0.2,0.6,0.2c0.2,0,0.4,0,0.6,0v1.5
		c-0.4,0.1-0.8,0.2-1.2,0.2c-1.4,0-2.2-0.7-2.2-2.2v-4.1H602v-1.5h1.1v-1.9H605.2z"/>
	<path class="st10" d="M612.2,498.5c-0.5,0.6-1.2,0.9-2.1,0.9c-0.8,0-1.4-0.2-1.9-0.7c-0.4-0.5-0.6-1.2-0.7-2.1v-5h2v4.9
		c0,0.8,0.4,1.2,1.1,1.2c0.7,0,1.2-0.2,1.4-0.7v-5.4h2v7.6h-1.9L612.2,498.5z"/>
	<path class="st10" d="M617.6,491.6l0.1,0.9c0.5-0.7,1.3-1,2.2-1c0.8,0,1.4,0.2,1.8,0.7c0.4,0.5,0.6,1.2,0.6,2.1v4.9h-2v-4.9
		c0-0.4-0.1-0.7-0.3-0.9s-0.5-0.3-0.9-0.3c-0.6,0-1,0.2-1.3,0.7v5.4h-2v-7.6H617.6z"/>
	<path class="st10" d="M623.5,495.4c0-1.2,0.3-2.1,0.8-2.8c0.6-0.7,1.3-1.1,2.3-1.1c0.8,0,1.5,0.3,2,0.9l0.1-0.7h1.8v7.4
		c0,0.7-0.2,1.2-0.5,1.7c-0.3,0.5-0.7,0.9-1.3,1.1c-0.5,0.3-1.2,0.4-1.9,0.4c-0.6,0-1.1-0.1-1.6-0.3c-0.5-0.2-0.9-0.5-1.2-0.9
		l0.9-1.2c0.5,0.6,1.1,0.9,1.8,0.9c0.5,0,1-0.1,1.3-0.4c0.3-0.3,0.5-0.7,0.5-1.2v-0.4c-0.5,0.5-1.1,0.8-1.9,0.8
		c-0.9,0-1.7-0.4-2.2-1.1S623.5,496.6,623.5,495.4L623.5,495.4z M625.5,495.5c0,0.7,0.1,1.2,0.4,1.6c0.3,0.4,0.7,0.6,1.1,0.6
		c0.6,0,1.1-0.2,1.3-0.7v-3.2c-0.3-0.5-0.7-0.7-1.3-0.7c-0.5,0-0.9,0.2-1.2,0.6C625.6,494.1,625.5,494.7,625.5,495.5z"/>
	<path class="st10" d="M635.5,499.4c-1.1,0-2-0.3-2.7-1c-0.7-0.7-1.1-1.6-1.1-2.7v-0.2c0-0.8,0.1-1.5,0.4-2.1
		c0.3-0.6,0.7-1.1,1.3-1.4c0.5-0.3,1.2-0.5,1.9-0.5c1,0,1.9,0.3,2.5,1c0.6,0.7,0.9,1.6,0.9,2.8v0.8h-4.9c0.1,0.5,0.3,0.9,0.6,1.2
		c0.3,0.3,0.8,0.5,1.3,0.5c0.8,0,1.4-0.3,1.8-0.9l1,1.1c-0.3,0.4-0.7,0.8-1.2,1C636.7,499.3,636.2,499.4,635.5,499.4z M635.3,493.1
		c-0.4,0-0.7,0.1-1,0.4c-0.3,0.3-0.4,0.7-0.5,1.2h2.8v-0.2c0-0.5-0.1-0.8-0.4-1.1S635.7,493.1,635.3,493.1z"/>
	<path class="st10" d="M641.7,491.6l0.1,0.9c0.5-0.7,1.3-1,2.2-1c0.8,0,1.4,0.2,1.8,0.7c0.4,0.5,0.6,1.2,0.6,2.1v4.9h-2v-4.9
		c0-0.4-0.1-0.7-0.3-0.9c-0.2-0.2-0.5-0.3-0.9-0.3c-0.6,0-1,0.2-1.3,0.7v5.4h-2v-7.6H641.7z"/>
</g>
<g class="st9">
	<path class="st10" d="M115.2,278h8.3v11.7h-8.3v15.8h-14.5v-15.8h-30l-0.7-9.1l30.5-48.1h14.7V278z M84.6,278h16.2v-25.8l-1,1.7
		L84.6,278z"/>
	<path class="st10" d="M180.9,240.5l-28.2,65h-15.3l28.3-61.4h-36.3v-11.7h51.6V240.5z"/>
	<path class="st10" d="M239.4,275.3c0,10.1-2.1,17.8-6.3,23.2c-4.2,5.4-10.3,8-18.4,8c-8,0-14-2.6-18.3-7.9
		c-4.2-5.3-6.4-12.8-6.5-22.6v-13.4c0-10.2,2.1-17.9,6.3-23.2s10.3-7.9,18.3-7.9s14,2.6,18.3,7.9s6.4,12.8,6.5,22.6V275.3z
		 M224.9,260.5c0-6.1-0.8-10.5-2.5-13.2c-1.7-2.8-4.2-4.1-7.8-4.1c-3.4,0-5.9,1.3-7.6,3.9c-1.6,2.6-2.5,6.7-2.6,12.3v17.8
		c0,6,0.8,10.4,2.4,13.3c1.6,2.9,4.2,4.3,7.8,4.3c3.5,0,6.1-1.4,7.7-4.2c1.6-2.8,2.4-7,2.5-12.8V260.5z"/>
</g>
<g class="st9">
	<path class="st10" d="M76.6,342.2c0-1-0.4-1.8-1.1-2.3c-0.7-0.5-2-1.1-3.8-1.7c-1.8-0.6-3.3-1.2-4.4-1.8c-2.9-1.6-4.4-3.7-4.4-6.4
		c0-1.4,0.4-2.6,1.2-3.7c0.8-1.1,1.9-1.9,3.4-2.6c1.5-0.6,3.1-0.9,4.9-0.9c1.8,0,3.5,0.3,4.9,1s2.6,1.6,3.4,2.8
		c0.8,1.2,1.2,2.6,1.2,4.1h-5.3c0-1.2-0.4-2.1-1.1-2.8c-0.7-0.7-1.8-1-3.1-1c-1.3,0-2.3,0.3-3,0.8c-0.7,0.5-1.1,1.3-1.1,2.2
		c0,0.8,0.4,1.5,1.3,2.1s2.1,1.1,3.7,1.6c3,0.9,5.2,2,6.6,3.4c1.4,1.3,2.1,3,2.1,5c0,2.2-0.8,4-2.5,5.2c-1.7,1.3-4,1.9-6.8,1.9
		c-2,0-3.8-0.4-5.4-1.1c-1.6-0.7-2.9-1.7-3.7-3c-0.9-1.3-1.3-2.7-1.3-4.4h5.3c0,2.8,1.7,4.3,5.1,4.3c1.3,0,2.2-0.3,3-0.8
		C76.2,343.9,76.6,343.2,76.6,342.2z"/>
	<path class="st10" d="M102.4,339.6c0,2.9-0.7,5.3-2,7.1c-1.3,1.8-3.1,2.7-5.4,2.7c-1.9,0-3.5-0.7-4.7-2v9h-5.1v-26.5h4.7l0.2,1.9
		c1.2-1.5,2.9-2.2,4.8-2.2c2.4,0,4.2,0.9,5.5,2.6c1.3,1.7,2,4.2,2,7.2V339.6z M97.3,339.2c0-1.8-0.3-3.2-0.9-4.1s-1.5-1.5-2.8-1.5
		c-1.6,0-2.7,0.6-3.3,1.8v7.9c0.6,1.3,1.7,1.9,3.3,1.9C96.1,345.2,97.3,343.2,97.3,339.2z"/>
	<path class="st10" d="M104.8,339.2c0-1.9,0.4-3.6,1.1-5.1c0.7-1.5,1.8-2.6,3.2-3.4c1.4-0.8,3-1.2,4.8-1.2c2.6,0,4.7,0.8,6.3,2.4
		c1.6,1.6,2.5,3.7,2.7,6.4l0,1.3c0,2.9-0.8,5.3-2.5,7.1c-1.6,1.8-3.8,2.7-6.6,2.7c-2.8,0-5-0.9-6.6-2.7c-1.6-1.8-2.5-4.2-2.5-7.2
		V339.2z M109.9,339.6c0,1.8,0.3,3.2,1,4.2c0.7,1,1.7,1.4,2.9,1.4c1.2,0,2.2-0.5,2.9-1.4c0.7-1,1-2.5,1-4.6c0-1.8-0.3-3.2-1-4.1
		s-1.7-1.5-2.9-1.5c-1.2,0-2.2,0.5-2.9,1.5C110.2,336.1,109.9,337.6,109.9,339.6z"/>
	<path class="st10" d="M130.8,329.9l0.2,2.2c1.4-1.7,3.2-2.6,5.5-2.6c2,0,3.5,0.6,4.5,1.8c1,1.2,1.5,3,1.5,5.3V349h-5.1v-12.3
		c0-1.1-0.2-1.9-0.7-2.4c-0.5-0.5-1.3-0.7-2.4-0.7c-1.4,0-2.5,0.6-3.2,1.8V349h-5.1v-19.1H130.8z"/>
	<path class="st10" d="M156.7,343.7c0-0.6-0.3-1.1-0.9-1.5s-1.6-0.7-3-1c-4.6-1-6.8-2.9-6.8-5.8c0-1.7,0.7-3.1,2.1-4.3
		s3.3-1.7,5.5-1.7c2.4,0,4.4,0.6,5.8,1.7c1.5,1.1,2.2,2.6,2.2,4.5h-5.1c0-0.7-0.2-1.3-0.7-1.8c-0.5-0.5-1.2-0.7-2.2-0.7
		c-0.9,0-1.5,0.2-2,0.6c-0.5,0.4-0.7,0.9-0.7,1.5c0,0.6,0.3,1,0.8,1.4s1.4,0.6,2.7,0.9s2.3,0.5,3.2,0.9c2.7,1,4.1,2.7,4.1,5.1
		c0,1.7-0.7,3.2-2.2,4.2c-1.5,1.1-3.4,1.6-5.8,1.6c-1.6,0-3-0.3-4.3-0.9c-1.2-0.6-2.2-1.4-2.9-2.4s-1.1-2.1-1.1-3.2h4.8
		c0,0.9,0.4,1.6,1,2.1s1.5,0.7,2.5,0.7c1,0,1.7-0.2,2.2-0.6C156.5,344.8,156.7,344.3,156.7,343.7z"/>
	<path class="st10" d="M164.2,339.2c0-1.9,0.4-3.6,1.1-5.1c0.7-1.5,1.8-2.6,3.2-3.4c1.4-0.8,3-1.2,4.8-1.2c2.6,0,4.7,0.8,6.3,2.4
		c1.6,1.6,2.5,3.7,2.7,6.4l0,1.3c0,2.9-0.8,5.3-2.5,7.1c-1.6,1.8-3.8,2.7-6.6,2.7c-2.8,0-5-0.9-6.6-2.7c-1.6-1.8-2.5-4.2-2.5-7.2
		V339.2z M169.3,339.6c0,1.8,0.3,3.2,1,4.2c0.7,1,1.7,1.4,2.9,1.4c1.2,0,2.2-0.5,2.9-1.4c0.7-1,1-2.5,1-4.6c0-1.8-0.3-3.2-1-4.1
		c-0.7-1-1.7-1.5-2.9-1.5c-1.2,0-2.2,0.5-2.9,1.5C169.6,336.1,169.3,337.6,169.3,339.6z"/>
	<path class="st10" d="M196.2,334.6c-0.7-0.1-1.3-0.1-1.8-0.1c-1.9,0-3.2,0.7-3.8,2V349h-5.1v-19.1h4.8l0.1,2.3
		c1-1.8,2.4-2.6,4.3-2.6c0.6,0,1.1,0.1,1.6,0.2L196.2,334.6z"/>
	<path class="st10" d="M207.1,349.3c-2.8,0-5.1-0.9-6.9-2.6s-2.6-4-2.6-6.9v-0.5c0-1.9,0.4-3.6,1.1-5.2c0.7-1.5,1.8-2.7,3.2-3.5
		c1.4-0.8,2.9-1.2,4.7-1.2c2.6,0,4.7,0.8,6.2,2.5c1.5,1.7,2.3,4,2.3,7v2.1h-12.2c0.2,1.2,0.7,2.3,1.5,3c0.8,0.8,1.9,1.1,3.2,1.1
		c2,0,3.5-0.7,4.6-2.1l2.5,2.8c-0.8,1.1-1.8,1.9-3.1,2.5C210.2,349,208.7,349.3,207.1,349.3z M206.6,333.6c-1,0-1.8,0.3-2.5,1
		c-0.6,0.7-1,1.7-1.2,2.9h7.1v-0.4c0-1.1-0.3-2-0.9-2.6S207.6,333.6,206.6,333.6z"/>
	<path class="st10" d="M222.6,329.9l0.2,2.2c1.4-1.7,3.2-2.6,5.5-2.6c2,0,3.5,0.6,4.5,1.8c1,1.2,1.5,3,1.5,5.3V349h-5.1v-12.3
		c0-1.1-0.2-1.9-0.7-2.4c-0.5-0.5-1.3-0.7-2.4-0.7c-1.4,0-2.5,0.6-3.2,1.8V349h-5.1v-19.1H222.6z"/>
	<path class="st10" d="M248.1,340h-10v-4.1h10V340z"/>
</g>
<g class="st9">
	<path class="st10" d="M80.8,368.5v4.7h3.3v3.8h-3.3v9.6c0,0.7,0.1,1.2,0.4,1.5c0.3,0.3,0.8,0.5,1.6,0.5c0.6,0,1.1,0,1.5-0.1v3.9
		c-1,0.3-2,0.5-3.1,0.5c-3.6,0-5.4-1.8-5.5-5.4V377h-2.8v-3.8h2.8v-4.7H80.8z"/>
	<path class="st10" d="M95.8,392.7c-2.8,0-5.1-0.9-6.9-2.6c-1.8-1.7-2.6-4-2.6-6.9v-0.5c0-1.9,0.4-3.6,1.1-5.2
		c0.7-1.5,1.8-2.7,3.2-3.5c1.4-0.8,2.9-1.2,4.7-1.2c2.6,0,4.7,0.8,6.2,2.5c1.5,1.7,2.3,4,2.3,7v2.1H91.4c0.2,1.2,0.7,2.3,1.5,3
		c0.8,0.8,1.9,1.1,3.2,1.1c2,0,3.5-0.7,4.6-2.1l2.5,2.8c-0.8,1.1-1.8,1.9-3.1,2.5C98.8,392.4,97.3,392.7,95.8,392.7z M95.2,377
		c-1,0-1.8,0.3-2.5,1c-0.6,0.7-1,1.7-1.2,2.9h7.1v-0.4c0-1.1-0.3-2-0.9-2.6C97.1,377.3,96.3,377,95.2,377z"/>
	<path class="st10" d="M111.9,392.4h-5.1v-27.2h5.1V392.4z"/>
	<path class="st10" d="M124.9,392.7c-2.8,0-5.1-0.9-6.9-2.6c-1.8-1.7-2.6-4-2.6-6.9v-0.5c0-1.9,0.4-3.6,1.1-5.2
		c0.7-1.5,1.8-2.7,3.2-3.5c1.4-0.8,2.9-1.2,4.7-1.2c2.6,0,4.7,0.8,6.2,2.5c1.5,1.7,2.3,4,2.3,7v2.1h-12.2c0.2,1.2,0.7,2.3,1.5,3
		c0.8,0.8,1.9,1.1,3.2,1.1c2,0,3.5-0.7,4.6-2.1l2.5,2.8c-0.8,1.1-1.8,1.9-3.1,2.5C128,392.4,126.5,392.7,124.9,392.7z M124.4,377
		c-1,0-1.8,0.3-2.5,1c-0.6,0.7-1,1.7-1.2,2.9h7.1v-0.4c0-1.1-0.3-2-0.9-2.6C126.3,377.3,125.4,377,124.4,377z"/>
	<path class="st10" d="M137.1,392.4V377h-2.8v-3.8h2.8v-1.6c0-2.1,0.6-3.8,1.8-5s3-1.8,5.2-1.8c0.7,0,1.6,0.1,2.6,0.4l-0.1,3.9
		c-0.4-0.1-0.9-0.2-1.6-0.2c-1.9,0-2.9,0.9-2.9,2.7v1.6h3.8v3.8h-3.8v15.4H137.1z"/>
	<path class="st10" d="M147.9,382.6c0-1.9,0.4-3.6,1.1-5.1c0.7-1.5,1.8-2.6,3.2-3.4c1.4-0.8,3-1.2,4.8-1.2c2.6,0,4.7,0.8,6.3,2.4
		c1.6,1.6,2.5,3.7,2.7,6.4l0,1.3c0,2.9-0.8,5.3-2.5,7.1c-1.6,1.8-3.8,2.7-6.6,2.7c-2.8,0-5-0.9-6.6-2.7c-1.6-1.8-2.5-4.2-2.5-7.2
		V382.6z M153,383c0,1.8,0.3,3.2,1,4.2c0.7,1,1.7,1.4,2.9,1.4c1.2,0,2.2-0.5,2.9-1.4c0.7-1,1-2.5,1-4.6c0-1.8-0.3-3.2-1-4.1
		s-1.7-1.5-2.9-1.5c-1.2,0-2.2,0.5-2.9,1.5C153.4,379.5,153,381,153,383z"/>
	<path class="st10" d="M173.9,373.3l0.2,2.2c1.4-1.7,3.2-2.6,5.5-2.6c2,0,3.5,0.6,4.5,1.8c1,1.2,1.5,3,1.5,5.3v12.4h-5.1v-12.3
		c0-1.1-0.2-1.9-0.7-2.4c-0.5-0.5-1.3-0.7-2.4-0.7c-1.4,0-2.5,0.6-3.2,1.8v13.5h-5.1v-19.1H173.9z"/>
	<path class="st10" d="M200.6,392.4c-0.2-0.5-0.4-1-0.5-1.7c-1.2,1.4-2.8,2.1-4.8,2.1c-1.9,0-3.4-0.5-4.7-1.6s-1.8-2.5-1.8-4.1
		c0-2,0.8-3.6,2.3-4.7s3.7-1.6,6.5-1.6h2.4v-1.1c0-0.9-0.2-1.6-0.7-2.1s-1.2-0.8-2.1-0.8c-0.9,0-1.5,0.2-2,0.6
		c-0.5,0.4-0.7,1-0.7,1.7h-5.1c0-1.1,0.3-2.1,1-3.1c0.7-0.9,1.7-1.7,2.9-2.2c1.2-0.5,2.7-0.8,4.2-0.8c2.4,0,4.2,0.6,5.6,1.8
		c1.4,1.2,2.1,2.9,2.1,5v8.3c0,1.8,0.3,3.2,0.8,4.1v0.3H200.6z M196.3,388.8c0.8,0,1.5-0.2,2.1-0.5c0.6-0.3,1.1-0.8,1.4-1.4v-3.3
		h-1.9c-2.6,0-3.9,0.9-4.1,2.7l0,0.3c0,0.6,0.2,1.2,0.7,1.6C194.9,388.6,195.6,388.8,196.3,388.8z"/>
	<path class="st10" d="M215,368.5v4.7h3.3v3.8H215v9.6c0,0.7,0.1,1.2,0.4,1.5s0.8,0.5,1.6,0.5c0.6,0,1.1,0,1.5-0.1v3.9
		c-1,0.3-2,0.5-3.1,0.5c-3.6,0-5.4-1.8-5.5-5.4V377h-2.8v-3.8h2.8v-4.7H215z"/>
	<path class="st10" d="M229.9,392.7c-2.8,0-5.1-0.9-6.9-2.6s-2.6-4-2.6-6.9v-0.5c0-1.9,0.4-3.6,1.1-5.2c0.7-1.5,1.8-2.7,3.2-3.5
		c1.4-0.8,2.9-1.2,4.7-1.2c2.6,0,4.7,0.8,6.2,2.5c1.5,1.7,2.3,4,2.3,7v2.1h-12.2c0.2,1.2,0.7,2.3,1.5,3c0.8,0.8,1.9,1.1,3.2,1.1
		c2,0,3.5-0.7,4.6-2.1l2.5,2.8c-0.8,1.1-1.8,1.9-3.1,2.5C233,392.4,231.5,392.7,229.9,392.7z M229.4,377c-1,0-1.8,0.3-2.5,1
		c-0.6,0.7-1,1.7-1.2,2.9h7.1v-0.4c0-1.1-0.3-2-0.9-2.6S230.4,377,229.4,377z"/>
</g>
<g class="st9">
	<path class="st10" d="M171.4,537.8h-10.3v-39.7l-12.3,3.8v-8.3l21.4-7.7h1.1V537.8z"/>
	<path class="st10" d="M223.1,516.5c0,7.2-1.5,12.6-4.4,16.4c-3,3.8-7.3,5.7-13,5.7c-5.6,0-10-1.9-12.9-5.6c-3-3.7-4.5-9.1-4.6-16
		v-9.5c0-7.2,1.5-12.7,4.5-16.5c3-3.7,7.3-5.6,13-5.6c5.6,0,10,1.9,12.9,5.6c3,3.7,4.5,9,4.6,16V516.5z M212.8,506
		c0-4.3-0.6-7.4-1.8-9.4s-3-2.9-5.5-2.9c-2.4,0-4.2,0.9-5.3,2.8c-1.1,1.9-1.8,4.8-1.8,8.7v12.6c0,4.2,0.6,7.4,1.7,9.4
		c1.1,2.1,3,3.1,5.5,3.1c2.5,0,4.3-1,5.4-3s1.7-5,1.7-9V506z"/>
	<path class="st10" d="M265.2,491.8l-20,46h-10.8l20-43.5h-25.7v-8.3h36.5V491.8z"/>
</g>
<g class="st9">
	<path class="st10" d="M164.4,562.2v6.4h-3.8v-18.2h7.1c1.4,0,2.6,0.2,3.6,0.8c1,0.5,1.8,1.2,2.4,2.1c0.6,0.9,0.8,2,0.8,3.2
		c0,1.8-0.6,3.2-1.8,4.2s-2.9,1.5-5.1,1.5H164.4z M164.4,559.2h3.4c1,0,1.8-0.2,2.3-0.7s0.8-1.1,0.8-2c0-0.9-0.3-1.6-0.8-2.2
		c-0.5-0.6-1.3-0.8-2.2-0.9h-3.4V559.2z"/>
	<path class="st10" d="M184.5,558.5c-0.5-0.1-0.9-0.1-1.3-0.1c-1.4,0-2.3,0.5-2.7,1.4v8.9h-3.6v-13.6h3.4l0.1,1.6
		c0.7-1.2,1.7-1.9,3-1.9c0.4,0,0.8,0.1,1.1,0.2L184.5,558.5z"/>
	<path class="st10" d="M185.3,561.7c0-1.3,0.3-2.5,0.8-3.6c0.5-1.1,1.3-1.9,2.2-2.4c1-0.6,2.1-0.9,3.4-0.9c1.8,0,3.3,0.6,4.5,1.7
		c1.2,1.1,1.8,2.6,1.9,4.6l0,0.9c0,2.1-0.6,3.7-1.7,5c-1.2,1.3-2.7,1.9-4.7,1.9c-2,0-3.5-0.6-4.7-1.9c-1.2-1.3-1.7-3-1.7-5.1V561.7z
		 M188.9,562c0,1.3,0.2,2.3,0.7,3c0.5,0.7,1.2,1,2.1,1c0.9,0,1.6-0.3,2.1-1c0.5-0.7,0.7-1.8,0.7-3.2c0-1.3-0.2-2.2-0.7-2.9
		c-0.5-0.7-1.2-1-2.1-1c-0.9,0-1.6,0.3-2.1,1C189.1,559.5,188.9,560.6,188.9,562z"/>
	<path class="st10" d="M204.2,555.1v14.3c0,1.5-0.4,2.7-1.2,3.5c-0.8,0.8-1.9,1.2-3.4,1.2c-0.6,0-1.2-0.1-1.8-0.2V571
		c0.4,0.1,0.8,0.1,1.1,0.1c1.1,0,1.6-0.6,1.6-1.7v-14.3H204.2z M200.2,551.6c0-0.5,0.2-1,0.5-1.3s0.9-0.5,1.5-0.5s1.1,0.2,1.5,0.5
		s0.5,0.8,0.5,1.3c0,0.6-0.2,1-0.6,1.4c-0.4,0.4-0.9,0.5-1.5,0.5s-1.1-0.2-1.5-0.5C200.4,552.6,200.2,552.1,200.2,551.6z"/>
	<path class="st10" d="M213.2,568.9c-2,0-3.6-0.6-4.9-1.8s-1.9-2.8-1.9-4.9v-0.4c0-1.4,0.3-2.6,0.8-3.7c0.5-1.1,1.3-1.9,2.2-2.5
		c1-0.6,2.1-0.9,3.3-0.9c1.9,0,3.3,0.6,4.4,1.8c1.1,1.2,1.6,2.8,1.6,5v1.5h-8.6c0.1,0.9,0.5,1.6,1.1,2.1c0.6,0.5,1.3,0.8,2.2,0.8
		c1.4,0,2.5-0.5,3.3-1.5l1.8,2c-0.5,0.8-1.3,1.4-2.2,1.8C215.4,568.7,214.4,568.9,213.2,568.9z M212.8,557.8c-0.7,0-1.3,0.2-1.7,0.7
		c-0.4,0.5-0.7,1.2-0.9,2.1h5v-0.3c0-0.8-0.2-1.4-0.7-1.9C214.2,558,213.6,557.8,212.8,557.8z"/>
	<path class="st10" d="M225.8,563.2l-1.3,1.3v4.1h-3.6v-19.2h3.6v10.7l0.7-0.9l3.5-4.1h4.3l-4.9,5.7l5.3,7.9h-4.2L225.8,563.2z"/>
	<path class="st10" d="M238.9,551.8v3.3h2.3v2.7h-2.3v6.8c0,0.5,0.1,0.9,0.3,1.1c0.2,0.2,0.6,0.3,1.1,0.3c0.4,0,0.8,0,1.1-0.1v2.7
		c-0.7,0.2-1.4,0.3-2.2,0.3c-2.5,0-3.8-1.3-3.9-3.8v-7.3h-2v-2.7h2v-3.3H238.9z"/>
	<path class="st10" d="M250.3,562.3h-7.1v-2.9h7.1V562.3z"/>
</g>
<g class="st9">
	<path class="st10" d="M149.3,599.4c-0.2-0.3-0.3-0.7-0.4-1.2c-0.9,1-2,1.5-3.4,1.5c-1.3,0-2.4-0.4-3.3-1.2
		c-0.9-0.8-1.3-1.7-1.3-2.9c0-1.4,0.5-2.5,1.6-3.3s2.6-1.2,4.6-1.2h1.7v-0.8c0-0.6-0.2-1.1-0.5-1.5c-0.3-0.4-0.8-0.6-1.5-0.6
		c-0.6,0-1.1,0.1-1.4,0.4s-0.5,0.7-0.5,1.2h-3.6c0-0.8,0.2-1.5,0.7-2.2c0.5-0.7,1.2-1.2,2.1-1.6c0.9-0.4,1.9-0.6,3-0.6
		c1.7,0,3,0.4,4,1.3c1,0.8,1.5,2,1.5,3.5v5.9c0,1.3,0.2,2.3,0.5,2.9v0.2H149.3z M146.3,596.9c0.5,0,1-0.1,1.5-0.4s0.8-0.6,1-1v-2.3
		h-1.4c-1.8,0-2.8,0.6-2.9,1.9l0,0.2c0,0.5,0.2,0.8,0.5,1.1C145.3,596.8,145.8,596.9,146.3,596.9z"/>
	<path class="st10" d="M162.8,589.3c-0.5-0.1-0.9-0.1-1.3-0.1c-1.4,0-2.3,0.5-2.7,1.4v8.9h-3.6v-13.6h3.4l0.1,1.6
		c0.7-1.2,1.7-1.9,3-1.9c0.4,0,0.8,0.1,1.1,0.2L162.8,589.3z"/>
	<path class="st10" d="M176.8,592.8c0,2.2-0.5,3.9-1.4,5.1c-0.9,1.2-2.2,1.8-3.9,1.8c-1.5,0-2.6-0.6-3.5-1.7l-0.2,1.4h-3.3v-19.2
		h3.6v6.9c0.8-1,1.9-1.5,3.3-1.5c1.7,0,3,0.6,3.9,1.8c0.9,1.2,1.4,2.9,1.4,5.1V592.8z M173.2,592.5c0-1.4-0.2-2.4-0.7-3
		c-0.4-0.6-1.1-0.9-1.9-0.9c-1.2,0-1.9,0.5-2.4,1.4v5.4c0.4,1,1.2,1.4,2.4,1.4c1.2,0,1.9-0.6,2.3-1.7
		C173.1,594.5,173.2,593.6,173.2,592.5z"/>
	<path class="st10" d="M185.3,599.7c-2,0-3.6-0.6-4.9-1.8s-1.9-2.8-1.9-4.9v-0.4c0-1.4,0.3-2.6,0.8-3.7c0.5-1.1,1.3-1.9,2.2-2.5
		c1-0.6,2.1-0.9,3.3-0.9c1.9,0,3.3,0.6,4.4,1.8c1.1,1.2,1.6,2.8,1.6,5v1.5h-8.6c0.1,0.9,0.5,1.6,1.1,2.1c0.6,0.5,1.3,0.8,2.2,0.8
		c1.4,0,2.5-0.5,3.3-1.5l1.8,2c-0.5,0.8-1.3,1.4-2.2,1.8C187.4,599.5,186.4,599.7,185.3,599.7z M184.9,588.6c-0.7,0-1.3,0.2-1.7,0.7
		c-0.4,0.5-0.7,1.2-0.9,2.1h5v-0.3c0-0.8-0.2-1.4-0.7-1.9C186.2,588.8,185.6,588.6,184.9,588.6z"/>
	<path class="st10" d="M192.9,582.4c0-0.5,0.2-1,0.5-1.3c0.4-0.4,0.9-0.5,1.5-0.5c0.6,0,1.1,0.2,1.5,0.5c0.4,0.4,0.6,0.8,0.6,1.3
		c0,0.6-0.2,1-0.6,1.4c-0.4,0.4-0.9,0.5-1.5,0.5c-0.6,0-1.1-0.2-1.5-0.5C193.1,583.4,192.9,582.9,192.9,582.4z M196.7,599.4h-3.6
		v-13.6h3.6V599.4z"/>
	<path class="st10" d="M204,582.6v3.3h2.3v2.7H204v6.8c0,0.5,0.1,0.9,0.3,1.1c0.2,0.2,0.6,0.3,1.1,0.3c0.4,0,0.8,0,1.1-0.1v2.7
		c-0.7,0.2-1.4,0.3-2.2,0.3c-2.5,0-3.8-1.3-3.9-3.8v-7.3h-2v-2.7h2v-3.3H204z"/>
	<path class="st10" d="M215.7,595.7c0-0.4-0.2-0.8-0.7-1c-0.4-0.3-1.1-0.5-2.1-0.7c-3.2-0.7-4.8-2-4.8-4.1c0-1.2,0.5-2.2,1.5-3
		c1-0.8,2.3-1.2,3.9-1.2c1.7,0,3.1,0.4,4.1,1.2c1,0.8,1.5,1.9,1.5,3.2h-3.6c0-0.5-0.2-0.9-0.5-1.3c-0.3-0.3-0.9-0.5-1.6-0.5
		c-0.6,0-1.1,0.1-1.4,0.4c-0.3,0.3-0.5,0.6-0.5,1.1c0,0.4,0.2,0.7,0.6,1c0.4,0.2,1,0.5,1.9,0.6c0.9,0.2,1.7,0.4,2.3,0.6
		c1.9,0.7,2.9,1.9,2.9,3.6c0,1.2-0.5,2.2-1.6,3c-1.1,0.8-2.4,1.1-4.1,1.1c-1.1,0-2.1-0.2-3-0.6s-1.6-1-2.1-1.7
		c-0.5-0.7-0.8-1.5-0.8-2.3h3.4c0,0.6,0.3,1.1,0.7,1.5s1,0.5,1.8,0.5c0.7,0,1.2-0.1,1.6-0.4S215.7,596.1,215.7,595.7z"/>
	<path class="st10" d="M225.9,582.6v3.3h2.3v2.7h-2.3v6.8c0,0.5,0.1,0.9,0.3,1.1c0.2,0.2,0.6,0.3,1.1,0.3c0.4,0,0.8,0,1.1-0.1v2.7
		c-0.7,0.2-1.4,0.3-2.2,0.3c-2.5,0-3.8-1.3-3.9-3.8v-7.3h-2v-2.7h2v-3.3H225.9z"/>
	<path class="st10" d="M238.1,599.4c-0.2-0.3-0.3-0.7-0.4-1.2c-0.9,1-2,1.5-3.4,1.5c-1.3,0-2.4-0.4-3.3-1.2
		c-0.9-0.8-1.3-1.7-1.3-2.9c0-1.4,0.5-2.5,1.6-3.3s2.6-1.2,4.6-1.2h1.7v-0.8c0-0.6-0.2-1.1-0.5-1.5c-0.3-0.4-0.8-0.6-1.5-0.6
		c-0.6,0-1.1,0.1-1.4,0.4s-0.5,0.7-0.5,1.2H230c0-0.8,0.2-1.5,0.7-2.2c0.5-0.7,1.2-1.2,2.1-1.6c0.9-0.4,1.9-0.6,3-0.6
		c1.7,0,3,0.4,4,1.3c1,0.8,1.5,2,1.5,3.5v5.9c0,1.3,0.2,2.3,0.5,2.9v0.2H238.1z M235.1,596.9c0.5,0,1-0.1,1.5-0.4s0.8-0.6,1-1v-2.3
		h-1.4c-1.8,0-2.8,0.6-2.9,1.9l0,0.2c0,0.5,0.2,0.8,0.5,1.1C234.1,596.8,234.5,596.9,235.1,596.9z"/>
	<path class="st10" d="M243.5,592.6c0-2.1,0.5-3.8,1.5-5c1-1.3,2.3-1.9,4-1.9c1.5,0,2.6,0.5,3.5,1.5l0.2-1.3h3.3V599
		c0,1.2-0.3,2.2-0.8,3.1c-0.5,0.9-1.3,1.5-2.3,2c-1,0.5-2.1,0.7-3.4,0.7c-1,0-2-0.2-2.9-0.6c-0.9-0.4-1.7-0.9-2.1-1.5l1.6-2.2
		c0.9,1,2,1.5,3.3,1.5c1,0,1.7-0.3,2.2-0.8c0.5-0.5,0.8-1.2,0.8-2.2v-0.7c-0.8,0.9-1.9,1.4-3.3,1.4c-1.6,0-2.9-0.6-4-1.9
		c-1-1.3-1.5-3-1.5-5.1V592.6z M247.1,592.8c0,1.2,0.2,2.2,0.7,2.9c0.5,0.7,1.2,1.1,2,1.1c1.1,0,1.9-0.4,2.4-1.2v-5.7
		c-0.5-0.8-1.3-1.2-2.3-1.2c-0.9,0-1.6,0.4-2,1.1C247.3,590.3,247.1,591.4,247.1,592.8z"/>
	<path class="st10" d="M264.9,599.7c-2,0-3.6-0.6-4.9-1.8s-1.9-2.8-1.9-4.9v-0.4c0-1.4,0.3-2.6,0.8-3.7c0.5-1.1,1.3-1.9,2.2-2.5
		c1-0.6,2.1-0.9,3.3-0.9c1.9,0,3.3,0.6,4.4,1.8c1.1,1.2,1.6,2.8,1.6,5v1.5h-8.6c0.1,0.9,0.5,1.6,1.1,2.1c0.6,0.5,1.3,0.8,2.2,0.8
		c1.4,0,2.5-0.5,3.3-1.5l1.8,2c-0.5,0.8-1.3,1.4-2.2,1.8C267,599.5,266,599.7,264.9,599.7z M264.5,588.6c-0.7,0-1.3,0.2-1.7,0.7
		c-0.4,0.5-0.7,1.2-0.9,2.1h5v-0.3c0-0.8-0.2-1.4-0.7-1.9S265.2,588.6,264.5,588.6z"/>
</g>
<g class="st9">
	<path class="st10" d="M409,450.7v5.7h-0.7c-3.2,0-5.7,0.9-7.6,2.5c-1.9,1.6-3.1,3.8-3.5,6.6c1.9-1.9,4.2-2.8,7.1-2.8
		c3.1,0,5.5,1.1,7.3,3.3c1.8,2.2,2.7,5.1,2.7,8.6c0,2.3-0.5,4.3-1.5,6.2c-1,1.8-2.4,3.3-4.2,4.3c-1.8,1-3.9,1.5-6.1,1.5
		c-3.7,0-6.7-1.3-9-3.9c-2.3-2.6-3.4-6-3.4-10.3v-2.5c0-3.8,0.7-7.2,2.2-10.1c1.4-2.9,3.5-5.2,6.2-6.8s5.8-2.4,9.4-2.4H409z
		 M402.2,468.3c-1.1,0-2.1,0.3-3.1,0.9c-0.9,0.6-1.6,1.4-2,2.3v2.1c0,2.3,0.5,4.1,1.4,5.5s2.2,2,3.9,2c1.5,0,2.7-0.6,3.6-1.8
		c0.9-1.2,1.4-2.7,1.4-4.6c0-1.9-0.5-3.4-1.4-4.6C405,468.8,403.7,468.3,402.2,468.3z"/>
	<path class="st10" d="M437.3,450.7v5.7h-0.7c-3.2,0-5.7,0.9-7.6,2.5s-3.1,3.8-3.5,6.6c1.9-1.9,4.2-2.8,7.1-2.8
		c3.1,0,5.5,1.1,7.3,3.3c1.8,2.2,2.7,5.1,2.7,8.6c0,2.3-0.5,4.3-1.5,6.2c-1,1.8-2.4,3.3-4.2,4.3c-1.8,1-3.9,1.5-6.1,1.5
		c-3.7,0-6.7-1.3-9-3.9c-2.3-2.6-3.4-6-3.4-10.3v-2.5c0-3.8,0.7-7.2,2.2-10.1s3.5-5.2,6.2-6.8c2.7-1.6,5.8-2.4,9.4-2.4H437.3z
		 M430.5,468.3c-1.1,0-2.1,0.3-3.1,0.9c-0.9,0.6-1.6,1.4-2,2.3v2.1c0,2.3,0.5,4.1,1.4,5.5s2.2,2,3.9,2c1.5,0,2.7-0.6,3.6-1.8
		c0.9-1.2,1.4-2.7,1.4-4.6c0-1.9-0.5-3.4-1.4-4.6C433.3,468.8,432.1,468.3,430.5,468.3z"/>
</g>
<g class="st9">
	<path class="st10" d="M371.7,496.7h-3.8V507h-2.5v-10.3h-3.7v-2.1h10.1V496.7z"/>
	<path class="st10" d="M376.9,507c-0.1-0.2-0.2-0.5-0.2-0.8c-0.6,0.7-1.4,1-2.3,1c-0.9,0-1.6-0.3-2.2-0.8c-0.6-0.5-0.9-1.2-0.9-2
		c0-1,0.4-1.7,1.1-2.2c0.7-0.5,1.8-0.8,3.1-0.8h1.1v-0.5c0-0.4-0.1-0.8-0.3-1s-0.6-0.4-1-0.4c-0.4,0-0.7,0.1-1,0.3s-0.4,0.5-0.4,0.8
		h-2.5c0-0.5,0.2-1,0.5-1.5c0.3-0.5,0.8-0.8,1.4-1.1s1.3-0.4,2-0.4c1.1,0,2,0.3,2.7,0.9s1,1.4,1,2.4v4c0,0.9,0.1,1.5,0.4,2v0.1
		H376.9z M374.9,505.3c0.4,0,0.7-0.1,1-0.2c0.3-0.2,0.5-0.4,0.7-0.7v-1.6h-0.9c-1.2,0-1.9,0.4-2,1.3l0,0.1c0,0.3,0.1,0.6,0.3,0.8
		C374.2,505.2,374.5,505.3,374.9,505.3z"/>
	<path class="st10" d="M380.5,502.3c0-1.4,0.3-2.5,1-3.4c0.7-0.9,1.6-1.3,2.7-1.3c1,0,1.8,0.3,2.4,1l0.1-0.9h2.2v8.9
		c0,0.8-0.2,1.5-0.5,2.1s-0.9,1-1.5,1.4c-0.7,0.3-1.4,0.5-2.3,0.5c-0.7,0-1.3-0.1-2-0.4c-0.6-0.3-1.1-0.6-1.5-1l1.1-1.5
		c0.6,0.7,1.4,1,2.2,1c0.7,0,1.2-0.2,1.5-0.5c0.4-0.3,0.5-0.8,0.5-1.5v-0.5c-0.6,0.6-1.3,1-2.2,1c-1.1,0-2-0.4-2.7-1.3s-1-2-1-3.4
		V502.3z M383,502.5c0,0.8,0.2,1.5,0.5,2c0.3,0.5,0.8,0.7,1.4,0.7c0.7,0,1.3-0.3,1.6-0.8v-3.9c-0.3-0.6-0.9-0.8-1.6-0.8
		c-0.6,0-1.1,0.2-1.4,0.7C383.2,500.8,383,501.6,383,502.5z"/>
	<path class="st10" d="M395.1,507.2c-1.3,0-2.4-0.4-3.3-1.2c-0.8-0.8-1.3-1.9-1.3-3.3v-0.2c0-0.9,0.2-1.7,0.5-2.5
		c0.4-0.7,0.9-1.3,1.5-1.7c0.7-0.4,1.4-0.6,2.2-0.6c1.3,0,2.2,0.4,3,1.2c0.7,0.8,1.1,1.9,1.1,3.4v1H393c0.1,0.6,0.3,1.1,0.7,1.4
		c0.4,0.4,0.9,0.5,1.5,0.5c0.9,0,1.7-0.3,2.2-1l1.2,1.4c-0.4,0.5-0.9,0.9-1.5,1.2S395.8,507.2,395.1,507.2z M394.8,499.6
		c-0.5,0-0.9,0.2-1.2,0.5s-0.5,0.8-0.6,1.4h3.4v-0.2c0-0.5-0.2-1-0.4-1.3S395.3,499.6,394.8,499.6z"/>
	<path class="st10" d="M412.9,502.5c0,1.5-0.3,2.6-0.9,3.4s-1.5,1.2-2.6,1.2c-1,0-1.8-0.4-2.4-1.1l-0.1,1h-2.2V494h2.5v4.7
		c0.6-0.7,1.3-1,2.2-1c1.1,0,2,0.4,2.6,1.2c0.6,0.8,1,2,1,3.5V502.5z M410.4,502.3c0-0.9-0.1-1.6-0.4-2c-0.3-0.4-0.7-0.6-1.3-0.6
		c-0.8,0-1.3,0.3-1.6,1v3.6c0.3,0.6,0.8,1,1.6,1c0.8,0,1.3-0.4,1.6-1.2C410.3,503.7,410.4,503.1,410.4,502.3z"/>
	<path class="st10" d="M414.3,495.4c0-0.4,0.1-0.7,0.4-0.9c0.2-0.2,0.6-0.4,1-0.4c0.4,0,0.8,0.1,1,0.4c0.2,0.2,0.4,0.5,0.4,0.9
		c0,0.4-0.1,0.7-0.4,0.9c-0.3,0.2-0.6,0.4-1,0.4c-0.4,0-0.7-0.1-1-0.4C414.5,496.1,414.3,495.8,414.3,495.4z M417,507h-2.5v-9.2h2.5
		V507z"/>
	<path class="st10" d="M424,504.5c0-0.3-0.1-0.5-0.4-0.7c-0.3-0.2-0.8-0.3-1.4-0.5c-2.2-0.5-3.3-1.4-3.3-2.8c0-0.8,0.3-1.5,1-2
		c0.7-0.5,1.6-0.8,2.7-0.8c1.2,0,2.1,0.3,2.8,0.8c0.7,0.5,1,1.3,1,2.1h-2.5c0-0.4-0.1-0.6-0.3-0.9s-0.6-0.3-1.1-0.3
		c-0.4,0-0.7,0.1-1,0.3c-0.2,0.2-0.3,0.4-0.3,0.7c0,0.3,0.1,0.5,0.4,0.7s0.7,0.3,1.3,0.4c0.6,0.1,1.1,0.3,1.5,0.4
		c1.3,0.5,1.9,1.3,1.9,2.5c0,0.8-0.4,1.5-1.1,2s-1.6,0.8-2.8,0.8c-0.8,0-1.5-0.1-2.1-0.4s-1.1-0.7-1.4-1.1c-0.3-0.5-0.5-1-0.5-1.6
		h2.3c0,0.4,0.2,0.8,0.5,1c0.3,0.2,0.7,0.3,1.2,0.3c0.5,0,0.8-0.1,1.1-0.3S424,504.8,424,504.5z"/>
	<path class="st10" d="M435.1,505h4.5v2h-7.6v-1.5l4.3-5.7h-4.2v-2h7.4v1.4L435.1,505z"/>
	<path class="st10" d="M446.6,506.1c-0.6,0.7-1.4,1.1-2.5,1.1c-1,0-1.7-0.3-2.3-0.8c-0.5-0.6-0.8-1.4-0.8-2.5v-6h2.5v5.9
		c0,1,0.4,1.4,1.3,1.4c0.8,0,1.4-0.3,1.7-0.9v-6.5h2.5v9.2h-2.3L446.6,506.1z"/>
	<path class="st10" d="M453.2,497.8l0.1,1c0.7-0.8,1.5-1.2,2.6-1.2c1.2,0,2,0.5,2.4,1.4c0.6-0.9,1.6-1.4,2.8-1.4
		c1,0,1.7,0.3,2.2,0.9c0.5,0.6,0.7,1.5,0.7,2.6v5.9h-2.5v-5.9c0-0.5-0.1-0.9-0.3-1.1c-0.2-0.2-0.6-0.4-1.1-0.4
		c-0.7,0-1.2,0.4-1.5,1.1l0,6.3h-2.5v-5.9c0-0.5-0.1-0.9-0.3-1.2c-0.2-0.2-0.6-0.4-1.1-0.4c-0.7,0-1.2,0.3-1.5,0.9v6.5h-2.5v-9.2
		H453.2z"/>
</g>
<g class="st9">
	<path class="st10" d="M391.8,523l-1.3,1.4v3.5h-2.5v-12.4h2.5v5.6l1.1-1.5l3.2-4.1h3.1l-4.4,5.5l4.5,6.9h-3L391.8,523z"/>
	<path class="st10" d="M404.1,527.9c-0.1-0.2-0.2-0.5-0.2-0.8c-0.6,0.7-1.4,1-2.3,1c-0.9,0-1.6-0.3-2.2-0.8c-0.6-0.5-0.9-1.2-0.9-2
		c0-1,0.4-1.7,1.1-2.2c0.7-0.5,1.8-0.8,3.1-0.8h1.1v-0.5c0-0.4-0.1-0.8-0.3-1s-0.6-0.4-1-0.4c-0.4,0-0.7,0.1-1,0.3s-0.4,0.5-0.4,0.8
		h-2.5c0-0.5,0.2-1,0.5-1.5c0.3-0.5,0.8-0.8,1.4-1.1s1.3-0.4,2-0.4c1.1,0,2,0.3,2.7,0.9s1,1.4,1,2.4v4c0,0.9,0.1,1.5,0.4,2v0.1
		H404.1z M402.1,526.2c0.4,0,0.7-0.1,1-0.2c0.3-0.2,0.5-0.4,0.7-0.7v-1.6h-0.9c-1.2,0-1.9,0.4-2,1.3l0,0.1c0,0.3,0.1,0.6,0.3,0.8
		C401.4,526.1,401.7,526.2,402.1,526.2z"/>
	<path class="st10" d="M413.3,521c-0.3,0-0.6-0.1-0.9-0.1c-0.9,0-1.5,0.3-1.8,0.9v6h-2.5v-9.2h2.3l0.1,1.1c0.5-0.8,1.2-1.3,2-1.3
		c0.3,0,0.5,0,0.8,0.1L413.3,521z"/>
	<path class="st10" d="M417.8,516.5v2.3h1.6v1.8h-1.6v4.6c0,0.3,0.1,0.6,0.2,0.7c0.1,0.1,0.4,0.2,0.7,0.2c0.3,0,0.5,0,0.7-0.1v1.9
		c-0.5,0.1-1,0.2-1.5,0.2c-1.7,0-2.6-0.9-2.6-2.6v-5H414v-1.8h1.3v-2.3H417.8z"/>
	<path class="st10" d="M425,528.1c-1.3,0-2.4-0.4-3.3-1.2c-0.8-0.8-1.3-1.9-1.3-3.3v-0.2c0-0.9,0.2-1.7,0.5-2.5
		c0.4-0.7,0.9-1.3,1.5-1.7c0.7-0.4,1.4-0.6,2.2-0.6c1.3,0,2.2,0.4,3,1.2c0.7,0.8,1.1,1.9,1.1,3.4v1h-5.9c0.1,0.6,0.3,1.1,0.7,1.4
		c0.4,0.4,0.9,0.5,1.5,0.5c0.9,0,1.7-0.3,2.2-1l1.2,1.4c-0.4,0.5-0.9,0.9-1.5,1.2S425.7,528.1,425,528.1z M424.7,520.5
		c-0.5,0-0.9,0.2-1.2,0.5s-0.5,0.8-0.6,1.4h3.4v-0.2c0-0.5-0.2-1-0.4-1.3S425.2,520.5,424.7,520.5z"/>
	<path class="st10" d="M432.4,518.7l0.1,1.1c0.7-0.8,1.5-1.2,2.6-1.2c1,0,1.7,0.3,2.2,0.9c0.5,0.6,0.7,1.4,0.7,2.6v5.9h-2.5V522
		c0-0.5-0.1-0.9-0.3-1.1c-0.2-0.2-0.6-0.4-1.1-0.4c-0.7,0-1.2,0.3-1.6,0.9v6.5h-2.5v-9.2H432.4z"/>
	<path class="st10" d="M444.7,523.6h-4.8v-2h4.8V523.6z"/>
</g>
<g class="st9">
	<path class="st10" d="M368.7,548.8v-12.4h3.8c1.1,0,2.1,0.2,2.9,0.7s1.5,1.2,2,2.1c0.5,0.9,0.7,1.9,0.7,3.1v0.6
		c0,1.2-0.2,2.2-0.7,3.1c-0.5,0.9-1.1,1.6-2,2.1c-0.9,0.5-1.8,0.7-2.9,0.7H368.7z M371.2,538.5v8.3h1.2c1,0,1.8-0.3,2.3-1
		s0.8-1.6,0.8-2.8v-0.7c0-1.3-0.3-2.2-0.8-2.9c-0.5-0.6-1.3-1-2.3-1H371.2z"/>
	<path class="st10" d="M385,541.9c-0.3,0-0.6-0.1-0.9-0.1c-0.9,0-1.5,0.3-1.8,0.9v6h-2.5v-9.2h2.3l0.1,1.1c0.5-0.8,1.2-1.3,2-1.3
		c0.3,0,0.5,0,0.8,0.1L385,541.9z"/>
	<path class="st10" d="M391.7,547.9c-0.6,0.7-1.4,1.1-2.5,1.1c-1,0-1.7-0.3-2.3-0.8c-0.5-0.6-0.8-1.4-0.8-2.5v-6h2.5v5.9
		c0,1,0.4,1.4,1.3,1.4c0.8,0,1.4-0.3,1.7-0.9v-6.5h2.5v9.2h-2.3L391.7,547.9z"/>
	<path class="st10" d="M399.7,547c0.5,0,0.8-0.1,1.1-0.4c0.3-0.2,0.4-0.6,0.4-1h2.3c0,0.6-0.2,1.2-0.5,1.7c-0.3,0.5-0.8,0.9-1.4,1.2
		c-0.6,0.3-1.2,0.4-1.9,0.4c-1.3,0-2.4-0.4-3.1-1.3c-0.8-0.8-1.1-2-1.1-3.5v-0.2c0-1.4,0.4-2.5,1.1-3.4c0.8-0.8,1.8-1.3,3.1-1.3
		c1.1,0,2.1,0.3,2.8,1s1,1.5,1.1,2.6h-2.3c0-0.5-0.2-0.9-0.4-1.2c-0.3-0.3-0.7-0.4-1.1-0.4c-0.6,0-1,0.2-1.3,0.6
		c-0.3,0.4-0.4,1.1-0.4,2v0.3c0,0.9,0.1,1.6,0.4,2C398.7,546.8,399.2,547,399.7,547z"/>
	<path class="st10" d="M408.3,545.1l-0.9,0.9v2.8H405v-13.1h2.5v7.2l0.5-0.6l2.4-2.8h2.9l-3.3,3.8l3.6,5.4h-2.8L408.3,545.1z"/>
	<path class="st10" d="M417.2,537.4v2.3h1.6v1.8h-1.6v4.6c0,0.3,0.1,0.6,0.2,0.7c0.1,0.1,0.4,0.2,0.7,0.2c0.3,0,0.5,0,0.7-0.1v1.9
		c-0.5,0.1-1,0.2-1.5,0.2c-1.7,0-2.6-0.9-2.6-2.6v-5h-1.3v-1.8h1.3v-2.3H417.2z"/>
	<path class="st10" d="M424.4,549c-1.3,0-2.4-0.4-3.3-1.2c-0.8-0.8-1.3-1.9-1.3-3.3v-0.2c0-0.9,0.2-1.7,0.5-2.5
		c0.4-0.7,0.9-1.3,1.5-1.7c0.7-0.4,1.4-0.6,2.2-0.6c1.3,0,2.2,0.4,3,1.2s1.1,1.9,1.1,3.4v1h-5.9c0.1,0.6,0.3,1.1,0.7,1.4
		c0.4,0.4,0.9,0.5,1.5,0.5c0.9,0,1.7-0.3,2.2-1l1.2,1.4c-0.4,0.5-0.9,0.9-1.5,1.2S425.2,549,424.4,549z M424.1,541.4
		c-0.5,0-0.9,0.2-1.2,0.5c-0.3,0.3-0.5,0.8-0.6,1.4h3.4v-0.2c0-0.5-0.2-1-0.4-1.3S424.6,541.4,424.1,541.4z"/>
	<path class="st10" d="M434.7,541.9c-0.3,0-0.6-0.1-0.9-0.1c-0.9,0-1.5,0.3-1.8,0.9v6h-2.5v-9.2h2.3l0.1,1.1c0.5-0.8,1.2-1.3,2-1.3
		c0.3,0,0.5,0,0.8,0.1L434.7,541.9z"/>
	<path class="st10" d="M438.2,539.6l0.1,1c0.7-0.8,1.5-1.2,2.6-1.2c1.2,0,2,0.5,2.4,1.4c0.6-0.9,1.6-1.4,2.8-1.4
		c1,0,1.7,0.3,2.2,0.9c0.5,0.6,0.7,1.5,0.7,2.6v5.9h-2.5v-5.9c0-0.5-0.1-0.9-0.3-1.1s-0.6-0.4-1.1-0.4c-0.7,0-1.2,0.4-1.5,1.1l0,6.3
		h-2.5v-5.9c0-0.5-0.1-0.9-0.3-1.2c-0.2-0.2-0.6-0.4-1.1-0.4c-0.7,0-1.2,0.3-1.5,0.9v6.5h-2.5v-9.2H438.2z"/>
	<path class="st10" d="M451,537.2c0-0.4,0.1-0.7,0.4-0.9c0.2-0.2,0.6-0.4,1-0.4c0.4,0,0.8,0.1,1,0.4c0.2,0.2,0.4,0.5,0.4,0.9
		c0,0.4-0.1,0.7-0.4,0.9c-0.3,0.2-0.6,0.4-1,0.4c-0.4,0-0.7-0.1-1-0.4C451.1,537.9,451,537.6,451,537.2z M453.6,548.8h-2.5v-9.2h2.5
		V548.8z"/>
	<path class="st10" d="M457.9,539.6l0.1,1.1c0.7-0.8,1.5-1.2,2.6-1.2c1,0,1.7,0.3,2.2,0.9c0.5,0.6,0.7,1.4,0.7,2.6v5.9H461v-5.9
		c0-0.5-0.1-0.9-0.3-1.1c-0.2-0.2-0.6-0.4-1.1-0.4c-0.7,0-1.2,0.3-1.6,0.9v6.5h-2.5v-9.2H457.9z"/>
</g>
<circle class="st11" cx="250.3" cy="131.9" r="62.3"/>
<g class="st9">
	<path class="st10" d="M254.2,119.7c-1.6,1.6-3.4,2.3-5.6,2.3c-2.7,0-4.9-0.9-6.5-2.8c-1.6-1.9-2.4-4.4-2.4-7.5c0-2,0.4-3.9,1.3-5.5
		c0.9-1.7,2.1-3,3.7-3.9c1.6-0.9,3.3-1.4,5.3-1.4c2,0,3.8,0.5,5.4,1.5c1.6,1,2.8,2.5,3.7,4.4c0.9,1.9,1.3,4.1,1.3,6.5v2.3
		c0,5.1-1.3,9.1-3.8,12c-2.5,2.9-6.1,4.5-10.8,4.7l-1.5,0v-5.1l1.3,0C250.9,126.9,253.8,124.4,254.2,119.7z M250.2,117.4
		c1,0,1.8-0.3,2.5-0.8c0.7-0.5,1.2-1.1,1.6-1.8v-2.5c0-2.1-0.4-3.7-1.2-4.8s-1.8-1.7-3.2-1.7c-1.2,0-2.2,0.6-3,1.7
		c-0.8,1.1-1.2,2.5-1.2,4.2c0,1.7,0.4,3,1.1,4.1C247.7,116.8,248.8,117.4,250.2,117.4z"/>
</g>
<g class="st9">
	<path class="st10" d="M205.1,148h-3.9l-0.7,2.2H198l4-10.8h2.1l4,10.8h-2.4L205.1,148z M201.8,146.2h2.7l-1.4-4L201.8,146.2z"/>
	<path class="st10" d="M216.3,146.3c0,1.3-0.3,2.3-0.8,3c-0.5,0.7-1.3,1.1-2.3,1.1c-0.9,0-1.6-0.3-2.1-1l-0.1,0.9h-1.9v-11.4h2.1
		v4.1c0.5-0.6,1.1-0.9,2-0.9c1,0,1.7,0.4,2.3,1.1c0.6,0.7,0.8,1.7,0.8,3V146.3z M214.1,146.1c0-0.8-0.1-1.4-0.4-1.8
		c-0.3-0.4-0.6-0.6-1.2-0.6c-0.7,0-1.2,0.3-1.4,0.8v3.2c0.3,0.6,0.7,0.8,1.4,0.8c0.7,0,1.1-0.3,1.4-1
		C214.1,147.3,214.1,146.8,214.1,146.1z"/>
	<path class="st10" d="M222,148c0-0.3-0.1-0.5-0.4-0.6c-0.3-0.2-0.7-0.3-1.3-0.4c-1.9-0.4-2.9-1.2-2.9-2.4c0-0.7,0.3-1.3,0.9-1.8
		c0.6-0.5,1.4-0.7,2.3-0.7c1,0,1.8,0.2,2.4,0.7c0.6,0.5,0.9,1.1,0.9,1.9h-2.1c0-0.3-0.1-0.6-0.3-0.8c-0.2-0.2-0.5-0.3-0.9-0.3
		c-0.4,0-0.6,0.1-0.8,0.2c-0.2,0.2-0.3,0.4-0.3,0.6c0,0.2,0.1,0.4,0.3,0.6c0.2,0.1,0.6,0.3,1.1,0.4s1,0.2,1.4,0.4
		c1.1,0.4,1.7,1.1,1.7,2.2c0,0.7-0.3,1.3-0.9,1.8s-1.4,0.7-2.4,0.7c-0.7,0-1.3-0.1-1.8-0.4c-0.5-0.2-0.9-0.6-1.2-1
		c-0.3-0.4-0.4-0.9-0.4-1.4h2c0,0.4,0.2,0.7,0.4,0.9c0.3,0.2,0.6,0.3,1.1,0.3c0.4,0,0.7-0.1,0.9-0.2C221.9,148.5,222,148.3,222,148z
		"/>
	<path class="st10" d="M228,140.2v2h1.4v1.6H228v4c0,0.3,0.1,0.5,0.2,0.6c0.1,0.1,0.3,0.2,0.7,0.2c0.2,0,0.4,0,0.6-0.1v1.6
		c-0.4,0.1-0.9,0.2-1.3,0.2c-1.5,0-2.3-0.8-2.3-2.3v-4.3h-1.2v-1.6h1.2v-2H228z"/>
	<path class="st10" d="M230.6,140.1c0-0.3,0.1-0.6,0.3-0.8c0.2-0.2,0.5-0.3,0.9-0.3c0.4,0,0.7,0.1,0.9,0.3c0.2,0.2,0.3,0.5,0.3,0.8
		c0,0.3-0.1,0.6-0.3,0.8s-0.5,0.3-0.9,0.3c-0.4,0-0.7-0.1-0.9-0.3C230.7,140.7,230.6,140.4,230.6,140.1z M232.8,150.2h-2.2v-8h2.2
		V150.2z"/>
	<path class="st10" d="M236.6,142.2l0.1,0.9c0.6-0.7,1.3-1,2.3-1c1,0,1.7,0.4,2.1,1.2c0.6-0.8,1.4-1.2,2.4-1.2
		c0.9,0,1.5,0.3,1.9,0.8s0.6,1.3,0.6,2.3v5.1H244v-5.1c0-0.5-0.1-0.8-0.3-1s-0.5-0.3-0.9-0.3c-0.6,0-1.1,0.3-1.3,0.9l0,5.5h-2.1
		v-5.1c0-0.5-0.1-0.8-0.3-1c-0.2-0.2-0.5-0.3-0.9-0.3c-0.6,0-1,0.3-1.3,0.8v5.7h-2.1v-8H236.6z"/>
	<path class="st10" d="M249.8,142.2l0.1,0.9c0.6-0.7,1.3-1,2.3-1c1,0,1.7,0.4,2.1,1.2c0.6-0.8,1.4-1.2,2.4-1.2
		c0.9,0,1.5,0.3,1.9,0.8s0.6,1.3,0.6,2.3v5.1h-2.2v-5.1c0-0.5-0.1-0.8-0.3-1s-0.5-0.3-0.9-0.3c-0.6,0-1.1,0.3-1.3,0.9l0,5.5h-2.1
		v-5.1c0-0.5-0.1-0.8-0.3-1c-0.2-0.2-0.5-0.3-0.9-0.3c-0.6,0-1,0.3-1.3,0.8v5.7h-2.1v-8H249.8z"/>
	<path class="st10" d="M265.8,149.4c-0.5,0.6-1.3,1-2.2,1c-0.9,0-1.5-0.2-2-0.7s-0.7-1.2-0.7-2.2v-5.3h2.1v5.2
		c0,0.8,0.4,1.3,1.1,1.3c0.7,0,1.2-0.3,1.5-0.8v-5.7h2.2v8h-2L265.8,149.4z"/>
	<path class="st10" d="M271.4,142.2l0.1,0.9c0.6-0.7,1.3-1.1,2.3-1.1c0.9,0,1.5,0.2,1.9,0.8c0.4,0.5,0.6,1.2,0.6,2.2v5.2h-2.1v-5.2
		c0-0.5-0.1-0.8-0.3-1c-0.2-0.2-0.5-0.3-1-0.3c-0.6,0-1.1,0.3-1.4,0.8v5.7h-2.1v-8H271.4z"/>
	<path class="st10" d="M277.7,146.2c0-1.2,0.3-2.2,0.9-3c0.6-0.8,1.4-1.1,2.4-1.1c0.9,0,1.6,0.3,2.1,0.9l0.1-0.8h1.9v7.8
		c0,0.7-0.2,1.3-0.5,1.8c-0.3,0.5-0.8,0.9-1.3,1.2s-1.3,0.4-2,0.4c-0.6,0-1.2-0.1-1.7-0.4c-0.6-0.2-1-0.5-1.3-0.9l1-1.3
		c0.5,0.6,1.2,0.9,1.9,0.9c0.6,0,1-0.2,1.3-0.5s0.5-0.7,0.5-1.3v-0.4c-0.5,0.6-1.1,0.8-2,0.8c-1,0-1.7-0.4-2.3-1.1
		C278,148.5,277.7,147.5,277.7,146.2L277.7,146.2z M279.8,146.3c0,0.7,0.1,1.3,0.4,1.7c0.3,0.4,0.7,0.6,1.2,0.6
		c0.7,0,1.1-0.2,1.4-0.7v-3.4c-0.3-0.5-0.8-0.7-1.4-0.7c-0.5,0-0.9,0.2-1.2,0.6S279.8,145.5,279.8,146.3z"/>
	<path class="st10" d="M290.4,150.4c-1.2,0-2.1-0.4-2.9-1.1s-1.1-1.7-1.1-2.9v-0.2c0-0.8,0.2-1.5,0.5-2.2c0.3-0.6,0.8-1.1,1.3-1.5
		c0.6-0.3,1.2-0.5,2-0.5c1.1,0,2,0.3,2.6,1c0.6,0.7,0.9,1.7,0.9,2.9v0.9h-5.1c0.1,0.5,0.3,0.9,0.6,1.3c0.3,0.3,0.8,0.5,1.3,0.5
		c0.8,0,1.5-0.3,1.9-0.9l1.1,1.2c-0.3,0.5-0.8,0.8-1.3,1.1C291.6,150.3,291,150.4,290.4,150.4z M290.1,143.8c-0.4,0-0.8,0.1-1,0.4
		c-0.3,0.3-0.4,0.7-0.5,1.2h3v-0.2c0-0.5-0.1-0.8-0.4-1.1C290.9,143.9,290.6,143.8,290.1,143.8z"/>
	<path class="st10" d="M296.8,142.2l0.1,0.9c0.6-0.7,1.3-1.1,2.3-1.1c0.9,0,1.5,0.2,1.9,0.8s0.6,1.2,0.6,2.2v5.2h-2.1v-5.2
		c0-0.5-0.1-0.8-0.3-1c-0.2-0.2-0.5-0.3-1-0.3c-0.6,0-1.1,0.3-1.4,0.8v5.7h-2.1v-8H296.8z"/>
</g>
<g class="st9">
	<path class="st10" d="M739.7,374.5c-1.4,1.4-3,2-4.8,2c-2.4,0-4.2-0.8-5.7-2.4c-1.4-1.6-2.1-3.8-2.1-6.5c0-1.7,0.4-3.3,1.1-4.8
		c0.8-1.5,1.8-2.6,3.2-3.4c1.4-0.8,2.9-1.2,4.6-1.2c1.8,0,3.3,0.4,4.7,1.3s2.4,2.1,3.2,3.8s1.1,3.5,1.2,5.7v2
		c0,4.4-1.1,7.9-3.3,10.5c-2.2,2.5-5.3,3.9-9.4,4.1l-1.3,0V381l1.2,0C736.9,380.7,739.4,378.6,739.7,374.5z M736.2,372.4
		c0.9,0,1.6-0.2,2.2-0.7c0.6-0.4,1.1-1,1.4-1.6V368c0-1.8-0.3-3.2-1-4.2c-0.7-1-1.6-1.5-2.7-1.5c-1.1,0-1.9,0.5-2.6,1.5
		c-0.7,1-1,2.2-1,3.7c0,1.5,0.3,2.6,1,3.6C734.1,372,735,372.4,736.2,372.4z"/>
</g>
<g class="st9">
	<path class="st10" d="M694.3,398.7l2.1-7.1h2.2l-3.3,9.4h-2l-3.3-9.4h2.1L694.3,398.7z"/>
	<path class="st10" d="M702.2,401.2c-1,0-1.9-0.3-2.5-0.9s-1-1.5-1-2.5v-0.2c0-0.7,0.1-1.3,0.4-1.9c0.3-0.6,0.7-1,1.2-1.3
		c0.5-0.3,1.1-0.4,1.7-0.4c1,0,1.7,0.3,2.3,0.9s0.8,1.5,0.8,2.6v0.8h-4.4c0.1,0.5,0.2,0.8,0.5,1.1c0.3,0.3,0.7,0.4,1.2,0.4
		c0.7,0,1.3-0.3,1.7-0.8l0.9,1c-0.3,0.4-0.7,0.7-1.1,0.9C703.3,401,702.8,401.2,702.2,401.2z M702,395.4c-0.4,0-0.7,0.1-0.9,0.4
		c-0.2,0.3-0.4,0.6-0.4,1.1h2.6v-0.1c0-0.4-0.1-0.7-0.3-1C702.7,395.5,702.4,395.4,702,395.4z"/>
	<path class="st10" d="M710.1,395.8c-0.3,0-0.5-0.1-0.7-0.1c-0.7,0-1.2,0.2-1.4,0.7v4.6h-1.9v-7h1.8l0.1,0.8c0.4-0.6,0.9-1,1.6-1
		c0.2,0,0.4,0,0.6,0.1L710.1,395.8z"/>
	<path class="st10" d="M710.5,397.5c0-0.7,0.1-1.3,0.4-1.9c0.3-0.5,0.7-1,1.2-1.3c0.5-0.3,1.1-0.4,1.7-0.4c0.9,0,1.7,0.3,2.3,0.9
		c0.6,0.6,0.9,1.4,1,2.4l0,0.5c0,1.1-0.3,1.9-0.9,2.6c-0.6,0.6-1.4,1-2.4,1c-1,0-1.8-0.3-2.4-1C710.8,399.5,710.5,398.7,710.5,397.5
		L710.5,397.5z M711.3,392.2c0-0.2,0.1-0.4,0.2-0.6c0.2-0.2,0.4-0.2,0.6-0.2c0.3,0,0.5,0.1,0.6,0.2c0.2,0.2,0.2,0.4,0.2,0.6
		s-0.1,0.4-0.2,0.6c-0.2,0.2-0.4,0.2-0.6,0.2c-0.3,0-0.5-0.1-0.6-0.2S711.3,392.4,711.3,392.2z M712.3,397.6c0,0.7,0.1,1.2,0.4,1.5
		c0.2,0.4,0.6,0.5,1.1,0.5c0.5,0,0.8-0.2,1.1-0.5c0.3-0.3,0.4-0.9,0.4-1.7c0-0.7-0.1-1.2-0.4-1.5c-0.3-0.4-0.6-0.5-1.1-0.5
		c-0.5,0-0.8,0.2-1.1,0.5C712.5,396.3,712.3,396.9,712.3,397.6z M714.4,392.2c0-0.2,0.1-0.4,0.3-0.6s0.4-0.2,0.6-0.2
		c0.2,0,0.5,0.1,0.6,0.2c0.2,0.2,0.3,0.4,0.3,0.6c0,0.2-0.1,0.4-0.2,0.6c-0.2,0.2-0.4,0.2-0.6,0.2c-0.3,0-0.5-0.1-0.6-0.2
		C714.5,392.6,714.4,392.4,714.4,392.2z"/>
	<path class="st10" d="M718.7,401v-5.6h-1V394h1v-0.6c0-0.8,0.2-1.4,0.7-1.8c0.5-0.4,1.1-0.6,1.9-0.6c0.3,0,0.6,0,0.9,0.1l0,1.4
		c-0.2,0-0.3-0.1-0.6-0.1c-0.7,0-1.1,0.3-1.1,1v0.6h1.4v1.4h-1.4v5.6H718.7z"/>
	<path class="st10" d="M723.5,401v-5.6h-1V394h1v-0.6c0-0.8,0.2-1.4,0.7-1.8c0.5-0.4,1.1-0.6,1.9-0.6c0.3,0,0.6,0,0.9,0.1l0,1.4
		c-0.2,0-0.3-0.1-0.6-0.1c-0.7,0-1.1,0.3-1.1,1v0.6h1.4v1.4h-1.4v5.6H723.5z"/>
	<path class="st10" d="M730.8,401.2c-1,0-1.9-0.3-2.5-0.9s-1-1.5-1-2.5v-0.2c0-0.7,0.1-1.3,0.4-1.9c0.3-0.6,0.7-1,1.2-1.3
		c0.5-0.3,1.1-0.4,1.7-0.4c1,0,1.7,0.3,2.3,0.9s0.8,1.5,0.8,2.6v0.8h-4.4c0.1,0.5,0.2,0.8,0.5,1.1s0.7,0.4,1.2,0.4
		c0.7,0,1.3-0.3,1.7-0.8l0.9,1c-0.3,0.4-0.7,0.7-1.1,0.9S731.4,401.2,730.8,401.2z M730.6,395.4c-0.4,0-0.7,0.1-0.9,0.4
		s-0.4,0.6-0.4,1.1h2.6v-0.1c0-0.4-0.1-0.7-0.3-1C731.3,395.5,731,395.4,730.6,395.4z"/>
	<path class="st10" d="M736.4,394l0.1,0.8c0.5-0.6,1.2-0.9,2-0.9c0.7,0,1.3,0.2,1.7,0.7c0.4,0.4,0.5,1.1,0.6,2v4.5h-1.9v-4.5
		c0-0.4-0.1-0.7-0.3-0.9c-0.2-0.2-0.5-0.3-0.9-0.3c-0.5,0-0.9,0.2-1.2,0.7v4.9h-1.9v-7H736.4z"/>
	<path class="st10" d="M744.3,392.3v1.7h1.2v1.4h-1.2v3.5c0,0.3,0,0.4,0.1,0.6c0.1,0.1,0.3,0.2,0.6,0.2c0.2,0,0.4,0,0.5,0v1.4
		c-0.4,0.1-0.7,0.2-1.1,0.2c-1.3,0-2-0.7-2-2v-3.8h-1V394h1v-1.7H744.3z"/>
	<path class="st10" d="M748.5,401h-1.9v-9.9h1.9V401z"/>
	<path class="st10" d="M750.1,392.2c0-0.3,0.1-0.5,0.3-0.7c0.2-0.2,0.4-0.3,0.8-0.3c0.3,0,0.6,0.1,0.8,0.3s0.3,0.4,0.3,0.7
		c0,0.3-0.1,0.5-0.3,0.7s-0.4,0.3-0.8,0.3s-0.6-0.1-0.8-0.3S750.1,392.5,750.1,392.2z M752.1,401h-1.9v-7h1.9V401z"/>
	<path class="st10" d="M756.5,399.6c0.3,0,0.6-0.1,0.8-0.3c0.2-0.2,0.3-0.4,0.3-0.8h1.8c0,0.5-0.1,0.9-0.4,1.3
		c-0.3,0.4-0.6,0.7-1,0.9c-0.4,0.2-0.9,0.3-1.5,0.3c-1,0-1.8-0.3-2.4-1c-0.6-0.6-0.9-1.5-0.9-2.6v-0.1c0-1.1,0.3-1.9,0.9-2.6
		c0.6-0.6,1.4-1,2.4-1c0.9,0,1.6,0.2,2.1,0.7s0.8,1.2,0.8,2h-1.8c0-0.4-0.1-0.7-0.3-0.9c-0.2-0.2-0.5-0.3-0.9-0.3
		c-0.4,0-0.8,0.2-1,0.5c-0.2,0.3-0.3,0.8-0.3,1.5v0.2c0,0.7,0.1,1.2,0.3,1.6C755.7,399.5,756,399.6,756.5,399.6z"/>
	<path class="st10" d="M762.3,394.8c0.5-0.6,1.1-0.9,1.9-0.9c1.5,0,2.3,0.9,2.3,2.6v4.5h-1.9v-4.4c0-0.4-0.1-0.7-0.3-0.9
		c-0.2-0.2-0.5-0.3-0.9-0.3c-0.5,0-0.9,0.2-1.2,0.6v5h-1.9v-9.9h1.9V394.8z"/>
	<path class="st10" d="M770.1,392.3v1.7h1.2v1.4h-1.2v3.5c0,0.3,0,0.4,0.1,0.6c0.1,0.1,0.3,0.2,0.6,0.2c0.2,0,0.4,0,0.5,0v1.4
		c-0.4,0.1-0.7,0.2-1.1,0.2c-1.3,0-2-0.7-2-2v-3.8h-1V394h1v-1.7H770.1z"/>
	<path class="st10" d="M775.6,401.2c-1,0-1.9-0.3-2.5-0.9s-1-1.5-1-2.5v-0.2c0-0.7,0.1-1.3,0.4-1.9c0.3-0.6,0.7-1,1.2-1.3
		c0.5-0.3,1.1-0.4,1.7-0.4c1,0,1.7,0.3,2.3,0.9s0.8,1.5,0.8,2.6v0.8H774c0.1,0.5,0.2,0.8,0.5,1.1c0.3,0.3,0.7,0.4,1.2,0.4
		c0.7,0,1.3-0.3,1.7-0.8l0.9,1c-0.3,0.4-0.7,0.7-1.1,0.9C776.7,401,776.1,401.2,775.6,401.2z M775.4,395.4c-0.4,0-0.7,0.1-0.9,0.4
		c-0.2,0.3-0.4,0.6-0.4,1.1h2.6v-0.1c0-0.4-0.1-0.7-0.3-1C776.1,395.5,775.8,395.4,775.4,395.4z"/>
</g>
<g class="st9">
	<path class="st10" d="M693.8,413h-3.7v3.8h-1.9v-9.4h6.1v1.6h-4.2v2.4h3.7V413z"/>
	<path class="st10" d="M699.1,416.8c-0.1-0.2-0.1-0.4-0.2-0.6c-0.5,0.5-1,0.8-1.8,0.8c-0.7,0-1.3-0.2-1.7-0.6
		c-0.4-0.4-0.7-0.9-0.7-1.5c0-0.7,0.3-1.3,0.8-1.7c0.5-0.4,1.3-0.6,2.4-0.6h0.9v-0.4c0-0.3-0.1-0.6-0.2-0.8
		c-0.2-0.2-0.4-0.3-0.8-0.3c-0.3,0-0.6,0.1-0.7,0.2c-0.2,0.2-0.3,0.4-0.3,0.6H695c0-0.4,0.1-0.8,0.4-1.1c0.2-0.3,0.6-0.6,1.1-0.8
		c0.5-0.2,1-0.3,1.5-0.3c0.9,0,1.5,0.2,2,0.6s0.8,1,0.8,1.8v3c0,0.7,0.1,1.2,0.3,1.5v0.1H699.1z M697.6,415.5c0.3,0,0.5-0.1,0.8-0.2
		c0.2-0.1,0.4-0.3,0.5-0.5v-1.2h-0.7c-0.9,0-1.4,0.3-1.5,1l0,0.1c0,0.2,0.1,0.4,0.2,0.6C697.1,415.4,697.3,415.5,697.6,415.5z"/>
	<path class="st10" d="M705.1,415.4c0.3,0,0.6-0.1,0.8-0.3c0.2-0.2,0.3-0.4,0.3-0.8h1.8c0,0.5-0.1,0.9-0.4,1.3
		c-0.3,0.4-0.6,0.7-1,0.9c-0.4,0.2-0.9,0.3-1.5,0.3c-1,0-1.8-0.3-2.4-1c-0.6-0.6-0.9-1.5-0.9-2.6v-0.1c0-1.1,0.3-1.9,0.9-2.6
		c0.6-0.6,1.4-1,2.4-1c0.9,0,1.6,0.2,2.1,0.7s0.8,1.2,0.8,2h-1.8c0-0.4-0.1-0.7-0.3-0.9c-0.2-0.2-0.5-0.3-0.9-0.3
		c-0.4,0-0.8,0.2-1,0.5c-0.2,0.3-0.3,0.8-0.3,1.5v0.2c0,0.7,0.1,1.2,0.3,1.6C704.3,415.3,704.6,415.4,705.1,415.4z"/>
	<path class="st10" d="M712.3,417c-1,0-1.9-0.3-2.5-0.9s-1-1.5-1-2.5v-0.2c0-0.7,0.1-1.3,0.4-1.9c0.3-0.6,0.7-1,1.2-1.3
		c0.5-0.3,1.1-0.4,1.7-0.4c1,0,1.7,0.3,2.3,0.9s0.8,1.5,0.8,2.6v0.8h-4.4c0.1,0.5,0.2,0.8,0.5,1.1s0.7,0.4,1.2,0.4
		c0.7,0,1.3-0.3,1.7-0.8l0.9,1c-0.3,0.4-0.7,0.7-1.1,0.9S712.9,417,712.3,417z M712.1,411.2c-0.4,0-0.7,0.1-0.9,0.4
		s-0.4,0.6-0.4,1.1h2.6v-0.1c0-0.4-0.1-0.7-0.3-1C712.8,411.3,712.5,411.2,712.1,411.2z"/>
	<path class="st10" d="M722.5,413.4c0,1.1-0.2,2-0.7,2.6c-0.5,0.6-1.1,0.9-2,0.9c-0.8,0-1.4-0.3-1.8-0.9l-0.1,0.7h-1.7v-9.9h1.9v3.6
		c0.4-0.5,1-0.8,1.7-0.8c0.9,0,1.5,0.3,2,0.9c0.5,0.6,0.7,1.5,0.7,2.6V413.4z M720.6,413.3c0-0.7-0.1-1.2-0.3-1.6
		c-0.2-0.3-0.6-0.5-1-0.5c-0.6,0-1,0.2-1.2,0.7v2.8c0.2,0.5,0.6,0.7,1.2,0.7c0.6,0,1-0.3,1.2-0.9
		C720.6,414.3,720.6,413.8,720.6,413.3z"/>
	<path class="st10" d="M723.4,413.3c0-0.7,0.1-1.3,0.4-1.9c0.3-0.5,0.7-1,1.2-1.3c0.5-0.3,1.1-0.4,1.7-0.4c0.9,0,1.7,0.3,2.3,0.9
		c0.6,0.6,0.9,1.4,1,2.4l0,0.5c0,1.1-0.3,1.9-0.9,2.6c-0.6,0.6-1.4,1-2.4,1c-1,0-1.8-0.3-2.4-1C723.7,415.3,723.4,414.5,723.4,413.3
		L723.4,413.3z M725.2,413.4c0,0.7,0.1,1.2,0.4,1.5c0.2,0.4,0.6,0.5,1.1,0.5c0.5,0,0.8-0.2,1.1-0.5c0.3-0.3,0.4-0.9,0.4-1.7
		c0-0.7-0.1-1.2-0.4-1.5c-0.3-0.4-0.6-0.5-1.1-0.5c-0.5,0-0.8,0.2-1.1,0.5C725.4,412.1,725.2,412.7,725.2,413.4z"/>
	<path class="st10" d="M730.8,413.3c0-0.7,0.1-1.3,0.4-1.9c0.3-0.5,0.7-1,1.2-1.3c0.5-0.3,1.1-0.4,1.7-0.4c0.9,0,1.7,0.3,2.3,0.9
		c0.6,0.6,0.9,1.4,1,2.4l0,0.5c0,1.1-0.3,1.9-0.9,2.6c-0.6,0.6-1.4,1-2.4,1c-1,0-1.8-0.3-2.4-1C731.1,415.3,730.8,414.5,730.8,413.3
		L730.8,413.3z M732.7,413.4c0,0.7,0.1,1.2,0.4,1.5c0.2,0.4,0.6,0.5,1.1,0.5c0.5,0,0.8-0.2,1.1-0.5c0.3-0.3,0.4-0.9,0.4-1.7
		c0-0.7-0.1-1.2-0.4-1.5c-0.3-0.4-0.6-0.5-1.1-0.5c-0.5,0-0.8,0.2-1.1,0.5C732.8,412.1,732.7,412.7,732.7,413.4z"/>
	<path class="st10" d="M741.2,414l-0.7,0.7v2.1h-1.9v-9.9h1.9v5.5l0.4-0.5l1.8-2.1h2.2l-2.5,2.9l2.7,4.1h-2.1L741.2,414z"/>
	<path class="st10" d="M749.3,413.5h-3.6V412h3.6V413.5z"/>
	<path class="st10" d="M750.9,416.8v-9.4h3.3c1.1,0,2,0.2,2.6,0.7s0.9,1.1,0.9,1.9c0,0.5-0.1,0.9-0.4,1.2c-0.2,0.4-0.6,0.6-1,0.8
		c0.5,0.1,0.9,0.4,1.1,0.7c0.3,0.4,0.4,0.8,0.4,1.3c0,0.9-0.3,1.6-0.9,2.1c-0.6,0.5-1.4,0.7-2.5,0.7H750.9z M752.9,411.4h1.4
		c1,0,1.5-0.4,1.5-1.2c0-0.4-0.1-0.7-0.4-0.9c-0.2-0.2-0.6-0.3-1.2-0.3h-1.4V411.4z M752.9,412.7v2.5h1.7c0.5,0,0.8-0.1,1.1-0.3
		c0.3-0.2,0.4-0.5,0.4-0.9c0-0.9-0.4-1.3-1.3-1.3H752.9z"/>
	<path class="st10" d="M759.2,408c0-0.3,0.1-0.5,0.3-0.7s0.4-0.3,0.8-0.3c0.3,0,0.6,0.1,0.8,0.3c0.2,0.2,0.3,0.4,0.3,0.7
		c0,0.3-0.1,0.5-0.3,0.7s-0.4,0.3-0.8,0.3c-0.3,0-0.6-0.1-0.8-0.3C759.3,408.5,759.2,408.3,759.2,408z M761.2,416.8h-1.9v-7h1.9
		V416.8z"/>
	<path class="st10" d="M764.7,416.8h-1.9v-9.9h1.9V416.8z"/>
	<path class="st10" d="M766,413.3c0-1.1,0.2-2,0.7-2.6c0.5-0.6,1.2-1,2-1c0.7,0,1.2,0.3,1.7,0.8v-3.6h1.9v9.9h-1.7l-0.1-0.7
		c-0.5,0.6-1.1,0.9-1.8,0.9c-0.8,0-1.5-0.3-2-1C766.2,415.3,766,414.4,766,413.3z M767.8,413.4c0,0.7,0.1,1.2,0.3,1.5
		c0.2,0.3,0.6,0.5,1,0.5c0.6,0,1-0.2,1.2-0.7v-2.8c-0.2-0.5-0.6-0.7-1.2-0.7C768.3,411.2,767.8,411.9,767.8,413.4z"/>
	<path class="st10" d="M776.9,417c-1,0-1.9-0.3-2.5-0.9s-1-1.5-1-2.5v-0.2c0-0.7,0.1-1.3,0.4-1.9c0.3-0.6,0.7-1,1.2-1.3
		c0.5-0.3,1.1-0.4,1.7-0.4c1,0,1.7,0.3,2.3,0.9s0.8,1.5,0.8,2.6v0.8h-4.4c0.1,0.5,0.2,0.8,0.5,1.1s0.7,0.4,1.2,0.4
		c0.7,0,1.3-0.3,1.7-0.8l0.9,1c-0.3,0.4-0.7,0.7-1.1,0.9S777.5,417,776.9,417z M776.7,411.2c-0.4,0-0.7,0.1-0.9,0.4
		s-0.4,0.6-0.4,1.1h2.6v-0.1c0-0.4-0.1-0.7-0.3-1C777.4,411.3,777.1,411.2,776.7,411.2z"/>
	<path class="st10" d="M784.8,411.6c-0.3,0-0.5-0.1-0.7-0.1c-0.7,0-1.2,0.2-1.4,0.7v4.6h-1.9v-7h1.8l0.1,0.8c0.4-0.6,0.9-1,1.6-1
		c0.2,0,0.4,0,0.6,0.1L784.8,411.6z"/>
</g>
<g class="st9">
	<path class="st10" d="M635.1,308c0,1.3-0.3,2.4-1,3.4c-0.6,1-1.5,1.8-2.7,2.4c1.3,0.6,2.3,1.5,3.1,2.6s1.1,2.4,1.1,3.9
		c0,2.4-0.8,4.2-2.4,5.6c-1.6,1.4-3.8,2.1-6.6,2.1s-5-0.7-6.6-2.1c-1.6-1.4-2.4-3.2-2.4-5.6c0-1.5,0.4-2.8,1.1-3.9
		c0.8-1.1,1.8-2,3.1-2.6c-1.1-0.6-2-1.4-2.7-2.4c-0.6-1-1-2.1-1-3.4c0-2.3,0.8-4.1,2.3-5.4c1.5-1.3,3.6-2,6.2-2c2.6,0,4.6,0.7,6.2,2
		C634.3,303.9,635.1,305.7,635.1,308z M630.4,319.9c0-1.2-0.3-2.1-1-2.8c-0.7-0.7-1.6-1-2.7-1c-1.1,0-2,0.3-2.7,1
		c-0.7,0.7-1,1.6-1,2.8c0,1.1,0.3,2.1,1,2.7c0.7,0.7,1.6,1,2.7,1c1.1,0,2-0.3,2.7-1C630,322,630.4,321,630.4,319.9z M629.8,308.2
		c0-1-0.3-1.9-0.8-2.5c-0.5-0.6-1.3-0.9-2.3-0.9c-1,0-1.8,0.3-2.3,0.9c-0.5,0.6-0.8,1.5-0.8,2.5c0,1.1,0.3,1.9,0.8,2.6
		c0.5,0.6,1.3,1,2.3,1s1.8-0.3,2.3-1C629.5,310.1,629.8,309.3,629.8,308.2z"/>
</g>
<g class="st9">
	<path class="st10" d="M607.1,342.3c-0.3,0.4-0.8,0.7-1.5,1c-0.6,0.2-1.3,0.3-2.1,0.3c-0.8,0-1.5-0.2-2.1-0.5
		c-0.6-0.4-1.1-0.9-1.4-1.5c-0.3-0.7-0.5-1.5-0.5-2.4v-0.6c0-0.9,0.2-1.8,0.5-2.4c0.3-0.7,0.8-1.2,1.4-1.6c0.6-0.4,1.3-0.5,2.1-0.5
		c1.1,0,2,0.3,2.6,0.8c0.6,0.5,1,1.3,1.1,2.3h-1.9c-0.1-0.5-0.3-0.9-0.6-1.2s-0.7-0.4-1.2-0.4c-0.7,0-1.2,0.2-1.5,0.7
		c-0.3,0.5-0.5,1.2-0.5,2.2v0.6c0,1,0.2,1.7,0.6,2.2c0.4,0.5,0.9,0.8,1.6,0.8c0.7,0,1.2-0.2,1.6-0.5v-1.6h-1.8v-1.4h3.7V342.3z"/>
	<path class="st10" d="M612.5,338.2c-0.3,0-0.5-0.1-0.7-0.1c-0.7,0-1.2,0.2-1.4,0.7v4.6h-1.9v-7h1.8l0.1,0.8c0.4-0.6,0.9-1,1.6-1
		c0.2,0,0.4,0,0.6,0.1L612.5,338.2z"/>
	<path class="st10" d="M617.5,342.7c-0.5,0.6-1.1,0.8-1.9,0.8c-0.7,0-1.3-0.2-1.7-0.6c-0.4-0.4-0.6-1.1-0.6-1.9v-4.6h1.9v4.5
		c0,0.7,0.3,1.1,1,1.1c0.6,0,1.1-0.2,1.3-0.7v-5h1.9v7h-1.8L617.5,342.7z"/>
	<path class="st10" d="M627,340c0,1.1-0.2,1.9-0.7,2.6c-0.5,0.6-1.1,1-2,1c-0.7,0-1.3-0.2-1.7-0.7v3.3h-1.9v-9.7h1.7l0.1,0.7
		c0.5-0.5,1-0.8,1.8-0.8c0.9,0,1.5,0.3,2,1C626.8,337.9,627,338.8,627,340L627,340z M625.2,339.9c0-0.7-0.1-1.2-0.3-1.5
		c-0.2-0.4-0.6-0.5-1-0.5c-0.6,0-1,0.2-1.2,0.7v2.9c0.2,0.5,0.6,0.7,1.2,0.7C624.7,342.1,625.2,341.3,625.2,339.9z"/>
	<path class="st10" d="M634.5,340c0,1.1-0.2,1.9-0.7,2.6c-0.5,0.6-1.1,1-2,1c-0.7,0-1.3-0.2-1.7-0.7v3.3h-1.9v-9.7h1.7l0.1,0.7
		c0.5-0.5,1-0.8,1.8-0.8c0.9,0,1.5,0.3,2,1C634.2,337.9,634.5,338.8,634.5,340L634.5,340z M632.6,339.9c0-0.7-0.1-1.2-0.3-1.5
		c-0.2-0.4-0.6-0.5-1-0.5c-0.6,0-1,0.2-1.2,0.7v2.9c0.2,0.5,0.6,0.7,1.2,0.7C632.2,342.1,632.6,341.3,632.6,339.9z"/>
	<path class="st10" d="M638.9,343.6c-1,0-1.9-0.3-2.5-0.9s-1-1.5-1-2.5v-0.2c0-0.7,0.1-1.3,0.4-1.9c0.3-0.6,0.7-1,1.2-1.3
		c0.5-0.3,1.1-0.4,1.7-0.4c1,0,1.7,0.3,2.3,0.9s0.8,1.5,0.8,2.6v0.8h-4.4c0.1,0.5,0.2,0.8,0.5,1.1s0.7,0.4,1.2,0.4
		c0.7,0,1.3-0.3,1.7-0.8l0.9,1c-0.3,0.4-0.7,0.7-1.1,0.9S639.4,343.6,638.9,343.6z M638.6,337.8c-0.4,0-0.7,0.1-0.9,0.4
		s-0.4,0.6-0.4,1.1h2.6v-0.1c0-0.4-0.1-0.7-0.3-1C639.3,338,639,337.8,638.6,337.8z"/>
	<path class="st10" d="M644.5,336.5l0.1,0.8c0.5-0.6,1.2-0.9,2-0.9c0.7,0,1.3,0.2,1.7,0.7c0.4,0.4,0.5,1.1,0.6,2v4.5h-1.9V339
		c0-0.4-0.1-0.7-0.3-0.9c-0.2-0.2-0.5-0.3-0.9-0.3c-0.5,0-0.9,0.2-1.2,0.7v4.9h-1.9v-7H644.5z"/>
	<path class="st10" d="M653.8,340.2h-3.6v-1.5h3.6V340.2z"/>
</g>
<g class="st9">
	<path class="st10" d="M601.4,352.3l0.1,0.8c0.5-0.6,1.2-0.9,2-0.9c0.9,0,1.5,0.4,1.9,1.1c0.5-0.7,1.2-1.1,2.1-1.1
		c0.8,0,1.3,0.2,1.7,0.7s0.6,1.1,0.6,2v4.5h-1.9v-4.5c0-0.4-0.1-0.7-0.2-0.9c-0.2-0.2-0.4-0.3-0.8-0.3c-0.6,0-0.9,0.3-1.2,0.8l0,4.8
		h-1.9v-4.5c0-0.4-0.1-0.7-0.2-0.9c-0.2-0.2-0.4-0.3-0.8-0.3c-0.5,0-0.9,0.2-1.1,0.7v5h-1.9v-7H601.4z"/>
	<path class="st10" d="M614.3,359.4c-1,0-1.9-0.3-2.5-0.9s-1-1.5-1-2.5v-0.2c0-0.7,0.1-1.3,0.4-1.9c0.3-0.6,0.7-1,1.2-1.3
		c0.5-0.3,1.1-0.4,1.7-0.4c1,0,1.7,0.3,2.3,0.9s0.8,1.5,0.8,2.6v0.8h-4.4c0.1,0.5,0.2,0.8,0.5,1.1c0.3,0.3,0.7,0.4,1.2,0.4
		c0.7,0,1.3-0.3,1.7-0.8l0.9,1c-0.3,0.4-0.7,0.7-1.1,0.9C615.4,359.3,614.9,359.4,614.3,359.4z M614.1,353.6c-0.4,0-0.7,0.1-0.9,0.4
		c-0.2,0.3-0.4,0.6-0.4,1.1h2.6v-0.1c0-0.4-0.1-0.7-0.3-1C614.8,353.8,614.5,353.6,614.1,353.6z"/>
	<path class="st10" d="M621.4,359.4c-1,0-1.9-0.3-2.5-0.9s-1-1.5-1-2.5v-0.2c0-0.7,0.1-1.3,0.4-1.9c0.3-0.6,0.7-1,1.2-1.3
		c0.5-0.3,1.1-0.4,1.7-0.4c1,0,1.7,0.3,2.3,0.9s0.8,1.5,0.8,2.6v0.8h-4.4c0.1,0.5,0.2,0.8,0.5,1.1s0.7,0.4,1.2,0.4
		c0.7,0,1.3-0.3,1.7-0.8l0.9,1c-0.3,0.4-0.7,0.7-1.1,0.9S622,359.4,621.4,359.4z M621.2,353.6c-0.4,0-0.7,0.1-0.9,0.4
		s-0.4,0.6-0.4,1.1h2.6v-0.1c0-0.4-0.1-0.7-0.3-1C621.9,353.8,621.6,353.6,621.2,353.6z"/>
	<path class="st10" d="M627.6,350.5v1.7h1.2v1.4h-1.2v3.5c0,0.3,0,0.4,0.1,0.6c0.1,0.1,0.3,0.2,0.6,0.2c0.2,0,0.4,0,0.5,0v1.4
		c-0.4,0.1-0.7,0.2-1.1,0.2c-1.3,0-2-0.7-2-2v-3.8h-1v-1.4h1v-1.7H627.6z"/>
	<path class="st10" d="M629.8,350.5c0-0.3,0.1-0.5,0.3-0.7c0.2-0.2,0.4-0.3,0.8-0.3c0.3,0,0.6,0.1,0.8,0.3s0.3,0.4,0.3,0.7
		c0,0.3-0.1,0.5-0.3,0.7s-0.4,0.3-0.8,0.3s-0.6-0.1-0.8-0.3S629.8,350.7,629.8,350.5z M631.8,359.2h-1.9v-7h1.9V359.2z"/>
	<path class="st10" d="M635.1,352.3l0.1,0.8c0.5-0.6,1.2-0.9,2-0.9c0.7,0,1.3,0.2,1.7,0.7s0.5,1.1,0.6,2v4.5h-1.9v-4.5
		c0-0.4-0.1-0.7-0.3-0.9c-0.2-0.2-0.5-0.3-0.9-0.3c-0.5,0-0.9,0.2-1.2,0.7v4.9h-1.9v-7H635.1z"/>
	<path class="st10" d="M640.5,355.7c0-1.1,0.3-1.9,0.8-2.6s1.2-1,2.1-1c0.8,0,1.4,0.3,1.8,0.8l0.1-0.7h1.7v6.8
		c0,0.6-0.1,1.1-0.4,1.6c-0.3,0.5-0.7,0.8-1.2,1c-0.5,0.2-1.1,0.4-1.8,0.4c-0.5,0-1-0.1-1.5-0.3c-0.5-0.2-0.9-0.5-1.1-0.8l0.8-1.1
		c0.5,0.5,1,0.8,1.7,0.8c0.5,0,0.9-0.1,1.2-0.4s0.4-0.6,0.4-1.1v-0.4c-0.4,0.5-1,0.7-1.7,0.7c-0.8,0-1.5-0.3-2-1
		S640.5,356.9,640.5,355.7L640.5,355.7z M642.3,355.8c0,0.6,0.1,1.1,0.4,1.5c0.3,0.4,0.6,0.5,1,0.5c0.6,0,1-0.2,1.2-0.6v-3
		c-0.2-0.4-0.7-0.6-1.2-0.6c-0.4,0-0.8,0.2-1.1,0.6C642.5,354.6,642.3,355.1,642.3,355.8z"/>
	<path class="st10" d="M652.1,357.3c0-0.2-0.1-0.4-0.3-0.5c-0.2-0.1-0.6-0.2-1.1-0.4c-1.7-0.3-2.5-1.1-2.5-2.1
		c0-0.6,0.3-1.1,0.8-1.6c0.5-0.4,1.2-0.6,2-0.6c0.9,0,1.6,0.2,2.1,0.6c0.5,0.4,0.8,1,0.8,1.6H652c0-0.3-0.1-0.5-0.3-0.7
		c-0.2-0.2-0.4-0.3-0.8-0.3c-0.3,0-0.6,0.1-0.7,0.2c-0.2,0.1-0.3,0.3-0.3,0.5c0,0.2,0.1,0.4,0.3,0.5s0.5,0.2,1,0.3
		c0.5,0.1,0.9,0.2,1.2,0.3c1,0.4,1.5,1,1.5,1.9c0,0.6-0.3,1.2-0.8,1.5c-0.5,0.4-1.3,0.6-2.1,0.6c-0.6,0-1.1-0.1-1.6-0.3
		c-0.5-0.2-0.8-0.5-1.1-0.9c-0.3-0.4-0.4-0.8-0.4-1.2h1.8c0,0.3,0.1,0.6,0.4,0.8c0.2,0.2,0.5,0.3,0.9,0.3c0.4,0,0.6-0.1,0.8-0.2
		C652,357.7,652.1,357.5,652.1,357.3z"/>
</g>
<g class="st9">
	<path class="st10" d="M674.2,182.7h-6.4V158l-7.6,2.4v-5.2l13.3-4.8h0.7V182.7z"/>
	<path class="st10" d="M706.3,169.4c0,4.5-0.9,7.9-2.8,10.2c-1.8,2.4-4.5,3.5-8.1,3.5c-3.5,0-6.2-1.2-8.1-3.5
		c-1.9-2.3-2.8-5.6-2.9-10v-5.9c0-4.5,0.9-7.9,2.8-10.2c1.9-2.3,4.6-3.5,8.1-3.5s6.2,1.2,8.1,3.5s2.8,5.6,2.9,9.9V169.4z
		 M699.9,162.8c0-2.7-0.4-4.6-1.1-5.8c-0.7-1.2-1.9-1.8-3.4-1.8c-1.5,0-2.6,0.6-3.3,1.7c-0.7,1.2-1.1,3-1.1,5.4v7.8
		c0,2.6,0.4,4.6,1.1,5.9c0.7,1.3,1.9,1.9,3.4,1.9c1.6,0,2.7-0.6,3.4-1.8s1.1-3.1,1.1-5.6V162.8z"/>
</g>
<g class="st9">
	<path class="st10" d="M664,201.9h-2.3v-11.4h2.3V201.9z"/>
	<path class="st10" d="M665.7,197.6c0-1.3,0.3-2.4,0.9-3.1c0.6-0.8,1.4-1.2,2.4-1.2c0.8,0,1.5,0.3,2,0.9v-4.3h2.3v12h-2l-0.1-0.9
		c-0.6,0.7-1.3,1.1-2.2,1.1c-1,0-1.8-0.4-2.4-1.2C666,200.1,665.7,199,665.7,197.6z M668,197.8c0,0.8,0.1,1.4,0.4,1.8
		c0.3,0.4,0.7,0.6,1.2,0.6c0.7,0,1.2-0.3,1.5-0.9V196c-0.3-0.6-0.8-0.9-1.5-0.9C668.5,195.1,668,196,668,197.8z"/>
	<path class="st10" d="M678.9,202c-1.2,0-2.2-0.4-3-1.1c-0.8-0.8-1.2-1.8-1.2-3v-0.2c0-0.8,0.2-1.6,0.5-2.3c0.3-0.7,0.8-1.2,1.4-1.5
		c0.6-0.4,1.3-0.5,2.1-0.5c1.2,0,2.1,0.4,2.7,1.1c0.7,0.7,1,1.8,1,3.1v0.9H677c0.1,0.6,0.3,1,0.7,1.3c0.4,0.3,0.8,0.5,1.4,0.5
		c0.9,0,1.5-0.3,2-0.9l1.1,1.2c-0.3,0.5-0.8,0.9-1.4,1.1C680.3,201.9,679.6,202,678.9,202z M678.7,195.1c-0.4,0-0.8,0.2-1.1,0.5
		s-0.5,0.7-0.5,1.3h3.1v-0.2c0-0.5-0.1-0.9-0.4-1.2C679.5,195.2,679.2,195.1,678.7,195.1z"/>
	<path class="st10" d="M687.6,202c-1.2,0-2.2-0.4-3-1.1c-0.8-0.8-1.2-1.8-1.2-3v-0.2c0-0.8,0.2-1.6,0.5-2.3c0.3-0.7,0.8-1.2,1.4-1.5
		s1.3-0.5,2.1-0.5c1.2,0,2.1,0.4,2.7,1.1c0.7,0.7,1,1.8,1,3.1v0.9h-5.4c0.1,0.6,0.3,1,0.7,1.3c0.4,0.3,0.8,0.5,1.4,0.5
		c0.9,0,1.5-0.3,2-0.9l1.1,1.2c-0.3,0.5-0.8,0.9-1.4,1.1C688.9,201.9,688.3,202,687.6,202z M687.3,195.1c-0.4,0-0.8,0.2-1.1,0.5
		c-0.3,0.3-0.5,0.7-0.5,1.3h3.1v-0.2c0-0.5-0.1-0.9-0.4-1.2S687.8,195.1,687.3,195.1z"/>
	<path class="st10" d="M694.4,193.4l0.1,1c0.6-0.8,1.4-1.1,2.4-1.1c0.9,0,1.6,0.3,2,0.8c0.4,0.5,0.7,1.3,0.7,2.4v5.5h-2.3v-5.4
		c0-0.5-0.1-0.8-0.3-1c-0.2-0.2-0.6-0.3-1-0.3c-0.6,0-1.1,0.3-1.4,0.8v6h-2.3v-8.4H694.4z"/>
</g>
<g class="st9">
	<path class="st10" d="M660.7,216.8c0,1.4-0.3,2.4-0.9,3.2c-0.6,0.8-1.4,1.1-2.4,1.1c-0.9,0-1.6-0.4-2.2-1.1l-0.1,0.9h-2v-12h2.3
		v4.3c0.5-0.6,1.2-0.9,2.1-0.9c1,0,1.8,0.4,2.4,1.1s0.9,1.8,0.9,3.2V216.8z M658.5,216.7c0-0.9-0.1-1.5-0.4-1.9s-0.7-0.6-1.2-0.6
		c-0.7,0-1.2,0.3-1.5,0.9v3.3c0.3,0.6,0.8,0.9,1.5,0.9c0.7,0,1.2-0.4,1.4-1.1C658.4,217.9,658.5,217.4,658.5,216.7z"/>
	<path class="st10" d="M662.1,210.4c0-0.3,0.1-0.6,0.3-0.8c0.2-0.2,0.5-0.3,0.9-0.3c0.4,0,0.7,0.1,0.9,0.3c0.2,0.2,0.3,0.5,0.3,0.8
		c0,0.3-0.1,0.6-0.3,0.8c-0.2,0.2-0.5,0.3-0.9,0.3c-0.4,0-0.7-0.1-0.9-0.3C662.2,211,662.1,210.7,662.1,210.4z M664.5,221h-2.3v-8.4
		h2.3V221z"/>
	<path class="st10" d="M670.9,218.6c0-0.3-0.1-0.5-0.4-0.7c-0.3-0.2-0.7-0.3-1.3-0.4c-2-0.4-3-1.3-3-2.6c0-0.7,0.3-1.4,0.9-1.9
		c0.6-0.5,1.4-0.8,2.4-0.8c1.1,0,1.9,0.3,2.6,0.8c0.6,0.5,1,1.2,1,2h-2.3c0-0.3-0.1-0.6-0.3-0.8c-0.2-0.2-0.5-0.3-1-0.3
		c-0.4,0-0.7,0.1-0.9,0.3c-0.2,0.2-0.3,0.4-0.3,0.7c0,0.2,0.1,0.5,0.4,0.6s0.6,0.3,1.2,0.4c0.6,0.1,1,0.2,1.4,0.4
		c1.2,0.4,1.8,1.2,1.8,2.3c0,0.8-0.3,1.4-1,1.9c-0.7,0.5-1.5,0.7-2.6,0.7c-0.7,0-1.3-0.1-1.9-0.4c-0.5-0.3-1-0.6-1.3-1
		c-0.3-0.4-0.5-0.9-0.5-1.4h2.1c0,0.4,0.2,0.7,0.4,0.9c0.3,0.2,0.6,0.3,1.1,0.3c0.4,0,0.8-0.1,1-0.2
		C670.8,219.1,670.9,218.9,670.9,218.6z"/>
	<path class="st10" d="M681.1,219.2h4.1v1.8h-7v-1.4l4-5.2h-3.9v-1.8h6.8v1.3L681.1,219.2z"/>
	<path class="st10" d="M691.7,220.1c-0.6,0.7-1.3,1-2.3,1c-0.9,0-1.6-0.3-2.1-0.8c-0.5-0.5-0.7-1.3-0.7-2.3v-5.5h2.3v5.5
		c0,0.9,0.4,1.3,1.2,1.3c0.8,0,1.3-0.3,1.6-0.8v-6h2.3v8.4h-2.1L691.7,220.1z"/>
	<path class="st10" d="M697.7,212.5l0.1,0.9c0.6-0.7,1.4-1.1,2.4-1.1c1.1,0,1.8,0.4,2.2,1.3c0.6-0.9,1.4-1.3,2.5-1.3
		c0.9,0,1.6,0.3,2,0.8c0.4,0.5,0.7,1.3,0.7,2.4v5.4h-2.3v-5.4c0-0.5-0.1-0.8-0.3-1.1c-0.2-0.2-0.5-0.3-1-0.3c-0.7,0-1.1,0.3-1.4,1
		l0,5.8h-2.3v-5.4c0-0.5-0.1-0.8-0.3-1.1s-0.5-0.3-1-0.3c-0.6,0-1.1,0.3-1.4,0.8v6h-2.3v-8.4H697.7z"/>
</g>
<g class="st9">
	<path class="st10" d="M649,235.2h-4.5v3.1h5.3v1.9h-7.6v-11.4h7.6v1.9h-5.3v2.7h4.5V235.2z"/>
	<path class="st10" d="M653.1,231.7l0.1,1c0.6-0.8,1.4-1.1,2.4-1.1c0.9,0,1.6,0.3,2,0.8c0.4,0.5,0.7,1.3,0.7,2.4v5.5H656v-5.4
		c0-0.5-0.1-0.8-0.3-1c-0.2-0.2-0.6-0.3-1-0.3c-0.6,0-1.1,0.3-1.4,0.8v6h-2.3v-8.4H653.1z"/>
	<path class="st10" d="M659.6,235.9c0-1.3,0.3-2.4,0.9-3.1s1.4-1.2,2.4-1.2c0.8,0,1.5,0.3,2,0.9v-4.3h2.3v12h-2l-0.1-0.9
		c-0.6,0.7-1.3,1.1-2.2,1.1c-1,0-1.8-0.4-2.4-1.2C659.9,238.4,659.6,237.3,659.6,235.9z M661.8,236.1c0,0.8,0.1,1.4,0.4,1.8
		c0.3,0.4,0.7,0.6,1.2,0.6c0.7,0,1.2-0.3,1.5-0.9v-3.3c-0.3-0.6-0.8-0.9-1.5-0.9C662.4,233.4,661.8,234.3,661.8,236.1z"/>
	<path class="st10" d="M676.5,236c0,1.3-0.3,2.3-0.9,3.1c-0.6,0.8-1.4,1.2-2.4,1.2c-0.9,0-1.5-0.3-2.1-0.9v4h-2.3v-11.7h2.1l0.1,0.8
		c0.5-0.7,1.3-1,2.1-1c1,0,1.8,0.4,2.4,1.2s0.9,1.8,0.9,3.2V236z M674.3,235.9c0-0.8-0.1-1.4-0.4-1.8c-0.3-0.4-0.7-0.6-1.2-0.6
		c-0.7,0-1.2,0.3-1.5,0.8v3.5c0.3,0.6,0.8,0.8,1.5,0.8C673.7,238.5,674.3,237.6,674.3,235.9z"/>
	<path class="st10" d="M682.7,233.9c-0.3,0-0.6-0.1-0.8-0.1c-0.9,0-1.4,0.3-1.7,0.9v5.5h-2.3v-8.4h2.1l0.1,1
		c0.5-0.8,1.1-1.2,1.9-1.2c0.2,0,0.5,0,0.7,0.1L682.7,233.9z"/>
	<path class="st10" d="M683.1,235.9c0-0.8,0.2-1.6,0.5-2.2s0.8-1.2,1.4-1.5c0.6-0.4,1.3-0.5,2.1-0.5c1.1,0,2.1,0.3,2.8,1
		c0.7,0.7,1.1,1.6,1.2,2.8l0,0.6c0,1.3-0.4,2.3-1.1,3.1c-0.7,0.8-1.7,1.2-2.9,1.2c-1.2,0-2.2-0.4-2.9-1.2c-0.7-0.8-1.1-1.8-1.1-3.2
		V235.9z M685.4,236c0,0.8,0.2,1.4,0.5,1.8c0.3,0.4,0.7,0.6,1.3,0.6c0.5,0,1-0.2,1.3-0.6c0.3-0.4,0.5-1.1,0.5-2
		c0-0.8-0.2-1.4-0.5-1.8c-0.3-0.4-0.7-0.6-1.3-0.6c-0.6,0-1,0.2-1.3,0.6C685.5,234.5,685.4,235.1,685.4,236z"/>
	<path class="st10" d="M692.2,235.9c0-1.3,0.3-2.4,0.9-3.1s1.4-1.2,2.4-1.2c0.8,0,1.5,0.3,2,0.9v-4.3h2.3v12h-2l-0.1-0.9
		c-0.6,0.7-1.3,1.1-2.2,1.1c-1,0-1.8-0.4-2.4-1.2C692.5,238.4,692.2,237.3,692.2,235.9z M694.4,236.1c0,0.8,0.1,1.4,0.4,1.8
		c0.3,0.4,0.7,0.6,1.2,0.6c0.7,0,1.2-0.3,1.5-0.9v-3.3c-0.3-0.6-0.8-0.9-1.5-0.9C695,233.4,694.4,234.3,694.4,236.1z"/>
	<path class="st10" d="M706.6,239.3c-0.6,0.7-1.3,1-2.3,1c-0.9,0-1.6-0.3-2.1-0.8c-0.5-0.5-0.7-1.3-0.7-2.3v-5.5h2.3v5.5
		c0,0.9,0.4,1.3,1.2,1.3c0.8,0,1.3-0.3,1.6-0.8v-6h2.3v8.4h-2.1L706.6,239.3z"/>
	<path class="st10" d="M713.5,236.8l-0.8,0.8v2.6h-2.3v-12h2.3v6.6l0.4-0.6l2.2-2.5h2.7l-3,3.5l3.3,4.9h-2.6L713.5,236.8z"/>
	<path class="st10" d="M721.7,229.7v2.1h1.4v1.7h-1.4v4.2c0,0.3,0.1,0.5,0.2,0.7c0.1,0.1,0.3,0.2,0.7,0.2c0.2,0,0.5,0,0.7-0.1v1.7
		c-0.4,0.1-0.9,0.2-1.4,0.2c-1.6,0-2.4-0.8-2.4-2.4v-4.5h-1.2v-1.7h1.2v-2.1H721.7z"/>
</g>
<g class="st9">
	<path class="st10" d="M517.5,58l-19.1,44H488l19.2-41.6h-24.6v-7.9h34.9V58z"/>
	<path class="st10" d="M533.7,72.9h5.2c2.5,0,4.3-0.6,5.5-1.9c1.2-1.2,1.8-2.9,1.8-5c0-2-0.6-3.5-1.8-4.7s-2.8-1.7-4.9-1.7
		c-1.9,0-3.5,0.5-4.7,1.5c-1.3,1-1.9,2.4-1.9,4h-9.8c0-2.6,0.7-4.9,2.1-6.9c1.4-2,3.3-3.7,5.8-4.8s5.3-1.7,8.3-1.7
		c5.2,0,9.3,1.3,12.3,3.8c3,2.5,4.5,6,4.5,10.3c0,2.3-0.7,4.3-2.1,6.3s-3.2,3.4-5.4,4.4c2.8,1,4.9,2.5,6.2,4.5
		c1.4,2,2.1,4.3,2.1,7.1c0,4.4-1.6,7.9-4.8,10.6c-3.2,2.7-7.4,4-12.7,4c-4.9,0-9-1.3-12.1-3.9c-3.1-2.6-4.7-6-4.7-10.3h9.8
		c0,1.9,0.7,3.4,2.1,4.6c1.4,1.2,3.1,1.8,5.1,1.8c2.3,0,4.2-0.6,5.5-1.9c1.3-1.2,2-2.9,2-4.9c0-4.9-2.7-7.4-8.2-7.4h-5.2V72.9z"/>
</g>
<g class="st9">
	<path class="st10" d="M484.7,124.4l-1.9,2v5h-3.6v-17.4h3.6v7.9l1.6-2.2l4.4-5.7h4.4l-6.2,7.7l6.4,9.7h-4.3L484.7,124.4z"/>
	<path class="st10" d="M502.1,131.4c-0.2-0.3-0.3-0.7-0.3-1.2c-0.8,0.9-1.9,1.4-3.3,1.4c-1.3,0-2.3-0.4-3.2-1.1
		c-0.8-0.7-1.3-1.7-1.3-2.8c0-1.4,0.5-2.4,1.5-3.2c1-0.7,2.5-1.1,4.4-1.1h1.6v-0.7c0-0.6-0.2-1.1-0.5-1.4s-0.8-0.5-1.5-0.5
		c-0.6,0-1,0.1-1.4,0.4c-0.3,0.3-0.5,0.7-0.5,1.1h-3.5c0-0.8,0.2-1.4,0.7-2.1s1.1-1.1,2-1.5c0.8-0.4,1.8-0.5,2.9-0.5
		c1.6,0,2.9,0.4,3.8,1.2s1.4,1.9,1.4,3.4v5.6c0,1.2,0.2,2.2,0.5,2.8v0.2H502.1z M499.2,129c0.5,0,1-0.1,1.4-0.3s0.8-0.5,1-0.9v-2.2
		h-1.3c-1.7,0-2.7,0.6-2.8,1.8l0,0.2c0,0.4,0.2,0.8,0.5,1.1C498.3,128.8,498.7,129,499.2,129z"/>
	<path class="st10" d="M508.7,131.4V121h-1.9v-2.5h1.9v-1.1c0-1.5,0.4-2.6,1.3-3.4c0.8-0.8,2-1.2,3.5-1.2c0.5,0,1.1,0.1,1.8,0.2
		l0,2.7c-0.3-0.1-0.6-0.1-1.1-0.1c-1.3,0-2,0.6-2,1.8v1.1h2.6v2.5h-2.6v10.4H508.7z"/>
	<path class="st10" d="M517.5,131.4V121h-1.9v-2.5h1.9v-1.1c0-1.5,0.4-2.6,1.3-3.4c0.8-0.8,2-1.2,3.5-1.2c0.5,0,1.1,0.1,1.8,0.2
		l0,2.7c-0.3-0.1-0.6-0.1-1.1-0.1c-1.3,0-2,0.6-2,1.8v1.1h2.6v2.5h-2.6v10.4H517.5z"/>
	<path class="st10" d="M531,131.6c-1.9,0-3.4-0.6-4.6-1.7s-1.8-2.7-1.8-4.7v-0.3c0-1.3,0.3-2.5,0.8-3.5c0.5-1,1.2-1.8,2.1-2.4
		c0.9-0.6,2-0.8,3.2-0.8c1.8,0,3.2,0.6,4.2,1.7c1,1.1,1.5,2.7,1.5,4.8v1.4h-8.3c0.1,0.8,0.4,1.5,1,2c0.6,0.5,1.3,0.8,2.1,0.8
		c1.3,0,2.4-0.5,3.1-1.4l1.7,1.9c-0.5,0.7-1.2,1.3-2.1,1.7C533,131.4,532.1,131.6,531,131.6z M530.6,121c-0.7,0-1.2,0.2-1.7,0.7
		s-0.7,1.1-0.8,2h4.8v-0.3c0-0.8-0.2-1.4-0.6-1.8S531.3,121,530.6,121z"/>
	<path class="st10" d="M544.2,131.6c-1.9,0-3.4-0.6-4.6-1.7c-1.2-1.2-1.8-2.7-1.8-4.7v-0.3c0-1.3,0.3-2.5,0.8-3.5
		c0.5-1,1.2-1.8,2.1-2.4s2-0.8,3.2-0.8c1.8,0,3.2,0.6,4.2,1.7c1,1.1,1.5,2.7,1.5,4.8v1.4h-8.3c0.1,0.8,0.4,1.5,1,2
		c0.6,0.5,1.3,0.8,2.1,0.8c1.3,0,2.4-0.5,3.1-1.4l1.7,1.9c-0.5,0.7-1.2,1.3-2.1,1.7C546.3,131.4,545.3,131.6,544.2,131.6z
		 M543.8,121c-0.7,0-1.2,0.2-1.7,0.7c-0.4,0.5-0.7,1.1-0.8,2h4.8v-0.3c0-0.8-0.2-1.4-0.6-1.8S544.6,121,543.8,121z"/>
	<path class="st10" d="M558.5,127.8c0-0.4-0.2-0.8-0.6-1c-0.4-0.2-1.1-0.5-2-0.7c-3.1-0.6-4.6-2-4.6-3.9c0-1.2,0.5-2.1,1.4-2.9
		s2.2-1.2,3.7-1.2c1.6,0,3,0.4,3.9,1.2s1.5,1.8,1.5,3h-3.5c0-0.5-0.2-0.9-0.5-1.2s-0.8-0.5-1.5-0.5c-0.6,0-1,0.1-1.4,0.4
		s-0.5,0.6-0.5,1c0,0.4,0.2,0.7,0.5,0.9c0.4,0.2,1,0.4,1.8,0.6c0.9,0.2,1.6,0.4,2.2,0.6c1.8,0.7,2.7,1.8,2.7,3.5
		c0,1.2-0.5,2.1-1.5,2.9c-1,0.7-2.3,1.1-3.9,1.1c-1.1,0-2.1-0.2-2.9-0.6c-0.8-0.4-1.5-0.9-2-1.6c-0.5-0.7-0.7-1.4-0.7-2.2h3.3
		c0,0.6,0.3,1.1,0.7,1.4c0.4,0.3,1,0.5,1.7,0.5c0.7,0,1.2-0.1,1.5-0.4C558.4,128.5,558.5,128.2,558.5,127.8z"/>
</g>
</svg>
