<?xml version="1.0" encoding="utf-8"?>
<!-- Generator: Adobe Illustrator 20.0.0, SVG Export Plug-In . SVG Version: 6.00 Build 0)  -->
<svg version="1.1" id="Ebene_1" xmlns="http://www.w3.org/2000/svg" xmlns:xlink="http://www.w3.org/1999/xlink" x="0px" y="0px"
	 viewBox="0 0 810.3 646.9" style="enable-background:new 0 0 810.3 646.9;" xml:space="preserve">
<style type="text/css">
	.st0{fill:#5183BB;stroke:#FFFFFF;stroke-width:10;stroke-miterlimit:10;}
	.st1{fill:#7E66A0;stroke:#FFFFFF;stroke-width:10;stroke-miterlimit:10;}
	.st2{fill:#BD5250;stroke:#FFFFFF;stroke-width:10;stroke-miterlimit:10;}
	.st3{fill:#F4964F;stroke:#FFFFFF;stroke-width:10;stroke-miterlimit:10;}
	.st4{fill:#9DB95F;stroke:#FFFFFF;stroke-width:10;stroke-miterlimit:10;}
	.st5{fill:#52ACC4;stroke:#FFFFFF;stroke-width:10;stroke-miterlimit:10;}
	.st6{fill:#FFFFFF;}
	.st7{font-family:'Roboto-Bold';}
	.st8{font-size:85.0973px;}
	.st9{font-size:30px;}
	.st10{font-size:40.9593px;}
	.st11{font-size:14.4397px;}
	.st12{font-size:102.7559px;}
	.st13{font-size:36.2253px;}
	.st14{font-size:72.7938px;}
	.st15{font-size:25.6626px;}
	.st16{font-size:49.3717px;}
	.st17{font-size:17.4054px;}
	.st18{font-size:43.1427px;}
	.st19{font-size:15.2094px;}
	.st20{font-size:37.5071px;}
	.st21{font-size:13.2227px;}
	.st22{font-size:45.3145px;}
	.st23{font-size:15.9751px;}
	.st24{font-size:69.5839px;}
	.st25{font-size:24.5309px;}
</style>
<circle class="st0" cx="436.4" cy="281.6" r="158.5"/>
<circle class="st1" cx="155.8" cy="309.9" r="150.8"/>
<circle class="st2" cx="205.6" cy="541" r="100.9"/>
<circle class="st3" cx="416" cy="498.7" r="83.2"/>
<circle class="st4" cx="592.1" cy="475.3" r="66.6"/>
<circle class="st5" cx="682.4" cy="194.2" r="76.8"/>
<circle class="st4" cx="520.4" cy="90.3" r="85.3"/>
<circle class="st1" cx="736.3" cy="383.3" r="69"/>
<circle class="st5" cx="626.7" cy="327.5" r="55.8"/>
<text transform="matrix(1 0 0 1 363.213 259.9299)"><tspan x="0" y="0" class="st6 st7 st8">680</tspan><tspan x="-48.4" y="36" class="st6 st7 st9">E-Mails zwischen </tspan><tspan x="15" y="72" class="st6 st7 st9">Vertrieb </tspan><tspan x="-32.9" y="108" class="st6 st7 st9">und Sponsoring</tspan></text>
<text transform="matrix(1 0 0 1 580.3131 464.5313)"><tspan x="0" y="0" class="st6 st7 st10">2</tspan><tspan x="-26.1" y="17.3" class="st6 st7 st11">Öffentliche </tspan><tspan x="-43.9" y="34.7" class="st6 st7 st11">Veranstalltungen</tspan></text>
<text transform="matrix(1 0 0 1 67.3442 305.49)"><tspan x="0" y="0" class="st6 st7 st12">470</tspan><tspan x="-6.4" y="43.5" class="st6 st7 st13">Sponsoren-</tspan><tspan x="5.4" y="86.9" class="st6 st7 st13">telefonate</tspan></text>
<text transform="matrix(1 0 0 1 142.9689 537.8476)"><tspan x="0" y="0" class="st6 st7 st14">107</tspan><tspan x="16" y="30.8" class="st6 st7 st15">Projekt-</tspan><tspan x="-2.9" y="61.6" class="st6 st7 st15">arbeitstage</tspan></text>
<text transform="matrix(1 0 0 1 387.6722 486.115)"><tspan x="0" y="0" class="st6 st7 st16">66</tspan><tspan x="-26.4" y="20.9" class="st6 st7 st17">Tage bis zum </tspan><tspan x="-0.9" y="41.8" class="st6 st7 st17">Karten-</tspan><tspan x="-20.1" y="62.7" class="st6 st7 st17">Drucktermin</tspan></text>
<circle class="st2" cx="250.3" cy="131.9" r="62.3"/>
<text transform="matrix(1 0 0 1 237.8951 131.9358)"><tspan x="0" y="0" class="st6 st7 st18">9</tspan><tspan x="-39.9" y="18.3" class="st6 st7 st19">Abstimmungen</tspan></text>
<text transform="matrix(1 0 0 1 725.5436 385.1222)"><tspan x="0" y="0" class="st6 st7 st20">9</tspan><tspan x="-35.6" y="15.9" class="st6 st7 st21">Veröffentlichte </tspan><tspan x="-38.2" y="31.7" class="st6 st7 st21">Facebook-Bilder</tspan></text>
<text transform="matrix(1 0 0 1 615.908 327.5477)"><tspan x="0" y="0" class="st6 st7 st20">8</tspan><tspan x="-17.1" y="15.9" class="st6 st7 st21">Gruppen-</tspan><tspan x="-17" y="31.7" class="st6 st7 st21">meetings</tspan></text>
<text transform="matrix(1 0 0 1 656.4337 182.6779)"><tspan x="0" y="0" class="st6 st7 st22">10</tspan><tspan x="4.1" y="19.2" class="st6 st7 st23">Ideen </tspan><tspan x="-4.2" y="38.3" class="st6 st7 st23">bis zum </tspan><tspan x="-15.3" y="57.5" class="st6 st7 st23">Endprodukt</tspan></text>
<text transform="matrix(1 0 0 1 480.4595 101.9797)"><tspan x="0" y="0" class="st6 st7 st24">73</tspan><tspan x="-2.8" y="29.4" class="st6 st7 st25">Kaffees</tspan></text>
</svg>
