<?xml version="1.0" encoding="utf-8"?>
<!-- Generator: Adobe Illustrator 20.0.0, SVG Export Plug-In . SVG Version: 6.00 Build 0)  -->
<svg version="1.1" id="Ebene_1" xmlns="http://www.w3.org/2000/svg" xmlns:xlink="http://www.w3.org/1999/xlink" x="0px" y="0px"
	 viewBox="0 0 191.1 38.2" style="enable-background:new 0 0 191.1 38.2;" xml:space="preserve">
<style type="text/css">
	.st0{fill-rule:evenodd;clip-rule:evenodd;fill:#A5A4A4;}
	.st1{fill-rule:evenodd;clip-rule:evenodd;fill:#D7D7D7;}
	.st2{fill-rule:evenodd;clip-rule:evenodd;fill:#999999;}
	.st3{fill-rule:evenodd;clip-rule:evenodd;fill:#FFFFFF;}
</style>
<path class="st0" d="M6.5,3.2c0,0,1.7-1.4,1.7-1.4C10.3,0.9,13,0,17,0c9.8,0,12.1,4.8,12.1,12.7v13.8c0,1.7,0.1,3.4,0.3,4.6
	l-1.2,1.5c-0.2-1.2-0.3-3-0.3-4.9V13.9c0-7.9-2.3-12.7-12.1-12.7C11.5,1.2,8.6,2.3,6.5,3.2 M6,16.8c2.4-2.8,6.6-3.9,11.8-4.1
	c0.1,0.4,0.2,0.8,0.3,1.1C13,13.9,8.7,14.7,6,16.8z M11.1,21C11,21.5,11,22,11,22.6c0,2.9,1.9,4.8,4.8,4.8c0.6,0,1.1-0.1,1.6-0.2
	c-0.1,0.3-0.3,0.6-0.4,0.9c-0.7,0.3-1.5,0.4-2.5,0.4c-2.9,0-4.8-2-4.8-4.8c0-0.9,0.2-1.8,0.5-2.4C10.5,21.2,10.8,21.1,11.1,21z"/>
<path class="st1" d="M10.2,21.3c-0.3,0.7-0.5,1.5-0.5,2.4c0,2.9,1.9,4.8,4.8,4.8c1,0,1.8-0.1,2.5-0.4c-0.1,0.3-0.3,0.6-0.5,0.8
	c-0.9,0.6-1.9,0.8-3.3,0.8c-2.9,0-4.8-2-4.8-4.8c0-1.3,0.3-2.4,0.9-3.2C9.6,21.6,9.9,21.5,10.2,21.3 M14.5,2.4
	C9.9,2.4,7,3.6,4.9,4.5c0,0,1.7-1.4,1.7-1.4c2.1-0.9,4.9-2,9.2-2c9.8,0,12.1,4.8,12.1,12.7v13.8c0,1.9,0.2,3.7,0.3,4.9l-1.2,1.5
	c-0.2-1.3-0.4-3.2-0.4-5.3V15.1C26.6,7.2,24.3,2.4,14.5,2.4z M18.1,13.8c0.1,0.4,0.1,0.8,0.1,1.2h-0.3c-5.6,0-10.3,0.7-13.2,3
	C7.3,14.9,12.1,13.9,18.1,13.8z"/>
<path class="st2" d="M9.3,21.8c-0.6,0.8-0.9,1.9-0.9,3.2c0,2.9,1.9,4.8,4.8,4.8c1.3,0,2.4-0.3,3.3-0.8c-1,1.3-2.5,2-4.6,2
	c-2.9,0-4.8-2-4.8-4.8C7.1,24.1,7.9,22.7,9.3,21.8 M3.2,5.9l1.7-1.4c2.1-1,5-2.2,9.6-2.2c9.8,0,12.1,4.8,12.1,12.7v13.8
	c0,2.1,0.2,4,0.4,5.3c0,0-1.2,1.5-1.2,1.5c-0.2-1.2-0.4-3.3-0.4-5.6V16.3c0-7.9-2.3-12.7-12.1-12.7C8.3,3.6,5.3,5,3.2,5.9z
	 M3.4,19.2c2.8-3.2,8-4.2,14.5-4.2h0.3v1.2h-1.5C11.1,16.2,6.4,16.9,3.4,19.2z"/>
<path class="st3" d="M18.2,22c0,5.6-1.7,9-6.2,9c-2.9,0-4.8-2-4.8-4.8c0-4.6,3.9-6,10.4-6h0.7V22 M3.6,12.1C5.1,10.8,8.5,9,12.3,9
	c4.4,0,5.9,2.9,5.9,6v1.2h-1.5C7,16.2,0,18.3,0,26.9c0,5.9,4.5,9.3,9.5,9.3c4.5,0,6.9-2.2,8.8-4.8h0.1c0,1.5,0.1,3.1,0.4,4.3h6.9
	c-0.2-1.2-0.4-3.3-0.4-5.6V16.3c0-7.9-2.3-12.7-12.1-12.7c-4.8,0-7.9,1.4-10,2.3L3.6,12.1z"/>
<path class="st3" d="M41.3,32.1h-1.7l0.9-3.3h0L41.3,32.1z M42.1,35.5h2.3l-2.7-8.4h-2.5l-2.8,8.4h2.2l0.5-1.8h2.5L42.1,35.5z"/>
<path class="st3" d="M50.8,29.2h-2.2v3.6c0,0.5-0.1,1-0.8,1c-0.4,0-0.6-0.3-0.6-0.9v-3.8h-2.2v4.4c0,1.4,0.8,2,1.9,2
	c1.2,0,1.6-0.9,1.8-1.2h0c0,0.3,0,0.8,0,1h2c0-0.2-0.1-0.6-0.1-1V29.2z"/>
<path class="st3" d="M52,35.5h2.2v-3.4c0-0.6,0.2-1.2,0.8-1.2c0.4,0,0.6,0.3,0.6,0.9v3.8h2.2v-3.6c0-0.5,0.1-1,0.8-1
	c0.4,0,0.6,0.3,0.6,0.9v3.8h2.2V31c0-1.3-0.8-1.9-1.8-1.9c-0.9,0-1.5,0.4-1.9,1c-0.4-0.8-1-1-1.7-1c-1.2,0-1.6,0.9-1.8,1.2h0
	c0-0.3,0-0.8,0-1h-2c0,0.2,0.1,0.7,0.1,1.3V35.5z"/>
<path class="st3" d="M68.1,29.2h-2.2v3.6c0,0.5-0.1,1-0.8,1c-0.4,0-0.6-0.3-0.6-0.9v-3.8h-2.2v4.4c0,1.4,0.8,2,1.9,2
	c1.2,0,1.6-0.9,1.8-1.2h0c0,0.3,0,0.8,0,1h2c0-0.2-0.1-0.6-0.1-1V29.2z M65.6,28.3h1.5v-1.6h-1.5V28.3z M63.4,28.3h1.5v-1.6h-1.5
	V28.3z"/>
<rect x="69.4" y="26.5" class="st3" width="2.2" height="9"/>
<rect x="72.9" y="26.5" class="st3" width="2.2" height="9"/>
<path class="st3" d="M78.2,31.8c0-0.9,0.4-1.4,1-1.4c0.6,0,0.9,0.4,0.9,1.2v0.2H78.2z M82,33v-0.6c0-1.7-0.9-3.3-2.9-3.3
	c-1.9,0-2.9,1.5-2.9,3.2c0,1.6,0.7,3.3,3.3,3.3c0.9,0,1.7-0.2,2.2-0.4l0-1.5c-0.5,0.2-1.2,0.5-1.8,0.5c-0.8,0-1.5-0.3-1.6-1.3H82z"
	/>
<path class="st3" d="M83.1,35.5h2.2v-3.1c0-0.8,0.5-1.4,1.2-1.4c0.3,0,0.6,0,0.6,0.1v-1.9c-0.1,0-0.2,0-0.4,0c-1,0-1.4,0.7-1.6,1.2
	h0c0-0.3,0-0.8,0-1h-2c0,0.3,0.1,0.9,0.1,1.8V35.5z"/>
<path class="st3" d="M93.5,28.8h0.2c1.2,0,2.3,0.4,2.3,2.6c0,1.6-0.6,2.5-1.9,2.5h-0.5V28.8z M91.2,35.5h2.9c2.7,0,4.2-1.3,4.2-4.2
	c0-2.5-1.4-4.1-3.8-4.1h-3.2V35.5z"/>
<path class="st3" d="M99.3,35.5h2.2v-3.1c0-0.8,0.5-1.4,1.2-1.4c0.3,0,0.6,0,0.6,0.1v-1.9c-0.1,0-0.2,0-0.4,0c-1,0-1.4,0.7-1.6,1.2
	h0c0-0.3,0-0.8,0-1h-2c0,0.3,0.1,0.9,0.1,1.8V35.5z"/>
<path class="st3" d="M109.8,29.2h-2.2v3.6c0,0.5-0.1,1-0.8,1c-0.4,0-0.6-0.3-0.6-0.9v-3.8h-2.2v4.4c0,1.4,0.8,2,1.9,2
	c1.2,0,1.6-0.9,1.8-1.2h0c0,0.3,0,0.8,0,1h2c0-0.2-0.1-0.6-0.1-1V29.2z"/>
<path class="st3" d="M115.7,29.4c-0.3-0.1-0.8-0.3-1.7-0.3c-2.3,0-3.1,1.6-3.1,3.3c0,1.7,0.8,3.3,3.1,3.3c0.5,0,1.4-0.2,1.7-0.3
	l-0.1-1.6c-0.1,0.1-0.7,0.3-1.2,0.3c-1.1,0-1.4-0.7-1.4-1.7c0-1.2,0.6-1.7,1.4-1.7c0.5,0,0.8,0.2,1.1,0.3L115.7,29.4z"/>
<polygon class="st3" points="120.2,35.5 122.6,35.5 120.7,32.1 122.5,29.2 120.3,29.2 118.9,31.8 118.9,31.8 118.9,26.5 116.7,26.5 
	116.7,35.5 118.9,35.5 118.9,32.6 118.9,32.6 "/>
<path class="st3" d="M130.5,35.5h2.3l-0.8-2.6c-0.3-1.2-0.6-1.4-1.1-1.5v0c0.7-0.2,1.6-0.7,1.6-1.9c0-1.5-1-2.3-2.7-2.3h-3.3v8.4
	h2.3v-3.3h0.1c0.4,0,0.7,0.1,0.9,0.9L130.5,35.5z M128.7,30.6v-1.9h0.6c0.7,0,1,0.4,1,1c0,0.5-0.4,0.9-0.9,0.9H128.7z"/>
<path class="st3" d="M135.5,31.8c0-0.9,0.4-1.4,1-1.4c0.6,0,0.9,0.4,0.9,1.2v0.2H135.5z M139.3,33v-0.6c0-1.7-0.9-3.3-2.9-3.3
	c-1.9,0-2.9,1.5-2.9,3.2c0,1.6,0.7,3.3,3.3,3.3c0.9,0,1.7-0.2,2.2-0.4l0-1.5c-0.5,0.2-1.2,0.5-1.8,0.5c-0.8,0-1.5-0.3-1.6-1.3H139.3
	z"/>
<path class="st3" d="M144.1,32.3c0,1-0.1,1.7-0.8,1.7c-0.7,0-0.8-0.7-0.8-1.8c0-0.9,0.2-1.6,0.8-1.6
	C143.9,30.7,144.1,31.3,144.1,32.3z M140.5,37.7c0.3,0.1,1.4,0.4,2.4,0.4c2.4,0,3.4-1.2,3.4-3.4v-4c0-0.6,0-1.1,0.1-1.5h-2
	c0,0.3-0.1,0.7-0.1,1h0c-0.3-0.6-0.8-1.2-1.7-1.2c-1.5,0-2.3,1.5-2.3,3.1c0,2,0.7,3.3,2.4,3.3c0.8,0,1.4-0.4,1.7-1.2h0v0.5
	c0,1.2-0.4,1.9-1.7,1.9c-0.9,0-1.5-0.3-1.9-0.6L140.5,37.7z"/>
<path class="st3" d="M149.3,31.8c0-0.9,0.4-1.4,1-1.4c0.6,0,0.9,0.4,0.9,1.2v0.2H149.3z M153.1,33v-0.6c0-1.7-0.9-3.3-2.9-3.3
	c-1.9,0-2.9,1.5-2.9,3.2c0,1.6,0.7,3.3,3.3,3.3c0.9,0,1.7-0.2,2.2-0.4l0-1.5c-0.5,0.2-1.2,0.5-1.8,0.5c-0.8,0-1.5-0.3-1.6-1.3H153.1
	z"/>
<path class="st3" d="M154.2,35.5h2.2v-3.4c0-0.6,0.2-1.2,0.8-1.2c0.4,0,0.6,0.3,0.6,0.9v3.8h2.2v-4.4c0-1.4-0.8-2-1.9-2
	c-1.2,0-1.6,0.9-1.8,1.2h0c0-0.3,0-0.8,0-1h-2c0,0.3,0.1,0.8,0.1,1.3V35.5z"/>
<path class="st3" d="M160.9,35.3c0.3,0.1,1.2,0.3,1.9,0.3c1.8,0,2.7-0.8,2.7-2.1c0-1.1-0.5-1.5-1.2-1.8l-0.7-0.3
	c-0.5-0.2-0.7-0.3-0.7-0.6c0-0.3,0.3-0.5,0.8-0.5c0.6,0,1.1,0.2,1.5,0.4l0.1-1.6c-0.5-0.2-1.1-0.3-1.7-0.3c-1.9,0-2.6,0.9-2.6,2.1
	c0,0.8,0.3,1.4,1.3,1.8l0.7,0.2c0.5,0.2,0.7,0.3,0.7,0.5c0,0.3-0.3,0.4-0.9,0.4c-0.8,0-1.3-0.3-1.6-0.4L160.9,35.3z"/>
<path class="st3" d="M170.2,32.3c0,1-0.2,1.8-0.8,1.8c-0.5,0-0.8-0.7-0.8-1.8c0-1,0.3-1.8,0.8-1.8C170,30.6,170.2,31.3,170.2,32.3z
	 M166.4,34.4c0,0.4,0,0.7,0,1.1h2.1c0-0.3,0.1-0.7,0.1-1h0c0.5,0.8,1,1.1,1.7,1.1c1.6,0,2.3-1.5,2.3-3.4c0-1.5-0.7-3.1-2.2-3.1
	c-0.8,0-1.3,0.3-1.7,1.1h0c0-0.3,0-0.6,0-1.1v-2.5h-2.2V34.4z"/>
<path class="st3" d="M179.2,29.2H177v3.6c0,0.5-0.1,1-0.8,1c-0.4,0-0.6-0.3-0.6-0.9v-3.8h-2.2v4.4c0,1.4,0.8,2,1.9,2
	c1.2,0,1.6-0.9,1.8-1.2h0c0,0.3,0,0.8,0,1h2c0-0.2-0.1-0.6-0.1-1V29.2z"/>
<path class="st3" d="M180.4,35.5h2.2v-3.1c0-0.8,0.5-1.4,1.2-1.4c0.3,0,0.6,0,0.6,0.1v-1.9c-0.1,0-0.2,0-0.4,0c-1,0-1.4,0.7-1.6,1.2
	h0c0-0.3,0-0.8,0-1h-2c0,0.3,0.1,0.9,0.1,1.8V35.5z"/>
<path class="st3" d="M188.9,32.3c0,1-0.1,1.7-0.8,1.7c-0.7,0-0.8-0.7-0.8-1.8c0-0.9,0.2-1.6,0.8-1.6
	C188.6,30.7,188.9,31.3,188.9,32.3z M185.3,37.7c0.3,0.1,1.4,0.4,2.4,0.4c2.4,0,3.4-1.2,3.4-3.4v-4c0-0.6,0-1.1,0.1-1.5h-2
	c0,0.3-0.1,0.7-0.1,1h0c-0.3-0.6-0.8-1.2-1.7-1.2c-1.5,0-2.3,1.5-2.3,3.1c0,2,0.7,3.3,2.4,3.3c0.8,0,1.4-0.4,1.7-1.2h0v0.5
	c0,1.2-0.4,1.9-1.7,1.9c-0.9,0-1.5-0.3-1.9-0.6L185.3,37.7z"/>
</svg>
