<?xml version="1.0" encoding="utf-8"?>
<!-- Generator: Adobe Illustrator 20.0.0, SVG Export Plug-In . SVG Version: 6.00 Build 0)  -->
<svg version="1.1" id="Ebene_1" xmlns="http://www.w3.org/2000/svg" xmlns:xlink="http://www.w3.org/1999/xlink" x="0px" y="0px"
	 viewBox="0 0 166.5 51" style="enable-background:new 0 0 166.5 51;" xml:space="preserve">
<style type="text/css">
	.st0{fill:#FFFFFF;}
</style>
<g>
	<path class="st0" d="M157,38.5h-1.2v0.9h1.2v4.6c0,1.1,0.6,1.5,1.7,1.5c0.5,0,0.8,0,1.1-0.1v-1c-0.1,0-0.4,0.1-0.6,0.1
		c-0.9,0-0.9-0.6-0.9-0.9v-4.1h1.5v-0.9h-1.5v-1.9l-1.3,0.4V38.5z"/>
	<path class="st0" d="M149.8,38.6h-1.3l0,0.8v6.1h1.3v-4c0-1.4,0.9-2.1,1.8-2.1c0.4,0,0.9,0.2,1.2,0.5c0.3,0.3,0.4,0.7,0.4,1.2v4.4
		h1.3v-4.7c0-2.1-1.9-2.3-2.5-2.3c-1.6,0-2.1,1-2.2,1.2L149.8,38.6z"/>
	<polygon class="st0" points="133.6,38.6 132.2,38.6 135,45.4 136.3,45.4 139.4,38.6 137.9,38.6 135.8,44 	"/>
	<path class="st0" d="M107.1,38.6h-1.3l0,0.8v6.1h1.3v-4c0-1.4,0.9-2.1,1.8-2.1c0.4,0,0.9,0.2,1.2,0.5c0.3,0.3,0.4,0.7,0.4,1.2v4.4
		h1.3v-4.7c0-2.1-1.9-2.3-2.5-2.3c-1.6,0-2.1,1-2.2,1.2L107.1,38.6z"/>
	<path class="st0" d="M92,43.4h-1.4c0,1.7,1.3,2.2,2.7,2.2c0.7,0,1.4-0.1,2-0.5c0.5-0.3,0.9-1,0.9-1.7c0-0.4-0.1-0.9-0.5-1.3
		c-0.4-0.4-0.8-0.5-2.7-0.9c-0.4-0.1-1-0.2-1-0.9c0-1,1.2-1,1.4-1c0.5,0,1.4,0.1,1.3,1.1h1.3c0-0.3,0-0.6-0.2-1
		c-0.4-0.8-1.6-1.1-2.5-1.1c-1.6,0-2.7,0.8-2.7,2.1c0,1.4,1.2,1.7,2.6,2.1c1,0.2,1.5,0.4,1.5,1c0,0.2-0.1,0.5-0.2,0.6
		c-0.3,0.3-0.7,0.4-1.2,0.4C92.3,44.6,92,43.9,92,43.4"/>
	<path class="st0" d="M65.1,38.6h-1.3l0,0.9v6h1.3v-3.9c0-0.4,0-1,0.3-1.4c0.2-0.2,0.6-0.8,1.5-0.8c1,0,1.5,0.7,1.5,1.5v4.6h1.3
		v-3.9c0-0.3,0-1.1,0.3-1.5c0.2-0.2,0.6-0.7,1.5-0.7c0.7,0,1.1,0.3,1.3,0.6c0.1,0.2,0.2,0.4,0.2,1v4.4h1.3v-4.6c0-2-1.5-2.4-2.5-2.4
		c-1.5,0-2.1,0.9-2.3,1.3c-0.2-0.5-0.7-1.3-2.2-1.3c-0.6,0-1.5,0.1-2.2,1.2V38.6z"/>
	<path class="st0" d="M86.6,38.4c-1.6,0-2.7,0.8-2.7,2.1c0,1.4,1.2,1.7,2.6,2.1c1,0.2,1.5,0.4,1.5,1c0,0.2-0.1,0.5-0.2,0.6
		c-0.3,0.3-0.7,0.4-1.2,0.4c-1.3,0-1.5-0.7-1.5-1.2h-1.4c0,1.7,1.3,2.2,2.7,2.2c0.7,0,1.4-0.1,2-0.5c0.5-0.3,0.9-1,0.9-1.7
		c0-0.4-0.1-0.9-0.5-1.3c-0.4-0.4-0.8-0.5-2.7-0.9c-0.4-0.1-1-0.2-1-0.9c0-1,1.2-1,1.4-1c0.5,0,1.4,0.1,1.3,1.1h1.3
		c0-0.3,0-0.6-0.2-1C88.7,38.6,87.5,38.4,86.6,38.4"/>
	<polygon class="st0" points="118.1,41.5 115.1,41.5 115.1,42.5 118.1,42.5 118.1,45.4 119.2,45.4 119.2,42.5 122.1,42.5 
		122.1,41.5 119.2,41.5 119.2,38.6 118.1,38.6 	"/>
	<path class="st0" d="M165,40.5h1.3c0-0.3,0-0.6-0.2-1c-0.4-0.8-1.6-1.1-2.5-1.1c-1.6,0-2.7,0.8-2.7,2.1c0,1.4,1.2,1.7,2.6,2.1
		c1,0.2,1.5,0.4,1.5,1c0,0.2-0.1,0.5-0.2,0.6c-0.3,0.3-0.7,0.4-1.2,0.4c-1.2,0-1.5-0.7-1.5-1.2h-1.4c0,1.7,1.3,2.2,2.7,2.2
		c0.7,0,1.4-0.1,2-0.5c0.5-0.3,0.9-1,0.9-1.7c0-0.4-0.1-0.9-0.5-1.3c-0.4-0.4-0.8-0.5-2.7-0.9c-0.4-0.1-1-0.2-1-0.9c0-1,1.2-1,1.4-1
		C164.1,39.3,165,39.4,165,40.5"/>
	<path class="st0" d="M0,51h51V0H0V51z M34,34H17V17h17V34z"/>
	<path class="st0" d="M70.9,11.3c-3.1,0-4.2,1.7-4.5,2.4V5.7h-2.6V23l-0.1,2.5h2.5l0.1-2.1c0.3,0.4,0.6,0.9,1.3,1.4
		c1.2,0.8,2.4,0.9,3.1,0.9c1.9,0,3.7-0.8,4.8-2.4c0.7-0.9,1.3-2.4,1.3-5c0-3-0.9-4.4-1.6-5.2C74,11.7,72.3,11.3,70.9,11.3
		 M70.2,23.8c-3.9,0-3.9-4.3-3.9-5.2c0-0.9,0-5.5,4-5.5c3.6,0,3.9,4,3.9,5.4C74.2,20.7,73.4,23.8,70.2,23.8"/>
	<rect x="79.6" y="5.7" class="st0" width="2.6" height="19.8"/>
	<path class="st0" d="M97.9,11.7h-2.7v7.8c0,0.7,0,1.8-0.6,2.6c-0.7,1.1-2,1.5-3.2,1.5c-2.6,0-2.9-1.7-2.9-3.1v-8.9h-2.6V21
		c0,2.7,1.6,4.7,5,4.7c3,0,3.9-1.5,4.4-2.5l0.1,2.4H98c0-0.8-0.1-2.3-0.1-2.6V11.7z"/>
	<path class="st0" d="M107.3,11.3c-0.8,0-2.5,0.1-3.8,1c-2.2,1.5-2.7,3.8-2.7,6.5c0,4.4,2.1,7.1,6.4,7.1c2.8,0,4.2-1.2,4.8-1.8
		c1-1.1,1.1-2.2,1.2-2.9h-2.6c-0.2,2-1.6,2.9-3.2,2.9c-2.8,0-4-2.1-4-5h9.9C113.4,16.8,113.5,11.3,107.3,11.3 M110.7,17.3h-7.2
		c0.1-3.1,2.1-4.1,3.8-4.1C110.5,13.2,110.7,15.9,110.7,17.3"/>
	<path class="st0" d="M123.2,11.5c-1.1,0-3.4,0.3-4.7,2.5l-0.1-2.3h-2.6c0.1,1.3,0.1,1.7,0.1,2.3v16.9h2.6V24
		c0.7,1.2,2.2,2.1,4.2,2.1c3.3,0,6.3-2.3,6.3-7.4C129,13.5,126.2,11.5,123.2,11.5 M125.2,22.8c-0.9,1.2-2.3,1.3-2.9,1.3
		c-3.6,0-3.9-3.4-3.9-5.1c0-1.2,0-5.6,4.1-5.6c3.1,0,3.8,2.6,3.8,5.1C126.4,19.5,126.2,21.5,125.2,22.8"/>
	<path class="st0" d="M137.7,11.4c-5.4,0-7,4-7,7.4c0,4,2.2,7.2,6.8,7.2c4.7,0,7-3.4,7-7.4C144.5,15.7,143.3,11.4,137.7,11.4
		 M137.6,24.1c-2.9,0-4.2-2.6-4.2-5.4c0-4.3,2.7-5.4,4.3-5.4c2.4,0,4,1.8,4,5.3C141.8,22.7,139.5,24.1,137.6,24.1"/>
	<path class="st0" d="M153.5,11.4c-5.4,0-7,4-7,7.4c0,4,2.2,7.2,6.8,7.2c4.7,0,7-3.4,7-7.4C160.2,15.7,159,11.4,153.5,11.4
		 M153.3,24.1c-2.9,0-4.2-2.6-4.2-5.4c0-4.3,2.7-5.4,4.3-5.4c2.4,0,4,1.8,4,5.3C157.5,22.7,155.3,24.1,153.3,24.1"/>
	<rect x="163.2" y="5.7" class="st0" width="2.6" height="19.8"/>
	<path class="st0" d="M79.5,38.4c-0.4,0-1.2,0-1.9,0.5c-1.1,0.8-1.4,1.9-1.4,3.2c0,2.2,1,3.5,3.2,3.5c1.4,0,2.1-0.6,2.4-0.9
		c0.5-0.5,0.5-1.1,0.6-1.4h-1.3c-0.1,1-0.8,1.4-1.6,1.4c-1.4,0-2-1.1-2-2.5h5C82.5,41.1,82.6,38.4,79.5,38.4 M77.6,41.3
		c0-1.5,1-2,1.9-2c1.6,0,1.7,1.4,1.7,2H77.6z"/>
	<path class="st0" d="M100.9,38.4c-0.4,0-1.2,0-1.9,0.5c-1.1,0.8-1.4,1.9-1.4,3.2c0,2.2,1,3.5,3.2,3.5c1.4,0,2.1-0.6,2.4-0.9
		c0.5-0.5,0.5-1.1,0.6-1.4h-1.3c-0.1,1-0.8,1.4-1.6,1.4c-1.4,0-2-1.1-2-2.5h5C103.9,41.1,104,38.4,100.9,38.4 M99,41.3
		c0-1.5,1-2,1.9-2c1.6,0,1.7,1.4,1.7,2H99z"/>
	<path class="st0" d="M128.3,38.4c-0.4,0-1.2,0-1.9,0.5c-1.1,0.8-1.4,1.9-1.4,3.2c0,2.2,1,3.5,3.2,3.5c1.4,0,2.1-0.6,2.4-0.9
		c0.5-0.5,0.5-1.1,0.6-1.4H130c-0.1,1-0.8,1.4-1.6,1.4c-1.4,0-2-1.1-2-2.5h5C131.3,41.1,131.4,38.4,128.3,38.4 M126.4,41.3
		c0-1.5,1-2,1.9-2c1.6,0,1.7,1.4,1.7,2H126.4z"/>
	<path class="st0" d="M143.6,38.4c-0.4,0-1.2,0-1.9,0.5c-1.1,0.8-1.4,1.9-1.4,3.2c0,2.2,1,3.5,3.2,3.5c1.4,0,2.1-0.6,2.4-0.9
		c0.5-0.5,0.5-1.1,0.6-1.4h-1.3c-0.1,1-0.8,1.4-1.6,1.4c-1.4,0-2-1.1-2-2.5h5C146.6,41.1,146.7,38.4,143.6,38.4 M141.7,41.3
		c0-1.5,1-2,1.9-2c1.6,0,1.7,1.4,1.7,2H141.7z"/>
</g>
</svg>
