<?xml version="1.0" encoding="utf-8"?>
<!-- Generator: Adobe Illustrator 20.0.0, SVG Export Plug-In . SVG Version: 6.00 Build 0)  -->
<svg version="1.1" id="Ebene_1" xmlns="http://www.w3.org/2000/svg" xmlns:xlink="http://www.w3.org/1999/xlink" x="0px" y="0px"
	 viewBox="0 0 166.5 51" style="enable-background:new 0 0 166.5 51;" xml:space="preserve">
<style type="text/css">
	.Gr√_x00BC_n_x0020_bogenf√_x00B6_rmig{fill:url(#SVGID_1_);stroke:#FFFFFF;stroke-width:0.25;stroke-miterlimit:1;}
	.st0{fill:#FFFFFF;}
</style>
<linearGradient id="SVGID_1_" gradientUnits="userSpaceOnUse" x1="-25.4985" y1="-25.5117" x2="-24.7914" y2="-26.2188">
	<stop  offset="0" style="stop-color:#1DA238"/>
	<stop  offset="0.9831" style="stop-color:#24391D"/>
</linearGradient>
<g>
	<path class="st0" d="M157,38.5h-1.2v0.9h1.2v4.6c0,1.1,0.6,1.5,1.7,1.5c0.5,0,0.8,0,1.1-0.1v-1c-0.1,0-0.4,0.1-0.6,0.1
		c-0.9,0-0.9-0.6-0.9-0.9v-4.1h1.5v-0.9h-1.5v-1.9l-1.3,0.4V38.5z M149.8,38.6h-1.3l0,0.8v6.1h1.3v-4c0-1.4,0.9-2.1,1.8-2.1
		c0.4,0,0.9,0.2,1.2,0.5c0.3,0.3,0.4,0.7,0.4,1.2v4.4h1.3v-4.7c0-2.1-1.9-2.3-2.5-2.3c-1.6,0-2.1,1-2.2,1.2L149.8,38.6z M133.6,38.6
		h-1.4l2.9,6.9h1.3l3-6.9h-1.4l-2.1,5.5L133.6,38.6z M107.1,38.6h-1.3l0,0.8v6.1h1.3v-4c0-1.4,0.9-2.1,1.8-2.1
		c0.4,0,0.9,0.2,1.2,0.5c0.3,0.3,0.4,0.7,0.4,1.2v4.4h1.3v-4.7c0-2.1-1.9-2.3-2.5-2.3c-1.6,0-2.1,1-2.2,1.2L107.1,38.6z M92,43.4
		h-1.4c0,1.7,1.3,2.2,2.7,2.2c0.7,0,1.4-0.1,2-0.5c0.5-0.3,0.9-1,0.9-1.7c0-0.4-0.1-0.9-0.5-1.3c-0.4-0.4-0.8-0.5-2.7-0.9
		c-0.4-0.1-1-0.2-1-0.9c0-1,1.2-1,1.4-1c0.5,0,1.4,0.1,1.3,1.1h1.3c0-0.3,0-0.6-0.2-1c-0.4-0.8-1.6-1.1-2.5-1.1
		c-1.6,0-2.7,0.8-2.7,2.1c0,1.4,1.2,1.7,2.6,2.1c1,0.2,1.5,0.4,1.5,1c0,0.2-0.1,0.5-0.2,0.6c-0.3,0.3-0.7,0.4-1.2,0.4
		C92.3,44.6,92,43.9,92,43.4 M65.1,38.6h-1.3l0,0.9v6h1.3v-3.9c0-0.4,0-1,0.3-1.4c0.2-0.2,0.6-0.8,1.5-0.8c1,0,1.5,0.7,1.5,1.5v4.6
		h1.3v-3.9c0-0.3,0-1.1,0.3-1.5c0.2-0.2,0.6-0.7,1.5-0.7c0.7,0,1.1,0.3,1.3,0.6c0.1,0.2,0.2,0.4,0.2,1v4.4h1.3v-4.6
		c0-2-1.5-2.4-2.5-2.4c-1.5,0-2.1,0.9-2.3,1.3c-0.2-0.5-0.7-1.3-2.2-1.3c-0.6,0-1.5,0.1-2.2,1.2V38.6z M17,17h17v17H17V17z M0,51h51
		V0H0V51z M74.2,18.5c0,2.3-0.8,5.4-4,5.4c-3.9,0-3.9-4.3-3.9-5.2c0-0.9,0-5.5,4-5.5C73.9,13.1,74.2,17.1,74.2,18.5 M75.6,23.4
		c0.7-0.9,1.3-2.4,1.3-5c0-3-0.9-4.4-1.6-5.2c-1.3-1.4-3-1.8-4.4-1.8c-3.1,0-4.2,1.7-4.5,2.4V5.7h-2.6v17.4l-0.1,2.5h2.5l0.1-2.1
		c0.3,0.4,0.6,0.9,1.3,1.4c1.2,0.8,2.4,0.9,3.1,0.9C72.7,25.7,74.5,24.9,75.6,23.4 M79.6,25.5h2.6V5.7h-2.6V25.5z M81.2,41.3h-3.6
		c0-1.5,1-2,1.9-2C81.1,39.3,81.2,40.7,81.2,41.3 M82.5,42.2c0-1.1,0.1-3.9-3-3.9c-0.4,0-1.2,0-1.9,0.5c-1.1,0.8-1.4,1.9-1.4,3.2
		c0,2.2,1,3.5,3.2,3.5c1.4,0,2.1-0.6,2.4-0.9c0.5-0.5,0.5-1.1,0.6-1.4h-1.3c-0.1,1-0.8,1.4-1.6,1.4c-1.4,0-2-1.1-2-2.5H82.5z
		 M86.6,38.4c-1.6,0-2.7,0.8-2.7,2.1c0,1.4,1.2,1.7,2.6,2.1c1,0.2,1.5,0.4,1.5,1c0,0.2-0.1,0.5-0.2,0.6c-0.3,0.3-0.7,0.4-1.2,0.4
		c-1.3,0-1.5-0.7-1.5-1.2h-1.4c0,1.7,1.3,2.2,2.7,2.2c0.7,0,1.4-0.1,2-0.5c0.5-0.3,0.9-1,0.9-1.7c0-0.4-0.1-0.9-0.5-1.3
		c-0.4-0.4-0.8-0.5-2.7-0.9c-0.4-0.1-1-0.2-1-0.9c0-1,1.2-1,1.4-1c0.5,0,1.4,0.1,1.3,1.1h1.3c0-0.3,0-0.6-0.2-1
		C88.7,38.6,87.5,38.4,86.6,38.4 M95.3,25.5H98c0-0.8-0.1-2.3-0.1-2.6V11.7h-2.7v7.8c0,0.7,0,1.8-0.6,2.6c-0.7,1.1-2,1.5-3.2,1.5
		c-2.6,0-2.9-1.7-2.9-3.1v-8.9h-2.6V21c0,2.7,1.6,4.7,5,4.7c3,0,3.9-1.5,4.4-2.5L95.3,25.5z M100.8,39.3c1.6,0,1.7,1.4,1.7,2H99
		C99,39.8,100,39.3,100.8,39.3 M100.9,38.4c-0.4,0-1.2,0-1.9,0.5c-1.1,0.8-1.4,1.9-1.4,3.2c0,2.2,1,3.5,3.2,3.5
		c1.4,0,2.1-0.6,2.4-0.9c0.5-0.5,0.5-1.1,0.6-1.4h-1.3c-0.1,1-0.8,1.4-1.6,1.4c-1.4,0-2-1.1-2-2.5h5C103.9,41.1,104,38.4,100.9,38.4
		 M110.7,17.3h-7.2c0.1-3.1,2.1-4.1,3.8-4.1C110.5,13.2,110.7,15.9,110.7,17.3 M113.3,19.1c0.1-2.3,0.2-7.7-6-7.7
		c-0.8,0-2.5,0.1-3.8,1c-2.2,1.5-2.7,3.8-2.7,6.5c0,4.4,2.1,7.1,6.4,7.1c2.8,0,4.2-1.2,4.8-1.8c1-1.1,1.1-2.2,1.2-2.9h-2.6
		c-0.2,2-1.6,2.9-3.2,2.9c-2.8,0-4-2.1-4-5H113.3z M118.1,41.5h-2.9v1.1h2.9v2.9h1.2v-2.9h2.9v-1.1h-2.9v-2.9h-1.2V41.5z
		 M126.4,18.5c0,1-0.1,3-1.1,4.3c-0.9,1.2-2.3,1.3-2.9,1.3c-3.6,0-3.9-3.4-3.9-5.1c0-1.2,0-5.6,4.1-5.6
		C125.6,13.4,126.4,16,126.4,18.5 M129,18.6c0-5.1-2.8-7.2-5.8-7.2c-1.1,0-3.4,0.3-4.7,2.5l-0.1-2.3h-2.6c0.1,1.3,0.1,1.7,0.1,2.3
		v16.9h2.6V24c0.7,1.2,2.2,2.1,4.2,2.1C126,26.1,129,23.8,129,18.6 M130,41.3h-3.6c0-1.5,1-2,1.9-2C129.9,39.3,130,40.7,130,41.3
		 M128.3,38.4c-0.4,0-1.2,0-1.9,0.5c-1.1,0.8-1.4,1.9-1.4,3.2c0,2.2,1,3.5,3.2,3.5c1.4,0,2.1-0.6,2.4-0.9c0.5-0.5,0.5-1.1,0.6-1.4
		H130c-0.1,1-0.8,1.4-1.6,1.4c-1.4,0-2-1.1-2-2.5h5C131.3,41.1,131.4,38.4,128.3,38.4 M141.8,18.5c0,4.2-2.2,5.6-4.2,5.6
		c-2.9,0-4.2-2.6-4.2-5.5c0-4.3,2.7-5.4,4.3-5.4C140.2,13.2,141.8,15.1,141.8,18.5 M144.5,18.6c0-2.9-1.2-7.2-6.8-7.2
		c-5.4,0-7,4-7,7.4c0,4,2.2,7.2,6.8,7.2C142.2,26,144.5,22.6,144.5,18.6 M145.3,41.3h-3.6c0-1.5,1-2,1.9-2
		C145.1,39.3,145.3,40.7,145.3,41.3 M143.6,38.4c-0.4,0-1.2,0-1.9,0.5c-1.1,0.8-1.4,1.9-1.4,3.2c0,2.2,1,3.5,3.2,3.5
		c1.4,0,2.1-0.6,2.4-0.9c0.5-0.5,0.5-1.1,0.6-1.4h-1.3c-0.1,1-0.8,1.4-1.6,1.4c-1.4,0-2-1.1-2-2.5h5
		C146.6,41.1,146.7,38.4,143.6,38.4 M157.5,18.5c0,4.2-2.2,5.6-4.2,5.6c-2.9,0-4.2-2.6-4.2-5.5c0-4.3,2.7-5.4,4.3-5.4
		C155.9,13.2,157.5,15.1,157.5,18.5 M160.2,18.6c0-2.9-1.2-7.2-6.8-7.2c-5.4,0-7,4-7,7.4c0,4,2.2,7.2,6.8,7.2
		C158,26,160.2,22.6,160.2,18.6 M163.2,25.5h2.6V5.7h-2.6V25.5z M165,40.5h1.3c0-0.3,0-0.6-0.2-1c-0.4-0.8-1.6-1.1-2.5-1.1
		c-1.6,0-2.7,0.8-2.7,2.1c0,1.4,1.2,1.7,2.6,2.1c1,0.2,1.5,0.4,1.5,1c0,0.2-0.1,0.5-0.2,0.6c-0.3,0.3-0.7,0.4-1.2,0.4
		c-1.2,0-1.5-0.7-1.5-1.2h-1.4c0,1.7,1.3,2.2,2.7,2.2c0.7,0,1.4-0.1,2-0.5c0.5-0.3,0.9-1,0.9-1.7c0-0.4-0.1-0.9-0.5-1.3
		c-0.4-0.4-0.8-0.5-2.7-0.9c-0.4-0.1-1-0.2-1-0.9c0-1,1.2-1,1.4-1C164.1,39.3,165,39.4,165,40.5"/>
</g>
</svg>
