<?xml version="1.0" encoding="utf-8"?>
<!-- Generator: Adobe Illustrator 20.0.0, SVG Export Plug-In . SVG Version: 6.00 Build 0)  -->
<svg version="1.1" id="Ebene_1" xmlns="http://www.w3.org/2000/svg" xmlns:xlink="http://www.w3.org/1999/xlink" x="0px" y="0px"
	 viewBox="0 0 218.7 218.7" style="enable-background:new 0 0 218.7 218.7;" xml:space="preserve">
<style type="text/css">
	.st0{fill:#FFFFFF;}
</style>
<g>
	<path class="st0" d="M84.7,96.6c-2-0.3-6.4-0.5-9,17.3c-4.2,19.2,0.8,18.8,0.8,18.8s5.5,3.8,8.4-17.6
		C86.7,106.9,86.9,96.8,84.7,96.6"/>
	<path class="st0" d="M109.4,0C49,0,0,49,0,109.4c0,60.4,49,109.4,109.4,109.4c60.4,0,109.4-49,109.4-109.4
		C218.7,49,169.8,0,109.4,0 M157.4,75.6c4.3-6.8,6.7,1.2,6.7,1.2s2.9,0.3,2.4,3.9c0.6,6.7-5.8,7.8-7.3,7.6
		C157.6,88,153.1,82.4,157.4,75.6 M155.3,138.7c-4.3-0.6-6.2-3.2-7.1-5.9c-0.1,0.3-0.2,0.5-0.5,0.8c-0.9,0.2-22.6,5.1-22.6,5.1
		s-4.6,1.8-4.9-3.5c-6,5.5-10.3,3.9-10.3,3.9s-6.1,0.1-8.5-8.7c-4.5,10.1-9.3,7.7-9.3,7.7s-4.8-0.9-5.3-5.6c-3.8,7-9.9,6-9.9,6
		s-4.8,0.2-8.7-6.3c-4.5,6.4-9.5,5.7-9.5,5.7s-8.4-0.8-8.3-10.2c0.1-9.4,3.2-19.2,1.9-20.6c-1.3-1.4-7.5,15.9-8.2,18.3
		c-0.7,2.4-0.8,10.4-1.5,11.7c-0.8,1.3-2.3,2.5-5,1.5c-2.7-1-3.8-4.6-3.8-4.6s-5.9,7.1-12.6,6.8c-6.7-0.3-11.4-5.6-12.4-14.7
		c-1-9.1,0.9-16.3,0.9-16.3s3.9-16.5,14.4-16.1c10.5,0.4,8,11.9,8,11.9s-1.6,9.6-6.9,8.4c-5.3-1.2-1-8.2-1-8.2s3-6.5-0.5-7.1
		c-2.1,0.4-3,1.1-6.2,9.6c-8.4,24.9,2.4,26.8,3.2,26.8c0.7,0,9.9,0.6,12.6-15.4c0.1-0.5,1.2-0.5,1.2-0.5l5.8-45c0,0,0.7-3.1,4.3-1.7
		c3.6,1.4,2.7,3.1,2.7,3.1s-7,43.2-5.7,43.5c1.3,0.3,6.3-16.7,8.3-20.2c2-3.6,3-4.4,3-4.4s1.6-1.8,5.4-0.5c3.8,1.3,3.5,3.3,3.5,3.3
		l-1.4,8.2l-2.3,13.8c0,0-2.2,13.2,2.6,13.6c5.4,0.4,5.6-6.6,5.6-6.6s1-16.2,3.3-22.5c1.1-3.2,6.6-14.6,15.4-12.3
		c7.5,2.1,6.9,7.2,6.9,7.2s2.8,0.5,3.2,1.3c0.4,0.9,0,1.4-1.2,4.5c-4.7,8-3.2,24.2-3.1,25.1s1.1,2.6,3.3,2.6
		c3.5,0.3,4.5-4.7,4.5-4.7l5.6-26.7l-4.2,0.3c0,0-2.8-0.3-3-3c-0.3-2.7,2.3-2.6,2.3-2.6l6.9-1.7l2.9-9.3c0,0,1.1-1.4,3.9-0.7
		c2.8,0.8,2.5,3.1,2.5,3.1l-1.2,4.8l7.6,0.3c0,0,5.7,3.3,4.3,5.6l-3.2,0.4l-10.6,1c0,0-6.8,28.8-5.6,31.4c1.2,2.6,3.1,2.7,3.1,2.7
		s3.9,0.5,7.5-4c1.3-1.9,3.3-4.7,4.2-6.3c0.9-1.6,2.9,1.1,2.9,1.1l14.3-19.5l-13,2.9c0,0-2.6,0.3-2.9-0.8c-0.3-1.2-0.7-2.7-0.7-2.7
		c-0.8-2.9,1.4-3.7,1.4-3.7l10-3c0,0,7.5-2.1,12.9-1.9c5.1,1.4,1.4,5.6,1.4,5.6s-10.2,12.3-13,16.5c-2.8,4.2-8.1,12.2-8.1,12.2
		s17.1-2.2,18.2-2.4c0.8-0.1,1.8,0.1,2.4,1.1c0-1.8,0.3-3,0.3-3l5.3-29.7c0,0,0.9-1.8,4.2-1.6c3.3,0.2,3.8,1.4,3.8,2.8l-6.4,32.2
		c0,0-1.2,4.3,2.6,4.8c3.8,0.5,5-4.6,5-4.6s0.9-6.2,1.9-7.5c1-1.4,2.8-1.8,3.3,1C168.1,125.2,166.4,140.2,155.3,138.7 M177.2,79.7
		c0,0-2.1,15.2-2.5,17.1c-0.4,1.8-1,1.7-3.5,0.7c-2.5-0.9-2.6-3.4-2.6-3.4l2.1-17c0.8-1.3,1-0.8,4.1-0.1
		C178,77.7,177.2,79.7,177.2,79.7 M203.2,103.3c-0.8-0.2-2-1-1.8-2.4c-0.2-1-2.4,0.3-2.4,0.3l-6.8,3.3c0,0-1.9,0.4-0.2,1.5
		c1.6,1,15.6,9.4,14.7,21.6c-0.8,12.3-8.7,13.1-11.5,12.8c-2.8-0.2-13.5-2.5-13.3-14.8c0.2-12.3,6.5-8.8,6.5-8.8s4.8,1.4,0.4,8.6
		c-4.3,7.2,4.1,9,4.1,9s8.5,0.5,7.8-8.8c-0.8-9.3-5.2-13.5-12.5-16.4c-7.3-2.9-1.8-8.5-1.8-8.5l20-9.1c0,0,6.7,0.2,2.1,6.9
		C206.5,100.4,204.1,103.6,203.2,103.3"/>
</g>
</svg>
