<?xml version="1.0" encoding="utf-8"?>
<!-- Generator: Adobe Illustrator 20.0.0, SVG Export Plug-In . SVG Version: 6.00 Build 0)  -->
<svg version="1.1" id="Ebene_1" xmlns="http://www.w3.org/2000/svg" xmlns:xlink="http://www.w3.org/1999/xlink" x="0px" y="0px"
	 viewBox="0 0 1801.8 462" style="enable-background:new 0 0 1801.8 462;" xml:space="preserve">
<style type="text/css">
	.st0{fill:#FFFFFF;}
</style>
<path class="st0" d="M601.5,365.6c0,8.3-0.9,16.1-2.7,23.3c-1.8,7.3-4.7,13.6-8.7,19.1c-4,5.4-9.3,9.7-15.7,12.8s-14.3,4.7-23.6,4.7
	c-7.5,0-14.2-0.6-20-1.8s-10.7-2.8-14.8-5V313.4c4.3-2,9.1-3.6,14.6-4.9c5.5-1.2,11.7-1.8,18.8-1.8c9.4,0,17.4,1.5,24,4.4
	c6.6,3,12,7.1,16.1,12.4s7.2,11.6,9.1,18.7C600.5,349.4,601.5,357.2,601.5,365.6z M574,365.1c0-14.3-1.8-24.7-5.4-31.1
	c-3.6-6.4-9.6-9.6-18-9.6c-3.1,0-5.7,0.4-7.7,1.2v79.9c1,0.3,2.2,0.6,3.6,0.8c1.4,0.2,2.9,0.3,4.4,0.3c4.1,0,7.7-0.8,10.6-2.3
	c2.9-1.5,5.3-3.9,7.1-7.2c1.8-3.3,3.2-7.6,4-12.8C573.5,379.1,574,372.7,574,365.1z M662.4,350.5c-3.2-1.3-6.4-2-9.6-2
	c-3,0-5.7,0.5-7.9,1.5v73.9h-26.2v-85.4c5-2.5,11.3-4.3,18.9-5.5c7.6-1.2,17.4-1.5,29.6-0.9L662.4,350.5z M754.7,418.4
	c-4.3,2.1-9.5,3.8-15.7,5.1s-13.6,1.9-22.1,1.9c-12.9,0-22.4-2.5-28.6-7.5c-6.2-5-9.3-13-9.3-23.9v-60.8h26.2v62.6
	c0,3.2,0.9,6,2.9,8.4c1.9,2.3,5.1,3.5,9.6,3.5s8.1-0.7,10.9-2.2v-72.3h26.2v85.2H754.7z M830.6,418.9c-1.9,1.9-4.6,3.5-8.2,4.7
	c-3.6,1.2-8.2,1.8-13.9,1.8c-5.4,0-10.3-1-14.8-3.1c-4.5-2.1-8.4-5.1-11.8-9.1c-3.3-4-5.9-8.9-7.8-14.8s-2.8-12.6-2.8-20.2
	s1-14.3,2.9-20.1c1.9-5.8,4.6-10.7,8-14.6s7.3-6.9,11.8-8.9s9.2-3,14.2-3c5.6,0,10.2,0.7,13.8,2s6.4,2.9,8.4,4.5l-5.4,14.4
	c-1.2-0.9-2.7-1.7-4.4-2.4c-1.7-0.7-3.8-1.1-6.4-1.1c-5.7,0-9.9,2.5-12.7,7.5c-2.7,5-4.1,12.1-4.1,21.4c0,9.2,1.5,16.3,4.4,21.3
	s7,7.6,12.3,7.6c2.5,0,4.6-0.3,6.3-0.9s3.3-1.5,4.6-2.8L830.6,418.9L830.6,418.9z M898.1,423.8l-26-45.7h-0.3v45.7h-26.2V292.1h26.2
	v81.2h0.3l25.3-39.9h26.2L895.2,374l32.2,49.9h-29.3V423.8z M1057.5,418.4c-4.3,2.1-9.5,3.8-15.7,5.1s-13.6,1.9-22.1,1.9
	c-12.9,0-22.4-2.5-28.6-7.5s-9.3-13-9.3-23.9v-60.8h26.2v62.6c0,3.2,0.9,6,2.9,8.4c1.9,2.3,5.1,3.5,9.6,3.5s8.1-0.7,10.9-2.2v-72.3
	h26.2L1057.5,418.4L1057.5,418.4z M1128,423.8v-63.3c0-1.6-0.2-3.1-0.6-4.6s-1.1-2.9-2.1-4s-2.4-2.1-4.1-2.9
	c-1.7-0.7-3.9-1.1-6.6-1.1c-2.6,0-4.7,0.2-6.3,0.5c-1.6,0.3-3.2,0.8-4.8,1.3v74h-26.2v-85.4c4.6-2,10-3.6,16.4-4.9
	c6.3-1.2,13.5-1.8,21.6-1.8c7.2,0,13.2,0.7,18.2,2.2s9,3.5,12.1,6c3.1,2.6,5.3,5.6,6.6,9.1c1.3,3.5,2,7.3,2,11.4v63.4L1128,423.8
	L1128,423.8z M1250,418.8c-4.1,2.2-9,3.9-14.6,5c-5.5,1.1-12.3,1.7-20.1,1.7c-6.8,0-13-1-18.5-3s-10.2-5-14-8.8
	c-3.9-3.9-6.8-8.7-8.9-14.4c-2.1-5.8-3.1-12.4-3.1-20.1c0-7.3,1-13.8,2.9-19.6c2-5.8,4.7-10.7,8.2-14.7s7.7-7.1,12.6-9.3
	c4.9-2.2,10.2-3.3,16-3.3c2.7,0,5.1,0.1,7.4,0.4c2.2,0.3,4.2,0.6,5.9,1.1V292h26.2V418.8L1250,418.8z M1223.9,347.9
	c-2.2-0.7-4.6-1-7.2-1c-3.6,0-6.7,0.8-9.2,2.3c-2.6,1.5-4.6,3.6-6.2,6.3c-1.6,2.7-2.7,5.9-3.4,9.7c-0.7,3.8-1.1,8.1-1.1,12.8
	c0,9.8,1.5,17.5,4.5,22.8c3,5.4,7.9,8.1,14.6,8.1c3.7,0,6.4-0.4,8.1-1.3v-59.7H1223.9z M1401.1,365.6c0,8.3-0.9,16.1-2.7,23.3
	c-1.8,7.3-4.7,13.6-8.7,19.1c-4,5.4-9.3,9.7-15.7,12.8c-6.4,3.1-14.3,4.7-23.6,4.7c-7.5,0-14.2-0.6-20-1.8s-10.7-2.8-14.8-5V313.4
	c4.3-2,9.1-3.6,14.6-4.9c5.5-1.2,11.7-1.8,18.8-1.8c9.4,0,17.4,1.5,24,4.4c6.6,3,12,7.1,16.1,12.4s7.2,11.6,9.1,18.7
	C1400.2,349.4,1401.1,357.2,1401.1,365.6z M1373.6,365.1c0-14.3-1.8-24.7-5.4-31.1s-9.6-9.6-18-9.6c-3.1,0-5.7,0.4-7.7,1.2v79.9
	c1,0.3,2.2,0.6,3.6,0.8c1.4,0.2,2.9,0.3,4.4,0.3c4.1,0,7.7-0.8,10.6-2.3s5.3-3.9,7.1-7.2c1.8-3.3,3.2-7.6,4-12.8
	C1373.2,379.1,1373.6,372.7,1373.6,365.1z M1494.4,376.3c0,0.6,0,1.2-0.1,1.8c-0.1,0.7-0.1,1.3-0.1,1.8l-54.2,7.7
	c0.9,6.7,3.1,11.7,6.5,14.9c3.5,3.2,8.6,4.9,15.3,4.9c5.4,0,10-0.5,13.9-1.5s7.1-2.1,9.6-3.4l6,16.3c-3.6,1.9-8,3.5-13.2,4.7
	s-11.7,1.8-19.4,1.8c-6.9,0-13.1-1.1-18.5-3.3s-10-5.3-13.7-9.5c-3.7-4.1-6.5-9.1-8.5-14.9s-2.9-12.3-2.9-19.6
	c0-7,0.9-13.5,2.7-19.2c1.8-5.8,4.4-10.7,7.9-14.8c3.5-4.1,7.7-7.2,12.8-9.4c5.1-2.2,10.9-3.3,17.4-3.3s12.1,1.1,17,3.2
	c4.8,2.1,8.8,5.1,12,9s5.6,8.5,7.1,14C1493.6,363.3,1494.4,369.5,1494.4,376.3z M1469.9,370.1c0-8.1-1.3-13.9-3.8-17.5
	s-6.2-5.5-11.2-5.5c-5.4,0-9.6,2.3-12.7,6.9s-4.4,11.6-3.9,21.1L1469.9,370.1L1469.9,370.1z M1566.6,396.8c0,3.9-0.8,7.6-2.3,11.1
	c-1.6,3.5-3.8,6.5-6.8,9.1s-6.6,4.6-10.8,6.1c-4.3,1.5-9.1,2.3-14.4,2.3c-5.6,0-10.7-0.6-15.4-1.8c-4.6-1.2-8.4-2.8-11.2-4.7
	l6.7-16.6c1.7,1.3,4,2.5,6.9,3.6s6,1.6,9.2,1.6c3.4,0,6.1-0.9,8.1-2.8c2.1-1.8,3.1-4.2,3.1-7.1c0-3-0.9-5.5-2.6-7.4s-4.7-3.7-9-5.4
	c-4.1-1.7-7.5-3.5-10.2-5.4c-2.6-1.9-4.7-3.9-6.2-6.1s-2.5-4.4-3.1-6.7c-0.6-2.3-0.8-4.6-0.8-7c0-3.8,0.7-7.4,2.2-10.8
	s3.5-6.4,6.1-8.9s5.8-4.5,9.5-6s7.8-2.2,12.4-2.2c5.7,0,10.6,0.5,14.6,1.6s7.8,2.7,11.4,5l-6.4,14.9c-1.3-1.1-3.2-2.2-5.7-3.2
	s-5.1-1.5-8.1-1.5c-3.5,0-6.1,0.9-7.8,2.8c-1.7,1.8-2.6,4.1-2.6,6.6c0,3,1,5.5,3.1,7.3s4.9,3.6,8.5,5.1c4.4,1.9,7.9,3.8,10.7,5.8
	c2.8,2,5,4,6.5,6.2c1.6,2.2,2.7,4.5,3.3,6.9C1566.3,391.6,1566.6,394.1,1566.6,396.8z M1610.2,307.3c0,3.5-1.3,6.4-4,8.7
	s-6,3.5-9.9,3.5s-7.2-1.2-9.9-3.5c-2.7-2.3-4-5.3-4-8.7c0-3.4,1.3-6.2,4-8.6s6-3.6,9.9-3.6s7.2,1.2,9.9,3.6
	C1608.9,301.1,1610.2,304,1610.2,307.3z M1583.2,423.8v-90.5h26.2v90.5H1583.2z M1705.1,424.5c0,6.4-1,11.9-2.9,16.6
	c-2,4.7-4.7,8.6-8.2,11.7c-3.5,3.1-7.7,5.4-12.5,6.9s-10.1,2.3-15.9,2.3c-7,0-13.5-0.6-19.5-1.8c-5.9-1.2-10.7-2.9-14.3-4.9l6.7-17
	c2.8,1.6,6.2,2.9,10.1,3.9s8,1.5,12.3,1.5c6.9,0,11.8-1.5,14.6-4.5c2.8-3,4.2-7.2,4.2-12.4v-5c-1.6,0.9-3.6,1.6-6.2,2.1
	s-5.8,0.8-9.6,0.8c-5.4,0-10.4-1-14.9-3c-4.6-2-8.5-4.9-11.8-8.6s-5.9-8.3-7.7-13.8c-1.8-5.4-2.8-11.5-2.8-18.2
	c0-7.5,1-14.3,2.9-20.4c2-6.1,4.9-11.3,8.7-15.5c3.9-4.3,8.7-7.5,14.5-9.8s12.6-3.4,20.3-3.4c7,0,13.3,0.6,18.9,1.9
	c5.5,1.3,9.9,2.9,13.2,4.8L1705.1,424.5L1705.1,424.5z M1679.6,348.3c-2-1-4.8-1.5-8.2-1.5c-6.7,0-11.6,2.7-14.5,8.1
	c-3,5.4-4.4,13.6-4.4,24.4c0,10.3,1.4,17.9,4.3,22.8s7.6,7.4,14.2,7.4c3.5,0,6.4-0.7,8.7-2.2L1679.6,348.3L1679.6,348.3z
	 M1775.6,423.8v-63.3c0-1.6-0.2-3.1-0.6-4.6s-1.1-2.9-2.1-4s-2.4-2.1-4.1-2.9c-1.7-0.7-3.9-1.1-6.6-1.1c-2.6,0-4.7,0.2-6.3,0.5
	c-1.6,0.3-3.2,0.8-4.8,1.3v74h-26.2v-85.4c4.6-2,10-3.6,16.4-4.9c6.3-1.2,13.5-1.8,21.6-1.8c7.2,0,13.2,0.7,18.2,2.2s9,3.5,12.1,6
	c3.1,2.6,5.3,5.6,6.6,9.1c1.3,3.5,2,7.3,2,11.4v63.4L1775.6,423.8L1775.6,423.8z"/>
<path class="st0" d="M1190.7,77.5c-3.8-14.9-10-27.8-18.6-38.9s-20-19.8-34.2-26.2c-14.2-6.5-31.7-9.7-52.7-9.7
	c-15.2,0-28.6,1.3-40.2,4s-22.3,6.1-32,10.2v216.3c9.2,4.6,20.1,8.1,32.7,10.5s26.9,3.6,43,3.6c20.3,0,37.3-3.3,51.1-9.9
	c13.8-6.6,24.9-15.5,33.3-26.8s14.4-24.3,18-39c3.6-14.7,5.4-30.3,5.4-46.6C1196.4,108.1,1194.5,92.3,1190.7,77.5 M1125.9,160.7
	c-1.4,10-3.6,18-6.6,23.8c-3,5.9-6.9,10-11.8,12.4c-4.8,2.4-10.6,3.6-17.3,3.6c-1.9,0-3.7-0.1-5.5-0.3c-1.8-0.2-3.4-0.6-4.5-1V48.6
	c2.8-0.7,5.8-1,9-1c7.1,0,13.2,1.3,18.1,4c4.9,2.6,8.9,7,11.9,13.1s5.2,13.9,6.6,23.5c1.4,9.5,2.1,21.2,2.1,35.1
	C1128,138.2,1127.3,150.7,1125.9,160.7 M972.2,243.8V6.1h-57.3v98.5c0,5.7,0.5,13.4,1.4,22.8h-0.7c-4.1-9-7.9-16.2-11.4-21.8
	L843.7,6.1H786v237.7h57v-112c0-6.2-0.5-14.3-1.4-24.2h0.7c4.1,9.4,7.8,16.9,11.1,22.4l68.1,113.7L972.2,243.8L972.2,243.8z
	 M676.8,243.8h68.4V6.1h-68.4V243.8z M643.7,51.7V6.1H516.9v237.7h68.4v-98.1h50.1v-44.6h-50.1V51.7L643.7,51.7L643.7,51.7z"/>
<path class="st0" d="M131,263.1h130.2V162.5H131v-29.3l159.5-0.3v0.3h0.3v159.2h-0.3v0.3l-129.8-0.3v104.2l73.2,0.3
	c4.5,0,9.1-0.1,13.6-0.3c4.6-0.2,9.1-0.5,13.4-0.9s8.3-0.9,12.3-1.5s8-1.3,11.5-2c3.6-0.8,6.7-1.5,9.9-2.5c4.5-1.3,8.9-2.8,13.3-4.7
	c2.8-1.2,5.6-2.5,8.4-4c1.5-0.8,2.9-1.6,4.8-2.8c1.9-1.2,4.2-2.7,6.5-4.2c2.3-1.6,4.5-3.2,6.8-5s4.7-3.9,7.1-6
	c2.3-2.1,4.5-4.4,6.9-6.9c2.3-2.5,4.8-5.3,7.2-8.1c2.4-2.8,4.6-5.7,6.8-8.8c4.4-6.1,8.6-12.7,12-19.2c1.7-3.3,3.3-6.5,4.7-9.8
	c1.5-3.2,2.8-6.5,4-9.4c1.1-2.8,2-5.3,2.8-7.7c5.1-15.2,8.1-30.6,10.1-45.9c1.2-10.5,2.1-20.9,2.4-31.4c0.3-7.7,0.1-15.4-0.3-23
	c-0.4-8-1.1-15.9-2.2-23.9c-1.1-7.7-2.6-15.5-4.5-23.2c-1.1-4.3-2.3-8.6-3.6-12.9c-1.9-6.2-4.2-12.2-6.8-18.2
	c-1.7-3.9-3.5-7.7-5.6-11.5c-1-2-2.1-3.9-3.5-6.2s-3.1-5-4.9-7.6s-3.6-5.2-5.6-7.8s-4.1-5.1-6.3-7.6c-2.2-2.5-4.6-4.8-6.8-7
	c-2.2-2.2-4.4-4.2-6.7-6.1c-2.3-1.9-4.6-3.7-6.9-5.3s-4.5-3.1-6.8-4.4c-2.2-1.4-4.5-2.7-6.4-3.7c-1.9-1.1-3.4-1.8-5-2.6
	c-1.5-0.7-3.1-1.5-5.3-2.4c-2.2-0.9-5.1-2.1-8.1-3.1c-4.6-1.6-9.2-3-13.9-4c-11.8-2.8-23.6-4.2-35.5-5.1c-6.8-0.4-13.5-0.7-20.3-0.7
	l-204.1,0v396.7H0V0h29.3v0.1h203.9c5,0.1,9.9,0.1,14.8,0.3c5,0.2,9.9,0.5,14.8,1c4.6,0.4,9.2,0.9,13.7,1.6
	c4.6,0.7,9.1,1.4,13.3,2.3c4.2,0.8,8.1,1.8,11.9,2.8c3.8,1.1,7.7,2.2,11.3,3.5c3.6,1.2,6.9,2.6,10.2,4c3.3,1.4,6.6,2.9,11.3,5.5
	c4.7,2.6,10.9,6.2,16.7,10.3c5.8,4.1,11.3,8.8,15.3,12.6c4.1,3.7,6.8,6.6,9.4,9.5c2.7,2.9,5.2,5.9,7.8,9.2c2.5,3.2,5.1,6.7,7.5,10.3
	c2.4,3.5,4.7,7.2,6.9,11.1c2.2,3.9,4.4,8,6.5,12.3c2,4.2,3.9,8.5,5.7,13.1s3.5,9.4,5.1,14.3s3,9.8,4.2,15c1.3,5.2,2.4,10.7,3.4,16.2
	s1.8,11,2.4,16.7c0.7,5.7,1.2,11.6,1.5,17.6c0.7,11.9,0.7,24,0,36.2c-0.3,6.1-0.8,12.2-1.4,18.2c-0.6,6-1.4,11.8-2.3,17.6
	c-0.9,5.8-2,11.6-3.2,17.1s-2.5,10.6-4,15.7s-3.2,10.1-4.9,14.9c-1.8,4.7-3.6,9.2-5.6,13.6s-4.1,8.8-7.4,14.6
	c-3.3,5.9-7.8,13.2-12.9,20.2s-10.8,13.5-15,18.1s-7,7.2-9.9,9.7c-2.8,2.6-5.8,5-8.7,7.3c-2.9,2.3-5.8,4.4-8.8,6.4s-6,3.9-9.1,5.7
	c-3.1,1.8-6.3,3.5-9.5,5c-3.2,1.6-6.5,3-10.1,4.3c-3.5,1.3-7.3,2.6-11.1,3.7c-10.5,3.1-21.3,5-31.9,6.3c-12.4,1.5-24.9,2.1-37.4,2.2
	H131V263.1"/>
</svg>
