<?xml version="1.0" encoding="utf-8"?>
<!-- Generator: Adobe Illustrator 20.0.0, SVG Export Plug-In . SVG Version: 6.00 Build 0)  -->
<svg version="1.1" id="Ebene_1" xmlns="http://www.w3.org/2000/svg" xmlns:xlink="http://www.w3.org/1999/xlink" x="0px" y="0px"
	 viewBox="0 0 2008.3 602.6" style="enable-background:new 0 0 2008.3 602.6;" xml:space="preserve">
<style type="text/css">
	.st0{clip-path:url(#SVGID_2_);}
	.st1{clip-path:url(#SVGID_4_);}
	.st2{clip-path:url(#SVGID_6_);fill:#FFFFFF;}
	.st3{clip-path:url(#SVGID_6_);fill:none;stroke:#000000;stroke-width:7.358;}
	.st4{clip-path:url(#SVGID_6_);fill-rule:evenodd;clip-rule:evenodd;fill:#FFFFFF;}
</style>
<g>
	<g>
		<defs>
			<rect id="SVGID_1_" x="29.2" y="23.5" width="1951.7" height="555.6"/>
		</defs>
		<clipPath id="SVGID_2_">
			<use xlink:href="#SVGID_1_"  style="overflow:visible;"/>
		</clipPath>
		<g class="st0">
			<defs>
				<rect id="SVGID_3_" x="19.8" y="15" width="1968.7" height="572.6"/>
			</defs>
			<clipPath id="SVGID_4_">
				<use xlink:href="#SVGID_3_"  style="overflow:visible;"/>
			</clipPath>
			<g class="st1">
				<defs>
					<rect id="SVGID_5_" width="2008.3" height="602.6"/>
				</defs>
				<clipPath id="SVGID_6_">
					<use xlink:href="#SVGID_5_"  style="overflow:visible;"/>
				</clipPath>
				<path class="st2" d="M701.5,456.1c0,8.3-0.9,16.1-2.7,23.3c-1.8,7.3-4.7,13.6-8.7,19.1c-4,5.4-9.3,9.7-15.7,12.8
					c-6.4,3.1-14.3,4.7-23.6,4.7c-7.5,0-14.2-0.6-20-1.8c-5.8-1.2-10.7-2.8-14.8-5V403.9c4.3-2,9.1-3.6,14.6-4.9
					c5.5-1.2,11.7-1.8,18.8-1.8c9.4,0,17.4,1.5,24,4.4c6.6,3,12,7.1,16.1,12.4c4.1,5.3,7.2,11.6,9.1,18.7
					C700.5,439.9,701.5,447.7,701.5,456.1z M674,455.6c0-14.3-1.8-24.7-5.4-31.1c-3.6-6.4-9.6-9.6-18-9.6c-3.1,0-5.7,0.4-7.7,1.2
					V496c1,0.3,2.2,0.6,3.6,0.8c1.4,0.2,2.9,0.3,4.4,0.3c4.1,0,7.7-0.8,10.6-2.3c2.9-1.5,5.3-3.9,7.1-7.2c1.8-3.3,3.2-7.6,4-12.8
					C673.5,469.6,674,463.2,674,455.6z M762.4,441c-3.2-1.3-6.4-2-9.6-2c-3,0-5.7,0.5-7.9,1.5v73.9h-26.2v-85.4
					c5-2.5,11.3-4.3,18.9-5.5c7.6-1.2,17.4-1.5,29.6-0.9L762.4,441z M854.7,508.9c-4.3,2.1-9.5,3.8-15.7,5.1
					c-6.2,1.3-13.6,1.9-22.1,1.9c-12.9,0-22.4-2.5-28.6-7.5c-6.2-5-9.3-13-9.3-23.9v-60.8h26.2v62.6c0,3.2,0.9,6,2.9,8.4
					c1.9,2.3,5.1,3.5,9.6,3.5c4.5,0,8.1-0.7,10.9-2.2v-72.3h26.2V508.9L854.7,508.9z M930.6,509.4c-1.9,1.9-4.6,3.5-8.2,4.7
					c-3.6,1.2-8.2,1.8-13.9,1.8c-5.4,0-10.3-1-14.8-3.1c-4.5-2.1-8.4-5.1-11.8-9.1c-3.3-4-5.9-8.9-7.8-14.8s-2.8-12.6-2.8-20.2
					c0-7.6,1-14.3,2.9-20.1c1.9-5.8,4.6-10.7,8-14.6c3.4-3.9,7.3-6.9,11.8-8.9c4.5-2,9.2-3,14.2-3c5.6,0,10.2,0.7,13.8,2
					c3.6,1.3,6.4,2.9,8.4,4.5l-5.4,14.4c-1.2-0.9-2.7-1.7-4.4-2.4c-1.7-0.7-3.8-1.1-6.4-1.1c-5.7,0-9.9,2.5-12.7,7.5
					c-2.7,5-4.1,12.1-4.1,21.4c0,9.2,1.5,16.3,4.4,21.3c2.9,5,7,7.6,12.3,7.6c2.5,0,4.6-0.3,6.3-0.9c1.7-0.6,3.3-1.5,4.6-2.8
					L930.6,509.4L930.6,509.4z M998.1,514.3l-26-45.7h-0.3v45.7h-26.2V382.6h26.2v81.2h0.3l25.3-39.9h26.2l-28.4,40.6l32.2,49.9
					H998.1z M1157.5,508.9c-4.3,2.1-9.5,3.8-15.7,5.1c-6.2,1.3-13.6,1.9-22.1,1.9c-12.9,0-22.4-2.5-28.6-7.5c-6.2-5-9.3-13-9.3-23.9
					v-60.8h26.2v62.6c0,3.2,0.9,6,2.9,8.4c1.9,2.3,5.1,3.5,9.6,3.5c4.5,0,8.1-0.7,10.9-2.2v-72.3h26.2V508.9L1157.5,508.9z
					 M1228,514.3V451c0-1.6-0.2-3.1-0.6-4.6c-0.4-1.5-1.1-2.9-2.1-4s-2.4-2.1-4.1-2.9c-1.7-0.7-3.9-1.1-6.6-1.1
					c-2.6,0-4.7,0.2-6.3,0.5c-1.6,0.3-3.2,0.8-4.8,1.3v74h-26.2v-85.4c4.6-2,10-3.6,16.4-4.9c6.3-1.2,13.5-1.8,21.6-1.8
					c7.2,0,13.2,0.7,18.2,2.2c5,1.5,9,3.5,12.1,6c3.1,2.6,5.3,5.6,6.6,9.1c1.3,3.5,2,7.3,2,11.4v63.4H1228z M1350,509.3
					c-4.1,2.2-9,3.9-14.6,5c-5.5,1.1-12.3,1.7-20.1,1.7c-6.8,0-13-1-18.5-3c-5.5-2-10.2-5-14-8.8c-3.9-3.9-6.8-8.7-8.9-14.4
					c-2.1-5.8-3.1-12.4-3.1-20.1c0-7.3,1-13.8,2.9-19.6c2-5.8,4.7-10.7,8.2-14.7s7.7-7.1,12.6-9.3c4.9-2.2,10.2-3.3,16-3.3
					c2.7,0,5.1,0.1,7.4,0.4c2.2,0.3,4.2,0.6,5.9,1.1v-41.8h26.2V509.3L1350,509.3z M1323.9,438.4c-2.2-0.7-4.6-1-7.2-1
					c-3.6,0-6.7,0.8-9.2,2.3c-2.6,1.5-4.6,3.6-6.2,6.3c-1.6,2.7-2.7,5.9-3.4,9.7c-0.7,3.8-1.1,8.1-1.1,12.8c0,9.8,1.5,17.5,4.5,22.8
					c3,5.4,7.9,8.1,14.6,8.1c3.7,0,6.4-0.4,8.1-1.3V438.4z M1501.1,456.1c0,8.3-0.9,16.1-2.7,23.3c-1.8,7.3-4.7,13.6-8.7,19.1
					c-4,5.4-9.3,9.7-15.7,12.8c-6.4,3.1-14.3,4.7-23.6,4.7c-7.5,0-14.2-0.6-20-1.8c-5.8-1.2-10.7-2.8-14.8-5V403.9
					c4.3-2,9.1-3.6,14.6-4.9c5.5-1.2,11.7-1.8,18.8-1.8c9.4,0,17.4,1.5,24,4.4c6.6,3,12,7.1,16.1,12.4c4.1,5.3,7.2,11.6,9.1,18.7
					C1500.2,439.9,1501.1,447.7,1501.1,456.1z M1473.6,455.6c0-14.3-1.8-24.7-5.4-31.1c-3.6-6.4-9.6-9.6-18-9.6
					c-3.1,0-5.7,0.4-7.7,1.2V496c1,0.3,2.2,0.6,3.6,0.8c1.4,0.2,2.9,0.3,4.4,0.3c4.1,0,7.7-0.8,10.6-2.3c2.9-1.5,5.3-3.9,7.1-7.2
					c1.8-3.3,3.2-7.6,4-12.8C1473.2,469.6,1473.6,463.2,1473.6,455.6z M1594.4,466.8c0,0.6,0,1.2-0.1,1.8c-0.1,0.7-0.1,1.3-0.1,1.8
					l-54.2,7.7c0.9,6.7,3.1,11.7,6.5,14.9c3.5,3.2,8.6,4.9,15.3,4.9c5.4,0,10-0.5,13.9-1.5c3.9-1,7.1-2.1,9.6-3.4l6,16.3
					c-3.6,1.9-8,3.5-13.2,4.7s-11.7,1.8-19.4,1.8c-6.9,0-13.1-1.1-18.5-3.3c-5.4-2.2-10-5.3-13.7-9.5c-3.7-4.1-6.5-9.1-8.5-14.9
					c-2-5.8-2.9-12.3-2.9-19.6c0-7,0.9-13.5,2.7-19.2c1.8-5.8,4.4-10.7,7.9-14.8c3.5-4.1,7.7-7.2,12.8-9.4
					c5.1-2.2,10.9-3.3,17.4-3.3c6.5,0,12.1,1.1,17,3.2c4.8,2.1,8.8,5.1,12,9c3.2,3.9,5.6,8.5,7.1,14
					C1593.6,453.8,1594.4,460,1594.4,466.8z M1569.9,460.6c0-8.1-1.3-13.9-3.8-17.5c-2.5-3.6-6.2-5.5-11.2-5.5
					c-5.4,0-9.6,2.3-12.7,6.9c-3.1,4.6-4.4,11.6-3.9,21.1L1569.9,460.6L1569.9,460.6z M1666.6,487.3c0,3.9-0.8,7.6-2.3,11.1
					c-1.6,3.5-3.8,6.5-6.8,9.1c-3,2.6-6.6,4.6-10.8,6.1c-4.3,1.5-9.1,2.3-14.4,2.3c-5.6,0-10.7-0.6-15.4-1.8
					c-4.6-1.2-8.4-2.8-11.2-4.7l6.7-16.6c1.7,1.3,4,2.5,6.9,3.6c2.9,1.1,6,1.6,9.2,1.6c3.4,0,6.1-0.9,8.1-2.8
					c2.1-1.8,3.1-4.2,3.1-7.1c0-3-0.9-5.5-2.6-7.4c-1.7-1.9-4.7-3.7-9-5.4c-4.1-1.7-7.5-3.5-10.2-5.4c-2.6-1.9-4.7-3.9-6.2-6.1
					c-1.5-2.2-2.5-4.4-3.1-6.7c-0.6-2.3-0.8-4.6-0.8-7c0-3.8,0.7-7.4,2.2-10.8c1.5-3.4,3.5-6.4,6.1-8.9c2.6-2.5,5.8-4.5,9.5-6
					c3.7-1.5,7.8-2.2,12.4-2.2c5.7,0,10.6,0.5,14.6,1.6c4,1.1,7.8,2.7,11.4,5l-6.4,14.9c-1.3-1.1-3.2-2.2-5.7-3.2
					c-2.5-1-5.1-1.5-8.1-1.5c-3.5,0-6.1,0.9-7.8,2.8c-1.7,1.8-2.6,4.1-2.6,6.6c0,3,1,5.5,3.1,7.3c2.1,1.8,4.9,3.6,8.5,5.1
					c4.4,1.9,7.9,3.8,10.7,5.8c2.8,2,5,4,6.5,6.2c1.6,2.2,2.7,4.5,3.3,6.9C1666.3,482.1,1666.6,484.6,1666.6,487.3z M1710.2,397.8
					c0,3.5-1.3,6.4-4,8.7s-6,3.5-9.9,3.5c-3.9,0-7.2-1.2-9.9-3.5c-2.7-2.3-4-5.3-4-8.7c0-3.4,1.3-6.2,4-8.6c2.7-2.4,6-3.6,9.9-3.6
					c3.9,0,7.2,1.2,9.9,3.6C1708.9,391.6,1710.2,394.5,1710.2,397.8z M1683.2,514.3v-90.5h26.2v90.5H1683.2z M1805.1,515
					c0,6.4-1,11.9-2.9,16.6c-2,4.7-4.7,8.6-8.2,11.7c-3.5,3.1-7.7,5.4-12.5,6.9c-4.8,1.5-10.1,2.3-15.9,2.3c-7,0-13.5-0.6-19.5-1.8
					c-5.9-1.2-10.7-2.9-14.3-4.9l6.7-17c2.8,1.6,6.2,2.9,10.1,3.9c3.9,1,8,1.5,12.3,1.5c6.9,0,11.8-1.5,14.6-4.5
					c2.8-3,4.2-7.2,4.2-12.4v-5c-1.6,0.9-3.6,1.6-6.2,2.1c-2.6,0.5-5.8,0.8-9.6,0.8c-5.4,0-10.4-1-14.9-3c-4.6-2-8.5-4.9-11.8-8.6
					c-3.3-3.7-5.9-8.3-7.7-13.8c-1.8-5.4-2.8-11.5-2.8-18.2c0-7.5,1-14.3,2.9-20.4c2-6.1,4.9-11.3,8.7-15.5
					c3.9-4.3,8.7-7.5,14.5-9.8c5.8-2.3,12.6-3.4,20.3-3.4c7,0,13.3,0.6,18.9,1.9c5.5,1.3,9.9,2.9,13.2,4.8V515L1805.1,515z
					 M1779.6,438.8c-2-1-4.8-1.5-8.2-1.5c-6.7,0-11.6,2.7-14.5,8.1c-3,5.4-4.4,13.6-4.4,24.4c0,10.3,1.4,17.9,4.3,22.8
					c2.9,4.9,7.6,7.4,14.2,7.4c3.5,0,6.4-0.7,8.7-2.2V438.8z M1875.6,514.3V451c0-1.6-0.2-3.1-0.6-4.6c-0.4-1.5-1.1-2.9-2.1-4
					s-2.4-2.1-4.1-2.9c-1.7-0.7-3.9-1.1-6.6-1.1c-2.6,0-4.7,0.2-6.3,0.5c-1.6,0.3-3.2,0.8-4.8,1.3v74h-26.2v-85.4
					c4.6-2,10-3.6,16.4-4.9c6.3-1.2,13.5-1.8,21.6-1.8c7.2,0,13.2,0.7,18.2,2.2c5,1.5,9,3.5,12.1,6c3.1,2.6,5.3,5.6,6.6,9.1
					c1.3,3.5,2,7.3,2,11.4v63.4H1875.6z"/>
				<path class="st2" d="M1290.7,168c-3.8-14.9-10-27.8-18.6-38.9c-8.6-11.1-20-19.8-34.2-26.2c-14.2-6.5-31.7-9.7-52.7-9.7
					c-15.2,0-28.6,1.3-40.2,4c-11.6,2.7-22.3,6.1-32,10.2v216.3c9.2,4.6,20.1,8.1,32.7,10.5c12.6,2.4,26.9,3.6,43,3.6
					c20.3,0,37.3-3.3,51.1-9.9c13.8-6.6,24.9-15.5,33.3-26.8c8.4-11.3,14.4-24.3,18-39c3.6-14.7,5.4-30.3,5.4-46.6
					C1296.4,198.6,1294.5,182.8,1290.7,168 M1225.9,251.2c-1.4,10-3.6,18-6.6,23.8c-3,5.9-6.9,10-11.8,12.4
					c-4.8,2.4-10.6,3.6-17.3,3.6c-1.9,0-3.7-0.1-5.5-0.3c-1.8-0.2-3.4-0.6-4.5-1V139.1c2.8-0.7,5.8-1,9-1c7.1,0,13.2,1.3,18.1,4
					c4.9,2.6,8.9,7,11.9,13.1c3,6.1,5.2,13.9,6.6,23.5c1.4,9.5,2.1,21.2,2.1,35.1C1228,228.7,1227.3,241.2,1225.9,251.2
					 M1072.2,334.3V96.6h-57.3v98.5c0,5.7,0.5,13.4,1.4,22.8h-0.7c-4.1-9-7.9-16.2-11.4-21.8l-60.5-99.5H886v237.7h57V222.3
					c0-6.2-0.5-14.3-1.4-24.2h0.7c4.1,9.4,7.8,16.9,11.1,22.4l68.1,113.7H1072.2z M776.8,334.3h68.4V96.6h-68.4V334.3z M743.7,142.2
					V96.6H616.9v237.7h68.4v-98.1h50.1v-44.6h-50.1v-49.4H743.7z"/>
				<path class="st3" d="M845.2,334.3"/>
				<path class="st4" d="M231,353.6h130.2V253H231v-29.3l159.5-0.3v0.3h0.3v159.2h-0.3v0.3l-129.8-0.3v104.2l73.2,0.3
					c4.5,0,9.1-0.1,13.6-0.3c4.6-0.2,9.1-0.5,13.4-0.9c4.3-0.4,8.3-0.9,12.3-1.5c4-0.6,8-1.3,11.5-2c3.6-0.8,6.7-1.5,9.9-2.5
					c4.5-1.3,8.9-2.8,13.3-4.7c2.8-1.2,5.6-2.5,8.4-4c1.5-0.8,2.9-1.6,4.8-2.8c1.9-1.2,4.2-2.7,6.5-4.2c2.3-1.6,4.5-3.2,6.8-5
					c2.3-1.8,4.7-3.9,7.1-6c2.3-2.1,4.5-4.4,6.9-6.9c2.3-2.5,4.8-5.3,7.2-8.1c2.4-2.8,4.6-5.7,6.8-8.8c4.4-6.1,8.6-12.7,12-19.2
					c1.7-3.3,3.3-6.5,4.7-9.8c1.5-3.2,2.8-6.5,4-9.4c1.1-2.8,2-5.3,2.8-7.7c5.1-15.2,8.1-30.6,10.1-45.9c1.2-10.5,2.1-20.9,2.4-31.4
					c0.3-7.7,0.1-15.4-0.3-23c-0.4-8-1.1-15.9-2.2-23.9c-1.1-7.7-2.6-15.5-4.5-23.2c-1.1-4.3-2.3-8.6-3.6-12.9
					c-1.9-6.2-4.2-12.2-6.8-18.2c-1.7-3.9-3.5-7.7-5.6-11.5c-1-2-2.1-3.9-3.5-6.2c-1.4-2.3-3.1-5-4.9-7.6c-1.8-2.6-3.6-5.2-5.6-7.8
					c-2-2.6-4.1-5.1-6.3-7.6c-2.2-2.5-4.6-4.8-6.8-7c-2.2-2.2-4.4-4.2-6.7-6.1c-2.3-1.9-4.6-3.7-6.9-5.3c-2.3-1.6-4.5-3.1-6.8-4.4
					c-2.2-1.4-4.5-2.7-6.4-3.7c-1.9-1.1-3.4-1.8-5-2.6c-1.5-0.7-3.1-1.5-5.3-2.4c-2.2-0.9-5.1-2.1-8.1-3.1c-4.6-1.6-9.2-3-13.9-4
					c-11.8-2.8-23.6-4.2-35.5-5.1c-6.8-0.4-13.5-0.7-20.3-0.7L129.3,120v396.7H100V90.5h29.3v0.1h203.9c5,0.1,9.9,0.1,14.8,0.3
					c5,0.2,9.9,0.5,14.8,1c4.6,0.4,9.2,0.9,13.7,1.6c4.6,0.7,9.1,1.4,13.3,2.3c4.2,0.8,8.1,1.8,11.9,2.8c3.8,1.1,7.7,2.2,11.3,3.5
					c3.6,1.2,6.9,2.6,10.2,4c3.3,1.4,6.6,2.9,11.3,5.5c4.7,2.6,10.9,6.2,16.7,10.3c5.8,4.1,11.3,8.8,15.3,12.6
					c4.1,3.7,6.8,6.6,9.4,9.5c2.7,2.9,5.2,5.9,7.8,9.2c2.5,3.2,5.1,6.7,7.5,10.3c2.4,3.5,4.7,7.2,6.9,11.1c2.2,3.9,4.4,8,6.5,12.3
					c2,4.2,3.9,8.5,5.7,13.1c1.8,4.6,3.5,9.4,5.1,14.3s3,9.8,4.2,15c1.3,5.2,2.4,10.7,3.4,16.2c1,5.5,1.8,11,2.4,16.7
					c0.7,5.7,1.2,11.6,1.5,17.6c0.7,11.9,0.7,24,0,36.2c-0.3,6.1-0.8,12.2-1.4,18.2c-0.6,6-1.4,11.8-2.3,17.6
					c-0.9,5.8-2,11.6-3.2,17.1c-1.2,5.5-2.5,10.6-4,15.7c-1.5,5.1-3.2,10.1-4.9,14.9c-1.8,4.7-3.6,9.2-5.6,13.6
					c-2,4.4-4.1,8.8-7.4,14.6c-3.3,5.9-7.8,13.2-12.9,20.2c-5.1,7-10.8,13.5-15,18.1c-4.2,4.6-7,7.2-9.9,9.7c-2.8,2.6-5.8,5-8.7,7.3
					c-2.9,2.3-5.8,4.4-8.8,6.4c-3,2-6,3.9-9.1,5.7c-3.1,1.8-6.3,3.5-9.5,5c-3.2,1.6-6.5,3-10.1,4.3c-3.5,1.3-7.3,2.6-11.1,3.7
					c-10.5,3.1-21.3,5-31.9,6.3c-12.4,1.5-24.9,2.1-37.4,2.2H231V353.6"/>
			</g>
		</g>
	</g>
</g>
</svg>
