<?xml version="1.0" encoding="utf-8"?>
<!-- Generator: Adobe Illustrator 20.0.0, SVG Export Plug-In . SVG Version: 6.00 Build 0)  -->
<svg version="1.1" id="Layer_3" xmlns="http://www.w3.org/2000/svg" xmlns:xlink="http://www.w3.org/1999/xlink" x="0px" y="0px"
	 viewBox="0 0 97.8 86.7" style="enable-background:new 0 0 97.8 86.7;" xml:space="preserve">
<style type="text/css">
	.st0{fill:#FFFFFF;}
</style>
<g>
	<path class="st0" d="M1.2,57.8v1.6h2v1h-2v2.6H0v-6.1h3.2v1H1.2z"/>
	<path class="st0" d="M6.5,59.4c-0.8-0.2-1.2,0.4-1.2,1.6v1.8H4.1v-4.5h1.1c0,0.2,0,0.6-0.1,0.9h0c0.2-0.6,0.6-1.1,1.4-1L6.5,59.4z"
		/>
	<path class="st0" d="M10.9,60.8H8.1c0,0.8,0.4,1.2,1.2,1.2c0.4,0,0.9-0.1,1.3-0.3l0.1,0.9c-0.5,0.2-1,0.3-1.6,0.3
		c-1.4,0-2.2-0.7-2.2-2.3c0-1.4,0.8-2.4,2.1-2.4c1.3,0,1.9,0.9,1.9,2C10.9,60.4,10.9,60.6,10.9,60.8z M9,59.1
		c-0.5,0-0.8,0.4-0.9,0.9h1.6C9.8,59.5,9.5,59.1,9,59.1z"/>
	<path class="st0" d="M14.7,62.8c0-0.2,0-0.6,0.1-0.8l0,0c-0.3,0.5-0.8,0.9-1.5,0.9c-1,0-1.3-0.6-1.3-1.4v-3.1H13v2.9
		c0,0.5,0.1,0.7,0.6,0.7c0.6,0,1-0.7,1-1.4v-2.2h1.2v4.5H14.7z"/>
	<path class="st0" d="M19.7,62.8V60c0-0.5-0.1-0.7-0.5-0.7c-0.6,0-1,0.7-1,1.4v2.2H17v-4.5h1.1c0,0.2,0,0.6-0.1,0.8l0,0
		c0.3-0.5,0.8-0.9,1.5-0.9c1,0,1.3,0.6,1.3,1.4v3.1H19.7z"/>
	<path class="st0" d="M24.8,62.8c0-0.2,0-0.5,0.1-0.7h0c-0.2,0.5-0.7,0.8-1.4,0.8c-1.1,0-1.6-0.8-1.6-2.1c0-1.5,0.9-2.6,2.4-2.6
		c0.2,0,0.4,0,0.6,0v-2.1h1.1v6.6H24.8z M24.7,59.3c-0.2,0-0.4-0.1-0.6-0.1c-0.7,0-1.1,0.4-1.1,1.5c0,0.8,0.2,1.3,0.8,1.3
		c0.6,0,1-0.7,1-1.5V59.3z"/>
	<path class="st0" d="M30.8,60.8H28c0,0.8,0.4,1.2,1.2,1.2c0.4,0,0.9-0.1,1.3-0.3l0.1,0.9c-0.5,0.2-1,0.3-1.6,0.3
		c-1.4,0-2.2-0.7-2.2-2.3c0-1.4,0.8-2.4,2.1-2.4c1.3,0,1.9,0.9,1.9,2C30.8,60.4,30.8,60.6,30.8,60.8z M28.9,59.1
		c-0.5,0-0.8,0.4-0.9,0.9h1.6C29.7,59.5,29.4,59.1,28.9,59.1z"/>
	<path class="st0" d="M36.5,62.8c0-0.2,0-0.6,0.1-0.8l0,0c-0.3,0.5-0.8,0.9-1.5,0.9c-1,0-1.3-0.6-1.3-1.4v-3.1h1.1v2.9
		c0,0.5,0.1,0.7,0.6,0.7c0.6,0,1-0.7,1-1.4v-2.2h1.2v4.5H36.5z"/>
	<path class="st0" d="M41.6,62.8V60c0-0.5-0.1-0.7-0.5-0.7c-0.6,0-1,0.7-1,1.4v2.2h-1.2v-4.5h1.1c0,0.2,0,0.6-0.1,0.8l0,0
		c0.3-0.5,0.8-0.9,1.5-0.9c1,0,1.3,0.6,1.3,1.4v3.1H41.6z"/>
	<path class="st0" d="M46.7,62.8c0-0.2,0-0.5,0.1-0.7h0c-0.2,0.5-0.7,0.8-1.4,0.8c-1.1,0-1.6-0.8-1.6-2.1c0-1.5,0.9-2.6,2.4-2.6
		c0.2,0,0.4,0,0.6,0v-2.1h1.1v6.6H46.7z M46.6,59.3c-0.2,0-0.4-0.1-0.6-0.1c-0.7,0-1.1,0.4-1.1,1.5c0,0.8,0.2,1.3,0.8,1.3
		c0.6,0,1-0.7,1-1.5V59.3z"/>
	<path class="st0" d="M52.2,57.8v1.6h2v1h-2v2.6H51v-6.1h3.2v1H52.2z"/>
	<path class="st0" d="M56.8,62.9c-1.3,0-2.1-0.7-2.1-2.2c0-1.4,0.9-2.4,2.3-2.4c1.3,0,2.1,0.7,2.1,2.2C59,61.9,58.1,62.9,56.8,62.9z
		 M56,57.6c-0.3,0-0.6-0.3-0.6-0.6c0-0.4,0.3-0.6,0.6-0.6c0.3,0,0.6,0.3,0.6,0.6C56.6,57.4,56.3,57.6,56,57.6z M56.9,59.3
		c-0.5,0-1,0.4-1,1.3c0,0.9,0.3,1.4,1,1.4c0.6,0,1-0.5,1-1.4C57.9,59.7,57.6,59.3,56.9,59.3z M57.8,57.6c-0.3,0-0.6-0.3-0.6-0.6
		c0-0.4,0.3-0.6,0.6-0.6s0.6,0.3,0.6,0.6C58.4,57.4,58.2,57.6,57.8,57.6z"/>
	<path class="st0" d="M62.4,59.4c-0.8-0.2-1.2,0.4-1.2,1.6v1.8H60v-4.5h1.1c0,0.2,0,0.6-0.1,0.9h0c0.2-0.6,0.6-1.1,1.4-1L62.4,59.4z
		"/>
	<path class="st0" d="M65.8,62.8c0-0.2,0-0.5,0.1-0.7h0c-0.2,0.5-0.7,0.8-1.4,0.8c-1.1,0-1.6-0.8-1.6-2.1c0-1.5,0.9-2.6,2.4-2.6
		c0.2,0,0.4,0,0.6,0v-2.1h1.1v6.6H65.8z M65.8,59.3c-0.2,0-0.4-0.1-0.6-0.1c-0.7,0-1.1,0.4-1.1,1.5c0,0.8,0.2,1.3,0.8,1.3
		c0.6,0,1-0.7,1-1.5V59.3z"/>
	<path class="st0" d="M71.8,60.8H69c0,0.8,0.4,1.2,1.2,1.2c0.4,0,0.9-0.1,1.3-0.3l0.1,0.9c-0.5,0.2-1,0.3-1.6,0.3
		c-1.4,0-2.2-0.7-2.2-2.3c0-1.4,0.8-2.4,2.1-2.4c1.3,0,1.9,0.9,1.9,2C71.8,60.4,71.8,60.6,71.8,60.8z M69.9,59.1
		c-0.5,0-0.8,0.4-0.9,0.9h1.6C70.7,59.5,70.4,59.1,69.9,59.1z"/>
	<path class="st0" d="M75.2,59.4c-0.8-0.2-1.2,0.4-1.2,1.6v1.8h-1.2v-4.5h1.1c0,0.2,0,0.6-0.1,0.9h0c0.2-0.6,0.6-1.1,1.4-1
		L75.2,59.4z"/>
	<path class="st0" d="M79.5,60.8h-2.8c0,0.8,0.4,1.2,1.2,1.2c0.4,0,0.9-0.1,1.3-0.3l0.1,0.9c-0.5,0.2-1,0.3-1.6,0.3
		c-1.4,0-2.2-0.7-2.2-2.3c0-1.4,0.8-2.4,2.1-2.4c1.3,0,1.9,0.9,1.9,2C79.6,60.4,79.6,60.6,79.5,60.8z M77.6,59.1
		c-0.5,0-0.8,0.4-0.9,0.9h1.6C78.4,59.5,78.1,59.1,77.6,59.1z"/>
	<path class="st0" d="M82.9,59.4c-0.8-0.2-1.2,0.4-1.2,1.6v1.8h-1.2v-4.5h1.1c0,0.2,0,0.6-0.1,0.9h0c0.2-0.6,0.6-1.1,1.4-1
		L82.9,59.4z"/>
	<path class="st0" d="M88.4,62.8c0-0.2,0-0.5,0.1-0.7h0c-0.2,0.5-0.7,0.8-1.4,0.8c-1.1,0-1.6-0.8-1.6-2.1c0-1.5,0.9-2.6,2.4-2.6
		c0.2,0,0.4,0,0.6,0v-2.1h1.1v6.6H88.4z M88.3,59.3c-0.2,0-0.4-0.1-0.6-0.1c-0.7,0-1.1,0.4-1.1,1.5c0,0.8,0.2,1.3,0.8,1.3
		c0.6,0,1-0.7,1-1.5V59.3z"/>
	<path class="st0" d="M94.3,60.8h-2.8c0,0.8,0.4,1.2,1.2,1.2c0.4,0,0.9-0.1,1.3-0.3l0.1,0.9c-0.5,0.2-1,0.3-1.6,0.3
		c-1.4,0-2.2-0.7-2.2-2.3c0-1.4,0.8-2.4,2.1-2.4c1.3,0,1.9,0.9,1.9,2C94.4,60.4,94.4,60.6,94.3,60.8z M92.5,59.1
		c-0.5,0-0.8,0.4-0.9,0.9h1.6C93.2,59.5,92.9,59.1,92.5,59.1z"/>
	<path class="st0" d="M97.7,59.4c-0.8-0.2-1.2,0.4-1.2,1.6v1.8h-1.2v-4.5h1.1c0,0.2,0,0.6-0.1,0.9h0c0.2-0.6,0.6-1.1,1.4-1
		L97.7,59.4z"/>
	<path class="st0" d="M7.5,73.6V71H4.9v2.6H3.7v-6.1h1.2V70h2.6v-2.4h1.2v6.1H7.5z"/>
	<path class="st0" d="M11.7,73.7c-1.3,0-2.1-0.7-2.1-2.2c0-1.4,0.9-2.4,2.3-2.4c1.3,0,2.1,0.7,2.1,2.2C14,72.7,13,73.7,11.7,73.7z
		 M11.8,70.1c-0.5,0-1,0.4-1,1.3s0.3,1.4,1,1.4c0.6,0,1-0.5,1-1.4C12.8,70.5,12.5,70.1,11.8,70.1z"/>
	<path class="st0" d="M16.6,73.7c-1.2,0-2-0.6-2-2.2c0-1.4,0.7-2.5,2.3-2.5c0.3,0,0.6,0,0.9,0.1l-0.1,1c-0.2-0.1-0.5-0.2-0.8-0.2
		c-0.7,0-1.1,0.5-1.1,1.4c0,0.8,0.3,1.3,1.1,1.3c0.3,0,0.6-0.1,0.9-0.2l0.1,1C17.5,73.6,17.1,73.7,16.6,73.7z"/>
	<path class="st0" d="M21.5,73.6v-2.9c0-0.5-0.1-0.7-0.5-0.7c-0.6,0-1,0.7-1,1.4v2.2h-1.2v-6.6h1.2V69c0,0.3,0,0.6-0.1,0.9l0,0
		c0.3-0.5,0.8-0.8,1.5-0.8c1,0,1.3,0.6,1.3,1.4v3.1H21.5z"/>
	<path class="st0" d="M24.6,73.7c-0.3,0-0.6,0-0.9-0.1l0-0.9c0.3,0.1,0.6,0.1,1,0.1c0.4,0,0.7-0.2,0.7-0.5c0-0.8-1.8-0.3-1.8-1.9
		c0-0.8,0.6-1.4,1.9-1.4c0.3,0,0.5,0,0.8,0.1l0,0.9c-0.3-0.1-0.5-0.1-0.8-0.1c-0.5,0-0.7,0.2-0.7,0.5c0,0.7,1.8,0.4,1.8,1.9
		C26.6,73.1,25.8,73.7,24.6,73.7z"/>
	<path class="st0" d="M29.3,73.7c-1.2,0-2-0.6-2-2.2c0-1.4,0.7-2.5,2.3-2.5c0.3,0,0.6,0,0.9,0.1l-0.1,1c-0.2-0.1-0.5-0.2-0.8-0.2
		c-0.7,0-1.1,0.5-1.1,1.4c0,0.8,0.3,1.3,1.1,1.3c0.3,0,0.6-0.1,0.9-0.2l0.1,1C30.2,73.6,29.8,73.7,29.3,73.7z"/>
	<path class="st0" d="M34.2,73.6v-2.9c0-0.5-0.1-0.7-0.5-0.7c-0.6,0-1,0.7-1,1.4v2.2h-1.2v-6.6h1.2V69c0,0.3,0,0.6-0.1,0.9l0,0
		c0.3-0.5,0.8-0.8,1.5-0.8c1,0,1.3,0.6,1.3,1.4v3.1H34.2z"/>
	<path class="st0" d="M39.4,73.6c0-0.2,0-0.6,0.1-0.8l0,0c-0.3,0.5-0.8,0.9-1.5,0.9c-1,0-1.3-0.6-1.3-1.4v-3.1h1.1V72
		c0,0.5,0.1,0.7,0.6,0.7c0.6,0,1-0.7,1-1.4v-2.2h1.2v4.5H39.4z"/>
	<path class="st0" d="M41.7,73.6v-6.6h1.2v6.6H41.7z"/>
	<path class="st0" d="M47.7,71.6h-2.8c0,0.8,0.4,1.2,1.2,1.2c0.4,0,0.9-0.1,1.3-0.3l0.1,0.9c-0.5,0.2-1,0.3-1.6,0.3
		c-1.4,0-2.2-0.7-2.2-2.3c0-1.4,0.8-2.4,2.1-2.4c1.3,0,1.9,0.9,1.9,2C47.8,71.2,47.7,71.4,47.7,71.6z M45.8,69.9
		c-0.5,0-0.8,0.4-0.9,0.9h1.6C46.6,70.3,46.3,69.9,45.8,69.9z"/>
	<path class="st0" d="M53.4,73.6c0-0.2,0-0.5,0.1-0.7h0c-0.2,0.5-0.7,0.8-1.4,0.8c-1.1,0-1.6-0.8-1.6-2.1c0-1.5,0.9-2.6,2.4-2.6
		c0.2,0,0.4,0,0.6,0v-2.1h1.1v6.6H53.4z M53.3,70.1c-0.2,0-0.4-0.1-0.6-0.1c-0.7,0-1.1,0.4-1.1,1.5c0,0.8,0.2,1.3,0.8,1.3
		c0.6,0,1-0.7,1-1.5V70.1z"/>
	<path class="st0" d="M59.3,71.6h-2.8c0,0.8,0.4,1.2,1.2,1.2c0.4,0,0.9-0.1,1.3-0.3l0.1,0.9c-0.5,0.2-1,0.3-1.6,0.3
		c-1.4,0-2.2-0.7-2.2-2.3c0-1.4,0.8-2.4,2.1-2.4c1.3,0,1.9,0.9,1.9,2C59.4,71.2,59.4,71.4,59.3,71.6z M57.4,69.9
		c-0.5,0-0.8,0.4-0.9,0.9h1.6C58.2,70.3,57.9,69.9,57.4,69.9z"/>
	<path class="st0" d="M62.7,70.2c-0.8-0.2-1.2,0.4-1.2,1.6v1.8h-1.2v-4.5h1.1c0,0.2,0,0.6-0.1,0.9h0c0.2-0.6,0.6-1.1,1.4-1
		L62.7,70.2z"/>
	<path class="st0" d="M71.3,73.6l-0.4-2.9c-0.1-0.6-0.1-1-0.2-1.4h0c-0.1,0.4-0.2,0.8-0.3,1.3l-1,3.1h-1.2l-0.9-2.8
		c-0.2-0.5-0.3-1-0.4-1.5h0c0,0.5-0.1,1-0.2,1.5l-0.3,2.8h-1.2l0.9-6.1h1.4l1,3.1c0.1,0.4,0.3,0.8,0.3,1.3h0
		c0.1-0.5,0.2-0.8,0.3-1.3l1-3.1h1.4l0.9,6.1H71.3z"/>
	<path class="st0" d="M77,71.6h-2.8c0,0.8,0.4,1.2,1.2,1.2c0.4,0,0.9-0.1,1.3-0.3l0.1,0.9c-0.5,0.2-1,0.3-1.6,0.3
		c-1.4,0-2.2-0.7-2.2-2.3c0-1.4,0.8-2.4,2.1-2.4c1.3,0,1.9,0.9,1.9,2C77.1,71.2,77.1,71.4,77,71.6z M75.2,69.9
		c-0.5,0-0.8,0.4-0.9,0.9h1.6C76,70.3,75.6,69.9,75.2,69.9z"/>
	<path class="st0" d="M80.7,73.6c0-0.2,0-0.5,0.1-0.7h0c-0.2,0.5-0.7,0.8-1.4,0.8c-1.1,0-1.6-0.8-1.6-2.1c0-1.5,0.9-2.6,2.4-2.6
		c0.2,0,0.4,0,0.6,0v-2.1h1.1v6.6H80.7z M80.7,70.1c-0.2,0-0.4-0.1-0.6-0.1c-0.7,0-1.1,0.4-1.1,1.5c0,0.8,0.2,1.3,0.8,1.3
		c0.6,0,1-0.7,1-1.5V70.1z"/>
	<path class="st0" d="M83.6,68.6c-0.4,0-0.7-0.3-0.7-0.7c0-0.4,0.3-0.7,0.7-0.7c0.4,0,0.7,0.3,0.7,0.7C84.4,68.3,84,68.6,83.6,68.6z
		 M83.1,73.6v-4.5h1.2v4.5H83.1z"/>
	<path class="st0" d="M89.1,71.6h-2.8c0,0.8,0.4,1.2,1.2,1.2c0.4,0,0.9-0.1,1.3-0.3l0.1,0.9c-0.5,0.2-1,0.3-1.6,0.3
		c-1.4,0-2.2-0.7-2.2-2.3c0-1.4,0.8-2.4,2.1-2.4c1.3,0,1.9,0.9,1.9,2C89.1,71.2,89.1,71.4,89.1,71.6z M87.2,69.9
		c-0.5,0-0.8,0.4-0.9,0.9H88C88,70.3,87.7,69.9,87.2,69.9z"/>
	<path class="st0" d="M92.8,73.6v-2.9c0-0.5-0.1-0.7-0.5-0.7c-0.6,0-1,0.7-1,1.4v2.2h-1.2v-4.5h1.1c0,0.2,0,0.6-0.1,0.8l0,0
		c0.3-0.5,0.8-0.9,1.5-0.9c1,0,1.3,0.6,1.3,1.4v3.1H92.8z"/>
	<path class="st0" d="M24.1,84.5c-0.4,0-0.9,0-1.2-0.1l0.1-1.1c0.3,0.1,0.8,0.2,1.3,0.2c0.6,0,1.1-0.2,1.1-0.8
		c0-1.2-2.5-0.6-2.5-2.6c0-1.1,0.9-1.8,2.3-1.8c0.3,0,0.7,0,1.1,0.1l-0.1,1c-0.3-0.1-0.7-0.2-1.1-0.2c-0.7,0-1,0.3-1,0.7
		c0,1.1,2.6,0.7,2.6,2.6C26.5,83.7,25.6,84.5,24.1,84.5z"/>
	<path class="st0" d="M29,84.5c-1,0-1.3-0.4-1.3-1.4v-2.3H27V80h0.8v-1.4l1.2-0.3V80H30v0.9h-1.1v2c0,0.6,0.1,0.7,0.5,0.7
		c0.2,0,0.4,0,0.6-0.1v0.9C29.7,84.5,29.3,84.5,29,84.5z"/>
	<path class="st0" d="M33.7,84.4c0-0.2,0-0.6,0.1-0.8l0,0c-0.3,0.5-0.8,0.9-1.5,0.9c-1,0-1.3-0.6-1.3-1.4V80H32v2.9
		c0,0.5,0.1,0.7,0.6,0.7c0.6,0,1-0.7,1-1.4V80h1.2v4.5H33.7z"/>
	<path class="st0" d="M37.5,84.5c-1,0-1.3-0.4-1.3-1.4v-2.3h-0.8V80h0.8v-1.4l1.2-0.3V80h1.1v0.9h-1.1v2c0,0.6,0.1,0.7,0.5,0.7
		c0.2,0,0.4,0,0.6-0.1v0.9C38.2,84.5,37.8,84.5,37.5,84.5z"/>
	<path class="st0" d="M40.9,84.5c-1,0-1.3-0.4-1.3-1.4v-2.3h-0.8V80h0.8v-1.4l1.2-0.3V80h1.1v0.9h-1.1v2c0,0.6,0.1,0.7,0.5,0.7
		c0.2,0,0.4,0,0.6-0.1v0.9C41.6,84.5,41.2,84.5,40.9,84.5z"/>
	<path class="st0" d="M44.4,86.7c-1.2,0-1.9-0.5-1.9-1.3c0-0.5,0.3-0.9,0.7-1.1c-0.3-0.1-0.4-0.4-0.4-0.7c0-0.3,0.2-0.7,0.5-0.8
		c-0.4-0.2-0.7-0.7-0.7-1.3c0-0.9,0.7-1.7,2-1.7c0.3,0,0.5,0,0.8,0.1h1.5v0.9h-0.6c0.1,0.1,0.2,0.3,0.2,0.6c0,1-0.7,1.6-1.9,1.6
		c-0.2,0-0.3,0-0.4,0c-0.1,0.1-0.2,0.2-0.2,0.3c0,0.2,0.2,0.3,0.7,0.3h0.7c1,0,1.5,0.4,1.5,1.3C46.8,85.9,45.9,86.7,44.4,86.7z
		 M45,84.5h-0.8c-0.1,0-0.2,0-0.2,0c-0.3,0.1-0.4,0.4-0.4,0.6c0,0.4,0.4,0.7,1,0.7c0.8,0,1.2-0.3,1.2-0.7
		C45.7,84.8,45.5,84.5,45,84.5z M44.6,80.7c-0.5,0-0.9,0.3-0.9,0.8c0,0.5,0.3,0.8,0.9,0.8c0.5,0,0.9-0.3,0.9-0.8
		C45.4,81,45.1,80.7,44.6,80.7z"/>
	<path class="st0" d="M50.1,84.4c0-0.3,0-0.5,0-0.8l0,0c-0.2,0.5-0.8,0.9-1.4,0.9c-0.8,0-1.3-0.5-1.3-1.2c0-1.1,1.1-1.6,2.6-1.6
		v-0.2c0-0.5-0.2-0.7-0.9-0.7c-0.4,0-0.9,0.1-1.3,0.4l-0.1-1c0.5-0.2,1-0.3,1.6-0.3c1.4,0,1.8,0.6,1.8,1.6v1.9c0,0.4,0,0.8,0,1.2
		H50.1z M50,82.5c-1.2,0-1.5,0.4-1.5,0.7c0,0.3,0.2,0.5,0.5,0.5c0.6,0,1-0.5,1-1.1V82.5z"/>
	<path class="st0" d="M54.8,81c-0.8-0.2-1.2,0.4-1.2,1.6v1.8h-1.2V80h1.1c0,0.2,0,0.6-0.1,0.9h0c0.2-0.6,0.6-1.1,1.4-1L54.8,81z"/>
	<path class="st0" d="M57.3,84.5c-1,0-1.3-0.4-1.3-1.4v-2.3h-0.8V80H56v-1.4l1.2-0.3V80h1.1v0.9h-1.1v2c0,0.6,0.1,0.7,0.5,0.7
		c0.2,0,0.4,0,0.6-0.1v0.9C58,84.5,57.6,84.5,57.3,84.5z"/>
	<path class="st0" d="M64.9,82.4h-2.8c0,0.8,0.4,1.2,1.2,1.2c0.4,0,0.9-0.1,1.3-0.3l0.1,0.9c-0.5,0.2-1,0.3-1.6,0.3
		c-1.4,0-2.2-0.7-2.2-2.3c0-1.4,0.8-2.4,2.1-2.4c1.3,0,1.9,0.9,1.9,2C64.9,82,64.9,82.2,64.9,82.4z M63,80.7c-0.5,0-0.8,0.4-0.9,0.9
		h1.6C63.8,81.1,63.5,80.7,63,80.7z"/>
	<path class="st0" d="M67.2,83.8c0,0.4-0.3,0.7-0.7,0.7c-0.4,0-0.7-0.3-0.7-0.7c0-0.4,0.3-0.7,0.7-0.7
		C66.9,83.1,67.2,83.4,67.2,83.8z"/>
	<path class="st0" d="M70.4,84.4H69l-2.1-6.1h1.3l1.2,3.6c0.1,0.3,0.3,0.7,0.4,1.2h0c0.1-0.4,0.2-0.7,0.4-1.3l1.2-3.5h1.2L70.4,84.4
		z"/>
	<path class="st0" d="M73.6,83.8c0,0.4-0.3,0.7-0.7,0.7c-0.4,0-0.7-0.3-0.7-0.7c0-0.4,0.3-0.7,0.7-0.7
		C73.3,83.1,73.6,83.4,73.6,83.8z"/>
</g>
<path class="st0" d="M64.9,16c-2.3-5-9-5.9-13.8-6c-11.3-0.3-22.8,4.3-33,8.7c-0.2,0.1-0.3,0.3-0.2,0.5c0,0,0,0,0,0c0,0,0,0,0,0
	c0.1,0.2,0.2,0.3,0.4,0.2c10-3,20.4-5.8,30.9-6.2c4.3-0.2,11.7,0,13,5.2c1.2,4.4-3.1,9.4-5.7,12.5c-5,5.9-11.4,10.7-17.8,15.1
	c-0.4,0.3,0,0.9,0.4,0.7c8.3-4.2,16.5-9.4,22.3-16.8C64.6,26.1,67.1,20.8,64.9,16z"/>
<path class="st0" d="M75.2,7.9c-2.7-5.5-9.1-7.5-14.8-7.8C48.6-0.7,36.6,4.9,26.6,10.3c-0.3,0.1-0.3,0.3-0.2,0.5
	c0.1,0.2,0.3,0.4,0.5,0.2c10.3-3.6,21.2-7,32.2-7c5.6,0,12.4,1.5,13.8,7.7c1.3,5.4-2.1,11.5-4.9,15.9c-4.4,7.1-10.5,13.2-16.7,18.6
	c-0.3,0.3,0,0.9,0.4,0.7C63.2,39.9,82.8,23.6,75.2,7.9z"/>
<path class="st0" d="M53.3,23.8c-1.8-4-7.8-4.6-11.6-4.7c-10.3-0.4-20.8,3-30.4,6.4c-0.2,0.1-0.3,0.3-0.2,0.5c0,0,0,0,0,0
	c0,0,0,0,0,0c0,0.2,0.2,0.3,0.4,0.3c9.2-2.2,18.6-4.3,28.1-4.5c3.1-0.1,10.2-0.2,11.1,3.9c0.8,3.7-4,7.7-6.3,9.7
	c-4.9,4.4-10.7,7.8-16.4,10.9c-0.5,0.2-0.1,0.9,0.3,0.7c7.8-3.2,15.9-7.1,21.7-13.3C52.5,31.2,54.9,27.4,53.3,23.8z"/>
</svg>
