<?xml version="1.0" encoding="utf-8"?>
<!-- Generator: Adobe Illustrator 20.0.0, SVG Export Plug-In . SVG Version: 6.00 Build 0)  -->
<svg version="1.1" id="Ebene_1" xmlns="http://www.w3.org/2000/svg" xmlns:xlink="http://www.w3.org/1999/xlink" x="0px" y="0px"
	 viewBox="0 0 523.5 293.2" style="enable-background:new 0 0 523.5 293.2;" xml:space="preserve">
<style type="text/css">
	.st0{fill:#FFFFFF;}
</style>
<g>
	<g>
		<path class="st0" d="M277.7,193.9c-19.6,0-37.9-5.7-53.1-15.7v-20.6c14.2,12.5,32.8,20,53.1,20l55.9,0l0-28.3l-54.4,0
			c-28.9,0-52.3-23.4-52.3-52.3c0-28.9,23.4-52.2,52.3-52.2l54.4,0l0-28.4h-55.9c-44.4,0-80.5,36-80.6,80.4c0,0.8,0,97.2,0,97.2
			s-99.1,0-100,0c-53.6,0-97-43.3-97-96.9S43.4,0,97,0c1,0,70.5,0,70.5,0v60.1c0,0-68,0-69,0c-20.4,0-37,16.4-37,36.9
			c0,20.4,16.5,36.9,37,36.9l38.4,0V96.6h15.3l0,52.7c0,0-52.8,0-53.7,0c-28.9,0-52.3-23.4-52.3-52.3c0-28.9,23.4-52.2,52.3-52.2
			l53.7,0l0-28.4l-55.2,0c-44.5,0-80.6,36.1-80.6,80.6c0,44.5,36.1,80.6,80.6,80.6l83.6,0V96.7c0.2-53.5,43.6-96.7,97-96.7
			c1,0,71.2,0,71.2,0v60.1c0,0-68.8,0-69.7,0c-20.4,0-37,16.4-37,36.9c0,20.4,16.5,36.9,37,36.9c1,0,68.8,0.1,69.7,0v60
			C347.9,193.9,278.6,193.9,277.7,193.9L277.7,193.9z"/>
	</g>
	<g>
		<path class="st0" d="M151.8,284.6c-9.6,0-15.7-7-15.7-17c0-10,6.1-17,15.7-17c6,0,10.1,2.2,12.6,6.2l-4.9,2.7
			c-1.9-2.7-3.9-3.9-7.7-3.9c-6.5,0-10,4.7-10,12c0,7.4,3.6,12,10,12c6,0,8.4-3.5,8.4-7.4v-0.1h-6v-4.8H166v3.8
			C166,279.7,160.1,284.6,151.8,284.6z"/>
		<path class="st0" d="M188.9,264.6c-1.2-0.6-2.4-0.9-4.2-0.9c-3.4,0-5.5,2.2-5.5,6.3v14.1h-5.5v-24.7h5.5v2.4
			c1.3-1.7,3.6-2.9,6.4-2.9c2.2,0,3.6,0.4,4.7,1L188.9,264.6z"/>
	</g>
	<g>
		<path class="st0" d="M210.7,277.1c-1.3,1.6-3.8,3.1-6.7,3.1c-3.6,0-5.4-1.6-5.4-4.1c0-2.3,2.2-3.7,5.7-3.7c3,0,4.9,0.4,6.4,1.1
			V277.1z M216,284.1v-16.9c0-5.5-4.2-8.2-10.5-8.2c-3.9,0-6.9,0.8-9.6,2.2l2.1,3.6c2.2-1.1,4.4-1.5,7.3-1.5c3.4,0,5.3,1.5,5.3,4.1
			v1.8c-1.5-0.6-3.6-0.9-6.2-0.9c-6.3,0-11.1,2.5-11.1,8c0,6.1,5.2,8.3,9.7,8.3c3,0,5.7-1.3,7.6-3v2.5H216z"/>
		<path class="st0" d="M242.5,272.3c0,5.2-2.1,7.8-6,7.8c-2.7,0-5.3-1.8-6.5-3.2v-10.3c1.4-1.6,3.7-3.1,6.3-3.1
			C240.2,263.4,242.5,266.2,242.5,272.3z M247.9,272.2c0-9.4-4.7-13.2-10.7-13.2c-2.9,0-5.2,1.2-7.2,2.9v-2.4h-5.4v33.7l5.4-2.5
			v-8.9c1.5,1.5,4.2,2.8,7,2.8C242.7,284.6,247.9,280.6,247.9,272.2z"/>
		<path class="st0" d="M272.4,284.1v-13.9c0-5-2.1-6.8-5.7-6.8c-3.7,0-5.7,2.3-5.7,6.3v14.4h-5.5v-31.8l5.5-2.6v12
			c1.4-1.8,4.1-2.9,7-2.9c6.5,0,9.9,3.8,9.9,11.1v14.1H272.4z"/>
		<path class="st0" d="M289.4,256.2c-2,0-3.6-1.4-3.6-3.1c0-1.7,1.6-3.1,3.6-3.1c1.9,0,3.5,1.4,3.5,3.1
			C292.9,254.8,291.3,256.2,289.4,256.2z M286.6,284.1v-24.8h5.5v24.8H286.6z"/>
		<path class="st0" d="M318.6,266.6c-2.3-2.1-4.3-3-6.8-3c-4,0-6.5,3.1-6.5,8.1c0,4.8,2.3,8.3,6.7,8.3c2.6,0,4.1-1,6.3-3l3.5,3
			c-2.2,2.5-4.9,4.6-10,4.6c-6.8,0-12-5.1-12-12.8c0-8.1,5.4-12.9,12.2-12.9c4.1,0,7.3,1.5,9.9,4.2L318.6,266.6z"/>
	</g>
	<path class="st0" d="M355.4,284.6c-9.6,0-15.7-7-15.7-17c0-10,6.1-17,15.7-17c6,0,10.1,2.2,12.6,6.2l-4.9,2.7
		c-1.9-2.7-3.9-3.9-7.7-3.9c-6.5,0-10,4.7-10,12c0,7.4,3.5,12,10,12c3.9,0,6.3-1.4,8.2-4.1l4.6,2.7
		C365.5,282.4,361,284.6,355.4,284.6z"/>
	<g>
		<path class="st0" d="M393,271.8c0,4.5-2.7,8.2-6.9,8.2c-4.1,0-7-2.9-7-8.3c0-4.9,2.6-8.1,6.7-8.1C390.2,263.6,393,266.8,393,271.8
			z M398.5,271.7c0-7.7-5.3-12.7-12.4-12.7c-7,0-12.4,4.8-12.4,12.9c0,7.7,5.3,12.8,12.3,12.8C393.1,284.6,398.5,279.8,398.5,271.7z
			"/>
		<path class="st0" d="M422.8,284.1v-13.9c0-5-2.1-6.8-5.7-6.8c-3.7,0-5.7,2.3-5.7,6.3v14.4h-5.5v-24.7h5.5v2.4
			c1.4-1.8,4.1-2.9,7-2.9c6.5,0,9.9,3.8,9.9,11.1v14.1H422.8z"/>
		<path class="st0" d="M445.8,284.6c-3.8,0-7.9-1.3-10.7-3.2l2.5-3.7c2.6,1.6,5.5,2.4,8.1,2.4c3.5,0,5.1-1,5.1-2.7
			c0-1.9-2.4-2.8-6.5-4.1c-6-2.1-8.2-3.8-8.2-7.7c0-4.4,3.9-6.7,9.5-6.7c3.5,0,7,1.1,9.5,2.7l-2.4,3.7c-2.3-1.4-4.6-2.1-7.2-2.1
			c-2.7,0-3.8,0.9-3.8,2.2c0,1.2,1,2.1,5.2,3.6c6.2,2.1,9.4,3.6,9.4,8.2C456.2,282.8,451.2,284.6,445.8,284.6z"/>
		<path class="st0" d="M480.6,284.1v-2.4c-1.4,1.8-4.1,2.9-7,2.9c-6.5,0-9.9-3.8-9.9-11.1v-14.2h5.5v14c0,5,2.1,6.8,5.7,6.8
			c3.7,0,5.7-2.3,5.7-6.3v-14.4h5.5v24.7H480.6z"/>
		<path class="st0" d="M495.1,284.1v-31.8l5.5-2.5v34.3H495.1z"/>
		<path class="st0" d="M522.8,283.5c-1.3,0.7-3.2,1.1-5.4,1.1c-3.9,0-6.3-2.1-6.3-6.5v-14.2h-4v-4.4h4v-7.1l5.4-2.6v9.6h6.9v4.4
			h-6.9v13.3c0,2.3,0.8,3,2.9,3c1.4,0,3-0.5,4-1L522.8,283.5z"/>
	</g>
</g>
</svg>
