<?xml version="1.0" encoding="utf-8"?>
<!-- Generator: Adobe Illustrator 20.0.0, SVG Export Plug-In . SVG Version: 6.00 Build 0)  -->
<svg version="1.1" id="Ebene_1" xmlns="http://www.w3.org/2000/svg" xmlns:xlink="http://www.w3.org/1999/xlink" x="0px" y="0px"
	 viewBox="0 0 295.9 190.2" style="enable-background:new 0 0 295.9 190.2;" xml:space="preserve">
<style type="text/css">
	.st0{fill:#FFFFFF;}
</style>
<g>
	<path class="st0" d="M58,137.1c-0.2,32.5-15.9,53.1-49.6,53.1c-2.7,0-5.7,0-8.4-0.2l1-12.4c3.2,0,6.4,0.2,9.7,0.2
		c23.1,0,31.5-18.4,31.7-39.2L43.9,2.7h15.6L58,137.1z"/>
	<path class="st0" d="M181.8,13.6c-2.5,0-5.2-0.2-7.7-0.5c8.7,8.4,10.2,19.3,10.2,28.8c0,24.1-18.1,41.7-41.9,41.7
		c-7.7,0-14.6-1.5-21.6-5.2c-3.5,2-14.6,8.7-14.6,12.9c0,9.2,27,12.4,38.9,14.9c23.6,4.7,51.1,8.4,51.1,38.4
		c0,30.5-32.5,45.6-59,45.6c-25.3,0-52.3-8.4-52.3-38.7c0-18.6,17.9-30.5,33.2-36.5c-7.2-2.5-29.5-5.2-29.5-17.6
		c0-9.9,17.6-19.3,25.3-23.6c-9.2-8.2-13.1-20.1-13.1-32.2c0-23.3,18.6-41.7,41.9-41.7c7.7,0,12.4,1,18.1,3l42.2-0.2v10.9H181.8z
		 M154,122.3c-7.9-1.7-15.9-3-23.8-4.7c-15.6,7.4-29,14.6-29,34.2c0,20.3,16.9,26.5,34.2,26.5c18.1,0,44.6-8.9,44.6-30.8
		C180,128.5,168.1,125.5,154,122.3z M143.1,10.9c-17.6,0-26.3,14.6-26.3,30.8c0,16.6,7.7,31,26,31c16.9,0,25.8-15.4,25.8-30.8
		C168.6,25.3,161.9,10.9,143.1,10.9z"/>
	<path class="st0" d="M288.7,19.8c-6.9-4.5-16.1-7.4-25.3-7.4c-12.9,0-25.5,6-25.5,20.1c0,28,57,20.1,57,60c0,22.3-20.1,36-40.9,36
		c-12.4,0-25.3-2.5-35.7-9.4l7.2-11.2c6.9,5.2,17.6,7.9,26.3,7.9c12.6,0,25.5-6.9,25.5-21.1c0-31-56.3-20.6-56.3-61.3
		C221,10.9,242.3,0,262.4,0c13.6,0,23.1,2.7,33.5,8.9L288.7,19.8z"/>
</g>
</svg>
