<?xml version="1.0" encoding="utf-8"?>
<!-- Generator: Adobe Illustrator 20.0.0, SVG Export Plug-In . SVG Version: 6.00 Build 0)  -->
<svg version="1.1" id="Ebene_1" xmlns="http://www.w3.org/2000/svg" xmlns:xlink="http://www.w3.org/1999/xlink" x="0px" y="0px"
	 viewBox="0 0 237.1 47.1" style="enable-background:new 0 0 237.1 47.1;" xml:space="preserve">
<style type="text/css">
	.st0{fill:#FFFFFF;}
	.st1{fill-rule:evenodd;clip-rule:evenodd;fill:#FFFFFF;}
</style>
<g>
	<g>
		<path class="st0" d="M0,0l15.7,15.7h15.7L47,0H0z M16.3,14.1L3.8,1.6h41.7L32.9,14.1H16.3z"/>
	</g>
</g>
<g>
	<g>
		<path class="st0" d="M47,0L15.7,31.3L31.3,47l31.3-31.3L47,0z M17.9,31.3L47,2.2l13.5,13.5L31.3,44.8L17.9,31.3z"/>
	</g>
</g>
<polygon class="st0" points="64.5,35.9 69.5,35.9 71.3,14.5 63,4.7 72.2,4.7 75.8,4.7 77.1,4.7 82.9,4.7 89.1,4.7 96.7,23.9 
	107.4,4.7 112.6,4.7 119.3,4.7 119.6,4.7 124.2,4.7 129.2,4.7 128.4,14.5 123.4,14.5 121.5,35.9 126.5,35.9 125.6,45.7 120.6,45.7 
	116,45.7 112.4,45.7 111.6,45.7 107,45.7 108.6,26.6 98.1,45.7 95.4,45.7 93.5,45.7 89.8,45.7 82.8,26.7 81.1,45.7 76.5,45.7 
	74.1,45.7 72.2,45.7 68.6,45.7 63.6,45.7 64.5,35.9 "/>
<path class="st1" d="M211,37.9c6.5,0,10.4-6.1,11-12.2l0.1-0.9c0.5-6.1-2.3-12.1-8.8-12.1c-6.5,0-10.4,6-10.9,12.1l-0.1,0.9
	C201.7,31.8,204.5,37.9,211,37.9L211,37.9z M208.9,47.1c-14.1,0-22.7-10.2-21.7-21.3l0.1-1.2c1-11.2,11.4-21.3,25.4-21.3h2.5
	c14.1,0,22.8,10.1,21.8,21.3l-0.1,1.2c-1,11-11.4,21.3-25.5,21.3H208.9L208.9,47.1z"/>
<path class="st1" d="M162.8,20.8c4.4,0,5.3-1.9,5.4-2.9l0-0.2c0.1-1.3-0.3-2.9-4.6-2.9l-9.4,0l-0.5,6.1H162.8L162.8,20.8z
	 M161.8,35.9c4.2,0,5-1.7,5.1-3l0-0.2c0.1-1.2-0.4-2.9-4.9-2.9h-9.1l-0.5,6.1H161.8L161.8,35.9z M134.2,35.9h5l1.9-21.5h-5l0.9-9.8
	h5h4.6h0.2h17.8h2.5c9.6,0,15.8,4.2,15.1,11.7l0,0.5c-0.3,3.2-2,6.2-4.9,8.2c3,2,4.3,5.2,4,8l0,0.5c-0.7,7.8-8.1,12.1-17.6,12.1
	h-2.5h-17.9H143h-4.6h-5L134.2,35.9L134.2,35.9z"/>
</svg>
