<?xml version="1.0" encoding="utf-8"?>
<!-- Generator: Adobe Illustrator 20.0.0, SVG Export Plug-In . SVG Version: 6.00 Build 0)  -->
<svg version="1.1" id="Ebene_1" xmlns="http://www.w3.org/2000/svg" xmlns:xlink="http://www.w3.org/1999/xlink" x="0px" y="0px"
	 viewBox="0 0 758.9 92.7" style="enable-background:new 0 0 758.9 92.7;" xml:space="preserve">
<style type="text/css">
	.st0{fill-rule:evenodd;clip-rule:evenodd;fill:#FFFFFF;}
</style>
<g>
	<polygon class="st0" points="127,36.1 127,7.9 114.6,7.9 109.2,27.6 103.6,7.9 91.2,7.9 91.2,36.1 98.3,36.1 98.3,13.9 105.1,36.1 
		112.3,36.1 119.2,13.9 119.2,36.1 127,36.1 	"/>
	<path class="st0" d="M158.4,24.6V7.9H150v17.6c0,3.7-1,6-4.6,6c-3.5,0-4.4-2.2-4.4-6V7.9h-8.6v16.8c0,2.9,0.4,5.3,1.7,7.5
		c2.1,3.3,6.1,4.5,10.9,4.5c4.8,0,8.4-1.2,10.6-3.5C157.5,31.3,158.4,28.7,158.4,24.6L158.4,24.6L158.4,24.6z M153.7,5.5V0h-6.5v5.5
		H153.7L153.7,5.5z M143.9,5.5V0h-6.4v5.5H143.9L143.9,5.5z"/>
	<polygon class="st0" points="184.8,36.1 184.8,30.9 172.4,30.9 172.4,7.9 163.8,7.9 163.8,36.1 184.8,36.1 	"/>
	<polygon class="st0" points="209.2,36.1 209.2,30.9 196.8,30.9 196.8,7.9 188.1,7.9 188.1,36.1 209.2,36.1 	"/>
	<polygon class="st0" points="234,36.1 234,30.9 220.8,30.9 220.8,24.5 232.9,24.5 232.9,19.2 220.8,19.2 220.8,13.3 233.6,13.3 
		233.6,7.9 212.5,7.9 212.5,36.1 234,36.1 	"/>
	<path class="st0" d="M263.9,36.1c-0.5-1.2-0.7-2.2-0.9-3.4c-0.2-1.7-0.5-3.3-0.8-5c-0.6-2.8-1.9-5.5-5.8-5.6c1.8-0.4,3-0.9,4-1.7
		c1.6-1.3,2.6-3.2,2.6-5.5c0-2.8-1.6-4.9-4-6c-1.9-0.9-4-1.1-7.3-1.1H238v28.2h8.6V25h3c3.2,0,3.7,0.8,4.2,4
		c0.1,1.2,0.4,2.4,0.5,3.7c0.2,1.2,0.4,2.3,0.8,3.5H263.9L263.9,36.1z M254.7,16.4c0,3-2.4,3.6-5.5,3.6h-2.7v-7h2.7
		C252.5,13,254.7,13.5,254.7,16.4L254.7,16.4L254.7,16.4z"/>
	<polygon class="st0" points="317.9,36.1 317.9,7.9 305.5,7.9 300,27.6 294.4,7.9 282,7.9 282,36.1 289.2,36.1 289.2,13.9 296,36.1 
		303.2,36.1 310,13.9 310,36.1 317.9,36.1 	"/>
	<path class="st0" d="M351.6,36.1L341.1,7.9h-10.7l-10.2,28.2h8.1l1.9-6.1h10.3l1.9,6.1H351.6L351.6,36.1z M339.1,25.1h-7.5l3.7-12
		L339.1,25.1L339.1,25.1z"/>
	<path class="st0" d="M379.8,36.1c-0.5-1.2-0.7-2.2-0.9-3.4c-0.2-1.7-0.5-3.3-0.8-5c-0.6-2.8-1.9-5.5-5.8-5.6c1.8-0.4,3-0.9,4-1.7
		c1.6-1.3,2.6-3.2,2.6-5.5c0-2.8-1.6-4.9-4-6c-1.9-0.9-4-1.1-7.3-1.1h-13.5v28.2h8.6V25h3c3.2,0,3.7,0.8,4.2,4
		c0.1,1.2,0.4,2.4,0.5,3.7c0.2,1.2,0.4,2.3,0.8,3.5H379.8L379.8,36.1z M370.7,16.4c0,3-2.4,3.6-5.5,3.6h-2.7v-7h2.7
		C368.4,13,370.7,13.5,370.7,16.4L370.7,16.4L370.7,16.4z"/>
	<polygon class="st0" points="406.2,13.4 406.2,7.9 380.5,7.9 380.5,13.4 389,13.4 389,36.1 397.7,36.1 397.7,13.4 406.2,13.4 	"/>
	<polygon class="st0" points="417.7,36.1 417.7,7.9 409.1,7.9 409.1,36.1 417.7,36.1 	"/>
	<polygon class="st0" points="450.9,36.1 450.9,7.9 443.4,7.9 443.4,28.2 434.8,7.9 423.3,7.9 423.3,36.1 430.8,36.1 430.8,15.4 
		439.5,36.1 450.9,36.1 	"/>
	<polygon class="st0" points="465.2,36.1 465.2,7.9 456.6,7.9 456.6,36.1 465.2,36.1 	"/>
	<polygon class="st0" points="561,8.1 601,8.1 758.9,8.1 758.9,36 577.6,36 530,92.7 490,92.7 561,8.1 561,8.1 	"/>
	<polygon class="st0" points="441.7,92.7 441.7,92.7 0,92.7 0,64.9 465,64.9 512.6,8.1 552.7,8.1 481.8,92.7 441.7,92.7 	"/>
</g>
</svg>
