<?xml version="1.0" encoding="utf-8"?>
<!-- Generator: Adobe Illustrator 20.0.0, SVG Export Plug-In . SVG Version: 6.00 Build 0)  -->
<svg version="1.1" id="Ebene_1" xmlns="http://www.w3.org/2000/svg" xmlns:xlink="http://www.w3.org/1999/xlink" x="0px" y="0px"
	 viewBox="0 0 200 50" style="enable-background:new 0 0 200 50;" xml:space="preserve">
<style type="text/css">
	.st0{fill:#FFFFFF;}
</style>
<g>
	<path class="st0" d="M13.3,18.1H9.5l-0.7,2.2H6.4l4-10.7h2l4,10.7h-2.3L13.3,18.1z M10.1,16.3h2.7l-1.3-4L10.1,16.3z"/>
	<path class="st0" d="M19.5,20.2h-2.1V9h2.1V20.2z"/>
	<path class="st0" d="M24.9,20.4c-1.2,0-2.1-0.4-2.8-1.1S21,17.7,21,16.5v-0.2c0-0.8,0.2-1.5,0.5-2.1c0.3-0.6,0.7-1.1,1.3-1.5
		c0.6-0.3,1.2-0.5,1.9-0.5c1.1,0,1.9,0.3,2.6,1c0.6,0.7,0.9,1.7,0.9,2.9V17h-5c0.1,0.5,0.3,0.9,0.6,1.2c0.3,0.3,0.8,0.5,1.3,0.5
		c0.8,0,1.5-0.3,1.9-0.9l1,1.2c-0.3,0.4-0.7,0.8-1.3,1.1C26.1,20.3,25.5,20.4,24.9,20.4z M24.6,13.9c-0.4,0-0.8,0.1-1,0.4
		c-0.3,0.3-0.4,0.7-0.5,1.2h2.9v-0.2c0-0.5-0.1-0.8-0.4-1.1S25.1,13.9,24.6,13.9z"/>
	<path class="st0" d="M32.4,14.7l1.3-2.4H36l-2.3,3.9l2.4,4h-2.3l-1.4-2.5L31,20.2h-2.3l2.4-4l-2.2-3.9h2.3L32.4,14.7z"/>
	<path class="st0" d="M41.6,20.2c-0.1-0.2-0.2-0.4-0.2-0.7c-0.5,0.6-1.2,0.9-2,0.9c-0.8,0-1.4-0.2-1.9-0.7c-0.5-0.4-0.8-1-0.8-1.7
		c0-0.8,0.3-1.5,0.9-1.9c0.6-0.4,1.5-0.7,2.7-0.7h1V15c0-0.4-0.1-0.7-0.3-0.9c-0.2-0.2-0.5-0.3-0.9-0.3c-0.4,0-0.6,0.1-0.8,0.3
		c-0.2,0.2-0.3,0.4-0.3,0.7h-2.1c0-0.5,0.1-0.9,0.4-1.3s0.7-0.7,1.2-0.9c0.5-0.2,1.1-0.3,1.7-0.3c1,0,1.8,0.2,2.3,0.7
		c0.6,0.5,0.9,1.2,0.9,2.1v3.4c0,0.8,0.1,1.3,0.3,1.7v0.1H41.6z M39.8,18.8c0.3,0,0.6-0.1,0.9-0.2c0.3-0.1,0.5-0.3,0.6-0.6v-1.4
		h-0.8c-1.1,0-1.6,0.4-1.7,1.1l0,0.1c0,0.3,0.1,0.5,0.3,0.7S39.5,18.8,39.8,18.8z"/>
	<path class="st0" d="M47,12.3l0.1,0.9c0.6-0.7,1.3-1.1,2.3-1.1c0.8,0,1.5,0.2,1.9,0.7s0.6,1.2,0.6,2.2v5.1h-2.1v-5.1
		c0-0.5-0.1-0.8-0.3-1s-0.5-0.3-1-0.3c-0.6,0-1,0.3-1.3,0.8v5.6H45v-7.9H47z"/>
	<path class="st0" d="M53.1,16.2c0-1.2,0.3-2.2,0.8-3s1.3-1.1,2.3-1.1c0.8,0,1.4,0.3,1.9,0.9V9h2.1v11.2h-1.9l-0.1-0.8
		c-0.5,0.7-1.2,1-2,1c-0.9,0-1.7-0.4-2.2-1.1C53.4,18.6,53.1,17.5,53.1,16.2z M55.2,16.4c0,0.7,0.1,1.3,0.4,1.7
		c0.3,0.4,0.6,0.6,1.1,0.6c0.7,0,1.1-0.3,1.4-0.8v-3.1c-0.3-0.6-0.7-0.8-1.4-0.8C55.7,13.9,55.2,14.7,55.2,16.4z"/>
	<path class="st0" d="M65.5,20.4c-1.2,0-2.1-0.4-2.8-1.1s-1.1-1.7-1.1-2.8v-0.2c0-0.8,0.2-1.5,0.5-2.1c0.3-0.6,0.7-1.1,1.3-1.5
		c0.6-0.3,1.2-0.5,1.9-0.5c1.1,0,1.9,0.3,2.6,1c0.6,0.7,0.9,1.7,0.9,2.9V17h-5c0.1,0.5,0.3,0.9,0.6,1.2c0.3,0.3,0.8,0.5,1.3,0.5
		c0.8,0,1.5-0.3,1.9-0.9l1,1.2c-0.3,0.4-0.7,0.8-1.3,1.1C66.8,20.3,66.2,20.4,65.5,20.4z M65.3,13.9c-0.4,0-0.8,0.1-1,0.4
		c-0.3,0.3-0.4,0.7-0.5,1.2h2.9v-0.2c0-0.5-0.1-0.8-0.4-1.1S65.7,13.9,65.3,13.9z"/>
	<path class="st0" d="M74.4,14.3c-0.3,0-0.5-0.1-0.8-0.1c-0.8,0-1.3,0.3-1.6,0.8v5.2H70v-7.9h2l0.1,0.9c0.4-0.7,1-1.1,1.8-1.1
		c0.2,0,0.5,0,0.7,0.1L74.4,14.3z"/>
	<path class="st0" d="M84.9,17.4c0-0.4-0.1-0.7-0.4-1c-0.3-0.2-0.8-0.5-1.6-0.7c-0.8-0.2-1.4-0.5-1.8-0.7c-1.2-0.7-1.8-1.5-1.8-2.6
		c0-0.6,0.2-1.1,0.5-1.5c0.3-0.5,0.8-0.8,1.4-1.1c0.6-0.3,1.3-0.4,2-0.4c0.8,0,1.4,0.1,2,0.4s1.1,0.7,1.4,1.2
		c0.3,0.5,0.5,1.1,0.5,1.7h-2.2c0-0.5-0.2-0.9-0.5-1.1c-0.3-0.3-0.7-0.4-1.3-0.4c-0.5,0-1,0.1-1.3,0.3c-0.3,0.2-0.4,0.5-0.4,0.9
		c0,0.3,0.2,0.6,0.5,0.9s0.9,0.5,1.5,0.7c1.2,0.4,2.2,0.8,2.7,1.4s0.9,1.2,0.9,2.1c0,0.9-0.3,1.6-1,2.2s-1.6,0.8-2.8,0.8
		c-0.8,0-1.6-0.2-2.2-0.5c-0.7-0.3-1.2-0.7-1.5-1.2s-0.5-1.1-0.5-1.8h2.2c0,1.2,0.7,1.8,2.1,1.8c0.5,0,0.9-0.1,1.2-0.3
		C84.7,18.1,84.9,17.8,84.9,17.4z"/>
	<path class="st0" d="M90.9,10.4v1.9h1.4v1.6h-1.4v4c0,0.3,0.1,0.5,0.2,0.6s0.3,0.2,0.6,0.2c0.2,0,0.4,0,0.6-0.1v1.6
		c-0.4,0.1-0.8,0.2-1.3,0.2c-1.5,0-2.2-0.7-2.3-2.2v-4.3h-1.2v-1.6h1.2v-1.9H90.9z"/>
	<path class="st0" d="M97.9,14.3c-0.3,0-0.5-0.1-0.8-0.1c-0.8,0-1.3,0.3-1.6,0.8v5.2h-2.1v-7.9h2l0.1,0.9c0.4-0.7,1-1.1,1.8-1.1
		c0.2,0,0.5,0,0.7,0.1L97.9,14.3z"/>
	<path class="st0" d="M98.9,10.3c0-0.3,0.1-0.6,0.3-0.8c0.2-0.2,0.5-0.3,0.9-0.3c0.4,0,0.6,0.1,0.9,0.3c0.2,0.2,0.3,0.5,0.3,0.8
		c0,0.3-0.1,0.6-0.3,0.8c-0.2,0.2-0.5,0.3-0.9,0.3s-0.6-0.1-0.9-0.3C99,10.9,98.9,10.6,98.9,10.3z M101.2,20.2h-2.1v-7.9h2.1V20.2z"
		/>
	<path class="st0" d="M106.2,18.7c0.4,0,0.7-0.1,1-0.3s0.4-0.5,0.4-0.9h2c0,0.5-0.2,1-0.4,1.5c-0.3,0.4-0.7,0.8-1.2,1
		c-0.5,0.2-1.1,0.4-1.7,0.4c-1.1,0-2-0.4-2.7-1.1s-1-1.7-1-3v-0.1c0-1.2,0.3-2.2,1-2.9s1.5-1.1,2.7-1.1c1,0,1.8,0.3,2.4,0.8
		c0.6,0.6,0.9,1.3,0.9,2.3h-2c0-0.4-0.1-0.7-0.4-1s-0.6-0.4-1-0.4c-0.5,0-0.9,0.2-1.1,0.5c-0.3,0.4-0.4,0.9-0.4,1.7v0.2
		c0,0.8,0.1,1.4,0.4,1.8C105.3,18.5,105.7,18.7,106.2,18.7z"/>
	<path class="st0" d="M113.6,17.1l-0.8,0.8v2.4h-2.1V9h2.1v6.2l0.4-0.5l2-2.4h2.5l-2.9,3.3l3.1,4.6h-2.4L113.6,17.1z"/>
	<path class="st0" d="M122.3,20.4c-1.2,0-2.1-0.4-2.8-1.1c-0.7-0.7-1.1-1.7-1.1-2.8v-0.2c0-0.8,0.2-1.5,0.5-2.1
		c0.3-0.6,0.7-1.1,1.3-1.5c0.6-0.3,1.2-0.5,1.9-0.5c1.1,0,1.9,0.3,2.6,1c0.6,0.7,0.9,1.7,0.9,2.9V17h-5c0.1,0.5,0.3,0.9,0.6,1.2
		c0.3,0.3,0.8,0.5,1.3,0.5c0.8,0,1.5-0.3,1.9-0.9l1,1.2c-0.3,0.4-0.7,0.8-1.3,1.1C123.5,20.3,122.9,20.4,122.3,20.4z M122,13.9
		c-0.4,0-0.8,0.1-1,0.4c-0.3,0.3-0.4,0.7-0.5,1.2h2.9v-0.2c0-0.5-0.1-0.8-0.4-1.1S122.5,13.9,122,13.9z"/>
	<path class="st0" d="M131.2,14.3c-0.3,0-0.5-0.1-0.8-0.1c-0.8,0-1.3,0.3-1.6,0.8v5.2h-2.1v-7.9h2l0.1,0.9c0.4-0.7,1-1.1,1.8-1.1
		c0.2,0,0.5,0,0.7,0.1L131.2,14.3z"/>
</g>
<g>
	<path class="st0" d="M76.5,40.9V30.2h3.3c0.9,0,1.8,0.2,2.5,0.6c0.7,0.4,1.3,1,1.7,1.8c0.4,0.8,0.6,1.7,0.6,2.7v0.5
		c0,1-0.2,1.9-0.6,2.6s-1,1.4-1.7,1.8s-1.6,0.6-2.5,0.6H76.5z M78.7,32v7.1h1.1c0.9,0,1.5-0.3,2-0.8s0.7-1.4,0.7-2.4v-0.6
		c0-1.1-0.2-1.9-0.7-2.5c-0.4-0.6-1.1-0.8-2-0.8H78.7z"/>
	<path class="st0" d="M86,30.9c0-0.3,0.1-0.6,0.3-0.8c0.2-0.2,0.5-0.3,0.9-0.3c0.4,0,0.6,0.1,0.9,0.3s0.3,0.5,0.3,0.8
		c0,0.3-0.1,0.6-0.3,0.8c-0.2,0.2-0.5,0.3-0.9,0.3s-0.6-0.1-0.9-0.3S86,31.2,86,30.9z M88.3,40.9h-2.1v-7.9h2.1V40.9z"/>
	<path class="st0" d="M92,32.9l0.1,0.9c0.6-0.7,1.3-1,2.3-1c1,0,1.7,0.4,2.1,1.2c0.6-0.8,1.4-1.2,2.4-1.2c0.9,0,1.5,0.3,1.9,0.8
		c0.4,0.5,0.6,1.3,0.6,2.3v5.1h-2.1v-5.1c0-0.5-0.1-0.8-0.3-1s-0.5-0.3-0.9-0.3c-0.6,0-1.1,0.3-1.3,0.9l0,5.5h-2.1v-5.1
		c0-0.5-0.1-0.8-0.3-1c-0.2-0.2-0.5-0.3-0.9-0.3c-0.6,0-1,0.2-1.3,0.7v5.6H90v-7.9H92z"/>
	<path class="st0" d="M103,30.9c0-0.3,0.1-0.6,0.3-0.8c0.2-0.2,0.5-0.3,0.9-0.3c0.4,0,0.6,0.1,0.9,0.3s0.3,0.5,0.3,0.8
		c0,0.3-0.1,0.6-0.3,0.8c-0.2,0.2-0.5,0.3-0.9,0.3s-0.6-0.1-0.9-0.3C103.1,31.5,103,31.2,103,30.9z M105.3,40.9h-2.1v-7.9h2.1V40.9z
		"/>
	<path class="st0" d="M109.5,31v1.9h1.4v1.6h-1.4v4c0,0.3,0.1,0.5,0.2,0.6s0.3,0.2,0.6,0.2c0.2,0,0.4,0,0.6-0.1v1.6
		c-0.4,0.1-0.8,0.2-1.3,0.2c-1.5,0-2.2-0.7-2.3-2.2v-4.3h-1.2v-1.6h1.2V31H109.5z"/>
	<path class="st0" d="M116.5,34.9c-0.3,0-0.5-0.1-0.8-0.1c-0.8,0-1.3,0.3-1.6,0.8v5.2h-2.1v-7.9h2l0.1,0.9c0.4-0.7,1-1.1,1.8-1.1
		c0.2,0,0.5,0,0.7,0.1L116.5,34.9z"/>
	<path class="st0" d="M117.5,30.9c0-0.3,0.1-0.6,0.3-0.8c0.2-0.2,0.5-0.3,0.9-0.3c0.4,0,0.6,0.1,0.9,0.3s0.3,0.5,0.3,0.8
		c0,0.3-0.1,0.6-0.3,0.8c-0.2,0.2-0.5,0.3-0.9,0.3s-0.6-0.1-0.9-0.3C117.6,31.5,117.5,31.2,117.5,30.9z M119.8,40.9h-2.1v-7.9h2.1
		V40.9z"/>
	<path class="st0" d="M134.1,40.9h-2.2v-4.6h-4.3v4.6h-2.2V30.2h2.2v4.3h4.3v-4.3h2.2V40.9z"/>
	<path class="st0" d="M135.5,36.8c0-0.8,0.2-1.5,0.5-2.1s0.7-1.1,1.3-1.4c0.6-0.3,1.2-0.5,2-0.5c1.1,0,1.9,0.3,2.6,1
		c0.7,0.7,1.1,1.5,1.1,2.7l0,0.5c0,1.2-0.3,2.2-1,2.9c-0.7,0.7-1.6,1.1-2.7,1.1s-2.1-0.4-2.7-1.1C135.9,39.2,135.5,38.2,135.5,36.8
		L135.5,36.8z M137.6,37c0,0.8,0.1,1.3,0.4,1.7s0.7,0.6,1.2,0.6c0.5,0,0.9-0.2,1.2-0.6s0.4-1,0.4-1.9c0-0.7-0.1-1.3-0.4-1.7
		c-0.3-0.4-0.7-0.6-1.2-0.6c-0.5,0-0.9,0.2-1.2,0.6C137.8,35.5,137.6,36.1,137.6,37z"/>
	<path class="st0" d="M144.9,40.9v-6.4h-1.2v-1.6h1.2v-0.7c0-0.9,0.3-1.6,0.8-2.1c0.5-0.5,1.2-0.7,2.1-0.7c0.3,0,0.7,0,1.1,0.1
		l0,1.6c-0.2,0-0.4-0.1-0.6-0.1c-0.8,0-1.2,0.4-1.2,1.1v0.6h1.6v1.6H147v6.4H144.9z"/>
	<path class="st0" d="M150.3,40.9v-6.4h-1.2v-1.6h1.2v-0.7c0-0.9,0.3-1.6,0.8-2.1c0.5-0.5,1.2-0.7,2.1-0.7c0.3,0,0.7,0,1.1,0.1
		l0,1.6c-0.2,0-0.4-0.1-0.6-0.1c-0.8,0-1.2,0.4-1.2,1.1v0.6h1.6v1.6h-1.6v6.4H150.3z"/>
	<path class="st0" d="M157.1,32.9l0.1,0.9c0.6-0.7,1.3-1,2.3-1c1,0,1.7,0.4,2.1,1.2c0.6-0.8,1.4-1.2,2.4-1.2c0.9,0,1.5,0.3,1.9,0.8
		c0.4,0.5,0.6,1.3,0.6,2.3v5.1h-2.1v-5.1c0-0.5-0.1-0.8-0.3-1s-0.5-0.3-0.9-0.3c-0.6,0-1.1,0.3-1.3,0.9l0,5.5h-2.1v-5.1
		c0-0.5-0.1-0.8-0.3-1c-0.2-0.2-0.5-0.3-0.9-0.3c-0.6,0-1,0.2-1.3,0.7v5.6h-2.1v-7.9H157.1z"/>
	<path class="st0" d="M172.7,40.9c-0.1-0.2-0.2-0.4-0.2-0.7c-0.5,0.6-1.2,0.9-2,0.9c-0.8,0-1.4-0.2-1.9-0.7c-0.5-0.4-0.8-1-0.8-1.7
		c0-0.8,0.3-1.5,0.9-1.9c0.6-0.4,1.5-0.7,2.7-0.7h1v-0.5c0-0.4-0.1-0.7-0.3-0.9c-0.2-0.2-0.5-0.3-0.9-0.3c-0.4,0-0.6,0.1-0.8,0.3
		c-0.2,0.2-0.3,0.4-0.3,0.7h-2.1c0-0.5,0.1-0.9,0.4-1.3s0.7-0.7,1.2-0.9c0.5-0.2,1.1-0.3,1.7-0.3c1,0,1.8,0.2,2.3,0.7
		c0.6,0.5,0.9,1.2,0.9,2.1V39c0,0.8,0.1,1.3,0.3,1.7v0.1H172.7z M170.9,39.4c0.3,0,0.6-0.1,0.9-0.2c0.3-0.1,0.5-0.3,0.6-0.6v-1.4
		h-0.8c-1.1,0-1.6,0.4-1.7,1.1l0,0.1c0,0.3,0.1,0.5,0.3,0.7S170.6,39.4,170.9,39.4z"/>
	<path class="st0" d="M178.1,32.9l0.1,0.9c0.6-0.7,1.3-1.1,2.3-1.1c0.8,0,1.5,0.2,1.9,0.7s0.6,1.2,0.6,2.2v5.1h-2.1v-5.1
		c0-0.5-0.1-0.8-0.3-1s-0.5-0.3-1-0.3c-0.6,0-1,0.3-1.3,0.8v5.6h-2.1v-7.9H178.1z"/>
	<path class="st0" d="M186.5,32.9l0.1,0.9c0.6-0.7,1.3-1.1,2.3-1.1c0.8,0,1.5,0.2,1.9,0.7s0.6,1.2,0.6,2.2v5.1h-2.1v-5.1
		c0-0.5-0.1-0.8-0.3-1s-0.5-0.3-1-0.3c-0.6,0-1,0.3-1.3,0.8v5.6h-2.1v-7.9H186.5z"/>
</g>
</svg>
