<?xml version="1.0" encoding="utf-8"?>
<!-- Generator: Adobe Illustrator 20.0.0, SVG Export Plug-In . SVG Version: 6.00 Build 0)  -->
<svg version="1.1" id="Ebene_1" xmlns="http://www.w3.org/2000/svg" xmlns:xlink="http://www.w3.org/1999/xlink" x="0px" y="0px"
	 viewBox="0 0 625 103.5" style="enable-background:new 0 0 625 103.5;" xml:space="preserve">
<style type="text/css">
	.st0{fill:#FFFFFF;}
</style>
<g>
	<g>
		<defs>
			<path id="SVGID_1_" d="M73.5,41.2c-0.4,0.4-1,0.8-1.8,1.1c-0.2,0.1-0.4,0.2-0.6,0.2c-0.2,0.1-0.4,0.2-0.7,0.3
				c-0.3,0.1-0.8,0.3-1.4,0.5c-0.6,0.2-1.5,0.5-2.7,0.9c-0.6,0.2-1.3,0.4-2,0.6c-0.7,0.2-1.6,0.5-2.5,0.7c-1,0.2-2,0.5-3.2,0.7
				c-1.2,0.2-2.4,0.5-3.8,0.7c-0.1,0-0.3,0.1-0.4,0.1c-0.1,0-0.3,0-0.4,0.1l-0.6,1c-0.8,1.2-1.5,2.2-2.2,3.2c-0.7,1-1.5,1.9-2.3,2.7
				c-0.4,0.4-0.8,0.8-1.2,1.1c-0.4,0.3-0.8,0.7-1.2,0.9c-0.2,0.1-0.4,0.3-0.6,0.4c-0.2,0.1-0.4,0.2-0.7,0.3
				c-0.2,0.1-0.4,0.2-0.7,0.2c-0.2,0-0.4,0.1-0.6,0.1c-0.9,0.1-1.7,0.2-2.5,0.1c-0.8-0.1-1.6-0.2-2.3-0.3c-0.7-0.2-1.4-0.4-2.1-0.6
				c-0.7-0.2-1.3-0.5-1.9-0.8c-1.2-0.6-2.3-1.2-3.4-1.9c-1-0.7-2.1-1.5-3-2.4c-0.2-0.2-0.5-0.4-0.7-0.7c-0.2-0.2-0.4-0.5-0.6-0.8
				c0-0.1-0.1-0.1-0.2-0.2c-0.1-0.1-0.1-0.1-0.1-0.2c0-0.1-0.1-0.2-0.1-0.3c0-0.1-0.1-0.2-0.1-0.4c0-0.1,0-0.2,0-0.3
				c0-0.1,0.1-0.1,0.2-0.2c0.1,0,0.1-0.1,0.2-0.1c0,0,0.1,0,0.1,0c0.1,0,0.2,0,0.2,0c0.1,0,0.2,0,0.2,0c0.6,0,1.3-0.1,1.9-0.1
				c0.6,0,1.3,0,2,0c4.5,0,8.4-0.1,11.8-0.3c3.4-0.3,6.3-0.6,8.8-1c0.2,0,0.3-0.1,0.5-0.1c0.2,0,0.3,0,0.5-0.1
				c0.7-1.3,1.4-2.6,2.1-3.9c0.7-1.4,1.3-2.8,1.9-4.2c0.7-1.6,1.2-3.1,1.7-4.5c0.5-1.4,0.9-2.7,1.2-4c0.7-2.5,1-4.8,1.1-6.7
				c0-1,0-1.9-0.1-2.9c-0.1-0.9-0.3-1.7-0.7-2.5c-0.3-0.7-0.8-1.4-1.3-1.9c-0.6-0.5-1.2-0.9-2-1.1c-0.8-0.2-1.6-0.4-2.4-0.4
				c-0.9,0-1.8,0.1-2.7,0.4c-1,0.3-2,0.7-3,1.3c-1,0.6-2.1,1.3-3.3,2.2c-1.1,0.9-2.3,1.9-3.5,3.1c-1.2,1.2-2.4,2.6-3.7,4.1
				c-1.3,1.6-2.6,3.3-4,5.2c-1.4,1.9-2.8,4.1-4.2,6.5c-0.1,0.2-0.2,0.3-0.3,0.5c-0.1,0.2-0.2,0.3-0.3,0.5c-0.2,0.5-0.4,1.1-0.6,1.6
				c-0.2,0.5-0.4,1.1-0.6,1.7c-0.4,1-0.8,2-1.2,3c-0.4,1-0.8,2.1-1.3,3.3c-0.2,0.6-0.5,1.1-0.7,1.7c-0.3,0.6-0.5,1.1-0.8,1.7
				c-0.1,0.3-0.3,0.6-0.5,0.9c-0.2,0.3-0.3,0.6-0.5,0.8c-0.1,0.2-0.2,0.3-0.3,0.4c-0.1,0.1-0.2,0.3-0.3,0.4
				c-0.1,0.1-0.1,0.1-0.2,0.2c-0.1,0.1-0.1,0.1-0.2,0.2c0,0-0.1,0-0.1,0.1c0,0-0.1,0-0.2,0c-0.1,0-0.2,0-0.2-0.1
				c0,0-0.1-0.1-0.1-0.2c0-0.1,0-0.3,0-0.3c0-0.1,0-0.2,0-0.3c0-0.1,0-0.2,0-0.3c0-0.1,0-0.2,0.1-0.3c0-0.2,0.1-0.4,0.2-0.5
				c0.1-0.2,0.1-0.3,0.2-0.5c0.1-0.3,0.3-0.7,0.4-1c0.1-0.3,0.3-0.7,0.4-1c0.3-0.7,0.6-1.4,0.9-2c0.3-0.7,0.7-1.4,1-2.1
				c0.5-1,1-2,1.6-3c0.5-1,1.1-2,1.7-3.1c0.3-0.7,0.5-1.4,0.8-2.1c0.2-0.7,0.5-1.4,0.7-2.1c0.5-1.5,1-2.9,1.4-4.2
				c0.4-1.3,0.8-2.5,1.2-3.7c0.7-2.3,1.3-4.3,1.8-5.9c0.5-1.7,0.9-3.1,1.3-4.2c0.3-1.1,0.6-2,0.8-2.6c0.2-0.6,0.3-1.1,0.4-1.4
				c0.3-0.9,0.6-1.6,0.8-2.2c0.3-0.6,0.5-0.8,0.7-0.7c0.2,0.1,0.2,0.4,0.2,1.1c-0.1,0.7-0.2,1.4-0.5,2.3c-0.1,0.3-0.2,0.6-0.3,1
				c-0.1,0.4-0.3,0.9-0.5,1.7c-0.2,0.7-0.6,1.7-1,2.9C35.6,20.4,35,22,34.4,24c-0.5,1.5-1.1,3.2-1.7,5.1s-1.4,4.2-2.3,6.7
				c1.6-2.5,3.1-4.8,4.6-6.8c1.5-2,3-3.9,4.4-5.5c1.5-1.7,3-3.2,4.4-4.5c1.4-1.3,2.8-2.3,4.2-3.2c1.4-0.8,2.7-1.4,4-1.8
				c1.3-0.4,2.5-0.5,3.7-0.3c0.6,0.1,1.2,0.2,1.7,0.4c0.5,0.2,1,0.4,1.5,0.8c0.5,0.3,0.9,0.7,1.2,1.2c0.3,0.5,0.6,0.9,0.9,1.5
				c0.5,1,0.7,2.1,0.8,3.2c0.1,1.1,0.1,2.2,0.1,3.3c-0.1,1.1-0.2,2.2-0.4,3.3c-0.2,1.1-0.4,2.3-0.7,3.5c-0.3,1.2-0.7,2.5-1.1,3.8
				c-0.4,1.3-1,2.7-1.6,4.1c-0.5,1.2-1,2.4-1.7,3.6c-0.6,1.3-1.3,2.6-2.1,4c1.9-0.3,3.6-0.7,5-1.1c1.4-0.4,2.6-0.7,3.6-1
				c1.2-0.4,2.2-0.7,3-1c0.8-0.3,1.5-0.6,2-0.8c0.6-0.2,1.1-0.5,1.6-0.7c0.5-0.2,1-0.5,1.6-0.7c0.7-0.3,1.3-0.6,1.9-0.7
				c0.5-0.1,0.8-0.1,0.9,0.1C74.1,40.5,73.9,40.8,73.5,41.2L73.5,41.2z M43.2,48.3c-3.6,0.2-7.6,0.3-12.2,0.2h-2.2
				c-0.2,0-0.4,0-0.5,0c-0.2,0-0.4,0-0.5,0c-0.1,0-0.2,0-0.3,0c-0.1,0-0.2,0-0.3,0c0,0-0.1,0-0.1,0c0,0,0,0,0,0v0.1
				c0,0.2,0.1,0.3,0.3,0.5c0.1,0.2,0.2,0.3,0.4,0.5c0.2,0.3,0.5,0.6,0.8,0.9c0.6,0.6,1.3,1.1,1.9,1.6c1.4,1,2.8,1.9,4.4,2.6
				c1.6,0.7,3.3,1.2,5.1,1.5c0.5,0.1,0.9,0.1,1.4,0.1c0.4,0,0.9,0,1.4,0c0.2,0,0.5,0,0.7-0.1c0.2,0,0.5-0.1,0.7-0.1
				c0.2,0,0.5-0.1,0.7-0.2c0.2-0.1,0.4-0.2,0.6-0.3c0.8-0.5,1.6-1.1,2.4-1.9c0.7-0.8,1.5-1.6,2.2-2.5c0.9-1.2,1.8-2.6,2.7-4
				C49.9,47.8,46.8,48.1,43.2,48.3L43.2,48.3z M26.7,43.3c-0.2,0.3-0.3,0.7-0.5,1c-0.6,1.2-1.2,2.3-1.7,3.4c-0.5,1.1-1,2.3-1.4,3.4
				c-0.1,0.3-0.2,0.5-0.3,0.8c-0.1,0.3-0.2,0.6-0.3,0.8c0,0.1,0,0.1,0,0.2c0,0.1,0,0.1,0,0.2c0.2-0.3,0.4-0.5,0.6-0.9
				c0.1-0.2,0.3-0.4,0.4-0.7c0.1-0.2,0.3-0.5,0.4-0.7c0.5-1,0.9-1.9,1.3-2.9c0.4-0.9,0.8-1.9,1.1-2.8c0.2-0.5,0.4-1,0.5-1.5
				c0.2-0.5,0.3-0.9,0.5-1.4C27.1,42.6,26.9,42.9,26.7,43.3L26.7,43.3z M106.3,41.2c-0.1,0.2-0.2,0.4-0.4,0.5
				c-0.1,0-0.1,0.1-0.2,0.1c0,0-0.1,0-0.2,0.1c-0.1,0-0.2,0.1-0.4,0.1c-0.2,0.1-0.4,0.2-0.7,0.3c-0.3,0.2-0.7,0.3-1.2,0.5
				c-0.5,0.2-1.1,0.5-1.9,0.8c-0.8,0.3-1.7,0.7-2.7,1.1c-1,0.4-2.3,0.8-3.7,1.3c-0.8,0.2-1.6,0.5-2.5,0.8c-0.9,0.3-1.9,0.5-2.9,0.8
				c-1,0.3-2.1,0.5-3.3,0.6c-1.2,0.2-2.4,0.2-3.8,0.2c-0.9,0-1.6,0-2.2-0.1c-0.6,0-1.2-0.1-1.6-0.1c-0.5,0-0.9-0.1-1.2-0.1
				c-0.1,0.2-0.2,0.3-0.2,0.3c-0.1,0.1-0.2,0.2-0.2,0.3c-0.1,0.1-0.1,0.2-0.2,0.3c-0.3,0.4-0.7,0.9-1,1.4c-0.4,0.5-0.8,1.1-1.4,1.7
				c-0.3,0.3-0.6,0.7-0.9,1c-0.4,0.3-0.8,0.7-1.2,1c-0.2,0.2-0.5,0.3-0.7,0.5c-0.3,0.2-0.5,0.3-0.9,0.4c-0.2,0.1-0.3,0.1-0.5,0.1
				c-0.2,0-0.3,0.1-0.5,0.1c-0.1,0-0.2,0-0.3,0c-0.1,0-0.1,0-0.1,0h-0.1h0h0c-0.2,0-0.4-0.1-0.6-0.2c-0.4-0.2-0.7-0.5-0.9-0.9
				c-0.2-0.4-0.4-0.8-0.5-1.2c-0.1-0.4-0.2-0.8-0.2-1.2c0-0.4-0.1-0.8-0.1-1.2c0-0.4,0-0.7,0-1.1c0-0.3,0.1-0.7,0.1-1
				c0-0.3,0.1-0.6,0.1-1c0-0.3,0.1-0.6,0.2-0.9c0.1-0.6,0.3-1.1,0.5-1.6c0.2-0.5,0.4-0.9,0.7-1.3c0.3-0.4,0.5-0.7,0.8-1
				c0.3-0.3,0.5-0.6,0.8-0.8c0.5-0.4,1-0.8,1.4-1c0.4-0.2,0.8-0.4,1.1-0.5c0.3-0.1,0.5-0.2,0.7-0.2c0.2,0,0.3-0.1,0.4-0.1
				c0.2,0,0.4,0,0.6,0.1c0.2,0.1,0.3,0.3,0.3,0.5c0,0.2-0.1,0.4-0.2,0.6c-0.1,0.2-0.3,0.3-0.5,0.3c-0.1,0-0.2,0-0.2,0
				c-0.1,0-0.2,0-0.4,0.1c-0.2,0-0.4,0.1-0.7,0.2c-0.3,0.1-0.6,0.2-1.1,0.5c-0.2,0.1-0.5,0.3-0.7,0.4c-0.2,0.2-0.5,0.4-0.8,0.6
				c-0.3,0.3-0.5,0.6-0.8,1c-0.3,0.4-0.5,0.8-0.7,1.3c-0.2,0.5-0.4,1.1-0.5,1.8c-0.1,0.7-0.2,1.4-0.3,2.2c0,0.4-0.1,0.8-0.1,1.2
				c0,0.4,0,0.9,0.1,1.3c0.1,0.4,0.2,0.9,0.4,1.3c0.2,0.4,0.4,0.7,0.8,1c0.3,0.2,0.7,0.3,1.1,0.2c0.4-0.1,0.7-0.2,1-0.3
				c0.3-0.1,0.6-0.3,0.9-0.5c0.3-0.2,0.5-0.4,0.8-0.6c0.5-0.4,0.9-0.8,1.3-1.2c0.4-0.4,0.7-0.8,1-1.2c0.3-0.4,0.6-0.7,0.8-1.1
				c0.2-0.3,0.4-0.7,0.6-1c0.1-0.2,0.2-0.3,0.3-0.5c0.1-0.2,0.2-0.3,0.2-0.5c0-0.1,0.1-0.1,0.1-0.2c0-0.1,0.1-0.1,0.1-0.2l0.1-0.2
				l0-0.1l0,0c0,0,0,0,0,0c0,0,0.1-0.1,0.2-0.1H77c0.5,0,1.1-0.1,1.6-0.1c0.5,0,1,0,1.6,0c0.6,0,1.3,0,2,0c0.7,0,1.6,0,2.6,0
				c1.4,0,2.5-0.1,3.4-0.2c0.9-0.1,1.8-0.3,2.5-0.4c0.7-0.1,1.4-0.3,2-0.5c0.6-0.2,1.3-0.4,2.1-0.6c1.2-0.4,2.3-0.8,3.2-1.2
				c0.9-0.4,1.7-0.7,2.4-1.1c0.7-0.3,1.2-0.6,1.7-0.9c0.4-0.3,0.8-0.5,1.2-0.6c0.3-0.2,0.6-0.3,0.8-0.5c0.2-0.1,0.4-0.2,0.5-0.3
				c0.2-0.1,0.3-0.2,0.4-0.3c0.1-0.1,0.3-0.2,0.4-0.3c0.2-0.1,0.4-0.1,0.6-0.1c0.2,0.1,0.3,0.2,0.4,0.4
				C106.4,40.8,106.4,41,106.3,41.2L106.3,41.2z M176.5,41.1c-0.2,0.3-0.5,0.6-0.8,0.9c-0.1,0.1-0.2,0.2-0.3,0.2
				c-0.1,0-0.2,0.1-0.4,0.2c-0.2,0.1-0.4,0.2-0.7,0.4c-0.3,0.2-0.8,0.5-1.4,0.9c-0.6,0.4-1.3,0.9-2.3,1.4c-0.9,0.6-2.1,1.3-3.5,2.2
				c-0.7,0.4-1.5,0.9-2.3,1.4c-0.8,0.5-1.7,1-2.7,1.5c-1,0.5-2.1,1.1-3.2,1.7c-1.2,0.6-2.4,1.1-3.8,1.6c-0.8,0.3-1.6,0.5-2.4,0.5
				c-0.4,0-0.9,0-1.3-0.1c-0.4-0.1-0.9-0.3-1.3-0.5c-0.9-0.4-1.7-1.1-2.4-2c-0.7-0.9-1.3-1.9-1.8-3c-0.5-1.1-0.9-2.3-1.3-3.6
				c0-0.2-0.1-0.3-0.1-0.5c0-0.2-0.1-0.3-0.1-0.5c-0.1,0.1-0.2,0.2-0.3,0.3c-0.1,0.1-0.2,0.2-0.3,0.3c-0.9,0.9-1.8,1.8-2.8,2.7
				c-1,0.9-2,1.8-3.1,2.7c-1.4,1.1-2.7,2-3.7,2.7c-1.1,0.7-2.1,1.2-3,1.6c-0.5,0.2-0.9,0.4-1.4,0.5c-0.4,0.1-0.9,0.2-1.3,0.3
				c-0.4,0.1-0.9,0.1-1.4,0.1c-0.5,0-1-0.1-1.4-0.4c-0.5-0.2-0.9-0.5-1.3-1c-0.4-0.5-0.8-1-1.1-1.6c-0.6-1.2-1-2.7-1.2-4.6
				c-0.1-0.9-0.2-1.8-0.3-2.8c-0.1-1-0.1-2.1,0-3.3l-0.4,0.3c-0.2,0.2-0.5,0.3-0.7,0.5c-0.2,0.2-0.5,0.4-0.7,0.6
				c-0.5,0.4-1,0.8-1.6,1.2c-0.5,0.4-1.1,0.8-1.7,1.3c-2.4,1.8-4.5,3.3-6.5,4.7c-2,1.4-3.8,2.6-5.6,3.6c-0.4,0.2-0.8,0.5-1.3,0.7
				c-0.4,0.2-0.8,0.4-1.3,0.5c-0.2,0.1-0.4,0.1-0.6,0.2c-0.2,0.1-0.5,0.1-0.7,0.1c-0.2,0-0.3,0-0.5-0.1c-0.1,0-0.2-0.1-0.2-0.2
				c-0.1-0.1-0.1-0.2-0.1-0.2c0-0.1-0.1-0.1-0.1-0.2c0-0.1,0-0.1,0-0.2c0-0.2,0-0.4,0-0.5c0-0.1,0-0.3,0.1-0.4
				c0.1-0.5,0.2-0.9,0.4-1.3c0.1-0.4,0.3-0.8,0.4-1.1c0.1-0.4,0.3-0.7,0.4-1c0.1-0.3,0.3-0.7,0.4-1c0.5-1.2,1-2.2,1.4-3.1
				c0.4-0.9,0.7-1.6,1-2.2c0.3-0.6,0.5-1,0.7-1.4c0.2-0.3,0.3-0.6,0.3-0.7c0.2-0.4,0.5-0.8,0.7-1c0.3-0.2,0.5-0.3,0.6-0.2
				c0.1,0.1,0.2,0.4,0.1,0.7c-0.1,0.4-0.2,0.8-0.4,1.2c-0.1,0.2-0.1,0.3-0.3,0.5c-0.1,0.2-0.3,0.5-0.5,0.8c-0.2,0.4-0.5,0.9-0.8,1.5
				c-0.3,0.6-0.7,1.4-1.2,2.4c-0.3,0.5-0.5,1.1-0.8,1.7c-0.3,0.6-0.6,1.3-0.9,2.1c-0.1,0.4-0.3,0.8-0.5,1.2
				c-0.2,0.4-0.3,0.9-0.4,1.3c0,0.1,0,0.2,0,0.3c0.1,0,0.3,0,0.5,0c0.2,0,0.4-0.1,0.6-0.2c0.2-0.1,0.4-0.1,0.7-0.2
				c0.9-0.4,1.9-0.9,2.9-1.5c1-0.6,2.1-1.3,3.3-2c1.2-0.7,2.4-1.6,3.7-2.5c1.3-0.9,2.7-1.9,4.1-2.9c0.7-0.5,1.3-1,1.9-1.4
				c0.6-0.5,1.2-0.9,1.8-1.3c0.3-0.2,0.6-0.4,0.8-0.6c0.3-0.2,0.5-0.4,0.8-0.6l0,0v-0.2c0,0,0.1,0,0,0c0,0,0,0,0,0
				c0,0,0.1,0.1,0.1,0.1h0l0.1-0.1l0,0h0c0,0,0,0,0,0c0,0,0,0,0.1,0.1v0.1v0.2c0,0,0.1,0,0.1,0.1l0,0l0,0l-0.1,0.1v0.2
				c0,0.2,0,0.3,0,0.5c0,0.2,0,0.3,0,0.5c0,1.4,0,2.7,0.2,3.9c0.1,1.2,0.3,2.2,0.6,3.2c0.3,1,0.6,1.8,1,2.5c0.4,0.7,0.9,1.3,1.4,1.7
				c0.5,0.4,1.1,0.6,1.6,0.6c0.6,0,1.1,0,1.6-0.1c0.5-0.1,1-0.3,1.4-0.5c0.4-0.2,0.9-0.4,1.4-0.6c0.5-0.2,0.9-0.5,1.4-0.8
				c0.4-0.3,0.9-0.6,1.4-0.9c1-0.7,2.1-1.5,3.3-2.4c1.2-0.9,2.6-2.1,4.2-3.6c1-0.9,1.9-1.7,2.7-2.5v0h0c0,0,0.1-0.1,0.1-0.1
				c0,0,0.1-0.1,0.1-0.1l0.1-0.1l0-0.1h0v0c0.2,0.1,0.3,0.2,0.4,0.2c0,0,0,0,0,0v0c0,0,0,0,0,0c0,0,0,0,0,0v0c0,0,0,0.1,0,0.1
				c0,0,0,0.1,0,0.1c0,0,0,0.1,0,0.1c0,0,0,0.1,0,0.1c0.1,0.1,0.2,0.1,0.2,0.1c0,0,0,0-0.2-0.1h0c0,0,0,0.1,0,0.2
				c0,0.2,0.1,0.3,0.1,0.4c0,0.1,0.1,0.3,0.1,0.4c0.1,0.3,0.2,0.6,0.2,0.9c0.1,0.3,0.1,0.6,0.2,0.8c0.6,2.1,1.4,3.8,2.4,5
				c1,1.3,2.1,2.1,3.3,2.4c0.6,0.2,1.3,0.2,1.9,0.1c0.7-0.1,1.4-0.3,2.1-0.5c1.2-0.4,2.2-0.9,3.2-1.4c1-0.5,1.9-1,2.8-1.5
				c0.9-0.5,1.7-1,2.4-1.4c0.7-0.4,1.4-0.9,2-1.2c1.2-0.8,2.3-1.5,3.1-2.1c0.8-0.6,1.6-1.1,2.2-1.5c0.6-0.4,1.1-0.8,1.5-1.1
				c0.4-0.3,0.7-0.6,1-0.8c0.3-0.2,0.6-0.4,0.8-0.6c0.2-0.2,0.5-0.4,0.8-0.6c0.4-0.3,0.7-0.4,1-0.5c0.3-0.1,0.5,0,0.6,0.2
				C176.8,40.6,176.7,40.8,176.5,41.1L176.5,41.1z M121.5,40.5C121.5,40.5,121.5,40.5,121.5,40.5C121.5,40.5,121.5,40.5,121.5,40.5
				C121.5,40.5,121.5,40.5,121.5,40.5L121.5,40.5z M220.7,40.9c-0.1,0.2-0.3,0.4-0.5,0.5c-0.1,0-0.2,0.1-0.2,0.1
				c-0.1,0-0.2,0.1-0.4,0.1c-0.2,0.1-0.5,0.2-0.8,0.3c-0.4,0.2-0.9,0.4-1.6,0.7c-0.7,0.3-1.6,0.7-2.7,1.2c-1.1,0.5-2.4,1.1-4.1,1.8
				c-1.6,0.7-3.6,1.6-5.8,2.5c-2.2,1-4.9,2-8,3.2c-3.1,1.1-5.9,2-8.5,2.6c-2.6,0.6-4.9,1-7.1,1.1c-1.1,0-2.1-0.1-3-0.2
				c-0.9-0.2-1.8-0.5-2.6-1c-0.8-0.5-1.4-1.2-1.8-2c-0.2-0.4-0.4-0.8-0.5-1.2c-0.1-0.4-0.2-0.8-0.2-1.2c0-0.8,0-1.5,0.1-2.2
				c0.1-0.6,0.2-1.2,0.3-1.7c0.1-0.5,0.3-1,0.4-1.4c0.1-0.4,0.2-0.8,0.3-1.1c0.2-0.6,0.4-1.1,0.5-1.4c0.1-0.3,0.2-0.5,0.3-0.6
				c0.1-0.2,0.3-0.4,0.5-0.5c0.2-0.1,0.4-0.1,0.5,0c0.1,0.1,0.2,0.3,0.3,0.5c0,0.2,0,0.5-0.1,0.7c0,0.1-0.1,0.2-0.2,0.4
				c-0.1,0.1-0.2,0.4-0.4,0.7c-0.2,0.3-0.4,0.9-0.7,1.5c-0.1,0.3-0.3,0.7-0.4,1.2c-0.1,0.5-0.3,1-0.4,1.6c-0.1,0.6-0.2,1.3-0.2,2
				c0,0.4,0.1,0.8,0.1,1.2c0.1,0.4,0.2,0.8,0.4,1.2c0.2,0.4,0.4,0.7,0.7,1.1c0.3,0.3,0.7,0.6,1.1,0.9c0.8,0.5,1.8,0.8,2.9,1
				c1.1,0.2,2.3,0.2,3.6,0.1c1.3-0.1,2.6-0.3,4.1-0.5c1.5-0.3,3-0.7,4.6-1.2c1.6-0.5,3.4-1,5.2-1.7c2.8-1,5.3-2,7.4-3
				c2.1-0.9,3.9-1.8,5.5-2.5c1.6-0.7,2.8-1.4,3.9-1.9c1-0.5,1.9-1,2.6-1.4c0.7-0.4,1.2-0.7,1.6-0.9c0.4-0.2,0.7-0.4,1-0.6
				c0.3-0.2,0.5-0.3,0.6-0.4c0.2-0.1,0.4-0.2,0.6-0.3c0.2-0.1,0.4-0.1,0.6-0.1c0.2,0.1,0.3,0.2,0.4,0.4
				C220.8,40.5,220.8,40.7,220.7,40.9L220.7,40.9z M194.9,23.5c-0.4,0.1-1,0.3-1.9,0.3c-0.9,0.1-2,0.2-3.4,0.3
				c-1.4,0.1-3.1,0.3-5.1,0.6c-1.3,0.2-2.3,0.3-3.1,0.4c-0.8,0.1-1.4,0.2-1.9,0.2c-0.5,0-0.8,0-0.9-0.1c-0.2-0.1-0.3-0.3-0.3-0.6
				c0-0.2,0-0.4,0-0.5c0-0.2,0.1-0.2,0.2-0.2c0,0,0.1,0,0.2,0c0.1,0,0.2,0,0.4,0.1c0.2,0,0.5,0.1,0.9,0.1c0.4,0,0.9,0,1.6,0
				c0.7,0,1.5,0,2.6-0.1c1,0,2.3-0.1,3.7-0.2c1.1-0.1,2.1-0.2,2.9-0.2c0.8-0.1,1.4-0.2,1.9-0.2c0.5-0.1,0.9-0.2,1.2-0.2
				c0.3-0.1,0.5-0.1,0.6-0.2c0.2,0,0.3-0.1,0.3-0.1c0.1,0,0.2-0.1,0.3-0.1c0.1,0,0.2,0,0.3-0.1c0.1-0.1,0.2,0,0.2,0.2
				C195.5,23.1,195.3,23.3,194.9,23.5L194.9,23.5z M278.5,41.2c-0.1,0.3-0.3,0.6-0.6,0.8c-0.1,0.1-0.2,0.1-0.2,0.2
				c-0.1,0-0.2,0.1-0.3,0.2c-0.1,0.1-0.3,0.2-0.6,0.4c-0.2,0.2-0.6,0.5-1,0.8c-0.4,0.3-1,0.8-1.7,1.3c-0.7,0.5-1.6,1.2-2.6,2
				c-0.5,0.4-1.1,0.8-1.7,1.2c-0.6,0.4-1.3,0.9-2.1,1.3c-0.8,0.5-1.6,0.9-2.5,1.4c-0.9,0.5-1.9,0.9-3,1.4c-1.2,0.5-2.4,0.9-3.8,1.3
				c-1.4,0.4-2.9,0.7-4.5,0.7c-0.8,0-1.7,0-2.5-0.2c-0.9-0.1-1.8-0.4-2.7-0.7c-0.9-0.3-1.8-0.8-2.6-1.4c-0.9-0.6-1.7-1.3-2.5-2.2
				c-1-1.1-1.8-2.1-2.3-3.1c-0.6-1-1.1-1.8-1.5-2.6c-0.2-0.4-0.4-0.8-0.5-1.2c-0.2-0.4-0.3-0.8-0.5-1.1c0-0.1-0.1-0.2-0.1-0.3
				c0-0.1-0.1-0.1-0.1-0.2c0,0-0.1,0-0.1,0.1c-0.2,0.1-0.3,0.2-0.5,0.3c-0.7,0.3-1.4,0.7-2.1,1.2c-0.8,0.5-1.6,1-2.7,1.8
				c-1,0.7-2.2,1.6-3.5,2.6c-1.3,1-2.9,2.2-4.7,3.6c-0.9,0.7-1.8,1.3-2.7,1.9c-0.9,0.6-1.7,1.1-2.6,1.5c-0.4,0.2-0.9,0.4-1.3,0.6
				c-0.4,0.2-0.8,0.3-1.3,0.4c-0.4,0.1-0.8,0.1-1.3,0.1c-0.4,0-0.8-0.1-1.2-0.3c0,0-0.1,0-0.1-0.1c0,0-0.1,0-0.1-0.1l-0.1-0.1
				l-0.1-0.1c-0.1-0.1-0.2-0.2-0.2-0.3c-0.1-0.2-0.1-0.4-0.1-0.5c0-0.2,0-0.3,0-0.4c0-0.2,0.1-0.5,0.1-0.7c0-0.2,0.1-0.4,0.2-0.6
				c0.1-0.4,0.2-0.7,0.4-1.1c0.1-0.3,0.3-0.7,0.4-1c0.3-0.6,0.5-1.2,0.8-1.8c0.2-0.5,0.5-1.1,0.7-1.5c0.4-0.9,0.8-1.7,1.2-2.4
				c0.3-0.7,0.6-1.2,0.8-1.7c0.2-0.5,0.4-0.8,0.5-1.1c0.1-0.2,0.2-0.4,0.3-0.5c0.2-0.3,0.4-0.6,0.6-0.7c0.2-0.2,0.4-0.2,0.6-0.1
				c0.1,0.1,0.2,0.3,0.2,0.6c0,0.3-0.1,0.6-0.3,1c0,0.1-0.1,0.2-0.2,0.4c-0.1,0.1-0.2,0.3-0.4,0.6c-0.2,0.3-0.4,0.7-0.7,1.1
				c-0.3,0.5-0.6,1.1-1,1.9c-0.2,0.4-0.4,0.8-0.7,1.3c-0.2,0.5-0.5,1-0.8,1.6c-0.1,0.3-0.3,0.6-0.4,0.9c-0.2,0.3-0.3,0.6-0.4,1
				c-0.2,0.4-0.3,0.7-0.5,1.1c-0.1,0.4-0.3,0.8-0.4,1.2c0,0.1-0.1,0.2-0.1,0.3c0,0.1,0,0.2,0,0.3c0,0.1,0,0.2,0,0.3
				c0,0.1,0,0.1,0,0.1c0,0,0,0,0,0c0,0,0.1,0,0.1,0c0,0,0.1,0,0.1,0c0,0,0,0,0.1,0c0,0,0.1,0,0.1,0.1c0,0,0.1,0,0.1,0.1
				c0.1,0,0.2,0.1,0.3,0.1c0.1,0,0.2,0,0.3,0.1c0.4,0,0.9,0,1.3-0.1c0.5-0.1,0.9-0.2,1.4-0.4c1-0.4,2-0.9,3-1.5
				c1-0.6,2.1-1.4,3.3-2.2c1.1-0.8,2-1.5,2.9-2.2c0.9-0.7,1.7-1.3,2.5-1.9c0.8-0.6,1.5-1.1,2.1-1.6c0.7-0.5,1.3-0.9,1.9-1.3
				c0.6-0.4,1.1-0.8,1.6-1.1c0.5-0.3,1-0.6,1.4-0.9l1.2-0.7l0.2-0.1l0.1,0l0,0h0h0c0,0,0,0,0,0c0,0,0.1,0,0.1,0.1c0,0,0.1,0,0.1,0
				c0,0,0,0-0.1,0c0.1,0.1,0.1,0.2,0.2,0.3c0,0.1,0.1,0.2,0.1,0.3c0,0.1,0.1,0.2,0.1,0.3c0.4,0.9,0.8,1.7,1.2,2.4
				c0.4,0.7,0.9,1.5,1.5,2.3c0.3,0.4,0.6,0.9,0.9,1.3c0.3,0.4,0.7,0.9,1.1,1.3c0.4,0.5,0.9,0.9,1.4,1.4c0.5,0.5,1.1,0.9,1.8,1.4
				c0.9,0.6,1.8,1,2.6,1.3c0.8,0.3,1.6,0.5,2.3,0.6c0.7,0.1,1.4,0.2,2,0.2c0.6,0,1.2,0,1.8-0.1c0.5-0.1,1.1-0.2,1.6-0.3
				c0.5-0.1,1-0.2,1.5-0.4c0.5-0.2,1-0.3,1.5-0.5c0.5-0.2,1-0.4,1.6-0.6c1.8-0.8,3.4-1.7,4.6-2.5c1.3-0.8,2.4-1.6,3.3-2.3
				c0.9-0.7,1.7-1.3,2.3-1.9c0.6-0.5,1.2-1,1.6-1.4c0.4-0.4,0.8-0.7,1.1-1c0.3-0.3,0.5-0.5,0.7-0.7c0.2-0.2,0.4-0.4,0.6-0.6
				c0.2-0.2,0.4-0.4,0.6-0.5c0.3-0.2,0.5-0.4,0.8-0.5c0.3-0.1,0.4,0,0.6,0.2C278.6,40.7,278.6,40.9,278.5,41.2L278.5,41.2z
				 M238.9,41C239,41.1,239,41.1,238.9,41C239,41.1,239,41.1,238.9,41L238.9,41z M322.8,40.9c-0.1,0.2-0.3,0.4-0.5,0.5
				c-0.1,0-0.2,0.1-0.2,0.1c-0.1,0-0.2,0.1-0.4,0.1c-0.2,0.1-0.5,0.2-0.8,0.3c-0.4,0.2-0.9,0.4-1.6,0.7c-0.7,0.3-1.6,0.7-2.7,1.2
				c-1.1,0.5-2.4,1.1-4.1,1.8c-1.6,0.7-3.6,1.6-5.8,2.5c-2.2,1-4.9,2-8,3.2c-3.1,1.1-5.9,2-8.5,2.6c-2.6,0.6-4.9,1-7.1,1.1
				c-1.1,0-2.1-0.1-3-0.2c-0.9-0.2-1.8-0.5-2.6-1c-0.8-0.5-1.4-1.2-1.8-2c-0.2-0.4-0.4-0.8-0.5-1.2c-0.1-0.4-0.2-0.8-0.2-1.2
				c0-0.8,0-1.5,0.1-2.2c0.1-0.6,0.2-1.2,0.3-1.7c0.1-0.5,0.3-1,0.4-1.4c0.1-0.4,0.2-0.8,0.3-1.1c0.2-0.6,0.4-1.1,0.5-1.4
				c0.1-0.3,0.2-0.5,0.3-0.6c0.1-0.2,0.3-0.4,0.5-0.5c0.2-0.1,0.4-0.1,0.5,0c0.1,0.1,0.2,0.3,0.3,0.5c0,0.2,0,0.5-0.1,0.7
				c0,0.1-0.1,0.2-0.2,0.4c-0.1,0.1-0.2,0.4-0.4,0.7c-0.2,0.3-0.4,0.9-0.7,1.5c-0.1,0.3-0.3,0.7-0.4,1.2c-0.1,0.5-0.3,1-0.4,1.6
				c-0.1,0.6-0.2,1.3-0.2,2c0,0.4,0.1,0.8,0.1,1.2c0.1,0.4,0.2,0.8,0.4,1.2c0.2,0.4,0.4,0.7,0.7,1.1c0.3,0.3,0.7,0.6,1.1,0.9
				c0.8,0.5,1.8,0.8,2.9,1c1.1,0.2,2.3,0.2,3.6,0.1c1.3-0.1,2.6-0.3,4.1-0.5c1.5-0.3,3-0.7,4.6-1.2c1.6-0.5,3.4-1,5.2-1.7
				c2.8-1,5.3-2,7.4-3s3.9-1.8,5.5-2.5c1.6-0.7,2.8-1.4,3.9-1.9c1-0.5,1.9-1,2.6-1.4c0.7-0.4,1.2-0.7,1.6-0.9c0.4-0.2,0.7-0.4,1-0.6
				c0.3-0.2,0.5-0.3,0.6-0.4c0.2-0.1,0.4-0.2,0.6-0.3c0.2-0.1,0.4-0.1,0.6-0.1c0.2,0.1,0.3,0.2,0.4,0.4
				C322.9,40.5,322.9,40.7,322.8,40.9L322.8,40.9z M297,23.5c-0.4,0.1-1,0.3-1.9,0.3c-0.9,0.1-2,0.2-3.4,0.3
				c-1.4,0.1-3.1,0.3-5.1,0.6c-1.3,0.2-2.3,0.3-3.1,0.4c-0.8,0.1-1.4,0.2-1.9,0.2c-0.5,0-0.8,0-0.9-0.1c-0.2-0.1-0.3-0.3-0.3-0.6
				c0-0.2,0-0.4,0-0.5c0-0.2,0.1-0.2,0.2-0.2c0,0,0.1,0,0.2,0c0.1,0,0.2,0,0.4,0.1c0.2,0,0.5,0.1,0.9,0.1c0.4,0,0.9,0,1.6,0
				c0.7,0,1.5,0,2.6-0.1c1,0,2.3-0.1,3.7-0.2c1.1-0.1,2.1-0.2,2.9-0.2c0.8-0.1,1.4-0.2,1.9-0.2c0.5-0.1,0.9-0.2,1.2-0.2
				c0.3-0.1,0.5-0.1,0.6-0.2c0.2,0,0.3-0.1,0.3-0.1c0.1,0,0.2-0.1,0.3-0.1c0.1,0,0.2,0,0.3-0.1c0.1-0.1,0.2,0,0.2,0.2
				C297.6,23.1,297.4,23.3,297,23.5L297,23.5z M362.2,41.1c-0.2,0.4-0.5,0.7-0.9,1.1c-0.1,0.1-0.2,0.2-0.3,0.2
				c-0.1,0.1-0.2,0.2-0.4,0.3c-0.2,0.1-0.5,0.3-0.8,0.6c-0.4,0.3-0.8,0.6-1.5,1.1c-0.7,0.5-1.5,1.1-2.5,1.8c-1,0.7-2.3,1.6-3.9,2.6
				c-0.8,0.5-1.7,1-2.6,1.6c-1,0.5-2,1.1-3.2,1.6c-1.2,0.5-2.4,1-3.8,1.5c-1.4,0.5-2.9,0.8-4.5,1c-0.9,0.1-1.8,0.1-2.8,0
				s-1.9-0.3-2.9-0.8c-0.2-0.1-0.5-0.2-0.7-0.4c-0.2-0.1-0.5-0.3-0.7-0.5c-0.1-0.1-0.2-0.2-0.3-0.3c-0.1-0.1-0.2-0.2-0.3-0.4
				c0,0,0-0.1-0.1-0.1c0,0,0-0.1-0.1-0.2c0-0.1,0-0.2,0-0.3c0-0.2,0-0.5,0.1-0.6c0.1-0.4,0.3-0.7,0.4-1c0.2-0.3,0.3-0.6,0.5-0.8
				c0.2-0.3,0.4-0.5,0.6-0.8c0.2-0.2,0.4-0.5,0.6-0.7c0.5-0.6,1-1.1,1.5-1.6c0.5-0.5,1-1,1.6-1.6c-1.2,0.7-2.4,1.4-3.3,2
				c-1,0.6-1.8,1.1-2.6,1.6c-0.8,0.5-1.6,1-2.3,1.5c-0.7,0.5-1.5,1-2.3,1.5c-0.9,0.6-1.9,1.3-3,2c-0.6,0.4-1.1,0.8-1.7,1.3
				c-0.1,0.1-0.3,0.3-0.4,0.4c-0.2,0.1-0.3,0.3-0.5,0.4c-0.1,0.1-0.2,0.1-0.2,0.2c-0.1,0.1-0.2,0.1-0.2,0.2
				c-0.1,0.1-0.2,0.2-0.2,0.2l0,0.1l0,0c0,0,0,0-0.1-0.1c-0.1-0.1-0.2-0.2-0.3-0.2c-0.1-0.1-0.2-0.2-0.3-0.2c-0.1,0,0,0,0.1,0.1v0
				l0-0.2c0.4-2,1-4.3,1.8-6.9c0.8-2.6,1.7-5.6,2.9-9.1c1.2-3.5,2.3-6.7,3.4-9.5c1-2.9,2-5.4,2.9-7.8c0.9-2.3,1.6-4.4,2.4-6.3
				c0.7-1.8,1.3-3.4,1.9-4.8c0.5-1.4,1-2.6,1.4-3.6c0.4-1,0.7-1.9,1-2.5c0.3-0.7,0.5-1.2,0.6-1.6c0.2-0.4,0.3-0.7,0.3-0.8
				c0.2-0.5,0.5-0.9,0.7-1.2c0.3-0.3,0.5-0.4,0.6-0.3c0.2,0.1,0.2,0.4,0.2,0.8c0,0.4-0.2,0.9-0.4,1.4c-0.1,0.2-0.1,0.4-0.3,0.6
				c-0.1,0.2-0.3,0.6-0.4,1c-0.2,0.4-0.5,1-0.8,1.8c-0.3,0.7-0.7,1.7-1.2,2.9c-0.5,1.2-1.1,2.7-1.8,4.4c-0.7,1.7-1.6,3.8-2.5,6.2
				c-1,2.4-2.1,5.3-3.3,8.5c-1.2,3.2-2.6,7-4.1,11.2c-0.7,2-1.3,3.8-1.9,5.5c-0.5,1.7-1,3.3-1.5,4.8c-0.2,0.7-0.4,1.5-0.6,2.2
				c-0.2,0.7-0.3,1.4-0.5,2l-0.2,1c0,0.1,0,0.1,0,0.2c0,0.1,0,0.1,0,0.2l0,0c0.4-0.4,0.8-0.8,1.2-1.1c0.8-0.7,1.6-1.3,2.3-1.8
				c0.7-0.5,1.4-1,2-1.5c0.6-0.4,1.2-0.9,1.8-1.3c0.6-0.4,1.1-0.8,1.6-1.1c1-0.7,2-1.4,3-2c1-0.7,2-1.3,3.2-2.1
				c0.6-0.4,1.2-0.7,1.8-1.2c0.6-0.4,1.3-0.8,2.1-1.3c0.4-0.2,0.8-0.5,1.2-0.7c0.4-0.2,0.8-0.5,1.3-0.7l0.1-0.1
				c0.1-0.1,0.3-0.2,0.4-0.3c0.1-0.1,0.2-0.2,0.4-0.3l0.4-0.3l0.2-0.2l0,0c0,0.1,0.1,0.2,0.1,0.3c0,0,0,0,0,0c0,0,0,0,0,0
				c0,0,0,0,0.1,0.1c0.1,0.1,0.1,0.3,0.2,0.4c0.1,0.1,0.1,0.2,0.1,0.3c0,0.1,0,0-0.1-0.1v0h0l0,0c0.1,0.1,0.1,0.2,0.1,0.3
				c0,0.1,0,0.1,0,0h0l-0.1,0.1l-0.1,0.1c-0.3,0.2-0.6,0.4-0.9,0.6c-0.3,0.2-0.6,0.4-0.9,0.6c-1.1,0.9-2,1.7-2.9,2.4
				c-0.9,0.7-1.7,1.5-2.4,2.2c-0.4,0.4-0.8,0.8-1.2,1.2c-0.4,0.4-0.7,0.8-1,1.2c-0.3,0.4-0.6,0.8-0.9,1.2c-0.3,0.4-0.5,0.8-0.7,1.2
				c-0.1,0.2-0.1,0.4-0.1,0.6c0,0.1,0,0.2,0.1,0.2c0,0.1,0.1,0.2,0.2,0.2c0.2,0.3,0.5,0.6,0.9,0.8c0.3,0.2,0.6,0.4,1,0.6
				c0.3,0.2,0.7,0.3,1.1,0.4c0.7,0.2,1.5,0.3,2.2,0.4c0.8,0,1.6,0,2.4-0.1c1.4-0.2,2.7-0.5,3.8-0.9c1.2-0.4,2.2-0.8,3.3-1.3
				c1-0.5,1.9-0.9,2.7-1.4c0.8-0.5,1.6-0.9,2.3-1.4c1.4-0.9,2.6-1.7,3.5-2.4c0.9-0.7,1.7-1.3,2.4-1.9c0.6-0.5,1.2-1,1.6-1.4
				c0.4-0.4,0.8-0.7,1.1-1c0.3-0.3,0.6-0.5,0.9-0.8c0.3-0.2,0.5-0.5,0.9-0.8c0.4-0.3,0.8-0.6,1.1-0.7c0.3-0.1,0.6-0.1,0.7,0.1
				C362.4,40.5,362.4,40.8,362.2,41.1L362.2,41.1z M340.9,39.3L340.9,39.3c-0.1-0.1-0.1-0.2-0.1-0.2C340.7,38.9,340.8,39,340.9,39.3
				L340.9,39.3z M444.3,40.8c-0.1,0.2-0.2,0.5-0.4,0.7c-0.2,0.2-0.4,0.5-0.6,0.7c-0.2,0.1-0.3,0.2-0.4,0.3c-0.1,0.1-0.3,0.2-0.5,0.3
				c-0.2,0.1-0.6,0.3-1,0.5c-0.4,0.2-1.1,0.5-1.9,0.9c-0.8,0.4-1.9,0.8-3.2,1.3c-1.3,0.5-3,1-5,1.5c-1,0.3-2.1,0.5-3.3,0.8
				c-1.2,0.3-2.5,0.6-3.8,1c-0.9,0.3-1.9,0.5-2.9,0.8c-1,0.3-2.1,0.6-3.2,1c0,0.2,0.1,0.3,0.1,0.4c0.1,0.5,0.1,0.9,0.2,1.4
				c0,0.5,0.1,1,0,1.5c0,0.5-0.1,1.1-0.2,1.6c-0.1,0.6-0.3,1.1-0.5,1.6c-0.5,1.1-1.1,2.1-2,3c-0.9,0.9-2,1.7-3.3,2.2
				c-0.8,0.3-1.7,0.6-2.5,0.7c-0.8,0.1-1.6,0.2-2.3,0.1c-0.8,0-1.5-0.1-2.1-0.3c-0.7-0.2-1.3-0.4-1.8-0.8c-0.3-0.2-0.5-0.5-0.8-0.7
				c-0.2-0.3-0.4-0.6-0.5-1c-0.1-0.4-0.1-0.8,0-1.1c0.1-0.4,0.2-0.7,0.4-0.9c0.3-0.6,0.7-1,1.1-1.4c0.4-0.4,0.8-0.7,1.2-1
				c0.8-0.6,1.6-1.1,2.4-1.6c0.8-0.4,1.6-0.8,2.4-1.2c0.8-0.4,1.6-0.8,2.5-1.1c0.8-0.4,1.7-0.7,2.7-1.1c0.4-0.1,0.7-0.3,1-0.4
				c0.3-0.1,0.7-0.2,1-0.3c-0.2-0.8-0.4-1.5-0.6-2.1c-0.2-0.7-0.5-1.3-0.7-1.9c-0.6-1.3-1.1-2.5-1.7-3.6c-0.6-1.1-1.1-2.3-1.8-3.4
				c-0.7-1.2-1.4-2.5-2.2-3.8c-0.8-1.4-1.8-3-2.9-5c-0.6-1-1.2-2-1.8-3.1c-0.6-1.1-1.3-2.4-2-3.8c-0.3-0.7-0.6-1.4-0.9-2.2
				c-0.3-0.8-0.6-1.6-0.8-2.6c-0.1-0.5-0.2-0.9-0.3-1.4c-0.1-0.5-0.1-1,0-1.6c0-0.5,0.2-1.1,0.4-1.6c0.2-0.5,0.5-1,0.8-1.4
				c0.4-0.4,0.8-0.7,1.2-1c0.4-0.3,0.8-0.5,1.2-0.6c0.4-0.2,0.9-0.3,1.3-0.4c0.4-0.1,0.8-0.2,1.2-0.3c0.8-0.2,1.6-0.3,2.4-0.3
				c0.8,0,1.6-0.1,2.3-0.1c1.5,0,3,0.1,4.3,0.2c1.4,0.1,2.6,0.3,3.9,0.6c0.6,0.2,1.2,0.3,1.8,0.5c0.6,0.2,1.1,0.4,1.6,0.7
				c0.5,0.3,1,0.6,1.5,0.9c0.5,0.4,0.9,0.8,1.2,1.2c0.4,0.5,0.7,1,0.9,1.5c0.2,0.6,0.4,1.1,0.4,1.7s0.1,1.1,0.1,1.6
				c0,0.5-0.1,1-0.2,1.5c-0.2,0.9-0.5,1.7-0.8,2.4c-0.3,0.7-0.6,1.3-0.9,1.9c-0.3,0.6-0.6,1.1-0.8,1.5c-0.3,0.4-0.5,0.8-0.7,1.2
				c-0.5,0.7-0.8,1.2-1.1,1.6c-0.3,0.4-0.5,0.6-0.6,0.8c-0.4,0.5-0.8,0.9-1.1,1.1c-0.4,0.2-0.6,0.2-0.8,0.1
				c-0.1-0.2-0.1-0.4,0.1-0.9c0.2-0.4,0.5-0.9,0.9-1.4c0.1-0.2,0.3-0.3,0.4-0.5c0.2-0.2,0.4-0.5,0.7-0.9c0.3-0.4,0.7-0.9,1.2-1.7
				c0.2-0.4,0.5-0.8,0.8-1.3c0.3-0.5,0.6-1,0.9-1.7c0.1-0.3,0.3-0.7,0.4-1c0.1-0.4,0.3-0.8,0.4-1.2c0.1-0.4,0.2-0.9,0.3-1.3
				c0.1-0.5,0.1-1,0-1.5c-0.1-0.5-0.2-1-0.4-1.5c-0.2-0.5-0.5-1-0.9-1.4c-0.4-0.4-0.8-0.8-1.3-1.2c-0.5-0.3-1.1-0.7-1.6-0.9
				c-1.2-0.5-2.5-0.9-4-1.2c-1.5-0.3-3-0.4-4.7-0.5c-0.9,0-1.7-0.1-2.7-0.1c-0.9,0-1.8,0-2.8,0.1c-0.5,0.1-1,0.1-1.5,0.2
				c-0.5,0.1-1,0.2-1.5,0.4c-0.5,0.2-1,0.4-1.4,0.6c-0.5,0.3-0.9,0.6-1.3,1.1c-0.4,0.4-0.6,0.9-0.8,1.4c-0.2,0.5-0.3,1.1-0.3,1.6
				c0,0.6,0,1.1,0.1,1.6c0.1,0.5,0.2,1.1,0.3,1.6c0.3,1,0.6,1.9,1,2.8c0.4,0.9,0.8,1.7,1.2,2.5c0.8,1.6,1.5,3,2.3,4.2
				c0.7,1.2,1.4,2.4,2.1,3.5c0.7,1.1,1.3,2.1,1.8,3c0.6,0.9,1.1,1.8,1.6,2.6c0.5,0.8,0.9,1.6,1.4,2.3c0.4,0.7,0.8,1.4,1.2,2.1
				c0.4,0.7,0.7,1.3,1.1,2c0.3,0.7,0.6,1.4,0.9,2c0.2,0.6,0.5,1.2,0.7,1.8c0.2,0.6,0.4,1.3,0.6,1.9c2.4-0.8,4.5-1.5,6.4-2
				c1.9-0.5,3.6-1,5.1-1.4c1.8-0.5,3.3-1,4.5-1.4c1.2-0.4,2.2-0.8,3.1-1.2c0.8-0.4,1.5-0.7,2.1-1c0.5-0.3,1-0.5,1.4-0.8
				c0.4-0.2,0.8-0.5,1.1-0.7c0.3-0.2,0.6-0.5,1-0.7c0.2-0.2,0.4-0.3,0.6-0.5c0.2-0.1,0.4-0.2,0.5-0.3s0.3-0.2,0.4-0.2
				c0.1,0,0.2,0,0.3,0s0.1,0.1,0.1,0.3C444.4,40.4,444.4,40.6,444.3,40.8L444.3,40.8z M417.3,52.2c-0.1-0.5-0.1-0.9-0.2-1.4
				c-0.8,0.3-1.6,0.6-2.4,0.9c-1,0.3-2,0.7-3,1.2c-1,0.4-2.1,1-3.1,1.5c-0.5,0.3-1,0.6-1.6,0.9c-0.5,0.3-1,0.7-1.6,1.1
				c-0.3,0.2-0.5,0.4-0.7,0.6c-0.2,0.2-0.5,0.5-0.7,0.7c-0.2,0.2-0.4,0.5-0.6,0.8c-0.2,0.3-0.3,0.6-0.4,0.9c-0.1,0.6,0,1.2,0.5,1.6
				c0.2,0.2,0.5,0.4,0.8,0.5c0.3,0.2,0.6,0.3,0.9,0.4c0.7,0.2,1.3,0.3,2,0.3c0.7,0,1.4,0,2.1-0.1c0.7-0.1,1.4-0.3,2.1-0.6
				c0.7-0.3,1.4-0.6,2.1-1.1c0.7-0.4,1.3-1,1.8-1.6c0.6-0.6,1-1.3,1.4-2.2c0.2-0.5,0.4-1,0.5-1.6c0.1-0.5,0.2-1,0.2-1.6
				C417.3,53.2,417.3,52.7,417.3,52.2L417.3,52.2z M484.7,41c-0.1,0.2-0.2,0.5-0.5,0.6c-0.1,0.1-0.1,0.1-0.2,0.1
				c0,0-0.1,0.1-0.2,0.1c-0.1,0.1-0.3,0.2-0.5,0.3c-0.2,0.1-0.5,0.3-0.8,0.6c-0.4,0.2-0.8,0.6-1.4,1c-0.6,0.4-1.2,0.9-2.1,1.5
				c-0.8,0.6-1.8,1.2-3,2c-1.1,0.8-2.5,1.6-4.1,2.5c-0.9,0.5-1.8,1-2.8,1.6c-1,0.6-2.1,1.1-3.3,1.5c-0.6,0.2-1.2,0.4-1.9,0.6
				s-1.4,0.2-2.2,0.2c-0.4,0-0.8-0.1-1.2-0.2c-0.4-0.1-0.8-0.3-1.2-0.5c-0.4-0.2-0.7-0.5-1.1-0.9c-0.3-0.4-0.6-0.8-0.8-1.3
				c-0.3-0.6-0.5-1.2-0.5-1.8c-0.1-0.6-0.1-1.1-0.2-1.6c0-0.5,0-1,0-1.4c0-0.2,0-0.3,0-0.5c-0.3,0.5-0.7,0.9-1.1,1.5
				c-0.5,0.6-1,1.3-1.7,2c-0.4,0.4-0.7,0.8-1.1,1.2c-0.4,0.4-0.9,0.8-1.4,1.3c-0.5,0.4-1.1,0.9-1.7,1.4c-0.6,0.5-1.3,0.9-2.1,1.3
				c-0.8,0.4-1.6,0.7-2.4,0.8c-0.8,0.2-1.6,0.2-2.3,0.1c-0.4,0-0.7-0.1-1.1-0.2c-0.4-0.1-0.7-0.3-1-0.5c-0.3-0.2-0.6-0.5-0.8-0.8
				c-0.2-0.3-0.4-0.7-0.5-1.1c-0.1-0.4-0.2-0.8-0.2-1.1c0-0.4,0-0.7,0-1c0-0.3,0.1-0.6,0.1-0.9c0-0.3,0.1-0.6,0.2-0.9
				c0.1-0.6,0.3-1.1,0.4-1.5c0.1-0.5,0.3-0.9,0.4-1.3c0.3-0.8,0.5-1.5,0.8-2c0.2-0.5,0.4-1,0.6-1.4c0.2-0.4,0.3-0.6,0.4-0.8
				c0.1-0.2,0.2-0.3,0.2-0.4c0.1-0.3,0.3-0.5,0.5-0.6c0.2-0.1,0.4-0.1,0.5,0c0.1,0.1,0.2,0.3,0.2,0.6c0,0.3-0.1,0.5-0.2,0.8
				c0,0.1-0.1,0.2-0.2,0.3c-0.1,0.1-0.2,0.3-0.3,0.5c-0.1,0.2-0.3,0.5-0.5,0.9c-0.2,0.4-0.4,0.8-0.7,1.4c-0.1,0.3-0.3,0.7-0.5,1.1
				c-0.2,0.4-0.3,0.8-0.5,1.3c-0.2,0.5-0.3,1-0.5,1.6c-0.2,0.6-0.2,1.2-0.3,1.9c0,0.3,0,0.7,0,1c0,0.4,0.2,0.7,0.3,1
				c0.2,0.3,0.4,0.6,0.7,0.8c0.3,0.2,0.6,0.4,1,0.5c0.8,0.2,1.6,0.3,2.5,0.2c0.9-0.1,1.8-0.3,2.8-0.8c0.9-0.4,1.7-0.8,2.4-1.4
				c0.7-0.5,1.3-1,1.9-1.6c0.6-0.5,1.1-1,1.5-1.5c0.4-0.5,0.8-1,1.2-1.4c0.7-0.9,1.3-1.7,1.8-2.4c0.3-0.5,0.6-1,0.9-1.4
				c0,0,0-0.1,0-0.1c0-0.1,0-0.2,0-0.3c0-0.1,0-0.2,0.1-0.3l0-0.1c0,0,0,0,0,0c0,0,0,0,0,0c0,0,0.1,0,0.2,0.1c0,0,0,0,0.1,0l0,0
				l0-0.1l0,0c0,0,0,0,0.1,0c0.1,0,0.2,0.1,0.2,0.1c0.1,0,0.1,0.1,0.2,0.1c0,0,0,0-0.1,0v0c0,0,0,0.1,0,0.1c0,0,0,0,0,0
				c0.1,0.1,0.2,0.1,0.2,0.1h0v0c0,0-0.1,0.1-0.1,0.1c0,0,0,0.1,0,0.1c-0.1,0.1-0.1,0.2-0.2,0.2c0,0,0,0,0,0.1
				c0,0.2-0.1,0.3-0.1,0.5c0,0.2,0,0.4,0,0.5c0,0.3,0,0.7,0,1.1c0,0.4,0,0.8,0.1,1.1c0,0.4,0.1,0.8,0.2,1.3c0.1,0.4,0.2,0.9,0.4,1.3
				c0.2,0.4,0.4,0.9,0.8,1.3c0.3,0.4,0.8,0.7,1.4,1c0.4,0.2,0.7,0.3,1.1,0.3c0.4,0,0.7,0.1,1,0.1c0.3,0,0.7,0,1-0.1
				c0.3,0,0.6-0.1,0.9-0.1c0.6-0.1,1.1-0.3,1.5-0.4c0.5-0.2,0.9-0.3,1.3-0.5c0.4-0.2,0.8-0.3,1.2-0.5c0.4-0.2,0.7-0.4,1.1-0.6
				c0.4-0.2,0.7-0.4,1.1-0.6c0.4-0.2,0.8-0.4,1.2-0.7c1.3-0.8,2.5-1.6,3.5-2.3c1-0.7,1.8-1.3,2.5-1.9c0.7-0.6,1.3-1,1.8-1.4
				c0.5-0.4,0.9-0.8,1.2-1.1c0.3-0.3,0.6-0.5,0.8-0.7c0.2-0.2,0.4-0.4,0.6-0.5c0.2-0.2,0.3-0.3,0.5-0.4c0.1-0.1,0.3-0.3,0.5-0.4
				c0.2-0.2,0.4-0.3,0.7-0.3c0.2,0,0.4,0.1,0.5,0.3C484.8,40.5,484.8,40.7,484.7,41L484.7,41z M457.4,43.1
				C457.4,43.1,457.4,43.1,457.4,43.1C457.4,43.1,457.4,43.1,457.4,43.1L457.4,43.1z M457.7,43.1L457.7,43.1
				C457.7,43.1,457.7,43.1,457.7,43.1L457.7,43.1z M458.5,43.7c0,0-0.1-0.1-0.2-0.1l0,0C458.6,43.7,458.6,43.8,458.5,43.7
				L458.5,43.7z M538.9,41.2c-0.3,0.4-0.7,0.9-1.2,1.3c-0.2,0.1-0.4,0.3-0.6,0.5c-0.2,0.2-0.6,0.4-1,0.8c-0.4,0.3-1,0.8-1.8,1.4
				c-0.7,0.6-1.7,1.3-3,2.1c-0.6,0.4-1.3,0.9-2.1,1.4c-0.8,0.5-1.6,1-2.6,1.6c-0.9,0.6-2,1.1-3.1,1.7c-1.1,0.6-2.4,1.1-3.8,1.7
				c-0.7,0.3-1.4,0.5-2.1,0.7c-0.7,0.2-1.5,0.4-2.4,0.6c-0.8,0.2-1.7,0.3-2.6,0.4c-0.9,0.1-1.8,0.1-2.8,0c-1-0.1-1.9-0.3-2.9-0.5
				c-1-0.3-2-0.7-3-1.4c-1-0.6-1.9-1.4-2.8-2.3c-0.9-0.9-1.7-2-2.4-3.2c-0.3-0.6-0.6-1.1-0.9-1.7s-0.5-1.2-0.7-1.7
				c-0.1-0.3-0.2-0.6-0.3-0.9c-0.1-0.3-0.2-0.6-0.3-0.9l-0.2-0.9c0-0.1,0-0.1,0-0.2c0-0.1,0-0.1,0-0.2l-0.1,0.1
				c-0.8,0.6-1.6,1.2-2.4,1.8c-0.8,0.6-1.5,1.1-2.2,1.7c-1.4,1.1-2.7,2.1-3.9,3.1c-1.2,1-2.3,1.9-3.3,2.7c-0.5,0.4-1,0.8-1.5,1.2
				c-0.5,0.4-0.9,0.8-1.3,1.2c-0.2,0.2-0.4,0.4-0.6,0.5c-0.2,0.2-0.4,0.3-0.6,0.5c-0.1,0.1-0.2,0.2-0.3,0.2c0,0.1-0.1,0.2-0.1,0.3
				c0,0.1-0.1,0.2-0.1,0.3v0c0,0,0,0-0.2-0.2l0,0L480,55c-0.1-0.1-0.2-0.2-0.2-0.2c0,0,0,0,0,0l0,0v-0.1l0-0.1
				c-0.1-0.1-0.2-0.2-0.3-0.3c-0.1-0.1,0,0,0.1,0.1l0,0l0.1,0l0.1-0.1l0.2-0.1c0.4-1,0.7-1.9,1-2.8c0.3-0.9,0.6-1.7,0.9-2.5
				c0.5-1.3,0.9-2.5,1.3-3.7c0.4-1.2,0.9-2.4,1.4-3.8c-0.3,0.2-0.6,0.3-0.9,0.4c-0.2,0-0.4,0-0.5-0.1c-0.1-0.2,0-0.5,0.3-0.9
				c0.3-0.4,0.7-0.8,1.1-1.3c0.1-0.2,0.3-0.3,0.4-0.4c0.1-0.1,0.3-0.2,0.5-0.4c0,0,0.1,0,0.1-0.1c0.3-0.9,0.7-1.8,1-2.8
				c0.4-1,0.8-2,1.2-3.2c0.4-1.1,0.9-2.3,1.4-3.6c0.5-1.3,1-2.7,1.6-4.2c0.8-2.1,1.5-4,2.2-5.8c0.7-1.7,1.3-3.4,1.9-4.8
				c0.6-1.5,1.1-2.8,1.6-4.1c0.5-1.3,0.9-2.5,1.4-3.6c0.2-0.6,0.4-1.1,0.6-1.6c0.2-0.5,0.4-1.1,0.6-1.6c0.1-0.3,0.2-0.5,0.3-0.8
				c0.1-0.2,0.2-0.5,0.3-0.7c0.1-0.1,0.1-0.3,0.2-0.4c0-0.1,0.1-0.3,0.2-0.4c0-0.1,0.1-0.1,0.1-0.2c0-0.1,0.1-0.1,0.1-0.2
				c0,0,0-0.1,0-0.1c0,0,0,0,0-0.1c0,0,0-0.1,0.1-0.1c0,0,0.1-0.1,0.1-0.1c0,0,0.1-0.1,0.2-0.1c0.1,0,0.2-0.1,0.3,0
				c0.1,0,0.2,0,0.3,0.1c0.1,0.1,0.1,0.2,0.1,0.2c0.1,0.2,0.1,0.3,0.1,0.5c0,0.2,0,0.3,0,0.5c0,0.3,0,0.6,0,0.9
				c0,0.3-0.1,0.6-0.1,0.9c-0.1,0.6-0.2,1.2-0.3,1.8c-0.1,0.6-0.2,1.2-0.4,1.9c-0.5,2.1-1,4-1.5,5.8c-0.5,1.8-1,3.4-1.5,4.9
				c-0.5,1.5-1,2.9-1.5,4.2c-0.5,1.3-1,2.5-1.4,3.6c-0.9,2.2-1.8,4-2.6,5.4c-0.8,1.4-1.4,2.7-2,3.6c-0.6,1-1.1,1.8-1.6,2.4
				c-0.4,0.6-0.8,1.1-1.2,1.6c-0.2,0.3-0.5,0.6-0.7,0.8c-0.2,0.3-0.4,0.5-0.7,0.8c-0.5,1.4-1,2.7-1.5,3.9c-0.5,1.2-0.9,2.3-1.3,3.3
				c-0.4,1-0.8,2-1.2,3c-0.4,1-0.8,2-1.2,3c0.2-0.1,0.3-0.3,0.5-0.4c0.2-0.1,0.3-0.3,0.5-0.4c0.7-0.6,1.4-1.2,2.1-1.8
				c0.8-0.6,1.6-1.3,2.5-2c0.9-0.7,1.9-1.5,2.9-2.3c1-0.8,2.2-1.7,3.4-2.7c0.3-0.2,0.6-0.5,0.9-0.7c0.3-0.2,0.6-0.5,1-0.8
				c0.2-0.1,0.3-0.3,0.5-0.4c0.2-0.1,0.3-0.3,0.5-0.4c0.1-0.1,0.2-0.1,0.3-0.2c0.1-0.1,0.2-0.1,0.3-0.2l0.1-0.1l0,0
				c-0.1-0.1-0.1-0.1-0.1-0.1c0,0,0.1,0.1,0.2,0.1c0.1,0.1,0.2,0.1,0.3,0.2c0,0,0,0,0.1,0l0,0c0,0,0,0.1,0,0.1c0,0,0,0,0,0.1
				l0.1,0.3c0.2,1,0.5,2,0.9,2.9c0.4,1,0.9,1.9,1.4,2.9c0.6,1,1.2,1.8,1.8,2.6c0.7,0.8,1.4,1.4,2.2,2c0.8,0.6,1.5,1,2.3,1.4
				c0.8,0.3,1.6,0.6,2.4,0.8c1.6,0.3,3.1,0.4,4.6,0.2c1.5-0.2,2.8-0.5,4.1-0.8c1.3-0.4,2.5-0.8,3.6-1.3c1.1-0.5,2.2-1,3.1-1.5
				c1-0.5,1.9-1,2.7-1.5c0.8-0.5,1.6-1,2.3-1.5c1.4-1,2.6-1.8,3.6-2.6c1-0.8,1.8-1.4,2.5-1.9c0.7-0.5,1.2-1,1.5-1.3
				c0.4-0.3,0.6-0.5,0.8-0.7c0.5-0.4,1-0.7,1.4-0.9c0.4-0.2,0.7-0.2,0.8,0S539.2,40.8,538.9,41.2L538.9,41.2z M488,36
				c0.6-0.8,1.4-2,2.3-3.4c0.9-1.4,1.9-3.3,3.1-5.6c0.6-1.2,1.1-2.5,1.7-3.9c0.6-1.4,1.2-3,1.9-4.7c0.6-1.7,1.2-3.6,1.9-5.6
				c0.6-2,1.2-4.2,1.7-6.6c0.1-0.7,0.3-1.3,0.4-2c0.1-0.7,0.2-1.4,0.2-2.1c0-0.2,0-0.4,0-0.5c0-0.2,0-0.3,0-0.5c0-0.1,0-0.3-0.1-0.4
				l0-0.1h0c0,0,0,0-0.1,0c0,0-0.1,0-0.1,0l0,0.1l-0.1,0.1c0,0.1-0.1,0.1-0.1,0.2c0,0.1-0.1,0.1-0.1,0.2c-0.1,0.2-0.2,0.3-0.2,0.5
				c-0.1,0.2-0.1,0.3-0.2,0.5c-0.6,1.4-1.1,2.9-1.7,4.4c-0.6,1.5-1.1,3.1-1.7,4.7c-1.2,3.2-2.4,6.7-3.7,10.3
				c-1.3,3.6-2.7,7.5-4.3,11.6c-0.2,0.6-0.4,1.2-0.6,1.7c-0.2,0.5-0.4,1.1-0.6,1.6L488,36L488,36z M497,41.2L497,41.2
				C497,41.2,497,41.2,497,41.2L497,41.2z M609.1,41.1c-0.2,0.3-0.5,0.6-0.8,0.9c-0.1,0.1-0.2,0.2-0.3,0.2c-0.1,0-0.2,0.1-0.4,0.2
				c-0.2,0.1-0.4,0.2-0.7,0.4c-0.3,0.2-0.8,0.5-1.4,0.9c-0.6,0.4-1.3,0.9-2.3,1.4c-0.9,0.6-2.1,1.3-3.5,2.2
				c-0.7,0.4-1.5,0.9-2.3,1.4c-0.8,0.5-1.7,1-2.7,1.5c-1,0.5-2.1,1.1-3.2,1.7c-1.2,0.6-2.4,1.1-3.8,1.6c-0.8,0.3-1.6,0.5-2.4,0.5
				c-0.4,0-0.9,0-1.3-0.1c-0.4-0.1-0.9-0.3-1.3-0.5c-0.9-0.4-1.7-1.1-2.4-2c-0.7-0.9-1.3-1.9-1.8-3c-0.5-1.1-0.9-2.3-1.3-3.6
				c0-0.2-0.1-0.3-0.1-0.5c0-0.2-0.1-0.3-0.1-0.5c-0.1,0.1-0.2,0.2-0.3,0.3c-0.1,0.1-0.2,0.2-0.3,0.3c-0.9,0.9-1.8,1.8-2.8,2.7
				c-1,0.9-2,1.8-3.1,2.7c-1.4,1.1-2.7,2-3.7,2.7c-1.1,0.7-2.1,1.2-3,1.6c-0.5,0.2-0.9,0.4-1.4,0.5c-0.4,0.1-0.9,0.2-1.3,0.3
				c-0.4,0.1-0.9,0.1-1.4,0.1c-0.5,0-1-0.1-1.4-0.4c-0.5-0.2-0.9-0.5-1.3-1c-0.4-0.5-0.8-1-1.1-1.6c-0.6-1.2-1-2.7-1.2-4.6
				c-0.1-0.9-0.2-1.8-0.3-2.8c-0.1-1-0.1-2.1,0-3.3l-0.4,0.3c-0.2,0.2-0.5,0.3-0.7,0.5c-0.2,0.2-0.5,0.4-0.7,0.6
				c-0.5,0.4-1,0.8-1.6,1.2c-0.5,0.4-1.1,0.8-1.7,1.3c-2.4,1.8-4.5,3.3-6.5,4.7c-2,1.4-3.8,2.6-5.6,3.6c-0.4,0.2-0.8,0.5-1.3,0.7
				c-0.4,0.2-0.8,0.4-1.3,0.5c-0.2,0.1-0.4,0.1-0.6,0.2c-0.2,0.1-0.5,0.1-0.7,0.1c-0.2,0-0.3,0-0.5-0.1c-0.1,0-0.2-0.1-0.2-0.2
				c-0.1-0.1-0.1-0.2-0.1-0.2c0-0.1-0.1-0.1-0.1-0.2c0-0.1,0-0.1,0-0.2c0-0.2,0-0.4,0-0.5c0-0.1,0-0.3,0.1-0.4
				c0.1-0.5,0.2-0.9,0.4-1.3c0.1-0.4,0.3-0.8,0.4-1.1c0.1-0.4,0.3-0.7,0.4-1c0.1-0.3,0.3-0.7,0.4-1c0.5-1.2,1-2.2,1.4-3.1
				c0.4-0.9,0.7-1.6,1-2.2c0.3-0.6,0.5-1,0.7-1.4c0.2-0.3,0.3-0.6,0.3-0.7c0.2-0.4,0.5-0.8,0.7-1c0.3-0.2,0.5-0.3,0.6-0.2
				c0.1,0.1,0.2,0.4,0.1,0.7c-0.1,0.4-0.2,0.8-0.4,1.2c-0.1,0.2-0.1,0.3-0.3,0.5c-0.1,0.2-0.3,0.5-0.5,0.8c-0.2,0.4-0.5,0.9-0.8,1.5
				c-0.3,0.6-0.7,1.4-1.2,2.4c-0.3,0.5-0.5,1.1-0.8,1.7c-0.3,0.6-0.6,1.3-0.9,2.1c-0.1,0.4-0.3,0.8-0.5,1.2
				c-0.2,0.4-0.3,0.9-0.4,1.3c0,0.1,0,0.2,0,0.3c0.1,0,0.3,0,0.5,0c0.2,0,0.4-0.1,0.6-0.2c0.2-0.1,0.4-0.1,0.7-0.2
				c0.9-0.4,1.9-0.9,2.9-1.5c1-0.6,2.1-1.3,3.3-2c1.2-0.7,2.4-1.6,3.7-2.5c1.3-0.9,2.7-1.9,4.1-2.9c0.7-0.5,1.3-1,1.9-1.4
				c0.6-0.5,1.2-0.9,1.8-1.3c0.3-0.2,0.6-0.4,0.8-0.6s0.5-0.4,0.8-0.6l0,0v-0.2c0,0,0.1,0,0,0c0,0,0,0,0,0c0,0,0.1,0.1,0.1,0.1h0
				l0.1-0.1l0,0h0c0,0,0,0,0,0c0,0,0,0,0.1,0.1v0.1v0.2c0,0,0.1,0,0.1,0.1l0,0l0,0l-0.1,0.1v0.2c0,0.2,0,0.3,0,0.5
				c0,0.2,0,0.3,0,0.5c0,1.4,0,2.7,0.2,3.9c0.1,1.2,0.3,2.2,0.6,3.2c0.3,1,0.6,1.8,1,2.5c0.4,0.7,0.9,1.3,1.4,1.7
				c0.5,0.4,1.1,0.6,1.6,0.6c0.6,0,1.1,0,1.6-0.1c0.5-0.1,1-0.3,1.4-0.5c0.4-0.2,0.9-0.4,1.4-0.6c0.5-0.2,0.9-0.5,1.4-0.8
				c0.4-0.3,0.9-0.6,1.4-0.9c1-0.7,2.1-1.5,3.3-2.4c1.2-0.9,2.6-2.1,4.2-3.6c1-0.9,1.9-1.7,2.7-2.5v0h0c0,0,0.1-0.1,0.1-0.1
				c0,0,0.1-0.1,0.1-0.1l0.1-0.1l0-0.1h0v0c0.2,0.1,0.3,0.2,0.4,0.2c0,0,0,0,0,0v0c0,0,0,0,0,0c0,0,0,0,0,0v0c0,0,0,0.1,0,0.1
				c0,0,0,0.1,0,0.1c0,0,0,0.1,0,0.1c0,0,0,0.1,0,0.1c0.1,0.1,0.2,0.1,0.2,0.1c0,0,0,0-0.2-0.1h0c0,0,0,0.1,0,0.2
				c0,0.2,0.1,0.3,0.1,0.4c0,0.1,0.1,0.3,0.1,0.4c0.1,0.3,0.2,0.6,0.2,0.9c0.1,0.3,0.1,0.6,0.2,0.8c0.6,2.1,1.4,3.8,2.4,5
				c1,1.3,2.1,2.1,3.3,2.4c0.6,0.2,1.3,0.2,1.9,0.1c0.7-0.1,1.4-0.3,2.1-0.5c1.2-0.4,2.2-0.9,3.2-1.4c1-0.5,1.9-1,2.8-1.5
				c0.9-0.5,1.7-1,2.4-1.4c0.7-0.4,1.4-0.9,2-1.2c1.2-0.8,2.3-1.5,3.1-2.1c0.8-0.6,1.6-1.1,2.2-1.5c0.6-0.4,1.1-0.8,1.5-1.1
				c0.4-0.3,0.7-0.6,1-0.8c0.3-0.2,0.6-0.4,0.8-0.6c0.2-0.2,0.5-0.4,0.8-0.6c0.4-0.3,0.7-0.4,1-0.5c0.3-0.1,0.5,0,0.6,0.2
				C609.4,40.6,609.3,40.8,609.1,41.1L609.1,41.1z M554.1,40.5C554.1,40.5,554.1,40.5,554.1,40.5C554.1,40.5,554.1,40.5,554.1,40.5
				C554.1,40.5,554.1,40.5,554.1,40.5L554.1,40.5z"/>
		</defs>
		<use xlink:href="#SVGID_1_"  style="overflow:visible;fill:#FFFFFF;"/>
		<clipPath id="SVGID_2_">
			<use xlink:href="#SVGID_1_"  style="overflow:visible;"/>
		</clipPath>
	</g>
	<g>
		<defs>
			<path id="SVGID_3_" d="M58.6,96.5c-0.9,0.8-2.2,1.1-4,1.1h-2.7v4.1c0,0.6-0.1,1-0.4,1.3c-0.3,0.3-0.6,0.4-1,0.4
				c-0.4,0-0.8-0.1-1.1-0.4c-0.3-0.3-0.4-0.7-0.4-1.3v-11c0-0.6,0.1-1.1,0.4-1.4c0.3-0.3,0.8-0.4,1.4-0.4h3.7c1.1,0,1.9,0.1,2.5,0.3
				c0.6,0.2,1.1,0.4,1.5,0.8c0.4,0.4,0.8,0.8,1,1.4c0.2,0.5,0.3,1.2,0.3,1.8C59.9,94.7,59.5,95.8,58.6,96.5L58.6,96.5z M56.4,91.7
				c-0.4-0.4-1.3-0.6-2.6-0.6h-2v4.4h2c0.7,0,1.3-0.1,1.7-0.2c0.5-0.1,0.8-0.4,1-0.7c0.2-0.3,0.4-0.8,0.4-1.3
				C57,92.7,56.8,92.1,56.4,91.7L56.4,91.7z M81.3,99.1c-0.3,0.9-0.7,1.7-1.3,2.4c-0.6,0.7-1.3,1.2-2.2,1.5c-0.9,0.4-1.9,0.5-3,0.5
				c-1.1,0-2.1-0.2-3-0.5c-0.9-0.4-1.6-0.9-2.2-1.5c-0.6-0.7-1-1.4-1.3-2.4c-0.3-0.9-0.5-1.9-0.5-3c0-1.1,0.2-2.1,0.5-3
				c0.3-0.9,0.8-1.7,1.4-2.3c0.6-0.6,1.3-1.1,2.2-1.5c0.9-0.3,1.8-0.5,2.9-0.5c1.5,0,2.8,0.3,3.8,0.9c1.1,0.6,1.9,1.5,2.4,2.6
				c0.5,1.1,0.8,2.4,0.8,3.9C81.7,97.2,81.6,98.2,81.3,99.1L81.3,99.1z M78.3,93.3c-0.3-0.8-0.8-1.3-1.5-1.7
				c-0.6-0.4-1.3-0.6-2.2-0.6c-0.6,0-1.1,0.1-1.6,0.3c-0.5,0.2-0.9,0.5-1.3,1c-0.4,0.4-0.6,0.9-0.8,1.6c-0.2,0.6-0.3,1.4-0.3,2.2
				c0,0.8,0.1,1.5,0.3,2.2c0.2,0.7,0.5,1.2,0.9,1.6c0.4,0.4,0.8,0.8,1.3,1c0.5,0.2,1,0.3,1.6,0.3c0.7,0,1.4-0.2,2-0.6
				c0.6-0.4,1.1-0.9,1.5-1.7c0.4-0.8,0.6-1.7,0.6-2.9C78.8,95,78.6,94.1,78.3,93.3L78.3,93.3z M98.2,96.8c0.5,0.3,1,0.7,1.5,1.2
				c0.5,0.5,0.9,1.1,1.3,1.7c0.4,0.6,0.7,1.1,0.9,1.6c0.2,0.5,0.3,0.8,0.3,1c0,0.2-0.1,0.4-0.2,0.6c-0.1,0.2-0.3,0.3-0.5,0.4
				c-0.2,0.1-0.4,0.2-0.7,0.2c-0.3,0-0.6-0.1-0.8-0.2c-0.2-0.2-0.4-0.3-0.6-0.6c-0.2-0.2-0.4-0.6-0.6-1l-1.2-1.9
				c-0.4-0.7-0.8-1.3-1.1-1.6c-0.3-0.4-0.7-0.6-1-0.8c-0.3-0.1-0.8-0.2-1.3-0.2h-1v4.6c0,0.6-0.1,1.1-0.4,1.3s-0.6,0.4-1,0.4
				c-0.5,0-0.8-0.2-1.1-0.4c-0.3-0.3-0.4-0.7-0.4-1.3v-11c0-0.6,0.1-1.1,0.4-1.4c0.3-0.3,0.7-0.4,1.4-0.4h4.7c0.7,0,1.2,0,1.7,0.1
				c0.5,0.1,0.9,0.2,1.3,0.3c0.4,0.2,0.8,0.5,1.2,0.8c0.3,0.4,0.6,0.8,0.8,1.2c0.2,0.5,0.3,1,0.3,1.5c0,1.1-0.3,1.9-0.9,2.6
				C100.3,96.1,99.4,96.5,98.2,96.8L98.2,96.8z M98.6,92c-0.2-0.3-0.5-0.5-0.8-0.7c-0.3-0.1-1-0.2-2-0.2h-2.7V95h2.6
				c0.7,0,1.3-0.1,1.8-0.2c0.5-0.1,0.8-0.3,1.1-0.6c0.3-0.3,0.4-0.7,0.4-1.2C98.9,92.7,98.8,92.3,98.6,92L98.6,92z M120,91
				c-0.2,0.2-0.6,0.3-1.1,0.3h-3.2v10.4c0,0.6-0.1,1-0.4,1.3c-0.3,0.3-0.6,0.4-1,0.4c-0.4,0-0.8-0.1-1-0.4c-0.3-0.3-0.4-0.7-0.4-1.3
				V91.3h-3.2c-0.5,0-0.9-0.1-1.1-0.3c-0.2-0.2-0.4-0.5-0.4-0.9c0-0.4,0.1-0.7,0.4-0.9c0.3-0.2,0.6-0.3,1.1-0.3h9.2
				c0.5,0,0.9,0.1,1.1,0.3c0.2,0.2,0.4,0.5,0.4,0.9S120.2,90.8,120,91L120,91z M136.1,96.8c0.5,0.3,1,0.7,1.5,1.2
				c0.5,0.5,0.9,1.1,1.3,1.7c0.4,0.6,0.7,1.1,0.9,1.6c0.2,0.5,0.3,0.8,0.3,1c0,0.2-0.1,0.4-0.2,0.6c-0.1,0.2-0.3,0.3-0.5,0.4
				c-0.2,0.1-0.4,0.2-0.7,0.2c-0.3,0-0.6-0.1-0.8-0.2c-0.2-0.2-0.4-0.3-0.6-0.6c-0.2-0.2-0.4-0.6-0.6-1l-1.2-1.9
				c-0.4-0.7-0.8-1.3-1.1-1.6c-0.3-0.4-0.7-0.6-1-0.8c-0.3-0.1-0.8-0.2-1.3-0.2h-1v4.6c0,0.6-0.1,1.1-0.4,1.3
				c-0.3,0.3-0.6,0.4-1,0.4c-0.5,0-0.8-0.2-1.1-0.4c-0.3-0.3-0.4-0.7-0.4-1.3v-11c0-0.6,0.1-1.1,0.4-1.4c0.3-0.3,0.7-0.4,1.4-0.4
				h4.7c0.7,0,1.2,0,1.7,0.1c0.5,0.1,0.9,0.2,1.2,0.3c0.4,0.2,0.8,0.5,1.2,0.8c0.3,0.4,0.6,0.8,0.8,1.2c0.2,0.5,0.3,1,0.3,1.5
				c0,1.1-0.3,1.9-0.9,2.6C138.2,96.1,137.3,96.5,136.1,96.8L136.1,96.8z M136.5,92c-0.2-0.3-0.5-0.5-0.8-0.7c-0.3-0.1-1-0.2-2-0.2
				H131V95h2.6c0.7,0,1.3-0.1,1.8-0.2c0.5-0.1,0.8-0.3,1.1-0.6c0.3-0.3,0.4-0.7,0.4-1.2C136.8,92.7,136.7,92.3,136.5,92L136.5,92z
				 M160.3,103.1c-0.3,0.3-0.6,0.4-1,0.4c-0.2,0-0.4,0-0.6-0.1c-0.2-0.1-0.3-0.2-0.4-0.3c-0.1-0.1-0.2-0.4-0.4-0.6
				c-0.1-0.3-0.2-0.5-0.3-0.8l-0.7-1.8h-5.8l-0.7,1.8c-0.3,0.7-0.5,1.2-0.7,1.5c-0.2,0.3-0.5,0.4-0.9,0.4c-0.4,0-0.7-0.1-1-0.4
				c-0.3-0.3-0.4-0.6-0.4-0.9c0-0.2,0-0.4,0.1-0.6c0.1-0.2,0.2-0.5,0.3-0.9l3.7-9.3c0.1-0.3,0.2-0.6,0.4-1c0.1-0.4,0.3-0.7,0.5-0.9
				c0.2-0.2,0.4-0.4,0.7-0.6c0.3-0.2,0.6-0.2,1-0.2c0.4,0,0.7,0.1,1,0.2c0.3,0.2,0.5,0.3,0.7,0.6c0.2,0.2,0.3,0.5,0.4,0.8
				c0.1,0.3,0.3,0.6,0.4,1.1l3.7,9.2c0.3,0.7,0.4,1.2,0.4,1.5C160.7,102.5,160.6,102.8,160.3,103.1L160.3,103.1z M154,91.7l-2.1,5.9
				h4.3L154,91.7L154,91.7z M171.5,103.1c-0.3,0.3-0.6,0.4-1.1,0.4c-0.4,0-0.8-0.1-1-0.4c-0.3-0.3-0.4-0.7-0.4-1.3V90.4
				c0-0.6,0.1-1,0.4-1.3c0.3-0.3,0.6-0.4,1-0.4c0.4,0,0.8,0.1,1.1,0.4c0.3,0.3,0.4,0.7,0.4,1.3v11.3
				C171.9,102.3,171.7,102.8,171.5,103.1L171.5,103.1z M191.5,91c-0.2,0.2-0.6,0.3-1.1,0.3h-3.2v10.4c0,0.6-0.1,1-0.4,1.3
				c-0.3,0.3-0.6,0.4-1,0.4c-0.4,0-0.8-0.1-1-0.4c-0.3-0.3-0.4-0.7-0.4-1.3V91.3h-3.2c-0.5,0-0.9-0.1-1.1-0.3
				c-0.2-0.2-0.4-0.5-0.4-0.9c0-0.4,0.1-0.7,0.4-0.9c0.3-0.2,0.6-0.3,1.1-0.3h9.2c0.5,0,0.9,0.1,1.1,0.3c0.2,0.2,0.4,0.5,0.4,0.9
				S191.8,90.8,191.5,91L191.5,91z M203,98.9c-0.2,0.2-0.6,0.3-1.1,0.3h-3.1c-0.5,0-0.8-0.1-1.1-0.3c-0.2-0.2-0.4-0.5-0.4-0.8
				c0-0.4,0.1-0.6,0.4-0.9c0.2-0.2,0.6-0.3,1.1-0.3h3.1c0.5,0,0.8,0.1,1.1,0.3c0.2,0.2,0.4,0.5,0.4,0.9
				C203.4,98.4,203.2,98.7,203,98.9L203,98.9z M214.9,90.7l-2.7,11.3c-0.1,0.4-0.2,0.7-0.2,0.9c-0.1,0.2-0.2,0.4-0.3,0.5
				c-0.1,0.1-0.3,0.2-0.6,0.2c-0.7,0-1-0.3-1-0.9c0-0.1,0.1-0.5,0.2-1.1l2.7-11.3c0.1-0.6,0.3-1,0.4-1.2c0.1-0.2,0.4-0.3,0.8-0.3
				c0.3,0,0.6,0.1,0.7,0.2c0.2,0.2,0.3,0.4,0.3,0.6C215.1,89.8,215,90.1,214.9,90.7L214.9,90.7z M234.6,103.1
				c-0.3,0.3-0.6,0.4-1.1,0.4c-0.4,0-0.8-0.1-1-0.4c-0.3-0.3-0.4-0.7-0.4-1.3v-4.8h-6.3v4.8c0,0.6-0.1,1-0.4,1.3
				c-0.3,0.3-0.6,0.4-1.1,0.4c-0.4,0-0.8-0.1-1-0.4c-0.3-0.3-0.4-0.7-0.4-1.3V90.4c0-0.6,0.1-1,0.4-1.3c0.3-0.3,0.6-0.4,1-0.4
				c0.4,0,0.8,0.1,1.1,0.4c0.3,0.3,0.4,0.7,0.4,1.3v4.1h6.3v-4.1c0-0.6,0.1-1,0.4-1.3c0.3-0.3,0.6-0.4,1-0.4c0.4,0,0.8,0.1,1.1,0.4
				c0.3,0.3,0.4,0.7,0.4,1.3v11.3C235,102.3,234.8,102.8,234.6,103.1L234.6,103.1z M257,99.1c-0.3,0.9-0.7,1.7-1.3,2.4
				c-0.6,0.7-1.3,1.2-2.2,1.5c-0.9,0.4-1.9,0.5-3,0.5c-1.1,0-2.1-0.2-3-0.5c-0.9-0.4-1.6-0.9-2.2-1.5c-0.6-0.7-1-1.4-1.3-2.4
				c-0.3-0.9-0.5-1.9-0.5-3c0-1.1,0.2-2.1,0.5-3c0.3-0.9,0.8-1.7,1.4-2.3c0.6-0.6,1.3-1.1,2.2-1.5c0.9-0.3,1.8-0.5,2.9-0.5
				c1.5,0,2.8,0.3,3.8,0.9c1.1,0.6,1.9,1.5,2.4,2.6c0.5,1.1,0.8,2.4,0.8,3.9C257.4,97.2,257.3,98.2,257,99.1L257,99.1z M254,93.3
				c-0.3-0.8-0.8-1.3-1.5-1.7c-0.6-0.4-1.3-0.6-2.2-0.6c-0.6,0-1.1,0.1-1.6,0.3c-0.5,0.2-0.9,0.5-1.3,1c-0.4,0.4-0.6,0.9-0.8,1.6
				c-0.2,0.6-0.3,1.4-0.3,2.2c0,0.8,0.1,1.5,0.3,2.2c0.2,0.7,0.5,1.2,0.9,1.6c0.4,0.4,0.8,0.8,1.3,1c0.5,0.2,1,0.3,1.6,0.3
				c0.7,0,1.4-0.2,2-0.6c0.6-0.4,1.1-0.9,1.5-1.7c0.4-0.8,0.6-1.7,0.6-2.9C254.5,95,254.3,94.1,254,93.3L254,93.3z M276.9,94.3
				c-0.4,0-0.6-0.1-0.8-0.3c-0.2-0.2-0.4-0.5-0.6-0.9c-0.4-0.7-0.8-1.2-1.3-1.6c-0.5-0.4-1.1-0.5-1.9-0.5c-1.2,0-2.1,0.5-2.8,1.4
				c-0.7,0.9-1.1,2.2-1.1,3.9c0,1.1,0.2,2,0.5,2.8c0.3,0.7,0.8,1.3,1.3,1.7c0.6,0.4,1.2,0.5,2,0.5c0.8,0,1.5-0.2,2.1-0.6
				c0.6-0.4,1-1,1.3-1.8c0.1-0.4,0.3-0.7,0.5-0.9c0.2-0.2,0.5-0.4,0.9-0.4c0.3,0,0.6,0.1,0.9,0.4c0.2,0.2,0.4,0.5,0.4,0.9
				c0,0.5-0.1,0.9-0.3,1.5c-0.2,0.5-0.6,1.1-1.1,1.6c-0.5,0.5-1.1,0.9-1.8,1.2c-0.7,0.3-1.6,0.5-2.6,0.5c-0.8,0-1.4-0.1-2.1-0.2
				c-0.6-0.1-1.2-0.4-1.7-0.7c-0.5-0.3-1-0.7-1.4-1.2c-0.4-0.4-0.7-1-1-1.5c-0.3-0.6-0.5-1.1-0.6-1.8c-0.1-0.6-0.2-1.3-0.2-2
				c0-1.2,0.2-2.2,0.5-3.1c0.3-0.9,0.8-1.7,1.4-2.3c0.6-0.6,1.4-1.1,2.2-1.5c0.8-0.3,1.7-0.5,2.7-0.5c1.2,0,2.2,0.2,3.1,0.7
				c0.9,0.5,1.6,1,2.1,1.7c0.5,0.7,0.7,1.3,0.7,1.9c0,0.3-0.1,0.6-0.4,0.9C277.5,94.2,277.2,94.3,276.9,94.3L276.9,94.3z
				 M298.4,103.1c-0.3,0.3-0.6,0.4-1.1,0.4c-0.4,0-0.8-0.1-1-0.4c-0.3-0.3-0.4-0.7-0.4-1.3v-4.8h-6.3v4.8c0,0.6-0.1,1-0.4,1.3
				c-0.3,0.3-0.6,0.4-1.1,0.4c-0.4,0-0.8-0.1-1-0.4c-0.3-0.3-0.4-0.7-0.4-1.3V90.4c0-0.6,0.1-1,0.4-1.3c0.3-0.3,0.6-0.4,1-0.4
				c0.4,0,0.8,0.1,1.1,0.4c0.3,0.3,0.4,0.7,0.4,1.3v4.1h6.3v-4.1c0-0.6,0.1-1,0.4-1.3c0.3-0.3,0.6-0.4,1-0.4c0.4,0,0.8,0.1,1.1,0.4
				c0.3,0.3,0.4,0.7,0.4,1.3v11.3C298.8,102.3,298.7,102.8,298.4,103.1L298.4,103.1z M318.7,101.4c0.2,0.2,0.3,0.4,0.3,0.8
				c0,0.3-0.1,0.6-0.3,0.8c-0.2,0.2-0.6,0.3-1,0.3h-9.3c-0.6,0-1.1-0.1-1.4-0.4c-0.3-0.3-0.5-0.7-0.5-1.1c0-0.2,0-0.3,0.1-0.4
				c0.1-0.1,0.1-0.3,0.2-0.4c0.1-0.1,0.2-0.3,0.4-0.5c0.2-0.2,0.3-0.3,0.4-0.5l7.4-8.8h-6.3c-0.4,0-0.8-0.1-1-0.3
				c-0.2-0.2-0.3-0.5-0.3-0.8c0-0.3,0.1-0.6,0.3-0.8c0.2-0.2,0.6-0.3,1-0.3h8.1c1.1,0,1.6,0.5,1.6,1.5c0,0.5-0.1,0.8-0.3,1.1
				c-0.2,0.3-0.5,0.7-1.1,1.4l-6.9,8.2h7.6C318.1,101.1,318.5,101.2,318.7,101.4L318.7,101.4z M336.3,91.2h-6.5v3.5h6
				c0.4,0,0.8,0.1,1,0.3c0.2,0.2,0.3,0.5,0.3,0.8c0,0.3-0.1,0.6-0.3,0.8c-0.2,0.2-0.5,0.3-1,0.3h-6v4.1h6.8c0.5,0,0.8,0.1,1,0.3
				c0.2,0.2,0.3,0.5,0.3,0.8c0,0.3-0.1,0.6-0.3,0.8c-0.2,0.2-0.6,0.3-1,0.3h-7.9c-0.6,0-1.1-0.1-1.4-0.4c-0.3-0.3-0.4-0.7-0.4-1.4
				V90.7c0-0.4,0.1-0.8,0.2-1c0.1-0.3,0.3-0.5,0.6-0.6c0.3-0.1,0.6-0.2,1-0.2h7.7c0.5,0,0.8,0.1,1,0.3c0.2,0.2,0.3,0.5,0.3,0.8
				c0,0.3-0.1,0.6-0.3,0.8C337.1,91.1,336.7,91.2,336.3,91.2L336.3,91.2z M348.8,103.1c-0.3,0.3-0.6,0.4-1.1,0.4
				c-0.4,0-0.8-0.1-1-0.4c-0.3-0.3-0.4-0.7-0.4-1.3V90.4c0-0.6,0.1-1,0.4-1.3c0.3-0.3,0.6-0.4,1-0.4c0.4,0,0.8,0.1,1.1,0.4
				c0.3,0.3,0.4,0.7,0.4,1.3v11.3C349.2,102.3,349.1,102.8,348.8,103.1L348.8,103.1z M368.9,91c-0.2,0.2-0.6,0.3-1.1,0.3h-3.2v10.4
				c0,0.6-0.1,1-0.4,1.3c-0.3,0.3-0.6,0.4-1,0.4c-0.4,0-0.8-0.1-1.1-0.4c-0.3-0.3-0.4-0.7-0.4-1.3V91.3h-3.2c-0.5,0-0.9-0.1-1.1-0.3
				c-0.2-0.2-0.4-0.5-0.4-0.9c0-0.4,0.1-0.7,0.4-0.9c0.3-0.2,0.6-0.3,1.1-0.3h9.2c0.5,0,0.9,0.1,1.1,0.3c0.2,0.2,0.4,0.5,0.4,0.9
				S369.1,90.8,368.9,91L368.9,91z M380.3,93.7c0.3,0.1,0.6,0.3,0.8,0.4c0.3,0.1,0.7,0.2,1.4,0.4c0.8,0.2,1.5,0.4,2.2,0.6
				c0.7,0.2,1.2,0.5,1.7,0.8c0.5,0.3,0.8,0.7,1.1,1.2c0.3,0.5,0.4,1.1,0.4,1.8c0,0.9-0.2,1.6-0.7,2.3c-0.4,0.7-1.1,1.2-2,1.6
				c-0.9,0.4-1.9,0.6-3.1,0.6c-1.4,0-2.6-0.3-3.5-0.8c-0.7-0.4-1.2-0.9-1.6-1.5c-0.4-0.6-0.6-1.3-0.6-1.9c0-0.4,0.1-0.7,0.4-0.9
				c0.2-0.3,0.6-0.4,0.9-0.4c0.3,0,0.6,0.1,0.8,0.3c0.2,0.2,0.4,0.5,0.5,0.9c0.2,0.5,0.4,0.8,0.6,1.1c0.2,0.3,0.5,0.6,0.9,0.8
				c0.4,0.2,0.9,0.3,1.5,0.3c0.9,0,1.6-0.2,2.1-0.6c0.5-0.4,0.8-0.9,0.8-1.5c0-0.5-0.1-0.9-0.4-1.2c-0.3-0.3-0.7-0.5-1.1-0.7
				c-0.5-0.2-1.1-0.3-1.8-0.5c-1-0.2-1.9-0.5-2.6-0.8c-0.7-0.3-1.2-0.8-1.7-1.3c-0.4-0.6-0.6-1.2-0.6-2.1c0-0.8,0.2-1.5,0.6-2.1
				s1.1-1.1,1.9-1.4c0.8-0.3,1.8-0.5,2.9-0.5c0.9,0,1.6,0.1,2.3,0.3c0.6,0.2,1.2,0.5,1.6,0.9c0.4,0.4,0.7,0.7,0.9,1.1
				c0.2,0.4,0.3,0.8,0.3,1.2c0,0.3-0.1,0.7-0.4,0.9c-0.2,0.3-0.5,0.4-0.9,0.4c-0.3,0-0.6-0.1-0.8-0.2c-0.2-0.2-0.4-0.4-0.6-0.8
				c-0.3-0.5-0.6-1-0.9-1.3c-0.4-0.3-1-0.5-1.8-0.5c-0.7,0-1.4,0.2-1.8,0.5c-0.5,0.3-0.7,0.7-0.7,1.2c0,0.3,0.1,0.5,0.2,0.7
				C379.8,93.4,380,93.6,380.3,93.7L380.3,93.7z M405.9,90.9c-0.2,0.2-0.6,0.3-1,0.3h-5.7v3.7h4.8c0.4,0,0.8,0.1,1,0.3
				c0.2,0.2,0.3,0.5,0.3,0.8c0,0.3-0.1,0.6-0.3,0.8c-0.2,0.2-0.6,0.3-1,0.3h-4.8v4.7c0,0.6-0.1,1-0.4,1.3c-0.3,0.3-0.6,0.4-1,0.4
				c-0.4,0-0.8-0.1-1-0.4c-0.3-0.3-0.4-0.7-0.4-1.3v-11c0-0.4,0.1-0.8,0.2-1c0.1-0.3,0.3-0.5,0.6-0.6c0.3-0.1,0.6-0.2,1-0.2h6.8
				c0.5,0,0.8,0.1,1,0.3c0.2,0.2,0.3,0.5,0.3,0.8C406.2,90.4,406.1,90.7,405.9,90.9L405.9,90.9z M427.3,99.1
				c-0.3,0.9-0.7,1.7-1.3,2.4c-0.6,0.7-1.3,1.2-2.2,1.5c-0.9,0.4-1.9,0.5-3,0.5c-1.1,0-2.1-0.2-3-0.5c-0.9-0.4-1.6-0.9-2.2-1.5
				c-0.6-0.7-1-1.4-1.3-2.4c-0.3-0.9-0.5-1.9-0.5-3c0-1.1,0.2-2.1,0.5-3c0.3-0.9,0.8-1.7,1.4-2.3c0.6-0.6,1.3-1.1,2.2-1.5
				c0.9-0.3,1.8-0.5,2.9-0.5c1.5,0,2.8,0.3,3.8,0.9c1.1,0.6,1.9,1.5,2.4,2.6c0.5,1.1,0.8,2.4,0.8,3.9
				C427.7,97.2,427.6,98.2,427.3,99.1L427.3,99.1z M424.3,93.3c-0.3-0.8-0.8-1.3-1.5-1.7c-0.6-0.4-1.3-0.6-2.2-0.6
				c-0.6,0-1.1,0.1-1.6,0.3c-0.5,0.2-0.9,0.5-1.3,1c-0.4,0.4-0.6,0.9-0.8,1.6c-0.2,0.6-0.3,1.4-0.3,2.2c0,0.8,0.1,1.5,0.3,2.2
				c0.2,0.7,0.5,1.2,0.9,1.6c0.4,0.4,0.8,0.8,1.3,1c0.5,0.2,1,0.3,1.6,0.3c0.7,0,1.4-0.2,2-0.6c0.6-0.4,1.1-0.9,1.5-1.7
				s0.6-1.7,0.6-2.9C424.8,95,424.6,94.1,424.3,93.3L424.3,93.3z M445.8,91c-0.2,0.2-0.6,0.3-1.1,0.3h-3.2v10.4c0,0.6-0.1,1-0.4,1.3
				c-0.3,0.3-0.6,0.4-1,0.4c-0.4,0-0.8-0.1-1-0.4c-0.3-0.3-0.4-0.7-0.4-1.3V91.3h-3.2c-0.5,0-0.9-0.1-1.1-0.3
				c-0.2-0.2-0.4-0.5-0.4-0.9c0-0.4,0.1-0.7,0.4-0.9c0.3-0.2,0.6-0.3,1.1-0.3h9.2c0.5,0,0.9,0.1,1.1,0.3c0.2,0.2,0.4,0.5,0.4,0.9
				S446.1,90.8,445.8,91L445.8,91z M466.6,99.1c-0.3,0.9-0.7,1.7-1.3,2.4c-0.6,0.7-1.3,1.2-2.2,1.5c-0.9,0.4-1.9,0.5-3,0.5
				c-1.1,0-2.1-0.2-3-0.5c-0.9-0.4-1.6-0.9-2.2-1.5c-0.6-0.7-1-1.4-1.3-2.4c-0.3-0.9-0.5-1.9-0.5-3c0-1.1,0.2-2.1,0.5-3
				c0.3-0.9,0.8-1.7,1.4-2.3c0.6-0.6,1.3-1.1,2.2-1.5c0.9-0.3,1.8-0.5,2.9-0.5c1.5,0,2.8,0.3,3.8,0.9c1.1,0.6,1.9,1.5,2.4,2.6
				c0.5,1.1,0.8,2.4,0.8,3.9C467,97.2,466.9,98.2,466.6,99.1L466.6,99.1z M463.6,93.3c-0.3-0.8-0.8-1.3-1.5-1.7
				c-0.6-0.4-1.3-0.6-2.2-0.6c-0.6,0-1.1,0.1-1.6,0.3c-0.5,0.2-0.9,0.5-1.3,1c-0.4,0.4-0.6,0.9-0.8,1.6c-0.2,0.6-0.3,1.4-0.3,2.2
				c0,0.8,0.1,1.5,0.3,2.2c0.2,0.7,0.5,1.2,0.9,1.6c0.4,0.4,0.8,0.8,1.3,1c0.5,0.2,1,0.3,1.6,0.3c0.7,0,1.4-0.2,2-0.6
				c0.6-0.4,1.1-0.9,1.5-1.7c0.4-0.8,0.6-1.7,0.6-2.9C464.1,95,463.9,94.1,463.6,93.3L463.6,93.3z M488.5,101
				c-0.1,0.2-0.2,0.4-0.4,0.6c-0.2,0.2-0.4,0.3-0.7,0.5c-0.9,0.5-1.7,0.8-2.5,1c-0.8,0.2-1.7,0.3-2.6,0.3c-1.1,0-2.1-0.2-3-0.5
				c-0.9-0.3-1.7-0.8-2.3-1.5c-0.6-0.6-1.1-1.4-1.5-2.3c-0.3-0.9-0.5-1.9-0.5-3.1c0-1.1,0.2-2.1,0.5-3.1c0.3-0.9,0.8-1.7,1.5-2.4
				c0.6-0.6,1.4-1.1,2.4-1.5c0.9-0.3,2-0.5,3.1-0.5c1,0,1.8,0.1,2.6,0.4c0.7,0.3,1.3,0.6,1.8,1c0.5,0.4,0.8,0.8,1,1.2
				c0.2,0.4,0.4,0.8,0.4,1.2c0,0.4-0.1,0.7-0.4,0.9c-0.3,0.3-0.6,0.4-1,0.4c-0.2,0-0.4,0-0.6-0.1c-0.2-0.1-0.4-0.2-0.5-0.4
				c-0.4-0.6-0.7-1-0.9-1.3c-0.2-0.3-0.6-0.5-1-0.7c-0.4-0.2-1-0.3-1.6-0.3c-0.7,0-1.3,0.1-1.8,0.3c-0.5,0.2-1,0.6-1.4,1
				c-0.4,0.4-0.7,1-0.9,1.6c-0.2,0.6-0.3,1.3-0.3,2.1c0,1.7,0.4,3,1.2,3.9c0.8,0.9,1.8,1.4,3.2,1.4c0.7,0,1.3-0.1,1.9-0.3
				c0.6-0.2,1.2-0.4,1.8-0.8v-2.3h-2.2c-0.5,0-0.9-0.1-1.2-0.2c-0.3-0.2-0.4-0.4-0.4-0.8c0-0.3,0.1-0.6,0.3-0.8
				c0.2-0.2,0.5-0.3,0.9-0.3h3.3c0.4,0,0.7,0,1,0.1c0.3,0.1,0.5,0.2,0.7,0.5c0.2,0.2,0.3,0.6,0.3,1.1v2.7
				C488.6,100.5,488.6,100.8,488.5,101L488.5,101z M505.4,96.8c0.5,0.3,1,0.7,1.5,1.2c0.5,0.5,0.9,1.1,1.3,1.7s0.7,1.1,0.9,1.6
				c0.2,0.5,0.3,0.8,0.3,1c0,0.2-0.1,0.4-0.2,0.6c-0.1,0.2-0.3,0.3-0.5,0.4c-0.2,0.1-0.4,0.2-0.7,0.2c-0.3,0-0.6-0.1-0.8-0.2
				c-0.2-0.2-0.4-0.3-0.6-0.6c-0.2-0.2-0.4-0.6-0.6-1l-1.2-1.9c-0.4-0.7-0.8-1.3-1.1-1.6c-0.3-0.4-0.7-0.6-1-0.8
				c-0.3-0.1-0.8-0.2-1.3-0.2h-1v4.6c0,0.6-0.1,1.1-0.4,1.3c-0.3,0.3-0.6,0.4-1,0.4c-0.5,0-0.8-0.2-1.1-0.4
				c-0.3-0.3-0.4-0.7-0.4-1.3v-11c0-0.6,0.1-1.1,0.4-1.4c0.3-0.3,0.7-0.4,1.4-0.4h4.7c0.7,0,1.2,0,1.7,0.1c0.5,0.1,0.9,0.2,1.3,0.3
				c0.4,0.2,0.8,0.5,1.2,0.8c0.3,0.4,0.6,0.8,0.8,1.2c0.2,0.5,0.3,1,0.3,1.5c0,1.1-0.3,1.9-0.9,2.6
				C507.5,96.1,506.6,96.5,505.4,96.8L505.4,96.8z M505.8,92c-0.2-0.3-0.5-0.5-0.8-0.7c-0.3-0.1-1-0.2-2-0.2h-2.7V95h2.6
				c0.7,0,1.3-0.1,1.8-0.2c0.5-0.1,0.8-0.3,1.1-0.6c0.3-0.3,0.4-0.7,0.4-1.2C506.1,92.7,506,92.3,505.8,92L505.8,92z M529.6,103.1
				c-0.3,0.3-0.6,0.4-1,0.4c-0.2,0-0.4,0-0.6-0.1c-0.2-0.1-0.3-0.2-0.4-0.3c-0.1-0.1-0.2-0.4-0.4-0.6c-0.1-0.3-0.2-0.5-0.3-0.8
				l-0.7-1.8h-5.8l-0.7,1.8c-0.3,0.7-0.5,1.2-0.7,1.5c-0.2,0.3-0.5,0.4-0.9,0.4c-0.4,0-0.7-0.1-1-0.4c-0.3-0.3-0.4-0.6-0.4-0.9
				c0-0.2,0-0.4,0.1-0.6c0.1-0.2,0.2-0.5,0.3-0.9l3.7-9.3c0.1-0.3,0.2-0.6,0.4-1c0.1-0.4,0.3-0.7,0.5-0.9c0.2-0.2,0.4-0.4,0.7-0.6
				c0.3-0.2,0.6-0.2,1-0.2c0.4,0,0.7,0.1,1,0.2c0.3,0.2,0.5,0.3,0.7,0.6c0.2,0.2,0.3,0.5,0.4,0.8c0.1,0.3,0.3,0.6,0.4,1.1l3.7,9.2
				c0.3,0.7,0.4,1.2,0.4,1.5C530,102.5,529.9,102.8,529.6,103.1L529.6,103.1z M523.3,91.7l-2.1,5.9h4.3L523.3,91.7L523.3,91.7z
				 M547.7,90.9c-0.2,0.2-0.6,0.3-1,0.3H541v3.7h4.8c0.4,0,0.8,0.1,1,0.3c0.2,0.2,0.3,0.5,0.3,0.8c0,0.3-0.1,0.6-0.3,0.8
				c-0.2,0.2-0.6,0.3-1,0.3H541v4.7c0,0.6-0.1,1-0.4,1.3c-0.3,0.3-0.6,0.4-1,0.4c-0.4,0-0.8-0.1-1-0.4c-0.3-0.3-0.4-0.7-0.4-1.3v-11
				c0-0.4,0.1-0.8,0.2-1c0.1-0.3,0.3-0.5,0.6-0.6c0.3-0.1,0.6-0.2,1-0.2h6.8c0.5,0,0.8,0.1,1,0.3c0.2,0.2,0.3,0.5,0.3,0.8
				C548,90.4,547.9,90.7,547.7,90.9L547.7,90.9z M558.8,103.1c-0.3,0.3-0.6,0.4-1.1,0.4c-0.4,0-0.8-0.1-1-0.4
				c-0.3-0.3-0.4-0.7-0.4-1.3V90.4c0-0.6,0.1-1,0.4-1.3c0.3-0.3,0.6-0.4,1-0.4c0.4,0,0.8,0.1,1.1,0.4c0.3,0.3,0.4,0.7,0.4,1.3v11.3
				C559.2,102.3,559.1,102.8,558.8,103.1L558.8,103.1z M577.9,91.2h-6.5v3.5h6c0.4,0,0.8,0.1,1,0.3c0.2,0.2,0.3,0.5,0.3,0.8
				c0,0.3-0.1,0.6-0.3,0.8c-0.2,0.2-0.5,0.3-1,0.3h-6v4.1h6.8c0.5,0,0.8,0.1,1,0.3c0.2,0.2,0.3,0.5,0.3,0.8c0,0.3-0.1,0.6-0.3,0.8
				c-0.2,0.2-0.6,0.3-1,0.3h-7.9c-0.6,0-1.1-0.1-1.4-0.4c-0.3-0.3-0.4-0.7-0.4-1.4V90.7c0-0.4,0.1-0.8,0.2-1
				c0.1-0.3,0.3-0.5,0.6-0.6c0.3-0.1,0.6-0.2,1-0.2h7.7c0.5,0,0.8,0.1,1,0.3c0.2,0.2,0.3,0.5,0.3,0.8c0,0.3-0.1,0.6-0.3,0.8
				C578.7,91.1,578.4,91.2,577.9,91.2L577.9,91.2z"/>
		</defs>
		<use xlink:href="#SVGID_3_"  style="overflow:visible;fill:#FFFFFF;"/>
		<clipPath id="SVGID_4_">
			<use xlink:href="#SVGID_3_"  style="overflow:visible;"/>
		</clipPath>
	</g>
</g>
<g>
	<rect y="71.4" class="st0" width="625" height="1"/>
</g>
</svg>
