<?xml version="1.0" encoding="utf-8"?>
<!-- Generator: Adobe Illustrator 20.0.0, SVG Export Plug-In . SVG Version: 6.00 Build 0)  -->
<svg version="1.1" id="Ebene_1" xmlns="http://www.w3.org/2000/svg" xmlns:xlink="http://www.w3.org/1999/xlink" x="0px" y="0px"
	 viewBox="0 0 154.5 54.7" style="enable-background:new 0 0 154.5 54.7;" xml:space="preserve">
<style type="text/css">
	.st0{fill:#FFFFFF;}
</style>
<path class="st0" d="M154.5,0H0v54.7h154.5V0z M127.4,11.2c8.1,0,13.2,4,13.2,11.1c0,7.5-5.6,11.5-13.6,11.5h-4.6v9.7h-9.6V11.2
	H127.4z M94.6,11.2c8.1,0,13.2,4,13.2,11.1c0,7.5-5.6,11.5-13.6,11.5h-4.6v9.7h-9.6V11.2H94.6z M20.7,43.5V20.7h-9v-9.5h27.7v9.5h-9
	v22.8H20.7z M42,27.4c0-9.8,6.5-16.9,16.7-16.9c10.2,0,16.7,7.1,16.7,16.9c0,9.8-6.5,16.9-16.7,16.9C48.5,44.3,42,37.2,42,27.4z"/>
</svg>
