<?xml version="1.0" encoding="utf-8"?>
<!-- Generator: Adobe Illustrator 20.0.0, SVG Export Plug-In . SVG Version: 6.00 Build 0)  -->
<svg version="1.1" id="Ebene_2" xmlns="http://www.w3.org/2000/svg" xmlns:xlink="http://www.w3.org/1999/xlink" x="0px" y="0px"
	 viewBox="0 0 250 140" style="enable-background:new 0 0 250 140;" xml:space="preserve">
<style type="text/css">
	.st0{fill:#CDCCCC;}
	.st1{fill:#FFFFFF;}
</style>
<polygon class="st0" points="233,114 236.8,97 17.3,97 25,140 "/>
<path class="st1" d="M0,0l17.3,97h219.5L250,39L0,0z M56.7,87.9H36.4c-10.2,0.7-8.9-7.9-8.9-7.9s0-32.7,0-39.6s6-5.9,6-5.9h26.2
	c0,0,6-0.9,6,5.9c0,1.9,0,5.8,0,10.5H52.4v-2.2c0,0,0.2-1.8-2-1.8c-2.2,0-7.3,0-7.3,0s-2.4-0.6-2.4,2.1c0,4.1,0,24.3,0,24.3
	s-0.2,2.3,2.4,2.3c3.9,0,7.3,0,7.3,0s2,0.2,2.1-3.1c0-0.7-0.1-1.6-0.1-2.7c0,0,0.5-2.9-1.5-2.9c-0.9,0-2.6,0-2.6,0v-9.7l17.3,0.1
	c0,10.9,0,22.6,0,22.6S66.9,88.6,56.7,87.9z M107.1,88.1h-8.9H93h-8.9c0,0-7.8,1.1-7.8-7.7c0-9.2,0.1-45.9,0.1-45.9h13.4l0.1,38.8
	c0,0,0.1,2.3,3,2.2h5.6c3.7,0,3-2.2,3-2.2l0.1-38.8h13.4c0,0,0,36.7,0.1,45.9C115.1,88.9,107.1,88.1,107.1,88.1z M168,88.1h-14.5
	L142.6,67l-3.2,3.4l0.1,17.7h-13.5L126,34.5h13.5v14l11.8-14h17l-16.1,20.4L168,88.1z"/>
</svg>
