<?xml version="1.0" encoding="utf-8"?>
<!-- Generator: Adobe Illustrator 20.0.0, SVG Export Plug-In . SVG Version: 6.00 Build 0)  -->
<svg version="1.1" id="Ebene_1" xmlns="http://www.w3.org/2000/svg" xmlns:xlink="http://www.w3.org/1999/xlink" x="0px" y="0px"
	 viewBox="0 0 1984.3 510.2" style="enable-background:new 0 0 1984.3 510.2;" xml:space="preserve">
<style type="text/css">
	.st0{fill:#FFFFFF;}
</style>
<g>
	<polygon class="st0" points="153.9,100.3 206.7,100.3 206.7,151.1 240.3,151.1 240.3,100.3 293.1,100.3 293.1,251.1 240.3,251.1 
		240.3,198.7 206.7,198.7 206.7,251.1 153.9,251.1 	"/>
	<path class="st0" d="M395.7,97.9c-45.8,0-83.4,30.8-83.4,78.2c0,48.4,37.4,77.4,83.4,77.4c46,0,83.4-29,83.4-77.4
		C479.1,128.7,441.5,97.9,395.7,97.9z M395.7,147.5c17.4,0,28.2,13.4,28.2,29.4c0,17.2-11.6,29-28.2,29s-28.2-11.8-28.2-29
		C367.5,160.9,378.3,147.5,395.7,147.5"/>
	<polygon class="st0" points="498.5,100.3 599.5,100.3 599.5,143.5 553.7,143.5 553.7,159.1 593.9,159.1 593.9,198.3 553.7,198.3 
		553.7,251.1 498.5,251.1 	"/>
	<path class="st0" d="M637.1,100.3h56.4l20.8,79.2h1.4c1-6.6,2-13.6,3.8-20l17-59.2h55.8l24.8,150.8h-53l-7.4-82.6h-1
		c-1,5-2,10.2-3.6,15l-21.8,67.6h-32l-19.6-63.8c-1.6-6.4-3-12.4-3.4-18.8h-1.8c-0.4,6-0.8,12.2-1.4,18.2l-6.4,64.4h-53L637.1,100.3
		z"/>
	<path class="st0" d="M884.3,232.3h41.4l5,18.8h58l-53.8-150.8h-60.6l-52.4,150.8h58L884.3,232.3z M894.1,196.5l10-46h2
		c1,6.4,2,13,3.6,19.4l6.4,26.6H894.1"/>
	<path class="st0" d="M999.3,100.3h52.6l49.2,83.6h1.6c-2.2-12.6-4.6-25.6-4.6-38.4v-45.2h52.4v150.8h-52.4l-48.2-79.2h-1.6
		c1.8,10.4,3.4,20.2,3.4,30.2v49h-52.4V100.3z"/>
	<path class="st0" d="M1173.7,100.3h52.6l49.2,83.6h1.6c-2.2-12.6-4.6-25.6-4.6-38.4v-45.2h52.4v150.8h-52.4l-48.2-79.2h-1.6
		c1.8,10.4,3.4,20.2,3.4,30.2v49h-52.4V100.3z"/>
	<path class="st0" d="M564.4,426h69.4c44.2,0,75.8-28.4,75.8-73.2c0-55.4-38.8-77.6-89.4-77.6h-55.8V426z M619.2,322.4h3.4
		c20,0,32.2,9,32.2,30.2c0,19.8-14,28.2-32.2,28.2h-3.4V322.4"/>
	<path class="st0" d="M729.4,426H783v-48.4h1l24,48.4h63.2l-32.8-49c-3-4.4-6.4-6.8-9.2-9v-1.2c20.4-6.8,29.2-16.4,29.2-39.2
		c0-38-28.8-52.4-62.8-52.4h-66.2V426z M783,316.4h4.2c9.4,0,17.6,1.4,17.6,13c0,11.2-9,12.6-18,12.6H783V316.4"/>
	<path class="st0" d="M1019.6,275.2v89.2c0,44-27.6,64-69.8,64s-69.8-20-69.8-64v-89.2h54.8v84c0,11.8,0.4,22.2,15,22.2
		s15-10.4,15-22.2v-84H1019.6z"/>
	<path class="st0" d="M1155.6,336.4c-8.8-8.2-19.8-15.2-32.2-15.2c-16.4,0-29.8,13-29.8,29.4c0,16.6,14.2,29.4,30.6,29.4
		c12.6,0,22.6-5.4,31.4-14l-1.6,56.4c-8.8,4.2-29.2,6-39,6c-43,0-76.6-33.4-76.6-76.4c0-44,34.6-79.2,78.8-79.2
		c12.4,0,25.2,2.2,36.8,6.2L1155.6,336.4z"/>
	<path class="st0" d="M1175.4,275.2h53.4l-1.2,65.4h1.2c1.2-6.2,4.6-11.6,7.6-17l26.4-48.4h59.8l-47.2,73.4l52.2,77.4H1264l-26-45.6
		c-3.2-5.8-8-11.4-9.2-17.6h-1.2l1.2,63.2h-53.4V275.2z"/>
</g>
<path class="st0" d="M1775.4,94.6c-42.6-42.6-99.3-66.1-159.5-66.1c-60.9,0-117.5,22.7-159.5,63.9c-42.6,41.9-66.1,99.3-66.1,161.6
	c0,60.3,23.5,116.9,66.1,159.5c42.6,42.6,99.3,66.1,159.5,66.1c60.3,0,116.9-23.5,159.5-66.1c42.6-42.6,66.1-99.3,66.1-159.5
	C1841.4,193.9,1818,137.2,1775.4,94.6z M1543.9,389.4c0,0-14.3,0.2-23-12.5c0,0-4.7-5.3-3-14.9c0,0-0.5-3.5,4.5-2.3
	c0,0,2.8,0.7,7.6,3c0,0,3,22.1,23.4,10.6c0,0,10,1.9,12.7,1.1C1566.1,374.4,1561.7,389.9,1543.9,389.4z M1700.3,383.1
	c0,0-13.4,11.8-28.4,3.7c0,0-6.6-2.6-9.6-11.5c0,0,5.4,0.3,12.2-2.1c0,0,8.1,6.1,16.1,0.8c0,0,7.3-5.1,6.2-13.5c0,0,4.9-3.5,8.1-4.6
	c0,0,4.5-2.5,5.5,2.3C1710.4,358.2,1714.6,371.9,1700.3,383.1z M1765.3,173c3.6-20.6-8.8-37.5-8.8-37.5c-18.6-27-38.7-2.6-38.7-2.6
	c-19.1,14.3-41.2,56.4-41.2,56.4c-76.3-26.6-136.2,3.7-136.2,3.7c-31.7-44.1-42.1-47.9-42.1-47.9c-43.4-35.4-42.9,24.9-42.9,24.9
	c-1,19.6,11.4,69.1,11.4,69.1c-10.3,38.4-7.8,52-7.8,52c-4.6,7.4,7.5,51.6,7.5,51.6l-44.2,0.2c-12.4-27-19.3-57-19.3-88.6
	c0-58.9,22.1-113.1,62.3-152.5c39.6-38.9,93-60.3,150.5-60.3c80.5,0,150.8,45,186.9,111.1C1782.8,161.7,1765.3,173,1765.3,173z"/>
</svg>
