<?xml version="1.0" encoding="utf-8"?>
<!-- Generator: Adobe Illustrator 20.0.0, SVG Export Plug-In . SVG Version: 6.00 Build 0)  -->
<svg version="1.1" id="Ebene_1" xmlns="http://www.w3.org/2000/svg" xmlns:xlink="http://www.w3.org/1999/xlink" x="0px" y="0px"
	 viewBox="0 0 545.9 208.2" style="enable-background:new 0 0 545.9 208.2;" xml:space="preserve">
<style type="text/css">
	.st0{fill-rule:evenodd;clip-rule:evenodd;fill:#FFFFFF;}
</style>
<polygon class="st0" points="407.6,142.9 407.6,4.6 451.7,4.6 484.2,50.9 484.2,4.6 545.9,4.6 545.9,142.9 499.4,142.9 469,101 
	469,142.9 "/>
<path class="st0" d="M313.5,31.7v25.9c5.8,0,10.3-0.9,13.3-2.6c3.1-1.7,4.9-5.1,5-10c0-4.9-1.4-8.3-4.3-10.3
	C324.6,32.7,319.9,31.7,313.5,31.7 M251.6,4.7h87.4c13.6,0,26,2.7,36.9,8.1c11,5.3,16.9,16.2,17.4,32.6c0,13.7-5.3,24.2-16,31.5
	c4.9,5.4,9.3,11.7,13,18.6c3.7,6.9,6.7,14.4,9.1,22.3c2.3,7.9,4,16.3,5,25.2h-63.9c-1.8-33.9-10.9-50.9-27.1-50.9V143h-61.9v-7.9
	c7.8-6.1,14.2-13.5,19.3-22.4c7-11.9,10.5-24.8,10.5-38.8c0-13.9-3.5-26.8-10.5-38.7c-5.1-8.8-11.6-16.2-19.3-22.3V4.7z"/>
<path class="st0" d="M62.8,143.8H1.3V5.5h61.5v51h31.3v-51h61.6v7.7c-2.3,1.9-4.6,3.8-6.7,6c-7.1,7.1-12.7,15.4-16.8,24.9
	c-4,9.4-5.9,19.5-5.9,29.8c0,14.1,3.5,27.1,10.4,38.9c5.1,8.6,11.4,15.9,19.1,22v9H94.1V93H62.8V143.8z"/>
<path class="st0" d="M203.9,89.3c4,0,7.4-1.4,10.1-4.2c2.7-2.8,4.1-6.3,4.1-10.3s-1.4-7.5-4.1-10.3c-2.7-2.8-6.1-4.3-10.1-4.3
	c-4,0-7.4,1.5-10.2,4.3c-2.8,2.8-4.3,6.3-4.3,10.3s1.5,7.4,4.3,10.2C196.5,87.8,200,89.3,203.9,89.3 M203.9,147.9
	c-13.3,0-25.8-3.1-37.2-9.8c-11.3-6.7-20.3-15.7-27-27c-6.6-11.2-9.9-23.7-9.9-37.1c0-9.9,1.9-19.5,5.7-28.5c3.9-9.1,9.2-17,16-23.8
	c6.9-6.9,14.9-12.2,23.8-16c9-3.8,18.7-5.7,28.7-5.7c13.2,0,25.6,3.2,36.9,9.9c11.3,6.7,20.3,15.7,27,27.1c6.7,11.3,10,23.7,10,36.9
	c0,13.3-3.3,25.7-10,37c-6.7,11.5-15.6,20.5-26.9,27.1C229.6,144.8,217.3,147.9,203.9,147.9z"/>
<path class="st0" d="M545.7,164.6l-10.2,14.6c-1.4-0.9-3.1-1.5-5.3-2.2c-2.2-0.6-4.2-0.9-6.4-0.9c-1.5,0-2.9,0.2-4.1,0.6
	c-1.3,0.4-2.3,1.1-3,2.1c-0.6,1.1-1.1,2.3-1.1,3.8c0,2.5,0.6,4.1,1.8,5c1.3,0.9,2.8,1.3,4.5,1.4c0.4-0.1,0.9-0.1,1.3-0.1v-7.6h21.2
	v26.3h-0.2c-1.7,0-4.7,0.1-8.5,0.2c-4.1,0.2-7.1,0.3-9,0.3c-3.7,0-6.8-0.2-9.3-0.5c-2.6-0.2-4.8-0.8-6.7-1.4c-1.8-0.8-3.7-1.7-5.4-3
	c-3-2.3-5.4-5.2-7.1-8.7c-1.6-3.6-2.5-7.5-2.5-11.6c0-3.7,0.5-7,1.8-10.2c1.3-3,3.1-5.7,5.5-7.9c2.4-2.3,5.3-3.9,8.5-5.1
	c3.2-1.2,7-1.7,11-1.7c2.5,0,5.1,0.2,7.9,0.8c2.7,0.5,5.4,1.3,8,2.3C541.1,162.1,543.5,163.3,545.7,164.6"/>
<polygon class="st0" points="439.9,207.3 439.9,159.1 455.3,159.1 466.5,175.2 466.5,159.1 487.9,159.1 487.9,207.3 471.7,207.3 
	461.1,192.7 461.1,207.3 "/>
<path class="st0" d="M431.4,159.1v24.7c0,4.7-0.9,8.9-2.6,12.6c-1.8,3.7-4.7,6.6-8.2,8.8c-3.7,2.1-8,3-13.1,3.1
	c-5.2,0-9.6-1-13.2-2.8c-3.6-2.1-6.3-4.8-8.1-8.4c-1.8-3.7-2.7-7.9-2.7-12.9v-25h21.2v22.4c0,1.9,0.1,3.4,0.4,4.2
	c0.2,0.9,1,1.3,2.2,1.3c1.2,0,1.9-0.4,2.3-1.3c0.3-0.8,0.4-2.3,0.4-4.3v-22.3H431.4z"/>
<path class="st0" d="M344.7,159.1v16.1c4.1-0.3,6.8-2.1,8.4-5.1c1.7-3,2.6-6.7,2.6-11h21.6c0,3-0.2,5.7-0.6,8.1
	c-0.3,2.4-1,4.4-1.5,6.4c-0.8,1.8-1.7,3.6-2.9,5.2c-1.2,1.5-2.6,3-4.2,4.3c6.5,5,10.1,13.1,10.7,24.1h-23.1c-0.3-5.6-1.3-10-3.2-13
	c-1.8-2.9-4.3-4.4-7.8-4.5v17.5h-21.5v-48.2H344.7z"/>
<path class="st0" d="M317.2,164l-9.1,16.4c-3.2-0.9-6.2-1.3-8.9-1.3c-1.9,0-3.6,0.3-4.7,0.9c-1.3,0.5-1.9,1.5-1.9,2.7
	c0,2.5,2.3,3.8,6.8,4c1.7-0.1,3.4-0.3,5-0.6c1.6-0.3,2.8-0.8,3.7-1.2l9.1,17.9c-5.7,3-12.1,4.5-19.2,4.5c-3.5,0-7-0.4-10.3-1.4
	c-3.4-1-6.3-2.5-8.9-4.4c-2.6-2.1-4.7-4.5-6.1-7.6c-1.4-3-2.2-6.5-2.2-10.4c0.1-5.6,1.5-10.3,4.1-14c2.7-3.6,6.2-6.3,10.4-7.9
	c4.1-1.6,8.7-2.5,13.3-2.5c3.7,0,7.1,0.4,10.5,1.3C312.2,161.3,315,162.6,317.2,164"/>
<path class="st0" d="M243.8,188l-3.9-12l-3.9,12H243.8z M229.4,207.3h-21.6l17.2-48.2h30.5l16.3,48.2h-21.4l-2.8-8.1h-15.4
	L229.4,207.3z"/>
<path class="st0" d="M184.5,169.8v10.3c1.5,0,2.8-0.2,3.7-0.4c1-0.2,1.8-0.8,2.4-1.5c0.5-0.9,0.9-1.9,1-3.5c0-1.9-0.6-3.4-1.7-3.9
	C188.7,170.1,187,169.8,184.5,169.8 M163.1,159.1h29.5c4.1,0,7.6,0.8,10.5,2.3c2.8,1.5,5,3.5,6.4,6c1.4,2.4,2.1,5.1,2.2,7.8
	c0,3.1-0.8,6.1-2.2,8.5c-1.4,2.5-3.5,4.5-6,6c-2.6,1.4-5.4,2.2-8.5,2.2c-3.2,0-6.8-1.5-10.5-4.2v19.7h-21.4V159.1z"/>
<path class="st0" d="M126.6,169.3v9c2.1,0,3.6-0.2,4.7-0.9c1.1-0.6,1.7-1.7,1.7-3.5c0-1.7-0.5-2.9-1.5-3.6
	C130.5,169.6,128.9,169.3,126.6,169.3 M105.2,159.1h30.3c4.7,0,9,1,12.8,2.8c3.9,1.8,5.8,5.7,6.1,11.4c0,4.8-1.8,8.4-5.5,10.9
	c1.7,1.9,3.2,4.1,4.4,6.5c1.3,2.5,2.4,5.1,3.2,7.8c0.8,2.8,1.4,5.7,1.7,8.8h-22.3c-0.6-11.8-3.7-17.6-9.3-17.6v17.6h-21.4V159.1z"/>
<polygon class="st0" points="99.1,195.1 99.1,207.3 58.7,207.3 58.7,159.1 99.1,159.1 99.1,171.3 80.2,171.3 80.2,176.9 93.4,176.9 
	93.4,189.1 80.2,189.1 80.2,195.1 "/>
<polygon class="st0" points="37.6,207.3 16.8,207.3 0,159.1 21.5,159.1 26.9,175.1 32.4,159.1 53.6,159.1 "/>
</svg>
