<?xml version="1.0" encoding="utf-8"?>
<!-- Generator: Adobe Illustrator 20.0.0, SVG Export Plug-In . SVG Version: 6.00 Build 0)  -->
<svg version="1.1" id="Ebene_1" xmlns="http://www.w3.org/2000/svg" xmlns:xlink="http://www.w3.org/1999/xlink" x="0px" y="0px"
	 viewBox="0 0 134.3 45.9" style="enable-background:new 0 0 134.3 45.9;" xml:space="preserve">
<style type="text/css">
	.st0{fill:#FFFFFF;}
	.st1{fill:#C7C6C6;}
</style>
<path class="st0" d="M7.2,16.3c0-4.2,3.5-7.7,7.7-7.7h2.7c2,0,3.9,0.8,5.3,2.1c1.4-1.4,3.3-2.1,5.3-2.1h2.7c4.2,0,7.7,3.5,7.7,7.7
	v5.4h7.2C45.2,9.6,35.2,0,22.9,0C10.7,0,0.7,9.6,0,21.7h7.2V16.3z"/>
<path class="st0" d="M17.6,13.4h-2.7c-1.6,0-2.9,1.3-2.9,2.9v5.4h8.5v-5.4C20.5,14.7,19.2,13.4,17.6,13.4z"/>
<path class="st0" d="M30.9,13.4h-2.7c-1.6,0-2.9,1.3-2.9,2.9v5.4h8.5v-5.4C33.8,14.7,32.5,13.4,30.9,13.4z"/>
<path class="st0" d="M25.3,29.6c0,1.6,1.3,2.9,2.9,2.9h2.7c1.6,0,2.9-1.3,2.9-2.9v-5.4h-8.5V29.6z"/>
<path class="st0" d="M12,29.6c0,1.6,1.3,2.9,2.9,2.9h2.7c1.6,0,2.9-1.3,2.9-2.9v-5.4H12V29.6z"/>
<path class="st0" d="M38.6,29.6c0,4.2-3.5,7.7-7.7,7.7h-2.7c-2,0-3.9-0.8-5.3-2.1c-1.4,1.4-3.3,2.1-5.3,2.1h-2.7
	c-4.2,0-7.7-3.5-7.7-7.7v-5.4H0c0.7,12.1,10.7,21.7,22.9,21.7c12.3,0,22.3-9.6,22.9-21.7h-7.2V29.6z"/>
<path class="st1" d="M30.9,8.6h-2.7c-2,0-3.9,0.8-5.3,2.1c-1.4-1.4-3.3-2.1-5.3-2.1h-2.7c-4.2,0-7.7,3.5-7.7,7.7v5.4H12v-5.4
	c0-1.6,1.3-2.9,2.9-2.9h2.7c1.6,0,2.9,1.3,2.9,2.9v5.4h4.8v-5.4c0-1.6,1.3-2.9,2.9-2.9h2.7c1.6,0,2.9,1.3,2.9,2.9v5.4h4.8v-5.4
	C38.6,12.1,35.2,8.6,30.9,8.6z"/>
<path class="st0" d="M50.6,8.7h3.1c2,0,6,0,6,6.4c0,2.4-0.7,4.6-2.1,5.7c-1.2,0.9-2.6,0.9-3.5,0.9h-3.4V8.7z M53.5,19.5h0.5
	c1.1,0,2.7-0.1,2.7-4.4c0-4-1.6-4.1-2.7-4.1h-0.5V19.5z"/>
<path class="st0" d="M65.3,8.7c1.3,0,2.6,0,3.6,1.1c0.7,0.8,0.9,1.8,0.9,2.8c0,2.3-1.2,3-1.8,3.4l2.4,5.7h-3.1l-1.7-5.1H64v5.1h-2.8
	v-13H65.3z M64,10.8v3.7h1.3c1.2,0,1.7-0.8,1.7-1.9c0-1.8-1.3-1.8-1.8-1.8H64z"/>
<path class="st0" d="M73.8,8.7v7.4c0,1.9,0,3.5,1.9,3.5c0.9,0,1.3-0.4,1.5-0.9c0.2-0.5,0.2-1.2,0.2-2.6V8.7h2.4V16
	c0,2.3,0,4.1-1.6,5.1c-0.6,0.4-1.5,0.7-2.8,0.7c-4.4,0-4.4-3-4.4-5.8V8.7H73.8z"/>
<path class="st0" d="M90.8,17.1c-0.2,2.6-1.7,4.8-4.5,4.8c-4,0-4.9-3.7-4.9-6.7c0-2.4,0.6-6.7,4.9-6.7c2,0,2.9,0.9,3.5,1.8
	c0.8,1.1,0.9,2.5,0.9,3.3l-2.6,0.2c-0.1-1-0.2-2.9-1.8-2.9c-1.6,0-2,2-2,4.6c0,2.2,0.3,4.2,2,4.2c1.5,0,1.8-1.9,1.9-2.6L90.8,17.1z"
	/>
<path class="st0" d="M95.2,8.7v5.4l3.2-5.4h2.9L98,13.5l3.5,8.2h-2.9l-2.3-6l-1.1,1.6v4.4h-2.8v-13H95.2z"/>
<path class="st0" d="M110.5,8.7v2.2h-5.1v3h3.9v2.2h-3.9v3.2h5.1v2.3h-7.9v-13H110.5z"/>
<path class="st0" d="M116,8.7c1.3,0,2.6,0,3.6,1.1c0.7,0.8,0.9,1.8,0.9,2.8c0,2.3-1.2,3-1.8,3.4l2.4,5.7H118l-1.7-5.1h-1.4v5.1H112
	v-13H116z M114.8,10.8v3.7h1.3c1.2,0,1.7-0.8,1.7-1.9c0-1.8-1.3-1.8-1.8-1.8H114.8z"/>
<path class="st0" d="M130,8.7v2.2H125v3h3.9v2.2H125v3.2h5.1v2.3h-7.9v-13H130z"/>
<path class="st0" d="M134.3,8.7v13h-2.8v-13H134.3z"/>
<path class="st0" d="M54.8,24.2l1.8,8l2.1-8h4.1v13h-2.7V26.3l-2.7,10.9h-2.1l-2.4-10.9v10.9h-2.3v-13H54.8z"/>
<path class="st0" d="M70.2,24.2l3.7,13H71l-0.7-2.7h-3.6l-0.6,2.7h-2.6l3.9-13H70.2z M69.9,32.3L68.5,27l-1.3,5.3H69.9z"/>
<path class="st0" d="M83.4,32.6c-0.2,2.6-1.7,4.8-4.5,4.8c-4,0-4.9-3.7-4.9-6.7c0-2.4,0.6-6.7,4.9-6.7c2,0,2.9,0.9,3.5,1.8
	c0.8,1.1,0.9,2.5,0.9,3.3l-2.6,0.2c-0.1-1-0.2-2.9-1.8-2.9c-1.6,0-2,2-2,4.6c0,2.2,0.3,4.2,2,4.2c1.5,0,1.8-1.9,1.9-2.6L83.4,32.6z"
	/>
<path class="st0" d="M87.8,24.2v5.4l3.2-5.4h2.9L90.6,29l3.5,8.2h-2.9l-2.3-6l-1.1,1.6v4.4H85v-13H87.8z"/>
</svg>
