<?xml version="1.0" encoding="utf-8"?>
<!-- Generator: Adobe Illustrator 20.0.0, SVG Export Plug-In . SVG Version: 6.00 Build 0)  -->
<svg version="1.1" id="Ebene_1" xmlns="http://www.w3.org/2000/svg" xmlns:xlink="http://www.w3.org/1999/xlink" x="0px" y="0px"
	 viewBox="0 0 284.6 73.8" style="enable-background:new 0 0 284.6 73.8;" xml:space="preserve">
<style type="text/css">
	.st0{fill:#FFFFFF;}
</style>
<path class="st0" d="M23.8,12.1c-1.7-2.5-4.4-3.8-8.3-3.8c-2.9,0-5.9,1.2-8,3.3l-1.3-3L0,9v29.6h8.6V17.4c0.9-1.2,2.7-2.1,4.6-2.1
	c3.2,0,4.5,1.3,4.5,4v19.2H26V17.9c0.7-1.3,2.5-2.6,4.6-2.6c3.3,0,4.5,1.5,4.5,4.3v18.9h8.5V19.4c0-7-4.1-11.1-10.9-11.1
	C28.9,8.3,25.9,9.6,23.8,12.1"/>
<path class="st0" d="M123,8.6L116.2,9v29.6h8.6V22.3c1-4.2,3.6-6.2,7.2-6.2c1.3,0,2.3,0.2,3.5,0.4l0.6-7.8c-0.9-0.2-2.1-0.4-3.7-0.4
	c-3.4,0-6.7,1.5-8.7,4.8L123,8.6z"/>
<polygon class="st0" points="174.8,0.7 174.8,38.5 183.4,38.5 183.4,0 "/>
<path class="st0" d="M88.8,8.6L82.5,9v29.6h8.6V17.4c1-1.3,3.1-2.1,5.2-2.1c3.7,0,4.9,1.3,4.9,4.4v18.9h8.6V19.7
	c0-7.2-4.3-11.4-11.2-11.4c-3.3,0-6.1,1.3-8.5,3.3L88.8,8.6z"/>
<path class="st0" d="M276.6,38.5h6.8V0L275,0.7v10.1c-2.1-1.7-4.9-2.5-7.6-2.5c-7.8,0-12.2,5.4-12.2,15.4c0,10.5,4,15.4,12.3,15.4
	c3.7,0,6.4-1.2,8.3-3.2L276.6,38.5z M275,30.4c-0.5,0.7-2,2.3-5.3,2.3c-4.5,0-5.8-2.1-5.8-8.8c0-6.4,1.5-8.7,5.9-8.7
	c2.4,0,4.1,0.8,5.2,1.9V30.4z"/>
<path class="st0" d="M228.6,8.6L222.4,9v29.6h8.6V17.4c1-1.3,3.1-2.1,5.2-2.1c3.7,0,4.9,1.3,4.9,4.4v18.9h8.6V19.7
	c0-7.2-4.3-11.4-11.2-11.4c-3.3,0-6.1,1.3-8.5,3.3L228.6,8.6z"/>
<path class="st0" d="M67.5,30c-0.7,1.1-2.3,2.5-5.7,2.5c-2.6,0-4.4-0.6-4.4-3.4c0-2.7,2.1-3.4,5.4-3.4h4.7V30z M76,20.9
	c0-8.6-4.5-12.6-14.1-12.6c-4.5,0-8.3,0.5-10.4,0.9l0.7,6.6c1.8-0.3,5.4-0.7,8.3-0.7c5.5,0,6.9,1.5,6.9,3.7v1h-6.2
	c-8.2,0-12.4,3.7-12.4,9.6c0,6.2,3.9,9.6,10.3,9.6c4.5,0,7.2-1.4,8.9-3.2l0.8,2.7H76V20.9z"/>
<path class="st0" d="M146.2,23.6c0-4.3,3.4-7.8,7.7-7.8c4.3,0,7.7,3.5,7.7,7.8c0,4.3-3.4,7.8-7.7,7.8
	C149.6,31.4,146.2,27.8,146.2,23.6 M137.9,23.6c0,8.8,7.1,15.9,15.9,15.9c8.8,0,15.9-7.1,15.9-15.9c0-8.8-7.1-15.9-15.9-15.9
	C145,7.7,137.9,14.8,137.9,23.6"/>
<path class="st0" d="M207.4,30c-0.7,1.1-2.3,2.5-5.7,2.5c-2.6,0-4.4-0.6-4.4-3.4c0-2.7,2.1-3.4,5.4-3.4h4.7V30z M215.9,20.9
	c0-8.6-4.5-12.6-14.1-12.6c-4.5,0-8.3,0.5-10.4,0.9l0.7,6.6c1.8-0.3,5.4-0.7,8.3-0.7c5.5,0,6.9,1.5,6.9,3.7v1h-6.2
	c-8.2,0-12.4,3.7-12.4,9.6c0,6.2,3.9,9.6,10.3,9.6c4.5,0,7.2-1.4,8.9-3.2l0.8,2.7h7.2V20.9z"/>
<g>
	<path class="st0" d="M153.1,68.7h-2.2l-3-9l-3,9h-2.2l-4-12.9h2.8l2.5,9.1l3-9.1h2l3,9.1l2.5-9.1h2.8L153.1,68.7z"/>
	<path class="st0" d="M161.2,63c0,2.2,1.2,3.6,3.3,3.6c1.5,0,2.2-0.4,3.1-1.3l1.7,1.6c-1.3,1.3-2.6,2-4.8,2c-3.2,0-5.8-1.7-5.8-6.6
		c0-4.2,2.2-6.6,5.5-6.6c3.5,0,5.5,2.5,5.5,6.2V63H161.2z M166.7,59.4c-0.4-1-1.3-1.6-2.5-1.6c-1.2,0-2.2,0.7-2.6,1.6
		c-0.3,0.6-0.3,1-0.3,1.8h5.8C167,60.4,166.9,60,166.7,59.4z"/>
	<path class="st0" d="M182.2,67.7c-0.7,0.7-1.9,1.1-3.2,1.1c-1.4,0-2.4-0.4-3.4-1.5v1.4H173V50.5h2.6V57c0.9-1.1,2-1.5,3.4-1.5
		c1.3,0,2.4,0.4,3.1,1.1c1.3,1.3,1.5,3.5,1.5,5.5C183.6,64.2,183.5,66.4,182.2,67.7z M178.3,57.9c-2.3,0-2.7,2-2.7,4.3
		c0,2.3,0.4,4.3,2.7,4.3s2.7-2,2.7-4.3C181,59.9,180.7,57.9,178.3,57.9z"/>
	<path class="st0" d="M197.4,68.8c-2.1,0-3.9-0.4-5.4-1.9l1.7-1.7c1,1.1,2.4,1.4,3.7,1.4c1.6,0,2.8-0.6,2.8-1.8
		c0-0.9-0.5-1.4-1.7-1.5l-2.1-0.2c-2.4-0.2-3.8-1.3-3.8-3.6c0-2.5,2.2-4,4.9-4c1.9,0,3.6,0.4,4.8,1.5l-1.6,1.7
		c-0.8-0.7-2-0.9-3.2-0.9c-1.6,0-2.3,0.7-2.3,1.7c0,0.8,0.4,1.4,1.8,1.5l2,0.2c2.4,0.2,3.9,1.4,3.9,3.6
		C202.8,67.4,200.5,68.8,197.4,68.8z"/>
	<path class="st0" d="M210,71.2c-0.3,0.7-0.6,1.2-0.9,1.6c-0.7,0.7-1.7,0.9-2.7,0.9h-1v-2.3h0.7c1.1,0,1.5-0.3,1.9-1.4l0.7-2
		l-4.5-12.3h2.8l3.1,9.1l3-9.1h2.8L210,71.2z"/>
	<path class="st0" d="M222.1,68.8c-2.1,0-3.9-0.4-5.4-1.9l1.7-1.7c1,1.1,2.4,1.4,3.7,1.4c1.6,0,2.8-0.6,2.8-1.8
		c0-0.9-0.5-1.4-1.7-1.5l-2.1-0.2c-2.4-0.2-3.8-1.3-3.8-3.6c0-2.5,2.2-4,4.9-4c1.9,0,3.6,0.4,4.8,1.5l-1.6,1.7
		c-0.8-0.7-2-0.9-3.2-0.9c-1.6,0-2.3,0.7-2.3,1.7c0,0.8,0.4,1.4,1.8,1.5l2,0.2c2.4,0.2,3.9,1.4,3.9,3.6
		C227.5,67.4,225.2,68.8,222.1,68.8z"/>
	<path class="st0" d="M234.3,68.7c-2.4,0-3.5-1.7-3.5-3.6V58h-1.5v-2h1.5V52h2.6V56h2.5v2h-2.5v7c0,0.9,0.5,1.5,1.4,1.5h1.1v2.2
		H234.3z"/>
	<path class="st0" d="M240.9,63c0,2.2,1.2,3.6,3.3,3.6c1.5,0,2.2-0.4,3.1-1.3l1.7,1.6c-1.3,1.3-2.6,2-4.8,2c-3.2,0-5.8-1.7-5.8-6.6
		c0-4.2,2.2-6.6,5.5-6.6c3.5,0,5.5,2.5,5.5,6.2V63H240.9z M246.3,59.4c-0.4-1-1.3-1.6-2.5-1.6c-1.2,0-2.2,0.7-2.6,1.6
		c-0.3,0.6-0.3,1-0.3,1.8h5.8C246.6,60.4,246.6,60,246.3,59.4z"/>
	<path class="st0" d="M268.4,68.7v-7.9c0-2-1.1-2.9-2.6-2.9c-1.4,0-2.7,0.9-2.7,2.8v8h-2.6v-7.9c0-2-1.1-2.9-2.6-2.9
		c-1.5,0-2.7,0.9-2.7,2.9v7.9h-2.6V55.7h2.5V57c0.9-0.9,2.1-1.5,3.4-1.5c1.6,0,2.9,0.6,3.7,1.9c1-1.3,2.3-1.9,4.1-1.9
		c1.3,0,2.5,0.4,3.3,1.2c1,1,1.4,2.2,1.4,3.6v8.3H268.4z"/>
	<path class="st0" d="M279.2,68.8c-2.1,0-3.9-0.4-5.4-1.9l1.7-1.7c1,1.1,2.4,1.4,3.7,1.4c1.6,0,2.8-0.6,2.8-1.8
		c0-0.9-0.5-1.4-1.7-1.5l-2.1-0.2c-2.4-0.2-3.8-1.3-3.8-3.6c0-2.5,2.2-4,4.9-4c1.9,0,3.6,0.4,4.8,1.5l-1.6,1.7
		c-0.8-0.7-2-0.9-3.2-0.9c-1.6,0-2.3,0.7-2.3,1.7c0,0.8,0.4,1.4,1.8,1.5l2,0.2c2.4,0.2,3.9,1.4,3.9,3.6
		C284.6,67.4,282.3,68.8,279.2,68.8z"/>
</g>
</svg>
