<?xml version="1.0" encoding="utf-8"?>
<!-- Generator: Adobe Illustrator 20.0.0, SVG Export Plug-In . SVG Version: 6.00 Build 0)  -->
<svg version="1.1" id="Ebene_1" xmlns="http://www.w3.org/2000/svg" xmlns:xlink="http://www.w3.org/1999/xlink" x="0px" y="0px"
	 viewBox="0 0 219.1 65.2" style="enable-background:new 0 0 219.1 65.2;" xml:space="preserve">
<style type="text/css">
	.st0{fill:#FFFFFF;}
	.st1{clip-path:url(#SVGID_2_);fill:#FFFFFF;}
</style>
<g>
	<rect class="st0" width="98.7" height="5.7"/>
	<rect y="59.5" class="st0" width="98.7" height="5.7"/>
	<g>
		<defs>
			<rect id="SVGID_1_" width="219.1" height="65.2"/>
		</defs>
		<clipPath id="SVGID_2_">
			<use xlink:href="#SVGID_1_"  style="overflow:visible;"/>
		</clipPath>
		<path class="st1" d="M212.9,41.9c-0.9,0.4-1.9,0.7-3.1,0.7c-1.2,0-1.7-0.5-1.7-1.6c0-1.2,0.5-1.5,1.9-1.5h3V41.9z M219.1,47V33.6
			c0-5.8-1.6-8-8.9-8c-2.4,0-5.6,0.4-7.5,1l0.8,4.7c2-0.4,3.8-0.6,5.7-0.6c3.3,0,3.7,0.7,3.7,2.9v1.6h-4.5c-4.3,0-6.2,1.7-6.2,5.9
			c0,3.6,1.6,6.4,5.5,6.4c1.4,0,3.6-0.4,6-1.8L214,47H219.1z M197.2,26H191v21h6.2V26z M197.2,16.8H191v6.6h6.2V16.8z M179.2,40.4
			c-0.9,0.8-2.5,1.6-4,1.6c-1.6,0-2.2-0.9-2.2-2.4v-6.3c0-1.4,0.6-2.4,2.2-2.4c1.3,0,2.9,0.3,4,0.5V40.4z M166.8,39.7
			c0,5.1,2.4,7.8,6.6,7.8c2.3,0,5-1.2,6.5-2.1l0.6,1.7h4.9V16.6l-6.2,0.9v8.7c-1.4-0.3-3.6-0.6-5.3-0.6c-4.9,0-7.1,2.8-7.1,7.7V39.7
			z M157.5,34h-5.4v-0.9c0-1.5,0.7-2.7,2.8-2.7c2.2,0,2.6,1.2,2.6,2.7V34z M163.4,38.7v-4.4c0-4.6-1.5-8.7-8.5-8.7c-7,0-9,3.9-9,8.4
			v4.9c0,5.2,2.6,8.5,9.4,8.5c2.9,0,6-0.6,7.9-1.3l-0.9-4.6c-1.9,0.6-4.4,0.9-6.4,0.9c-2.8,0-3.8-0.6-3.8-3.1v-0.6H163.4z
			 M124.4,43.3h5.8l5-12.2l0.4,15.9h6.2l-1.2-28.7h-6.5l-6.9,18.3l-6.9-18.3h-6.5L112.7,47h6.2l0.4-15.9L124.4,43.3z M98.7,47V32.3
			c0-4-1.2-6.7-4.8-6.7c-2.4,0-5.8,0.8-8.4,2L84.9,26h-4.6v21h6.2V33.1c1.3-0.7,3.4-1.5,4.5-1.5c1.1,0,1.5,0.6,1.5,1.5V47H98.7z
			 M74.9,47V32.3c0-4-1.2-6.7-4.8-6.7c-2.4,0-5,0.8-7.5,1.9V16.6l-6.1,0.9V47h6.2V33.2c1.3-0.7,3.4-1.5,4.5-1.5
			c1.1,0,1.5,0.6,1.5,1.5V47H74.9z M42.5,42.2c-2.2,0-3.3-1.1-3.3-3.1v-5.2c0-2,1-3.1,3.3-3.1c2.2,0,3.3,1.1,3.3,3.1v5.2
			C45.7,41.1,44.7,42.2,42.5,42.2 M42.5,47.4c7.4,0,9.5-4.2,9.5-8.5v-4.9c0-4.3-2-8.5-9.5-8.5c-7.5,0-9.5,4.2-9.5,8.5v4.9
			C33,43.2,35,47.4,42.5,47.4 M11.7,43.3h5.8l5-12.2L22.9,47h6.2l-1.2-28.7h-6.5l-6.9,18.3L7.7,18.3H1.2L0,47h6.2l0.4-15.9
			L11.7,43.3z"/>
	</g>
</g>
</svg>
