<?xml version="1.0" encoding="utf-8"?>
<!-- Generator: Adobe Illustrator 20.0.0, SVG Export Plug-In . SVG Version: 6.00 Build 0)  -->
<svg version="1.1" id="Ebene_1" xmlns="http://www.w3.org/2000/svg" xmlns:xlink="http://www.w3.org/1999/xlink" x="0px" y="0px"
	 viewBox="0 0 63.6 24.3" style="enable-background:new 0 0 63.6 24.3;" xml:space="preserve">
<style type="text/css">
	.st0{fill:#FFFFFF;}
</style>
<g>
	<g>
		<path class="st0" d="M2.3,5.6C2.6,5.4,3,5,3.6,5c1,0,1.3,0.9,1.3,2.6c0,1.9-0.3,2.7-1.4,2.7c-0.6,0-0.9-0.1-1.2-0.3V5.6z
			 M2.3,11.5c0.3,0.2,0.7,0.4,1.7,0.4c2.1,0,3-1.6,3-4.4c0-2.7-1-4.1-2.8-4.1c-1.1,0-1.7,0.5-2.1,0.8C2,3.7,1.8,3.4,1.6,3.4
			c-0.1,0-0.1,0-0.2,0L0.2,3.9C0.1,3.9,0,4,0,4c0,0.4,0.3,0.2,0.3,2.5v8.1c0,0.3,0,0.3,0.1,0.3c0.1,0,0.2,0,0.3,0L2,14.7
			c0.2,0,0.3-0.1,0.3-0.3V11.5z"/>
		<path class="st0" d="M12.5,9.8c-0.2,0.2-0.6,0.6-1.2,0.6c-0.6,0-1.1-0.5-1.1-1.1c0-1.4,1.9-1.3,2.3-1.3V9.8z M14.7,11.3
			c0.1,0,0.1-0.1,0.1-0.1c0-0.3-0.4-0.5-0.4-2.1V6c0-1.7-0.8-2.6-2.8-2.6c-1.2,0-2.8,0.4-2.8,0.8c0,0.1,0,0.1,0,0.2l0.3,1
			c0,0.1,0.1,0.2,0.2,0.2c0.2,0,1.1-0.5,2-0.5c1,0,1.1,0.5,1.1,1.2v0.5c-1.3,0-4.2,0-4.2,2.7c0,1.5,0.9,2.5,2.4,2.5
			c1.2,0,1.8-0.6,2.1-1c0.1,0.4,0.3,1,0.5,1c0.1,0,0.1,0,0.2-0.1L14.7,11.3z"/>
		<path class="st0" d="M21.9,10.9c0,0,0,0.1,0,0.2c0,0.4-1.3,0.9-2.3,0.9c-2.2,0-3.6-1.4-3.6-4.1c0-2.7,1.4-4.4,3.7-4.4
			c0.9,0,2.3,0.5,2.3,1c0,0,0,0.1,0,0.1l-0.6,1c0,0-0.1,0.1-0.1,0.1c-0.2,0-0.7-0.6-1.5-0.6c-1.1,0-1.6,0.8-1.6,2.7
			c0,1.8,0.4,2.6,1.7,2.6c0.8,0,1.1-0.5,1.4-0.5c0,0,0.1,0,0.1,0.1L21.9,10.9z"/>
		<path class="st0" d="M30.2,10.7c0.1,0.1,0.1,0.2,0.1,0.2c0,0.1,0,0.1-0.1,0.1l-1.4,0.8c-0.1,0-0.1,0.1-0.2,0.1
			c-0.1,0-0.1-0.1-0.2-0.2l-2.9-3.8h0v3.5c0,0.2,0,0.2-0.2,0.2h-1.6c-0.2,0-0.2,0-0.2-0.2V0.6c0-0.2,0.1-0.3,0.3-0.3L25.1,0
			c0,0,0.2,0,0.3,0c0.1,0,0.1,0.1,0.1,0.3v6.4l3.1-3.1c0-0.1,0.2-0.2,0.2-0.2c0.1,0,0.2,0.1,0.3,0.2l0.8,0.7C30,4.3,30,4.4,30,4.4
			c0,0.1-0.1,0.1-0.1,0.2l-2.6,2.5L30.2,10.7z"/>
		<path class="st0" d="M39.1,14h-8v-1.5h8V14z"/>
		<path class="st0" d="M44.1,9.3c-0.2,0.2-0.7,0.7-1.4,0.7c-0.7,0-1.2-0.5-1.2-1.3c0-1.6,2.2-1.5,2.6-1.5V9.3z M46.7,11.1
			c0.1,0,0.2-0.1,0.2-0.2c0-0.4-0.5-0.6-0.5-2.4V4.9c0-1.9-0.9-3-3.2-3c-1.4,0-3.3,0.4-3.3,0.9c0,0.1,0,0.1,0.1,0.2l0.4,1.1
			c0,0.1,0.1,0.2,0.2,0.2c0.2,0,1.3-0.6,2.3-0.6c1.2,0,1.3,0.5,1.3,1.4v0.6c-1.5,0-4.8,0-4.8,3.1c0,1.7,1.1,2.9,2.8,2.9
			c1.4,0,2-0.7,2.4-1.1c0.1,0.5,0.4,1.1,0.5,1.1c0.1,0,0.2-0.1,0.2-0.1L46.7,11.1z"/>
		<path class="st0" d="M50.7,11.4c0,0.2,0,0.2-0.2,0.2h-1.6c-0.2,0-0.2,0-0.2-0.2V6.5c0-1.8-0.4-2.1-0.4-2.4c0-0.1,0.1-0.1,0.1-0.1
			l1.2-0.5c0.1,0,0.1-0.1,0.2-0.1c0.2,0,0.5,0.7,0.6,1.3c0.3-0.4,0.9-1.3,2-1.3c0.5,0,0.9,0.2,0.9,0.4c0,0.1,0,0.1,0,0.2l-0.5,1.3
			c0,0-0.1,0.1-0.1,0.1c-0.1,0-0.4-0.2-0.8-0.2c-0.5,0-1,0.5-1.2,0.8V11.4z"/>
		<path class="st0" d="M59.5,11.2c0,0.1,0,0.1,0,0.1c0,0.3-1.2,0.6-2.3,0.6c-2.1,0-2.1-1.6-2.1-3.1V5.2h-1.1c-0.2,0-0.2,0-0.2-0.2
			v-1c0-0.2,0-0.2,0.2-0.2h1.1v-2c0-0.2,0-0.3,0.3-0.3l1.4-0.2c0,0,0.1,0,0.2,0c0.1,0,0.2,0.1,0.2,0.3v2.2h1.8c0.1,0,0.3,0,0.3,0.2
			c0,0,0,0.1,0,0.1l-0.2,0.9c0,0.2-0.1,0.2-0.3,0.2h-1.6v3.9c0,0.5,0,1,0.5,1c0.6,0,1-0.3,1.3-0.3c0.1,0,0.1,0,0.1,0.1L59.5,11.2z"
			/>
	</g>
</g>
<g>
	<path class="st0" d="M62.4,5.9c-0.7,0-1.2-0.6-1.2-1.2c0-0.7,0.5-1.2,1.2-1.2c0.7,0,1.2,0.6,1.2,1.2C63.6,5.4,63,5.9,62.4,5.9z
		 M62.4,10.9c-0.7,0-1.2-0.6-1.2-1.2c0-0.7,0.5-1.2,1.2-1.2c0.7,0,1.2,0.5,1.2,1.2C63.6,10.3,63,10.9,62.4,10.9z"/>
</g>
<g>
	<path class="st0" d="M1.3,23c-0.5,0-0.8-0.3-0.8-0.8v-1.6H0.1v-0.4l0.4-0.1v-0.5l0.6-0.1v0.6h0.8v0.5H1.1V22c0,0.4,0.1,0.5,0.4,0.5
		c0.1,0,0.2,0,0.4-0.1L2,22.9C1.8,23,1.6,23,1.3,23z"/>
	<path class="st0" d="M3.2,20.9v2H2.6v-2.1l-0.1-0.7l0.6-0.1l0,0.4h0c0.2-0.2,0.4-0.4,0.8-0.4v0.6C3.6,20.7,3.4,20.7,3.2,20.9z"/>
	<path class="st0" d="M5.8,23l0-0.3h0c-0.2,0.2-0.4,0.3-0.7,0.3c-0.5,0-0.7-0.3-0.7-0.7c0-0.5,0.4-0.8,1-0.8l0.5,0v-0.2
		c0-0.3-0.1-0.6-0.5-0.6c-0.2,0-0.4,0.1-0.6,0.2l-0.2-0.4c0.3-0.2,0.5-0.3,0.9-0.3c0.6,0,1,0.4,1,0.9v1.3l0.1,0.7L5.8,23z M5.7,21.8
		l-0.4,0c-0.3,0-0.5,0.1-0.5,0.4c0,0.2,0.1,0.4,0.3,0.4c0.2,0,0.4-0.1,0.5-0.2V21.8z"/>
	<path class="st0" d="M9,20.5c0.1,0.1,0.1,0.3,0.1,0.5c0,0.5-0.4,1-1,1c-0.1,0-0.2,0-0.3,0c0,0-0.2,0.1-0.2,0.3
		c0,0.2,0.1,0.2,0.3,0.2h0.8c0.5,0,0.8,0.2,0.8,0.6c0,0.6-0.5,1.2-1.6,1.2c-0.6,0-1-0.3-1-0.8c0-0.5,0.4-0.7,0.4-0.7
		c-0.1-0.1-0.2-0.2-0.2-0.4c0-0.4,0.3-0.5,0.4-0.6C7.2,21.7,7,21.4,7,21c0-0.5,0.4-1,1-1c0.2,0,0.4,0,0.6,0.1l0.9-0.1v0.5H9z
		 M8.6,23H7.9c-0.1,0-0.2,0-0.3,0c0,0-0.2,0.1-0.2,0.4c0,0.3,0.2,0.4,0.6,0.4c0.6,0,1-0.4,1-0.6C9,23,8.9,23,8.6,23z M8.1,20.5
		c-0.3,0-0.5,0.2-0.5,0.5c0,0.3,0.2,0.5,0.5,0.5c0.3,0,0.5-0.2,0.5-0.5C8.6,20.7,8.4,20.5,8.1,20.5z"/>
	<path class="st0" d="M11.2,23.1c-0.9,0-1.3-0.6-1.3-1.5c0-0.9,0.5-1.5,1.2-1.5c0.7,0,1,0.5,1,1.1v0.3h-1.6c0,0.6,0.3,0.9,0.8,0.9
		c0.3,0,0.4-0.1,0.6-0.2l0.2,0.5C11.8,23,11.5,23.1,11.2,23.1z M11,20.6c-0.3,0-0.5,0.3-0.6,0.6h1.1C11.5,20.8,11.4,20.6,11,20.6z"
		/>
	<path class="st0" d="M13.6,23c-0.5,0-0.8-0.3-0.8-0.8v-1.6h-0.4v-0.4l0.4-0.1v-0.5l0.6-0.1v0.6h0.8v0.5h-0.8V22
		c0,0.4,0.1,0.5,0.4,0.5c0.1,0,0.2,0,0.4-0.1l0.2,0.5C14.1,23,13.9,23,13.6,23z"/>
	<path class="st0" d="M16.2,23l0-0.3h0c-0.2,0.2-0.4,0.3-0.7,0.3c-0.5,0-0.7-0.3-0.7-0.7c0-0.5,0.4-0.8,1-0.8l0.5,0v-0.2
		c0-0.3-0.1-0.6-0.5-0.6c-0.2,0-0.4,0.1-0.6,0.2l-0.2-0.4c0.3-0.2,0.5-0.3,0.9-0.3c0.6,0,1,0.4,1,0.9v1.3l0.1,0.7L16.2,23z
		 M16.2,21.8l-0.4,0c-0.3,0-0.5,0.1-0.5,0.4c0,0.2,0.1,0.4,0.3,0.4c0.2,0,0.4-0.1,0.5-0.2V21.8z"/>
	<path class="st0" d="M18.3,23c-0.3,0-0.6-0.1-0.9-0.2l0.2-0.5c0.2,0.1,0.4,0.2,0.7,0.2c0.3,0,0.5-0.1,0.5-0.3
		c0-0.2-0.1-0.2-0.3-0.3L18,21.7c-0.2-0.1-0.5-0.3-0.5-0.8c0-0.6,0.5-0.8,1-0.8c0.3,0,0.5,0.1,0.8,0.2l-0.2,0.5
		c-0.2-0.1-0.4-0.2-0.6-0.2c-0.3,0-0.4,0.1-0.4,0.3c0,0.2,0.2,0.3,0.3,0.3l0.5,0.2c0.4,0.2,0.5,0.4,0.5,0.7
		C19.4,22.6,18.9,23,18.3,23z"/>
	<path class="st0" d="M21.8,20.7c-0.2-0.1-0.3-0.1-0.5-0.1c-0.5,0-0.8,0.3-0.8,0.9c0,0.7,0.3,1,0.7,1c0.2,0,0.3-0.1,0.5-0.1l0.2,0.5
		C21.7,23,21.4,23,21.1,23c-0.8,0-1.3-0.6-1.3-1.5c0-1,0.7-1.5,1.4-1.5c0.3,0,0.5,0,0.7,0.1L21.8,20.7z"/>
	<path class="st0" d="M24.2,23v-1.8c0-0.4-0.1-0.5-0.5-0.5c-0.3,0-0.4,0.1-0.6,0.2V23h-0.6v-3.4l-0.1-0.7l0.7-0.1v1.5h0
		c0.1-0.1,0.4-0.3,0.8-0.3c0.5,0,0.9,0.3,0.9,0.9v2H24.2z"/>
	<path class="st0" d="M26.8,23.1c-0.9,0-1.3-0.6-1.3-1.5c0-0.9,0.5-1.5,1.2-1.5c0.7,0,1,0.5,1,1.1v0.3h-1.6c0,0.6,0.3,0.9,0.8,0.9
		c0.3,0,0.4-0.1,0.6-0.2l0.2,0.5C27.4,23,27.2,23.1,26.8,23.1z M26.7,20.6c-0.3,0-0.5,0.3-0.6,0.6h1.1C27.2,20.8,27,20.6,26.7,20.6z
		"/>
	<path class="st0" d="M30,23v-1.8c0-0.4-0.1-0.5-0.5-0.5c-0.2,0-0.4,0.1-0.6,0.2V23h-0.6v-2.1l-0.1-0.7l0.6-0.1l0,0.3h0
		c0.2-0.2,0.5-0.3,0.8-0.3c0.5,0,0.9,0.3,0.9,0.9v2H30z"/>
	<path class="st0" d="M34.2,23l0-0.3h0c-0.2,0.2-0.4,0.3-0.7,0.3c-0.5,0-0.7-0.3-0.7-0.7c0-0.5,0.4-0.8,1-0.8l0.5,0v-0.2
		c0-0.3-0.1-0.6-0.5-0.6c-0.2,0-0.4,0.1-0.6,0.2l-0.2-0.4c0.3-0.2,0.5-0.3,0.9-0.3c0.6,0,1,0.4,1,0.9v1.3l0.1,0.7L34.2,23z
		 M34.1,21.8l-0.4,0c-0.3,0-0.5,0.1-0.5,0.4c0,0.2,0.1,0.4,0.3,0.4c0.2,0,0.4-0.1,0.5-0.2V21.8z"/>
	<path class="st0" d="M37.3,23l0-0.3h0c-0.2,0.2-0.5,0.3-0.8,0.3c-0.5,0-0.9-0.3-0.9-0.9v-1.3l-0.1-0.7l0.7-0.1V22
		c0,0.4,0.1,0.5,0.5,0.5c0.2,0,0.4-0.1,0.6-0.2v-1.4l-0.1-0.7l0.7-0.1v2.2l0.1,0.7L37.3,23z"/>
	<path class="st0" d="M39.4,23c-0.3,0-0.6-0.1-0.9-0.2l0.2-0.5c0.2,0.1,0.4,0.2,0.7,0.2c0.3,0,0.5-0.1,0.5-0.3
		c0-0.2-0.1-0.2-0.3-0.3L39,21.7c-0.2-0.1-0.5-0.3-0.5-0.8c0-0.6,0.5-0.8,1-0.8c0.3,0,0.5,0.1,0.8,0.2l-0.2,0.5
		c-0.2-0.1-0.4-0.2-0.6-0.2c-0.3,0-0.4,0.1-0.4,0.3c0,0.2,0.2,0.3,0.3,0.3l0.5,0.2c0.4,0.2,0.5,0.4,0.5,0.7C40.4,22.6,40,23,39.4,23
		z"/>
	<path class="st0" d="M43,23c-0.3,0-0.6-0.1-0.9-0.2l0.2-0.5c0.2,0.1,0.4,0.2,0.7,0.2c0.3,0,0.5-0.1,0.5-0.3c0-0.2-0.1-0.2-0.3-0.3
		l-0.5-0.2c-0.2-0.1-0.5-0.3-0.5-0.8c0-0.6,0.5-0.8,1-0.8c0.3,0,0.5,0.1,0.8,0.2l-0.2,0.5c-0.2-0.1-0.4-0.2-0.6-0.2
		c-0.3,0-0.4,0.1-0.4,0.3c0,0.2,0.2,0.3,0.3,0.3l0.5,0.2c0.4,0.2,0.5,0.4,0.5,0.7C44.1,22.6,43.7,23,43,23z"/>
	<path class="st0" d="M45.6,23c-0.5,0-0.8-0.3-0.8-0.8v-1.6h-0.4v-0.4l0.4-0.1v-0.5l0.6-0.1v0.6h0.8v0.5h-0.8V22
		c0,0.4,0.1,0.5,0.4,0.5c0.1,0,0.2,0,0.4-0.1l0.2,0.5C46.2,23,46,23,45.6,23z"/>
	<path class="st0" d="M48.7,23l0-0.3h0c-0.2,0.2-0.5,0.3-0.8,0.3c-0.5,0-0.9-0.3-0.9-0.9v-1.3l-0.1-0.7l0.7-0.1V22
		c0,0.4,0.1,0.5,0.5,0.5c0.2,0,0.4-0.1,0.6-0.2v-1.4l-0.1-0.7l0.7-0.1v2.2l0.1,0.7L48.7,23z"/>
	<path class="st0" d="M50.9,23c-0.5,0-0.8-0.3-0.8-0.8v-1.6h-0.4v-0.4l0.4-0.1v-0.5l0.6-0.1v0.6h0.8v0.5h-0.8V22
		c0,0.4,0.1,0.5,0.4,0.5c0.1,0,0.2,0,0.4-0.1l0.2,0.5C51.4,23,51.3,23,50.9,23z"/>
	<path class="st0" d="M53.1,23c-0.5,0-0.8-0.3-0.8-0.8v-1.6h-0.4v-0.4l0.4-0.1v-0.5l0.6-0.1v0.6h0.8v0.5h-0.8V22
		c0,0.4,0.1,0.5,0.4,0.5c0.1,0,0.2,0,0.4-0.1l0.2,0.5C53.6,23,53.4,23,53.1,23z"/>
	<path class="st0" d="M56.1,20.5c0.1,0.1,0.1,0.3,0.1,0.5c0,0.5-0.4,1-1,1c-0.1,0-0.2,0-0.3,0c0,0-0.2,0.1-0.2,0.3
		c0,0.2,0.1,0.2,0.3,0.2h0.8c0.5,0,0.8,0.2,0.8,0.6c0,0.6-0.5,1.2-1.6,1.2c-0.6,0-1-0.3-1-0.8c0-0.5,0.4-0.7,0.4-0.7
		c-0.1-0.1-0.2-0.2-0.2-0.4c0-0.4,0.3-0.5,0.4-0.6c-0.3-0.2-0.4-0.5-0.4-0.8c0-0.5,0.4-1,1-1c0.2,0,0.4,0,0.6,0.1l0.9-0.1v0.5H56.1z
		 M55.8,23H55c-0.1,0-0.2,0-0.3,0c0,0-0.2,0.1-0.2,0.4c0,0.3,0.2,0.4,0.6,0.4c0.6,0,1-0.4,1-0.6C56.1,23,56,23,55.8,23z M55.2,20.5
		c-0.3,0-0.5,0.2-0.5,0.5c0,0.3,0.2,0.5,0.5,0.5c0.3,0,0.5-0.2,0.5-0.5C55.7,20.7,55.5,20.5,55.2,20.5z"/>
	<path class="st0" d="M58.6,23l0-0.3h0c-0.2,0.2-0.4,0.3-0.7,0.3c-0.5,0-0.7-0.3-0.7-0.7c0-0.5,0.4-0.8,1-0.8l0.5,0v-0.2
		c0-0.3-0.1-0.6-0.5-0.6c-0.2,0-0.4,0.1-0.6,0.2l-0.2-0.4c0.3-0.2,0.5-0.3,0.9-0.3c0.6,0,1,0.4,1,0.9v1.3l0.1,0.7L58.6,23z
		 M58.5,21.8l-0.4,0c-0.3,0-0.5,0.1-0.5,0.4c0,0.2,0.1,0.4,0.3,0.4c0.2,0,0.4-0.1,0.5-0.2V21.8z"/>
	<path class="st0" d="M60.6,20.9v2H60v-2.1l-0.1-0.7l0.6-0.1l0,0.4h0c0.2-0.2,0.4-0.4,0.8-0.4v0.6C61,20.7,60.8,20.7,60.6,20.9z"/>
	<path class="st0" d="M62.9,23c-0.5,0-0.8-0.3-0.8-0.8v-1.6h-0.4v-0.4l0.4-0.1v-0.5l0.6-0.1v0.6h0.8v0.5h-0.8V22
		c0,0.4,0.1,0.5,0.4,0.5c0.1,0,0.2,0,0.4-0.1l0.2,0.5C63.4,23,63.2,23,62.9,23z"/>
</g>
</svg>
