<?xml version="1.0" encoding="utf-8"?>
<!-- Generator: Adobe Illustrator 20.0.0, SVG Export Plug-In . SVG Version: 6.00 Build 0)  -->
<svg version="1.1" id="Ebene_1" xmlns="http://www.w3.org/2000/svg" xmlns:xlink="http://www.w3.org/1999/xlink" x="0px" y="0px"
	 viewBox="0 0 327.7 91.8" style="enable-background:new 0 0 327.7 91.8;" xml:space="preserve">
<style type="text/css">
	.st0{clip-path:url(#SVGID_2_);fill:#B7B7B7;}
	.st1{clip-path:url(#SVGID_2_);fill:#FFFFFF;}
	.st2{clip-path:url(#SVGID_2_);}
	.st3{clip-path:url(#SVGID_4_);fill:none;stroke:#BBC2C6;stroke-width:0.3191;}
	.st4{clip-path:url(#SVGID_2_);fill:none;stroke:#BBC2C6;stroke-width:0.3191;}
	.st5{clip-path:url(#SVGID_2_);fill:#BBC2C6;}
	.st6{clip-path:url(#SVGID_2_);fill:#FFFFFF;stroke:#BBC2C6;stroke-width:0.3191;}
	.st7{clip-path:url(#SVGID_6_);fill:none;stroke:#BBC2C6;stroke-width:0.3191;}
	.st8{fill:#FFFFFF;}
</style>
<g>
	<defs>
		<rect id="SVGID_1_" y="0" width="327.7" height="91.8"/>
	</defs>
	<clipPath id="SVGID_2_">
		<use xlink:href="#SVGID_1_"  style="overflow:visible;"/>
	</clipPath>
	<path class="st0" d="M23,15.2h1.5c2.6,0,5.9,0.2,5.3,3.6c-0.6,3.6-3.7,4-6.5,4h-1.6L23,15.2z M2.6,47.2H18L20.1,34h8.2
		c8.9,0,15.4-5.6,16.8-14.6C46.8,8.4,40,3.2,29.8,3.2H9.5L2.6,47.2z"/>
	<path class="st0" d="M65.7,15.2H67c2.7,0,5.1,0.4,4.5,3.8c-0.5,3.3-3.2,3.7-5.8,3.7h-1.1L65.7,15.2z M45,47.2h15.6l2.2-14.1h0.3
		L68,47.2h18.4l-7.3-14.3c-0.7-1.3-1.6-2-2.3-2.6l0.1-0.4c6.3-2,9.3-4.8,10.3-11.4C89,7.4,81.2,3.2,71.3,3.2H52L45,47.2z"/>
	<polygon class="st0" points="96.3,3.2 112.3,3.2 105.3,47.2 89.3,47.2 	"/>
	<path class="st0" d="M119.5,3.2h15.3l10.5,24.4h0.5c-0.1-3.7-0.2-7.5,0.4-11.2l2.1-13.2h15.3l-7,44h-15.3l-10.4-23.1h-0.5
		c0,3,0.1,5.9-0.4,8.8l-2.3,14.3h-15.3L119.5,3.2z"/>
	<polygon class="st0" points="167.6,3.2 201.2,3.2 198.9,17.5 190.2,17.1 185.4,47.2 169.4,47.2 174.2,17.1 165.3,17.5 	"/>
	<path class="st0" d="M210.7,8.1h1.5c5.4,0,11.8,0.8,10.7,7.7c-1.1,7-7.3,8.1-12.9,8.1h-1.8L210.7,8.1z M207.4,28.8h3.2
		c8.4,0,16-3.6,17.4-12.8c1.3-8.1-2.2-12.7-15.7-12.7h-6.3l-7,44h5.5L207.4,28.8z"/>
	<polygon class="st0" points="234.1,42.2 247.5,42.2 246.7,47.2 227.9,47.2 234.8,3.2 240.3,3.2 	"/>
	<path class="st0" d="M262,3.2l-4.1,26c-1.1,7.2,0,13.8,8.4,13.8c8.5,0,11.7-6.7,12.8-13.8l4.1-26h5.5L284.4,31
		c-1.5,9.7-8.7,17.1-18.8,17.1c-10.1,0-14.9-7.4-13.4-17.1l4.4-27.8H262z"/>
	<path class="st0" d="M314.6,11.5c-1.2-2.7-3.1-4.1-6.4-4.1c-3.5,0-7.7,2.4-8.3,6.2c-0.5,3.4,2.5,5.3,5.1,6.3l3,1.2
		c5.9,2.5,10,5.9,8.8,13.2c-1.3,8-8.4,13.7-16.2,13.7c-7.1,0-11.8-5.3-11.6-12.3l5.7-1.2c-0.8,4.8,2.5,8.3,7.2,8.3
		c4.7,0,8.7-4,9.5-8.6c0.7-4.7-2.7-6.8-6.3-8.3l-2.8-1.3c-4.7-2.2-8.8-5-7.8-11.1c1.1-7.1,8.1-11.4,14.8-11.4
		c4.9,0,8.6,2.4,10.3,6.7L314.6,11.5z"/>
	<path class="st1" d="M20.7,13.1h1.5c2.6,0,5.9,0.2,5.3,3.6c-0.6,3.6-3.7,4-6.5,4h-1.6L20.7,13.1z M0.2,45.1h15.4l2.1-13.3h8.2
		c8.9,0,15.4-5.6,16.8-14.6c1.7-10.9-5-16.2-15.3-16.2H7.2L0.2,45.1z"/>
	<g class="st2">
		<defs>
			<rect id="SVGID_3_" y="0" width="319.4" height="85.7"/>
		</defs>
		<clipPath id="SVGID_4_">
			<use xlink:href="#SVGID_3_"  style="overflow:visible;"/>
		</clipPath>
		<path class="st3" d="M20.7,13.1h1.5c2.6,0,5.9,0.2,5.3,3.6c-0.6,3.6-3.7,4-6.5,4h-1.6L20.7,13.1z M0.2,45.1h15.4l2.1-13.3h8.2
			c8.9,0,15.4-5.6,16.8-14.6c1.7-10.9-5-16.2-15.3-16.2H7.2L0.2,45.1z"/>
	</g>
	<path class="st1" d="M63.4,13.1h1.2c2.7,0,5.1,0.4,4.5,3.8c-0.5,3.3-3.2,3.7-5.8,3.7h-1.1L63.4,13.1z M42.7,45.1h15.6L60.5,31h0.3
		l4.8,14.1H84l-7.3-14.3c-0.7-1.3-1.6-2-2.3-2.6l0.1-0.4c6.3-2,9.3-4.8,10.3-11.4C86.6,5.3,78.9,1.1,69,1.1H49.6L42.7,45.1z"/>
	<path class="st4" d="M63.4,13.1h1.2c2.7,0,5.1,0.4,4.5,3.8c-0.5,3.3-3.2,3.7-5.8,3.7h-1.1L63.4,13.1z M42.7,45.1h15.6L60.5,31h0.3
		l4.8,14.1H84l-7.3-14.3c-0.7-1.3-1.6-2-2.3-2.6l0.1-0.4c6.3-2,9.3-4.8,10.3-11.4C86.6,5.3,78.9,1.1,69,1.1H49.6L42.7,45.1z"/>
	<polygon class="st1" points="93.9,1.1 109.9,1.1 103,45.1 87,45.1 	"/>
	<polygon class="st4" points="93.9,1.1 109.9,1.1 103,45.1 87,45.1 	"/>
	<path class="st1" d="M117.1,1.1h15.3l10.5,24.4h0.5c-0.1-3.7-0.2-7.5,0.4-11.2l2.1-13.2h15.3l-7,44H139L128.6,22h-0.5
		c0,3,0.1,5.9-0.4,8.8l-2.3,14.3h-15.3L117.1,1.1z"/>
	<path class="st4" d="M117.1,1.1h15.3l10.5,24.4h0.5c-0.1-3.7-0.2-7.5,0.4-11.2l2.1-13.2h15.3l-7,44H139L128.6,22h-0.5
		c0,3,0.1,5.9-0.4,8.8l-2.3,14.3h-15.3L117.1,1.1z"/>
	<polygon class="st1" points="165.2,1.1 198.8,1.1 196.5,15.4 187.8,15 183,45.1 167,45.1 171.8,15 162.9,15.4 	"/>
	<polygon class="st4" points="165.2,1.1 198.8,1.1 196.5,15.4 187.8,15 183,45.1 167,45.1 171.8,15 162.9,15.4 	"/>
	<path class="st5" d="M208.3,6h1.5c5.4,0,11.8,0.8,10.7,7.7c-1.1,7-7.3,8.1-12.9,8.1h-1.8L208.3,6z M205,26.7h3.2
		c8.3,0,16-3.6,17.4-12.8c1.3-8.1-2.2-12.7-15.7-12.7h-6.3l-7,44h5.5L205,26.7z"/>
	<path class="st6" d="M208.3,6h1.5c5.4,0,11.8,0.8,10.7,7.7c-1.1,7-7.3,8.1-12.9,8.1h-1.8L208.3,6z M205,26.7h3.2
		c8.3,0,16-3.6,17.4-12.8c1.3-8.1-2.2-12.7-15.7-12.7h-6.3l-7,44h5.5L205,26.7z"/>
	<polygon class="st1" points="231.8,40.1 245.1,40.1 244.4,45.1 225.5,45.1 232.5,1.1 238,1.1 	"/>
	<polygon class="st4" points="231.8,40.1 245.1,40.1 244.4,45.1 225.5,45.1 232.5,1.1 238,1.1 	"/>
	<path class="st1" d="M259.7,1.1l-4.1,26c-1.1,7.2,0,13.8,8.4,13.8c8.5,0,11.7-6.7,12.8-13.8l4.1-26h5.5L282,28.9
		c-1.5,9.7-8.7,17.1-18.8,17.1c-10.1,0-14.9-7.4-13.4-17.1l4.4-27.8H259.7z"/>
	<path class="st4" d="M259.7,1.1l-4.1,26c-1.1,7.2,0,13.8,8.4,13.8c8.5,0,11.7-6.7,12.8-13.8l4.1-26h5.5L282,28.9
		c-1.5,9.7-8.7,17.1-18.8,17.1c-10.1,0-14.9-7.4-13.4-17.1l4.4-27.8H259.7z"/>
	<path class="st1" d="M312.2,9.4c-1.2-2.7-3.1-4.1-6.4-4.1c-3.5,0-7.7,2.4-8.3,6.2c-0.5,3.4,2.6,5.3,5.1,6.3l2.9,1.2
		c5.9,2.5,10,5.9,8.8,13.2c-1.3,8-8.4,13.7-16.2,13.7c-7.1,0-11.8-5.3-11.6-12.3l5.7-1.2c-0.8,4.8,2.5,8.3,7.2,8.3
		c4.7,0,8.7-4,9.5-8.6c0.7-4.7-2.7-6.8-6.3-8.3l-2.8-1.3c-4.7-2.2-8.8-5-7.8-11.1c1.1-7.1,8.1-11.4,14.8-11.4
		c4.9,0,8.6,2.4,10.3,6.7L312.2,9.4z"/>
	<g class="st2">
		<defs>
			<rect id="SVGID_5_" y="0" width="319.4" height="85.7"/>
		</defs>
		<clipPath id="SVGID_6_">
			<use xlink:href="#SVGID_5_"  style="overflow:visible;"/>
		</clipPath>
		<path class="st7" d="M312.2,9.4c-1.2-2.7-3.1-4.1-6.4-4.1c-3.5,0-7.7,2.4-8.3,6.2c-0.5,3.4,2.6,5.3,5.1,6.3l2.9,1.2
			c5.9,2.5,10,5.9,8.8,13.2c-1.3,8-8.4,13.7-16.2,13.7c-7.1,0-11.8-5.3-11.6-12.3l5.7-1.2c-0.8,4.8,2.5,8.3,7.2,8.3
			c4.7,0,8.7-4,9.5-8.6c0.7-4.7-2.7-6.8-6.3-8.3l-2.8-1.3c-4.7-2.2-8.8-5-7.8-11.1c1.1-7.1,8.1-11.4,14.8-11.4
			c4.9,0,8.6,2.4,10.3,6.7L312.2,9.4z"/>
	</g>
	<g class="st2">
		<path class="st8" d="M87.3,70c-0.5-0.4-0.9-0.6-1.6-0.6c-1,0-1.6,0.8-1.6,1.8c0,0.6,0.1,1,0.5,1.5l1.4,1.5c1.2,1.3,2,2.2,2,4.1
			c0,1.9-1.2,3.6-3.3,3.6c-0.7,0-1.5-0.2-2-0.7v-1.9c0.6,0.4,1.1,0.7,1.8,0.7c1.1,0,1.6-0.9,1.6-1.9c0-2.8-3.9-3.3-3.9-7
			c0-1.9,1-3.5,3.1-3.5c0.7,0,1.4,0.1,1.9,0.5L87.3,70z"/>
		<path class="st8" d="M92.5,80.3c-1.3,0-1.2-2.5-1.2-3.2c0-0.7-0.2-3.2,1.2-3.2c1.3,0,1.2,2.5,1.2,3.2
			C93.6,77.8,93.8,80.3,92.5,80.3 M92.5,81.8c2.6,0,2.9-2.8,2.9-4.8c0-2-0.3-4.8-2.9-4.8c-2.6,0-2.9,2.8-2.9,4.8
			C89.5,79,89.8,81.8,92.5,81.8"/>
		<path class="st8" d="M97.7,72.4v-3c0-1.6,0.1-3.1,2.1-3.1c0.4,0,0.8,0.1,1.2,0.3v1.8c-0.2-0.1-0.4-0.2-0.7-0.2
			c-0.9,0-0.8,0.9-0.8,1.5v2.8h1.4v1.4h-1.4v7.9h-1.7v-7.9h-0.9v-1.4H97.7z"/>
		<polygon class="st8" points="104.5,69.8 104.5,72.4 105.5,72.4 105.5,73.8 104.5,73.8 104.5,81.7 102.8,81.7 102.8,73.8 
			101.9,73.8 101.9,72.4 102.8,72.4 102.8,69.8 		"/>
		<polygon class="st8" points="108.1,72.4 109.1,78.9 109.1,79.1 109.1,79.1 109.5,76.2 110.2,72.4 111.5,72.4 112.5,78.9 
			112.5,79.1 112.5,79.1 113,75.6 113.6,72.4 115.3,72.4 113.1,81.7 112,81.7 111,76.9 110.8,74.9 110.8,74.9 110.4,78.2 
			109.7,81.7 108.5,81.7 106.3,72.4 		"/>
		<path class="st8" d="M120.4,77c0-0.7,0.1-3.2-1.1-3.2c-1.3,0-1.1,2.5-1.1,3.2c0,0.8-0.1,3.3,1.1,3.3
			C120.5,80.3,120.4,77.8,120.4,77 M120.3,80.5L120.3,80.5c-0.4,0.8-0.8,1.3-1.7,1.3c-2.2,0-2.2-3.4-2.2-4.9c0-1.5,0.1-4.7,2.2-4.7
			c0.8,0,1.3,0.5,1.7,1.2h0v-1h1.7v9.3h-1.7V80.5z"/>
		<path class="st8" d="M126,73.6L126,73.6c0.4-0.8,2,0.4,2,0.4l-0.3,0c-1.3,0-1.7,0.7-1.7,1.9v5.8h-1.7v-9.3h1.7V73.6z"/>
		<path class="st8" d="M135.2,77.4v-0.3c0-1.9-0.3-4.9-2.8-4.9c-2.6,0-2.8,3-2.8,4.9c0,2,0.2,4.7,2.8,4.7c1.9,0,2.7-1.6,2.7-3.3
			h-1.6c0,0.7-0.2,1.7-1.1,1.7c-1.1,0-1.1-2.1-1.1-2.9H135.2z M131.4,76.2c0-0.7-0.1-2.4,1-2.4c1.1,0,1.1,1.6,1.1,2.4H131.4z"/>
		<polygon class="st8" points="139.2,80.2 137.4,85.1 136.5,84.8 137.7,79.8 		"/>
		<path class="st8" d="M149.9,80.5L149.9,80.5c-0.4,0.8-0.8,1.3-1.7,1.3c-2.2,0-2.2-3.4-2.2-4.9c0-1.5,0.1-4.7,2.2-4.7
			c0.9,0,1.3,0.5,1.7,1.2h0v-7h1.7v15.3h-1.7V80.5z M150,77c0-0.7,0.1-3.2-1.1-3.2c-1.3,0-1.1,2.5-1.1,3.2c0,0.8-0.1,3.3,1.1,3.3
			C150,80.3,150,77.8,150,77"/>
		<path class="st8" d="M155.5,81.7h-1.7v-9.3h1.7V81.7z M153.5,69.6c0-0.6,0.5-1.1,1.2-1.1c0.6,0,1.1,0.5,1.1,1.1
			c0,0.6-0.5,1.2-1.1,1.2C154,70.8,153.5,70.2,153.5,69.6"/>
		<path class="st8" d="M161.3,76.2c0-0.7,0-2.4-1-2.4c-1.1,0-1,1.6-1,2.4H161.3z M159.2,77.4c0,0.8,0,2.9,1.1,2.9
			c0.9,0,1.1-1,1.1-1.7h1.6c0,1.7-0.8,3.3-2.7,3.3c-2.6,0-2.8-2.8-2.8-4.7c0-1.9,0.2-4.9,2.8-4.9c2.5,0,2.8,2.9,2.8,4.9v0.3H159.2z"
			/>
		<path class="st8" d="M172.5,80.3c-1.2,0-1.1-2.5-1.1-3.3c0-0.7-0.1-3.2,1.1-3.2c1.3,0,1.1,2.5,1.1,3.2
			C173.6,77.8,173.8,80.3,172.5,80.3 M169.7,81.7h1.7v-1.2h0c0.3,0.8,0.7,1.3,1.7,1.3c2.2,0,2.2-3.4,2.2-4.9c0-1.5-0.1-4.7-2.2-4.7
			c-0.9,0-1.3,0.5-1.7,1.2h0v-7h-1.7V81.7z"/>
		<path class="st8" d="M180.9,76.2c0-0.7,0-2.4-1-2.4c-1.1,0-1,1.6-1,2.4H180.9z M178.8,77.4c0,0.8,0,2.9,1.1,2.9
			c0.9,0,1.1-1,1.1-1.7h1.6c0,1.7-0.8,3.3-2.7,3.3c-2.6,0-2.8-2.8-2.8-4.7c0-1.9,0.2-4.9,2.8-4.9c2.5,0,2.8,2.9,2.8,4.9v0.3H178.8z"
			/>
		<path class="st8" d="M188.2,77.1c0,0.8,0.2,3.2-1.1,3.2S186,77.7,186,77c0-0.7-0.1-3.2,1.1-3.2C188.2,73.8,188.2,76.4,188.2,77.1
			 M190,72.4h-1.7v1.1l0,0c-0.4-0.7-0.8-1.3-1.7-1.3c-2.3,0-2.2,3.4-2.2,4.9c0,1.6,0.1,4.7,2.3,4.7c0.8,0,1.4-0.5,1.7-1.2h0v1.5
			c0,0.8,0.1,2-1,2c-0.9,0-1.1-0.7-1.1-1.4h-1.7V83c0,1.7,1.1,2.7,2.7,2.7c1.8,0,2.8-0.6,2.8-3.9V72.4z"/>
		<path class="st8" d="M195.7,76.2c0-0.7,0-2.4-1-2.4c-1.1,0-1,1.6-1,2.4H195.7z M193.6,77.4c0,0.8,0,2.9,1.1,2.9
			c0.9,0,1.1-1,1.1-1.7h1.6c0,1.7-0.8,3.3-2.7,3.3c-2.6,0-2.8-2.8-2.8-4.7c0-1.9,0.2-4.9,2.8-4.9c2.5,0,2.8,2.9,2.8,4.9v0.3H193.6z"
			/>
		<path class="st8" d="M201.1,81.7h-1.7v-9.3h1.7V81.7z M199.1,69.6c0-0.6,0.5-1.1,1.2-1.1c0.6,0,1.1,0.5,1.1,1.1
			c0,0.6-0.5,1.2-1.1,1.2C199.6,70.8,199.1,70.2,199.1,69.6"/>
		<path class="st8" d="M206.8,74.3c-0.3-0.3-0.9-0.5-1.3-0.5c-0.6,0-1.2,0.4-1.2,1c0,1.6,2.9,1.6,2.9,4.3c0,1.6-1,2.8-2.7,2.8
			c-0.6,0-1-0.1-1.5-0.4v-1.7c0.4,0.3,0.8,0.6,1.4,0.6c0.8,0,1.2-0.5,1.2-1.2c0-1.6-2.9-1.7-2.9-4.3c0-1.5,1-2.5,2.5-2.5
			c0.6,0,1.1,0.1,1.6,0.4V74.3z"/>
		<polygon class="st8" points="211,69.8 211,72.4 211.9,72.4 211.9,73.8 211,73.8 211,81.7 209.3,81.7 209.3,73.8 208.3,73.8 
			208.3,72.4 209.3,72.4 209.3,69.8 		"/>
		<path class="st8" d="M215.1,76.2c0-0.7-0.1-2.4,1-2.4c1,0,1,1.6,1,2.4H215.1z M218.9,77.4v-0.3c0-1.9-0.3-4.9-2.8-4.9
			c-2.6,0-2.8,3-2.8,4.9c0,2,0.2,4.7,2.8,4.7c1.9,0,2.7-1.6,2.7-3.3h-1.6c0,0.7-0.2,1.7-1.1,1.7c-1.1,0-1.1-2.1-1.1-2.9H218.9z"/>
		<path class="st8" d="M222.5,73.6L222.5,73.6c0.4-0.8,1-1.3,2-1.3V74l-0.3,0c-1.3,0-1.7,0.7-1.7,1.9v5.8h-1.8v-9.3h1.7V73.6z"/>
		<polygon class="st8" points="228.3,69.8 228.3,72.4 229.2,72.4 229.2,73.8 228.3,73.8 228.3,81.7 226.6,81.7 226.6,73.8 
			225.6,73.8 225.6,72.4 226.6,72.4 226.6,69.8 		"/>
		<path class="st8" d="M232,81.8c0.6,0,1.1-0.5,1.1-1.1c0-0.6-0.5-1.1-1.1-1.1c-0.6,0-1.1,0.5-1.1,1.1
			C230.9,81.4,231.3,81.8,232,81.8"/>
	</g>
</g>
</svg>
