<?xml version="1.0" encoding="utf-8"?>
<!-- Generator: Adobe Illustrator 20.0.0, SVG Export Plug-In . SVG Version: 6.00 Build 0)  -->
<svg version="1.1" id="Ebene_1" xmlns="http://www.w3.org/2000/svg" xmlns:xlink="http://www.w3.org/1999/xlink" x="0px" y="0px"
	 viewBox="0 0 477.3 309.8" style="enable-background:new 0 0 477.3 309.8;" xml:space="preserve">
<style type="text/css">
	.st0{fill:#FFFFFF;}
	.st1{fill:#D7D7D7;}
	.st2{fill:#999999;}
	.st3{fill:#A5A4A4;}
</style>
<g id="Riesselmann">
	<path class="st0" d="M0.1,198.1c4.5-0.8,11-1.4,18.5-1.4c9.1,0,15.5,1.4,19.9,4.9c3.7,2.9,5.7,7.2,5.7,12.8c0,7.7-5.6,13.1-10.8,15
		v0.3c4.3,1.7,6.7,5.7,8.2,11.3c1.9,7,3.7,15,4.9,17.3H32.3c-0.9-1.7-2.5-6.7-4.2-14.2c-1.7-7.7-4.4-9.7-10.1-9.8h-4.1v24H0.1V198.1
		z M13.9,224.3h5.5c6.9,0,11-3.4,11-8.8c0-5.5-3.8-8.4-10.2-8.4c-3.4,0-5.3,0.2-6.3,0.5V224.3z"/>
	<path class="st0" d="M61.4,208.2c-4.6,0-7.6-3.3-7.6-7.3c0-4.2,3.1-7.3,7.8-7.3c4.7,0,7.7,3.2,7.7,7.3
		C69.3,204.9,66.3,208.2,61.4,208.2L61.4,208.2z M54.6,214h13.8v44.3H54.6V214z"/>
	<path class="st0" d="M90.2,240.5c0.5,5.8,6.1,8.5,12.6,8.5c4.7,0,8.6-0.6,12.3-1.9l1.8,9.3c-4.6,1.9-10.1,2.8-16.1,2.8
		c-15.1,0-23.8-8.7-23.8-22.7c0-11.2,7.1-23.7,22.5-23.7c14.4,0,19.9,11.1,19.9,22.1c0,2.4-0.3,4.4-0.5,5.5L90.2,240.5z M106.5,231
		c0-3.3-1.5-9-7.7-9c-5.9,0-8.3,5.4-8.7,9H106.5z"/>
	<path class="st0" d="M127.6,258.3v-39.1c0-10.3,2.5-16.5,7-20.6c3.9-3.7,9.4-5.7,16.4-5.7c11,0,19.6,6.5,19.6,16.8
		c0,2.7-0.8,5.7-2.1,7.4c-3.6,1.7-5.3,4.1-5.3,6.3c0,2.1,1,3.7,3.2,6c3,3.3,7.1,7.4,7.1,14.2c0,9.2-6.6,15.6-18.3,15.6
		c-3.4,0-7.2-0.5-9.7-1.5l1.7-10.2c1.6,0.8,3.8,1.3,6.3,1.3c3.9,0,6.1-2,6.1-4.6c0-2.3-1.1-3.9-3.3-6.3c-3-3.1-7-7-7-12.9
		c0-4.5,2.6-8.7,7.3-11.2c0.5-1,0.6-2,0.6-3.3c0-4.1-2.6-7.3-7-7.3c-5.1,0-8.7,3.6-8.7,14.6v40.3H127.6z"/>
	<path class="st0" d="M192.9,240.5c0.5,5.8,6.1,8.5,12.6,8.5c4.7,0,8.6-0.6,12.3-1.9l1.8,9.3c-4.6,1.9-10.1,2.8-16.1,2.8
		c-15.1,0-23.8-8.7-23.8-22.7c0-11.2,7.1-23.7,22.5-23.7c14.4,0,19.9,11.1,19.9,22.1c0,2.4-0.3,4.4-0.5,5.5L192.9,240.5z M209.2,231
		c0-3.3-1.5-9-7.7-9c-5.9,0-8.3,5.4-8.6,9H209.2z"/>
	<rect x="230.3" y="193.9" class="st0" width="13.8" height="64.4"/>
	<path class="st0" d="M255.3,228.1c0-5.5-0.2-10.1-0.4-14.1h11.8l0.5,6.1h0.3c1.9-2.9,5.9-7.1,13.5-7.1c5.8,0,10.3,3,12.2,7.6h0.2
		c1.7-2.4,3.6-4.2,5.8-5.4c2.5-1.4,5.2-2.2,8.5-2.2c8.6,0,15,6,15,19.2v26.1h-13.5v-24c0-6.4-2.1-10.2-6.6-10.2
		c-3.3,0-5.5,2.2-6.5,4.8c-0.3,1-0.5,2.4-0.5,3.4v25.9h-13.5v-24.8c0-5.5-2-9.3-6.5-9.3c-3.5,0-5.6,2.7-6.5,4.9
		c-0.5,1.1-0.5,2.4-0.5,3.5v25.8h-13.5V228.1z"/>
	<path class="st0" d="M370.7,247.6c0,4.2,0.2,8.3,0.7,10.7h-12.5l-0.8-4.4h-0.3c-2.9,3.5-7.5,5.4-12.8,5.4c-9,0-14.4-6.5-14.4-13.6
		c0-11.5,10.4-17,26.1-17v-0.5c0-2.4-1.3-5.7-8.1-5.7c-4.6,0-9.4,1.5-12.3,3.3l-2.6-8.8c3.1-1.7,9.2-4,17.3-4
		c14.8,0,19.5,8.7,19.5,19.1V247.6z M357.3,237.4c-7.3,0-12.9,1.7-12.9,7c0,3.5,2.4,5.3,5.5,5.3c3.4,0,6.3-2.3,7.2-5.1
		c0.2-0.7,0.3-1.5,0.3-2.4V237.4z"/>
	<path class="st0" d="M381.7,228.1c0-5.5-0.2-10.1-0.4-14.1h12l0.6,6.2h0.3c1.8-2.9,6.3-7.2,13.8-7.2c9.1,0,15.9,6.1,15.9,19.1v26.2
		h-13.8v-24.6c0-5.7-2-9.6-7-9.6c-3.8,0-6.1,2.6-7.1,5.2c-0.4,0.9-0.5,2.2-0.5,3.4v25.6h-13.8V228.1z"/>
	<path class="st0" d="M435.1,228.1c0-5.5-0.2-10.1-0.4-14.1h12l0.6,6.2h0.3c1.8-2.9,6.3-7.2,13.7-7.2c9.1,0,15.9,6.1,15.9,19.1v26.2
		h-13.8v-24.6c0-5.7-2-9.6-7-9.6c-3.8,0-6.1,2.6-7.1,5.2c-0.4,0.9-0.5,2.2-0.5,3.4v25.6h-13.8V228.1z"/>
</g>
<g id="Logo">
	<path class="st0" d="M170.9,162.2L170.9,162.2c-29.5-0.4-53.8-24.3-54.2-53.4c0.4-29.1,24.7-53,54.2-53.4
		c5.1,0.3,14.3,1.3,22.5,5.1V0h32.6v59.8c6.7-2.7,13.9-4.3,21.6-4.5c0.7,0,1.3,0.1,1.9,0.1l0.8,0.1l0.4,0c0.7,0.1,1.5,0.1,2.2,0.3
		c5.2,0.7,10.3,2.1,15.1,4.1v-4.5h31.8v5.2c6.9-3.1,14.4-4.8,22.4-5.2c14.8,0.4,28.4,6.3,38.6,16.6l1.1,1.1l-23.3,19.6l-0.9-0.7
		c-4.6-3.4-9.9-5.4-15.4-5.7c-10.3,0.3-19.5,7.2-22.4,16.7v57.4h-31.8v-56.1c-0.4-1.9-5.1-7.4-7.1-9.4l0,0l-1-0.9
		c-3.8-3.6-6.8-4-13.2-4.3c-10.7,0.2-16.6,3.8-22.4,13.5v10.7C221.4,141.1,198.4,161.8,170.9,162.2L170.9,162.2z"/>
	<path class="st1" d="M170.9,134L170.9,134c-6.6,0-12.8-2.6-17.4-7.4c-4.7-4.8-7.2-11.2-7-17.9c-0.3-13.5,10.6-24.9,24.4-25.2
		c14.2,0.4,25.5,11.7,25.3,25.3c0.1,6.7-2.4,13-7.1,17.7C184.3,131.4,177.8,134,170.9,134z"/>
	<path class="st2" d="M245.9,134L245.9,134c-6.7,0-12.9-2.6-17.5-7.4c-4.7-4.8-7.1-11.1-6.9-17.9c-0.2-6.3,2.2-12.5,6.7-17.3
		c4.6-4.9,11-7.8,17.7-7.9c14.1,0.4,25.4,11.7,25.3,25.3c0.1,6.7-2.5,13.1-7.2,17.8C259.2,131.4,252.7,134,245.9,134z"/>
	<path class="st3" d="M321.3,134L321.3,134c-6.6-0.1-13-2.9-17.5-7.7c-4.6-4.8-7-11-6.9-17.6c-0.2-6.6,2.3-12.9,6.9-17.7
		c4.7-4.8,10.9-7.5,17.5-7.6c7,0.1,13.5,2.8,18.3,7.7c4.6,4.7,7.1,11,7,17.6c0.1,6.7-2.5,13-7.2,17.7
		C334.6,131.3,328.2,133.9,321.3,134L321.3,134z"/>
</g>
<g id="Claim">
	<path class="st0" d="M184.1,300.7v3.1h-4.3v-27.3h4.3v10.9c1.4-2.1,3.3-3.7,6.4-3.7c4.4,0,8.7,3.7,8.7,10.3v0.1
		c0,6.6-4.3,10.3-8.7,10.3C187.4,304.2,185.4,302.5,184.1,300.7z M194.8,293.9L194.8,293.9c0-3.9-2.5-6.4-5.4-6.4
		c-2.9,0-5.5,2.5-5.5,6.3v0.1c0,3.8,2.6,6.3,5.5,6.3C192.4,300.3,194.8,297.8,194.8,293.9z"/>
	<path class="st0" d="M202.8,294L202.8,294c0-5.7,3.8-10.4,9.2-10.4c6,0,9,4.9,9,10.6c0,0.4,0,0.8-0.1,1.3h-13.8
		c0.5,3.2,2.6,5,5.4,5c2.1,0,3.6-0.8,5.1-2.4l2.5,2.4c-1.8,2.2-4.2,3.7-7.7,3.7C207,304.2,202.8,300.1,202.8,294z M216.7,292.5
		c-0.3-2.9-1.9-5.2-4.8-5.2c-2.6,0-4.5,2.1-4.9,5.2H216.7z"/>
	<path class="st0" d="M224,301.2l1.9-3.1c2,1.6,4.2,2.4,6.1,2.4c1.8,0,2.9-0.8,2.9-2.1v-0.1c0-1.5-2-2.1-4.2-2.8
		c-2.8-0.8-5.9-2-5.9-5.8v-0.1c0-3.7,3-6,6.7-6c2.3,0,4.9,0.9,6.9,2.2l-1.7,3.2c-1.8-1.2-3.7-1.9-5.3-1.9c-1.7,0-2.6,0.8-2.6,2v0.1
		c0,1.4,2,2,4.2,2.8c2.7,0.9,5.8,2.2,5.8,5.8v0.1c0,4.2-3.1,6.2-7,6.2C229.3,304.1,226.4,303.1,224,301.2z"/>
	<path class="st0" d="M242,301.2l1.9-3.1c2,1.6,4.2,2.4,6.1,2.4c1.8,0,2.9-0.8,2.9-2.1v-0.1c0-1.5-2-2.1-4.2-2.8
		c-2.8-0.8-5.9-2-5.9-5.8v-0.1c0-3.7,3-6,6.7-6c2.3,0,4.9,0.9,6.9,2.2l-1.7,3.2c-1.8-1.2-3.7-1.9-5.3-1.9c-1.7,0-2.6,0.8-2.6,2v0.1
		c0,1.4,2,2,4.2,2.8c2.7,0.9,5.8,2.2,5.8,5.8v0.1c0,4.2-3.1,6.2-7,6.2C247.3,304.1,244.3,303.1,242,301.2z"/>
	<path class="st0" d="M260.4,294L260.4,294c0-5.7,3.8-10.4,9.2-10.4c6,0,9,4.9,9,10.6c0,0.4,0,0.8-0.1,1.3h-13.8
		c0.5,3.2,2.6,5,5.4,5c2.1,0,3.6-0.8,5.1-2.4l2.5,2.4c-1.8,2.2-4.2,3.7-7.7,3.7C264.6,304.2,260.4,300.1,260.4,294z M274.3,292.5
		c-0.3-2.9-1.9-5.2-4.8-5.2c-2.6,0-4.5,2.1-4.9,5.2H274.3z"/>
	<path class="st0" d="M283.2,284h4.3v4.5c1.2-3,3.3-5,6.6-4.8v4.8h-0.3c-3.8,0-6.4,2.6-6.4,7.8v7.5h-4.3V284z"/>
	<path class="st0" d="M308.1,307.5l1.6-3.4c2,1.3,4.1,2.1,6.7,2.1c3.8,0,5.9-2.1,5.9-6.1v-1.5c-1.6,2.1-3.5,3.6-6.6,3.6
		c-4.4,0-8.5-3.4-8.5-9.3v-0.1c0-5.8,4.2-9.3,8.5-9.3c3.2,0,5.1,1.5,6.6,3.4v-3h4.3v15.7c0,3.3-0.8,5.8-2.4,7.5
		c-1.7,1.8-4.3,2.7-7.7,2.7C313.4,309.8,310.5,309,308.1,307.5z M322.4,293L322.4,293c0-3.3-2.5-5.5-5.5-5.5c-3,0-5.3,2.2-5.3,5.4
		v0.1c0,3.3,2.4,5.5,5.3,5.5C319.8,298.4,322.4,296.1,322.4,293z"/>
	<path class="st0" d="M331.2,294L331.2,294c0-5.7,3.8-10.4,9.2-10.4c6,0,9,4.9,9,10.6c0,0.4,0,0.8-0.1,1.3h-13.8
		c0.5,3.2,2.6,5,5.4,5c2.1,0,3.6-0.8,5.1-2.4l2.5,2.4c-1.8,2.2-4.2,3.7-7.7,3.7C335.4,304.2,331.2,300.1,331.2,294z M345.1,292.5
		c-0.3-2.9-1.9-5.2-4.8-5.2c-2.6,0-4.5,2.1-4.9,5.2H345.1z"/>
	<path class="st0" d="M353.1,293.9L353.1,293.9c0-6.6,4.2-10.3,8.7-10.3c3.1,0,5,1.6,6.4,3.5v-10.6h4.3v27.3h-4.3v-3.3
		c-1.4,2.1-3.3,3.7-6.4,3.7C357.4,304.2,353.1,300.5,353.1,293.9z M368.2,293.9L368.2,293.9c0-3.9-2.6-6.4-5.4-6.4
		c-2.9,0-5.4,2.4-5.4,6.3v0.1c0,3.8,2.5,6.3,5.4,6.3C365.7,300.3,368.2,297.7,368.2,293.9z"/>
	<path class="st0" d="M378.1,284h4.3v4.5c1.2-3,3.3-5,6.6-4.8v4.8h-0.2c-3.8,0-6.4,2.6-6.4,7.8v7.5h-4.3V284z"/>
	<path class="st0" d="M392.7,296.6V284h4.3v11.2c0,3.1,1.5,4.8,4,4.8c2.5,0,4.2-1.8,4.2-4.9V284h4.3v19.8h-4.3v-3.1
		c-1.2,1.9-2.9,3.5-5.9,3.5C395.2,304.2,392.7,301.2,392.7,296.6z"/>
	<path class="st0" d="M414.2,294L414.2,294c0-5.7,4.1-10.4,9.7-10.4c3.6,0,5.8,1.4,7.5,3.4l-2.7,3c-1.3-1.5-2.7-2.5-4.9-2.5
		c-3.1,0-5.4,2.8-5.4,6.3v0.1c0,3.5,2.3,6.4,5.6,6.4c2,0,3.5-1,4.9-2.5l2.6,2.7c-1.8,2.2-4,3.7-7.7,3.7
		C418.3,304.2,414.2,299.6,414.2,294z"/>
	<path class="st0" d="M435.6,276.4h4.3v16.3l7.8-8.8h5.2l-7.5,8.1l7.7,11.7h-5l-5.6-8.5l-2.6,2.9v5.7h-4.3V276.4z"/>
	<path class="st0" d="M458.1,298.3v-10.4h-2.4V284h2.4v-5.4h4.3v5.4h5v3.9h-5v9.7c0,1.8,0.9,2.5,2.3,2.5c1,0,1.8-0.2,2.7-0.7v3.7
		c-1.1,0.6-2.3,1-3.9,1C460.3,304.1,458.1,302.7,458.1,298.3z"/>
	<path class="st0" d="M472,278.9v-1.3h5v1.3l-1.3,16.6h-2.4L472,278.9z M472.2,298.6h4.7v5.1h-4.7V298.6z"/>
</g>
<rect y="276.5" class="st0" width="173" height="4.1"/>
</svg>
