<?xml version="1.0" encoding="utf-8"?>
<!-- Generator: Adobe Illustrator 20.0.0, SVG Export Plug-In . SVG Version: 6.00 Build 0)  -->
<svg version="1.1" id="Ebene_1" xmlns="http://www.w3.org/2000/svg" xmlns:xlink="http://www.w3.org/1999/xlink" x="0px" y="0px"
	 viewBox="0 0 279 53.9" style="enable-background:new 0 0 279 53.9;" xml:space="preserve">
<style type="text/css">
	.st0{fill:#FFFFFF;}
</style>
<path class="st0" d="M82.4,32.8c0,0.2,0,0.4,0,0.6c0,3.4,2.6,4.5,5.6,4.5c2.1,0,4.8-1,4.8-3.5c0-1.8-1.1-2.6-2.6-3.1
	c-4.5-1.6-12.8-1.9-12.8-8.5c0-6.2,5.6-8.7,11-8.7c5.5,0,9.5,2.6,9.8,8.3h-5.7c0-2.8-1.7-4.3-4.5-4.3c-2.1,0-4.7,1.3-4.7,3.7
	c0,5.5,15.6,2.1,15.6,11.5c0,6.2-5.9,9-11.4,9c-6.4,0-11.2-2.4-11.2-9.4L82.4,32.8L82.4,32.8L82.4,32.8z"/>
<path class="st0" d="M115.5,29.1c0-2.2-1.3-3.7-3.5-3.8c-3.5,0-4.2,4-4.2,6.8c0,2.6,0.6,6.5,3.9,6.5c2.5,0,3.8-1.8,3.8-4.1h5.4
	c-0.6,5.3-3.7,7.7-9,7.7c-6.3,0-9.8-3.7-9.8-9.9c0-6.4,3.2-10.5,9.9-10.5c4.9,0,8.8,2.1,8.9,7.5h-5.5V29.1L115.5,29.1z"/>
<path class="st0" d="M129.4,14.7v10c1.7-2.1,3.6-2.9,6.2-2.9c4.4,0,6.4,2.9,6.4,7.1v12.7h-5.4V30.5c0-2.2-0.5-5-3.3-5
	c-3.4,0-3.9,4.1-3.9,6.7v9.4H124V14.7H129.4L129.4,14.7z"/>
<path class="st0" d="M152,33.9c0,2.5,1.3,4.7,4,4.7c2.4,0,2.8-1.1,3.7-3h5.7c-0.8,4.7-5.3,6.7-9.7,6.7c-6.3,0-9.4-4.5-9.4-10.4
	c0-5.4,4.2-10,9.7-10.1c6.3,0,9.4,4.4,9.4,10.4c0,0.4,0,0.8,0,1.1H152V33.9L152,33.9z M156,25.2c-2.4,0-3.9,2.1-4,4.4h7.8
	C159.4,27.3,158.8,25.2,156,25.2L156,25.2z"/>
<path class="st0" d="M174.7,22.2l0.2,12.8c0,2.2,1.3,3.5,3.5,3.5c2.2,0,3.7-2,3.7-4.1V22.3h5.4c0,0.9,0,1.8,0,2.8
	c0,3.6-0.1,7.2-0.1,10.8c0,1.9,0.2,3.9,0.5,5.8h-5.3l-0.4-2.5c-1.8,2.2-3.5,3-6.3,3c-3.6,0-6.4-2.5-6.4-6.2V22.2H174.7L174.7,22.2z"
	/>
<path class="st0" d="M193.8,22.3V21c0-5.8,2.2-6.5,7.5-6.5c0.6,0,1.2,0,1.8,0l0,3.7c-0.4,0-0.8,0-1.1,0c-2.6,0-2.7,0.8-2.7,3.3v0.9
	h3.6V26h-3.6v15.6h-5.5V26h-3.6v-3.7H193.8L193.8,22.3z"/>
<path class="st0" d="M210.5,33.9c0,2.5,1.3,4.7,4,4.7c2.4,0,2.8-1.1,3.7-3h5.7c-0.8,4.7-5.3,6.7-9.7,6.7c-6.3,0-9.4-4.5-9.4-10.4
	c0-5.4,4.2-10,9.7-10.1c6.3,0,9.4,4.4,9.4,10.4c0,0.4,0,0.8,0,1.1h-13.4V33.9L210.5,33.9z M214.6,25.2c-2.4,0-3.9,2.1-4,4.4h7.8
	C218,27.3,217.3,25.2,214.6,25.2L214.6,25.2z"/>
<polygon class="st0" points="232.9,14.8 232.9,41.6 227.4,41.6 227.4,14.8 232.9,14.8 "/>
<path class="st0" d="M243.3,33.9c0,2.5,1.3,4.7,4,4.7c2.4,0,2.8-1.1,3.7-3h5.7c-0.8,4.7-5.3,6.7-9.7,6.7c-6.3,0-9.4-4.5-9.4-10.4
	c0-5.4,4.2-10,9.7-10.1c6.3,0,9.4,4.4,9.4,10.4c0,0.4,0,0.8,0,1.1h-13.4V33.9L243.3,33.9z M247.3,25.2c-2.4,0-3.9,2.1-4,4.4h7.8
	C250.7,27.3,250.1,25.2,247.3,25.2L247.3,25.2z"/>
<path class="st0" d="M266,24.8c2-2,3.8-3,6.8-3c4.3,0,6.2,2.8,6.2,6.9v12.9h-5.4V28.8c0-1.8-1.4-3.2-3.2-3.2c-2,0-4.1,1.6-4.1,3.7
	v12.3h-5.5l0-2.1c0-4.1,0.1-8.1,0.1-12.2c0-1.7-0.2-3.3-0.4-5h5.4L266,24.8L266,24.8z"/>
<path class="st0" d="M26.9,0C12.1,0,0,12.1,0,26.9c0,14.9,12.1,26.9,26.9,26.9c14.9,0,26.9-12.1,26.9-26.9C53.9,12.1,41.8,0,26.9,0z
	 M36.6,11.9c0,0-1.6,0.5-2.6,0.9c-0.9,0.4-2.1-0.3-2.5-1.3c-0.8-2.1-1-3.2-3-6.3C30.6,5.1,34.2,11.2,36.6,11.9z M20,31.6
	c-1.6,4.5-3,7-5.5,11.2c-3.2-7.9-5.3-13.8-4.1-22.5c0.4-3.2,2-6.3,6.1-6.3c3.6,0,5.5,3.4,5.6,6.2C22.3,24.2,21,28.9,20,31.6z
	 M24.2,52V23.5c0-3.9,0.3-9.4-0.6-22.5c2.2,2.7,3.6,4.7,4.4,9.2c0.7,4.2,0.4,11,0.4,15.6V39c0,5.2,0.1,8.4,0.7,13
	C25.9,52.3,24.2,52,24.2,52z M40.3,48.6c-3.4-3.2-6-7.2-7.7-11.9c-1.2-3.4-2.4-8.1-2.1-12.5c0.2-2.4,2.2-6.3,5.7-6.3
	c4.8,0.1,6.4,4.9,6.4,7.5C42.7,29.5,41.6,39.3,40.3,48.6z"/>
</svg>
