<?xml version="1.0" encoding="utf-8"?>
<!-- Generator: Adobe Illustrator 20.0.0, SVG Export Plug-In . SVG Version: 6.00 Build 0)  -->
<svg version="1.1" id="Ebene_1" xmlns="http://www.w3.org/2000/svg" xmlns:xlink="http://www.w3.org/1999/xlink" x="0px" y="0px"
	 viewBox="0 0 331.2 54.4" style="enable-background:new 0 0 331.2 54.4;" xml:space="preserve">
<style type="text/css">
	.st0{fill:#FFFFFF;}
	.st1{fill-rule:evenodd;clip-rule:evenodd;fill:#FFFFFF;}
	.st2{fill-rule:evenodd;clip-rule:evenodd;fill:#EAEAEA;}
	.st3{fill:#EAEAEA;}
	.st4{fill-rule:evenodd;clip-rule:evenodd;fill:#A9A9A9;}
	.st5{fill:#A9A9A9;}
</style>
<g>
	<path class="st0" d="M0,18.4C0,25.3,5.5,28,11.7,28c5.9,0,11.7-2.2,11.7-9c0-4.9-3.9-6.7-7.8-7.8c-3.9-1.1-7.8-1.5-7.8-3.5
		c0-1.8,1.9-2.3,3.4-2.3c2.1,0,4.4,0.8,4.3,3.2h7c0-6.1-5.4-8.7-10.8-8.7c-5.1,0-11,2.3-11,8.2c0,4.9,4,6.7,7.9,7.8
		c3.9,1.1,7.7,1.5,7.7,3.9c0,2-2.2,2.8-4.3,2.8c-3,0-4.9-1-5.1-4.2H0L0,18.4z"/>
	<path class="st0" d="M45.4,15.1c-0.5-5.2-4.8-7.7-9.6-7.7c-6.3,0-10.3,4.4-10.3,10.7c0,6,4.4,10,10.3,10c5.2,0,9.3-3,9.8-8.3h-6.2
		c-0.3,2.1-1.4,3.4-3.7,3.4c-2.7,0-3.8-2.6-3.8-5.1c0-2.7,0.6-5.8,4.1-5.8c1.6,0,3.1,1.2,3.1,2.8H45.4L45.4,15.1z"/>
	<path class="st0" d="M48.8,27.5h6.4V16.8c0-2.1,1.1-4.2,3.5-4.2c3.5,0,3.2,2.7,3.2,5.4v9.5h6.4V14.9c0-2.8-0.5-7.6-7-7.6
		c-2.3,0-5,1.2-6,3.2h-0.1v-10h-6.4V27.5L48.8,27.5z"/>
	<polygon class="st0" points="72.7,27.5 79.1,27.5 79.1,0.6 72.7,0.6 72.7,27.5 	"/>
	<path class="st1" d="M89.1,15.7c0.4-2.4,1.9-4,4.1-4c2.1,0,3.7,1.8,3.8,4H89.1L89.1,15.7z M103.5,19.3c0.3-6.6-3.2-11.9-10.2-11.9
		c-5.8,0-10.6,4.3-10.6,10.3c0,6.6,4.3,10.4,10.7,10.4c4.4,0,8.6-2,9.7-6.5h-6c-0.6,1.4-2.1,2.1-3.7,2.1c-2.7,0-4.3-1.8-4.4-4.4
		H103.5L103.5,19.3z"/>
	<path class="st0" d="M126.1,7.9h-6.4v10.5c0,3.5-2.1,4.4-3.5,4.4c-2,0-3.2-0.9-3.2-3.5V7.9h-6.4v11.8c0,5.1,1.6,8.4,7.2,8.4
		c2.3,0,4.7-1.2,6-3.2h0.1v2.7h6.2V7.9L126.1,7.9z"/>
	<path class="st0" d="M130.4,27.5h6.4V16.8c0-2.1,1.1-4.2,3.5-4.2c3.5,0,3.2,2.7,3.2,5.4v9.5h6.4V14.9c0-2.8-0.5-7.6-7-7.6
		c-2.3,0-5,1.2-6.1,3.2h-0.1V7.9h-6.2V27.5L130.4,27.5z"/>
	<path class="st0" d="M173.6,7.9h-6.4v10.5c0,3.5-2.1,4.4-3.5,4.4c-2,0-3.2-0.9-3.2-3.5V7.9h-6.4v11.8c0,5.1,1.6,8.4,7.2,8.4
		c2.3,0,4.7-1.2,6-3.2h0.1v2.7h6.2V7.9L173.6,7.9z"/>
	<path class="st0" d="M177.9,27.5h6.4V16.8c0-2.1,1.1-4.2,3.5-4.2c3.5,0,3.2,2.7,3.2,5.4v9.5h6.4V14.9c0-2.8-0.5-7.6-7-7.6
		c-2.3,0-5,1.2-6.1,3.2h-0.1V7.9h-6.2V27.5L177.9,27.5z"/>
	<path class="st1" d="M214.5,17.2c0,2.5-1.2,4.6-3.9,4.6c-2.6,0-3.7-2.3-3.7-4.6c0-2.4,0.9-4.9,3.7-4.9
		C213.5,12.2,214.5,14.7,214.5,17.2L214.5,17.2z M220.6,7.9h-6.1v2.5h-0.1c-1.1-2-2.9-3-5.2-3c-5.5,0-8.6,4.4-8.6,9.6
		c0,5.5,2.7,9.7,8.6,9.7c2.1,0,4-1.1,5.2-2.9h0.1v1.8c0,2.4-0.3,4.6-3.4,4.6c-1,0-1.8-0.1-2.3-0.4c-0.6-0.3-0.9-0.8-1.1-1.7h-6.4
		c0.8,5.2,5,6.3,9.6,6.3c9.2,0,9.8-6,9.8-9.2V7.9L220.6,7.9z"/>
	<path class="st2" d="M234.1,42.7c2.8,0,3.8-2.6,3.8-5.4c0-2.5-0.7-5.5-3.8-5.5c-2.9,0-3.9,3-3.9,5.7
		C230.2,39.9,231.1,42.7,234.1,42.7L234.1,42.7z M244.1,54.4h-6.4v-9.5h-0.1c-1.3,1.8-3.2,2.7-5.6,2.7c-5.5,0-8.3-4.8-8.3-9.9
		c0-5.5,2.6-10.8,8.7-10.8c2.3,0,4.1,1,5.4,2.8h0.1v-2.3h6.1V54.4L244.1,54.4z"/>
	<path class="st3" d="M248.7,27.4h6.4v9.7c0,2.5,1.7,4.6,4.8,4.6c0.9,0,1.6-0.2,2.5-0.4v5.8c-0.5,0.1-1,0.2-1.5,0.2
		c-2.8,0-4.9-1.3-5.9-3.8h-0.1V47h-6.2V27.4L248.7,27.4z"/>
	<path class="st3" d="M283.9,47h-6.4V36.5c0-3.5-2.1-4.4-3.5-4.4c-2,0-3.2,0.9-3.2,3.5V47h-6.4V35.3c0-5.1,1.6-8.4,7.2-8.4
		c2.3,0,4.7,1.2,6,3.2h0.1v-2.7h6.2V47L283.9,47z"/>
	<path class="st3" d="M307.2,39.8c-0.5,5.2-4.8,7.7-9.6,7.7c-6.3,0-10.3-4.4-10.3-10.7c0-6,4.4-10,10.3-10c5.2,0,9.3,3,9.8,8.3h-6.2
		c-0.3-2.1-1.4-3.4-3.7-3.4c-2.7,0-3.8,2.6-3.8,5.1c0,2.7,0.6,5.8,4.1,5.8c1.6,0,3.1-1.2,3.1-2.8H307.2L307.2,39.8z"/>
	<polygon class="st3" points="310.6,27.4 317,27.4 317,33.7 318.6,35.3 323.4,27.4 331.2,27.4 323.1,39.6 330.3,47 322.8,47 
		317,40.5 317,54.4 310.6,54.4 310.6,27.4 	"/>
	<path class="st4" d="M234.1,12.2c2.8,0,3.8,2.6,3.8,5.4c0,2.5-0.7,5.5-3.8,5.5c-2.9,0-3.9-3-3.9-5.7
		C230.2,15,231.1,12.2,234.1,12.2L234.1,12.2z M244.1,0.6h-6.4V10h-0.1c-1.3-1.8-3.2-2.7-5.6-2.7c-5.5,0-8.3,4.8-8.3,9.9
		c0,5.5,2.6,10.8,8.7,10.8c2.3,0,4.1-1,5.4-2.8h0.1v2.3h6.1V0.6L244.1,0.6z"/>
	<path class="st5" d="M248.7,27.5h6.4v-9.7c0-2.4,1.7-4.6,4.8-4.6c0.9,0,1.6,0.2,2.5,0.4V7.7c-0.5-0.1-1-0.2-1.5-0.2
		c-2.8,0-4.9,1.3-5.9,3.8h-0.1V7.9h-6.2V27.5L248.7,27.5z"/>
	<path class="st5" d="M283.9,7.9h-6.4v10.5c0,3.5-2.1,4.4-3.5,4.4c-2,0-3.2-0.9-3.2-3.5V7.9h-6.4v11.8c0,5.1,1.6,8.4,7.2,8.4
		c2.3,0,4.7-1.2,6-3.2h0.1v2.7h6.2V7.9L283.9,7.9z"/>
	<path class="st5" d="M307.2,15.1c-0.5-5.2-4.8-7.7-9.6-7.7c-6.3,0-10.3,4.4-10.3,10.7c0,6,4.4,10,10.3,10c5.2,0,9.3-3,9.8-8.3h-6.2
		c-0.3,2.1-1.4,3.4-3.7,3.4c-2.7,0-3.8-2.6-3.8-5.1c0-2.7,0.6-5.8,4.1-5.8c1.6,0,3.1,1.2,3.1,2.8H307.2L307.2,15.1z"/>
	<polygon class="st5" points="310.6,27.5 317,27.5 317,21.2 318.7,19.6 323.4,27.5 331.2,27.5 323.1,15.3 330.3,7.9 322.8,7.9 
		317,14.4 317,0.6 310.6,0.6 310.6,27.5 	"/>
</g>
</svg>
