<?xml version="1.0" encoding="utf-8"?>
<!-- Generator: Adobe Illustrator 20.0.0, SVG Export Plug-In . SVG Version: 6.00 Build 0)  -->
<svg version="1.1" id="Ebene_1" xmlns="http://www.w3.org/2000/svg" xmlns:xlink="http://www.w3.org/1999/xlink" x="0px" y="0px"
	 viewBox="0 0 221.1 43.4" style="enable-background:new 0 0 221.1 43.4;" xml:space="preserve">
<style type="text/css">
	.st0{fill:#FFFFFF;}
	.st1{fill:none;stroke:#FFFFFF;stroke-width:0.607;}
</style>
<g>
	<path class="st0" d="M19.2,0.4v4.7h-1.4c-0.1-2.2-1.5-3.4-3.6-3.4c-1.9,0-3.1,1-3.1,2.7c0,1.5,0.5,1.9,4,3.5c2.3,1,2.9,1.4,3.6,2
		c0.8,0.8,1.2,1.9,1.2,3.1c0,3-2.1,5-5.3,5c-1.9,0-3.1-0.5-4.3-1.9v1.6H9v-5.2h1.4c0,2.5,1.5,3.9,4.1,3.9c2.2,0,3.4-1.2,3.4-3.1
		c0-1.5-0.7-2.3-2.8-3.2c-2.9-1.2-3.8-1.7-4.6-2.3C9.5,6.8,9,5.8,9,4.5c0-2.7,2-4.5,5-4.5c1.6,0,2.8,0.5,3.7,1.7V0.4H19.2z"/>
	<path class="st0" d="M31.5,4.8v3.3h-1.6V6.2h-2.5v10.1h1.7v1.4h-5.4v-1.4h1.7V6.2H23v1.9h-1.6V4.8H31.5z"/>
	<path class="st0" d="M39.6,4.7l3.9,11.6h1.7v1.4h-5.3v-1.3h1.5l-0.8-2.6h-4.4l-0.9,2.6h1.4v1.3H32v-1.4h1.6l4.1-11.6H39.6z
		 M39.5,10.2c-0.6-2.3-0.8-2.8-1-3.8c-0.2,0.8-0.5,2-1.1,4l-0.7,2.1h3.5L39.5,10.2z"/>
	<path class="st0" d="M51.2,4.8c2.7,0,3.4,0.1,4.3,0.6C56.7,6,57.3,7,57.3,8.3c0,1.8-0.9,2.8-2.9,3.4l2.3,4.6h1.6v1.4h-3.1l-2.6-5.8
		h-2.5v4.4h1.5v1.4h-5.1v-1.4h1.7V6.2h-1.7V4.8H51.2z M51.9,10.5c1.6,0,2-0.1,2.5-0.4c0.6-0.4,0.9-0.9,0.9-1.8
		c0-0.9-0.4-1.5-1.1-1.8c-0.5-0.2-1-0.3-2.5-0.3h-1.6v4.2H51.9z"/>
	<path class="st0" d="M79.2,0.3v4.9h-1.6c-0.1-1-0.3-1.5-0.6-2.1c-0.6-1-1.8-1.6-3.3-1.6c-3.2,0-5.1,2.7-5.1,7.5
		c0,4.6,1.8,7.3,4.8,7.3c1.7,0,3.1-0.9,3.7-2.3c0.3-0.7,0.4-1.3,0.5-2.3h1.7c0,3.9-2.2,6.3-6,6.3c-4.3,0-6.9-3.4-6.9-9
		c0-5.6,2.7-9.1,7-9.1c1.7,0,3.1,0.5,4.2,1.7V0.3H79.2z"/>
	<path class="st0" d="M93,11.3c0,4-2.3,6.7-5.7,6.7c-3.5,0-5.7-2.7-5.7-6.8c0-3.9,2.3-6.6,5.7-6.6C90.7,4.6,93,7.2,93,11.3z
		 M83.6,11.2c0,3.4,1.3,5.3,3.7,5.3c2.3,0,3.7-2,3.7-5.3C90.9,8,89.6,6,87.2,6C85,6,83.6,7.9,83.6,11.2z"/>
	<path class="st0" d="M106.9,11.3c0,4-2.3,6.7-5.7,6.7c-3.5,0-5.7-2.7-5.7-6.8c0-3.9,2.3-6.6,5.7-6.6
		C104.6,4.6,106.9,7.2,106.9,11.3z M97.5,11.2c0,3.4,1.3,5.3,3.7,5.3c2.3,0,3.7-2,3.7-5.3c0-3.3-1.4-5.3-3.7-5.3
		C98.9,6,97.5,7.9,97.5,11.2z"/>
	<path class="st0" d="M112.8,16.3h1.9v1.4h-5.5v-1.4h1.7V6.2h-1.7V4.8h4.9c2.4,0,3.1,0.1,4,0.6c1.1,0.7,1.6,1.7,1.6,3.2
		c0,1.8-0.9,3.1-2.5,3.6c-0.6,0.2-1.4,0.3-2.8,0.3h-1.6V16.3z M114.3,11.1c1.4,0,2-0.1,2.4-0.4c0.6-0.4,0.9-1,0.9-2
		c0-1.2-0.4-1.8-1.2-2.2c-0.4-0.2-0.9-0.2-2.1-0.2h-1.5v4.8H114.3z"/>
	<path class="st0" d="M129.1,8V6.2H125v4h4.7v1.4H125v4.6h4.2v-2.1h1.6v3.5h-9.5v-1.4h1.7V6.2h-1.7V4.8h9.3V8H129.1z"/>
	<path class="st0" d="M137.6,4.8c2.7,0,3.4,0.1,4.3,0.6c1.1,0.6,1.7,1.6,1.7,2.9c0,1.8-0.9,2.8-2.9,3.4l2.3,4.6h1.6v1.4h-3.1
		l-2.6-5.8h-2.5v4.4h1.5v1.4H133v-1.4h1.7V6.2H133V4.8H137.6z M138.2,10.5c1.6,0,2-0.1,2.5-0.4c0.6-0.4,0.9-0.9,0.9-1.8
		c0-0.9-0.4-1.5-1.1-1.8c-0.5-0.2-1-0.3-2.5-0.3h-1.6v4.2H138.2z"/>
	<path class="st0" d="M153.9,4.7l3.9,11.6h1.7v1.4h-5.3v-1.3h1.5l-0.8-2.6h-4.4l-0.9,2.6h1.4v1.3h-4.7v-1.4h1.6L152,4.7H153.9z
		 M153.8,10.2c-0.7-2.3-0.8-2.8-1-3.8c-0.2,0.8-0.5,2-1.1,4l-0.7,2.1h3.5L153.8,10.2z"/>
	<path class="st0" d="M170.6,4.8v3.3H169V6.2h-2.5v10.1h1.7v1.4h-5.4v-1.4h1.7V6.2h-2.5v1.9h-1.6V4.8H170.6z"/>
	<path class="st0" d="M177.3,4.8v1.4h-1.6v10.1h1.7v1.4h-5.3v-1.4h1.6V6.2h-1.6V4.8H177.3z"/>
	<path class="st0" d="M191.1,11.3c0,4-2.3,6.7-5.7,6.7c-3.5,0-5.7-2.7-5.7-6.8c0-3.9,2.3-6.6,5.7-6.6
		C188.8,4.6,191.1,7.2,191.1,11.3z M181.7,11.2c0,3.4,1.3,5.3,3.7,5.3c2.3,0,3.7-2,3.7-5.3c0-3.3-1.4-5.3-3.7-5.3
		C183.1,6,181.7,7.9,181.7,11.2z"/>
	<path class="st0" d="M197.3,4.8l2.3,4.1c0.9,1.6,2.3,4.4,3.3,6.3c-0.1-1.5-0.1-3.3-0.1-5.3V6.2H201V4.8h5v1.4h-1.7v11.5h-1.8
		l-2.7-4.8c-1.1-2.1-1.5-2.7-2.6-5.1c-0.2-0.4-0.4-0.9-0.6-1.3c0.1,1.8,0.1,5.1,0.1,5.7v4.1h1.7v1.4h-5v-1.4h1.7V6.2h-1.7V4.8H197.3
		z"/>
	<path class="st0" d="M216,6.6c0,2.1-1.7,3.8-3.8,3.8c-2.1,0-3.8-1.7-3.8-3.8c0-2.1,1.7-3.8,3.9-3.8C214.3,2.8,216,4.5,216,6.6z
		 M209.1,6.6c0,1.7,1.4,3.1,3.1,3.1c1.7,0,3.1-1.4,3.1-3.1c0-1.7-1.4-3.1-3.1-3.1C210.5,3.4,209.1,4.8,209.1,6.6z M211.7,4.4
		c0.7,0,1,0,1.3,0.1c0.5,0.2,0.8,0.6,0.8,1.1c0,0.6-0.3,1-0.9,1.2l1,1.9h-0.8L212.2,7h-0.7v1.8h-0.7V4.4H211.7z M211.7,6.4
		c0.5,0,0.7,0,0.9-0.1c0.3-0.1,0.5-0.4,0.5-0.7c0-0.3-0.2-0.5-0.4-0.6c-0.2-0.1-0.4-0.1-1-0.1h-0.2v1.4H211.7z"/>
</g>
<g>
	<path class="st0" d="M44.2,34.5l2.2,4.3l2.1-4.3h0.9l-2.7,5l0,3.7H46l0-3.7l-2.7-5H44.2z"/>
	<path class="st0" d="M54.6,40.1c0,1.9-1.1,3.2-2.6,3.2c-1.6,0-2.6-1.3-2.6-3.3c0-1.9,1.1-3.2,2.6-3.2
		C53.5,36.9,54.6,38.2,54.6,40.1z M50.1,40.1c0,1.6,0.8,2.7,1.9,2.7c1.1,0,1.9-1.1,1.9-2.6c0-1.6-0.8-2.6-1.9-2.6
		C50.9,37.5,50.1,38.6,50.1,40.1z"/>
	<path class="st0" d="M56.8,37v3.8c0,0.8,0.1,1.1,0.2,1.4c0.2,0.3,0.6,0.5,1.1,0.5c0.6,0,1-0.3,1.3-0.8c0.2-0.3,0.3-0.7,0.3-1.4V37
		h0.7v4.3c0,1.4,0,1.4,0.1,1.9h-0.7c-0.1-0.3-0.1-0.5-0.1-0.9c-0.4,0.7-0.8,1-1.6,1s-1.5-0.4-1.8-1c-0.2-0.3-0.2-0.6-0.2-1.5V37
		H56.8z"/>
	<path class="st0" d="M63,37c0.1,0.3,0.1,0.6,0.1,0.9c0,0.1,0,0.2,0,0.4c0.4-1.1,0.9-1.5,1.6-1.5c0.3,0,0.5,0.1,0.8,0.2v0.7
		c-0.4-0.2-0.6-0.2-0.8-0.2c-0.5,0-0.9,0.4-1.2,1c-0.2,0.5-0.3,1-0.3,1.9v2.7h-0.7v-4c0-1.4,0-1.5-0.1-2.2H63z"/>
	<path class="st0" d="M71.1,34.5c1.3,0,1.9,0.1,2.4,0.2c0.9,0.3,1.5,1.2,1.5,2.3c0,1-0.4,1.8-1.2,2.2c-0.5,0.2-1.1,0.3-2.5,0.3h-0.7
		v3.7h-0.7v-8.7H71.1z M71.3,38.9c0.9,0,1.2,0,1.6-0.1c0.8-0.2,1.3-0.8,1.3-1.7c0-0.8-0.4-1.4-1-1.7c-0.5-0.2-0.8-0.2-2.1-0.2h-0.5
		v3.7H71.3z"/>
	<path class="st0" d="M76.2,38.6c0.1-1.1,0.9-1.7,2.2-1.7c1,0,1.7,0.4,1.9,1c0.1,0.3,0.1,0.6,0.1,1.3v2.3c0,1.1,0,1.3,0.2,1.7H80
		c-0.1-0.3-0.1-0.5-0.2-0.9c-0.4,0.7-1,1-1.8,1c-1.2,0-1.9-0.7-1.9-1.8c0-1.3,1-2,3.8-2.4v-0.3c0-1-0.4-1.4-1.4-1.4
		c-0.9,0-1.3,0.4-1.5,1.1H76.2z M79.8,39.7c-2.3,0.4-3,0.9-3,1.8c0,0.7,0.5,1.2,1.3,1.2c0.6,0,1.2-0.3,1.5-0.8
		c0.2-0.3,0.3-0.8,0.3-1.5V39.7z"/>
	<path class="st0" d="M83,37c0.1,0.3,0.1,0.6,0.1,0.9c0,0.1,0,0.2,0,0.4c0.4-1.1,0.9-1.5,1.6-1.5c0.3,0,0.5,0.1,0.8,0.2v0.7
		c-0.4-0.2-0.6-0.2-0.8-0.2c-0.5,0-0.9,0.4-1.2,1c-0.2,0.5-0.3,1-0.3,1.9v2.7h-0.7v-4c0-1.4,0-1.5-0.1-2.2H83z"/>
	<path class="st0" d="M89.4,37v0.6h-1.6L87.8,41l0,0.5v0.2c0,0.8,0.2,1.1,0.7,1.1c0.3,0,0.6-0.1,0.9-0.2v0.6c-0.4,0.1-0.6,0.2-1,0.2
		c-0.9,0-1.3-0.4-1.3-1.2c0-0.1,0-0.4,0-0.7l0-0.5l0.1-3.3h-0.9V37h0.9l0-1.8h0.7l0,1.8H89.4z"/>
	<path class="st0" d="M91.3,37c0.1,0.3,0.1,0.5,0.1,0.9c0.4-0.7,1-1.1,1.9-1.1c0.9,0,1.6,0.4,1.8,1c0.1,0.4,0.2,0.5,0.2,1.8v3.5
		h-0.7v-3.6c0-1,0-1.2-0.2-1.5c-0.2-0.4-0.6-0.6-1.1-0.6c-1.1,0-1.8,0.8-1.8,2.2v3.5h-0.7v-4.1c0-1.5,0-1.5-0.1-2.1H91.3z"/>
	<path class="st0" d="M97.6,40.2c0,1.7,0.7,2.6,1.9,2.6c0.7,0,1.1-0.3,1.5-1l0.7,0.1c-0.4,1-1.1,1.5-2.2,1.5c-1.6,0-2.6-1.2-2.6-3.2
		c0-2,1-3.3,2.5-3.3c1.5,0,2.4,1.2,2.4,3.1v0.2H97.6z M101,39.6c-0.1-1.4-0.7-2.2-1.7-2.2c-1,0-1.6,0.8-1.8,2.2H101z"/>
	<path class="st0" d="M103.9,37c0.1,0.3,0.1,0.6,0.1,0.9c0,0.1,0,0.2,0,0.4c0.4-1.1,0.9-1.5,1.6-1.5c0.3,0,0.5,0.1,0.8,0.2v0.7
		c-0.4-0.2-0.6-0.2-0.8-0.2c-0.5,0-0.9,0.4-1.2,1c-0.2,0.5-0.3,1-0.3,1.9v2.7h-0.7v-4c0-1.4,0-1.5-0.1-2.2H103.9z"/>
	<path class="st0" d="M110.8,38.7c-0.1-0.8-0.5-1.2-1.3-1.2c-0.8,0-1.3,0.4-1.3,1c0,0.5,0.3,0.8,1.4,1.1c1,0.3,1.4,0.5,1.7,0.8
		c0.2,0.3,0.4,0.6,0.4,1.1c0,1.1-0.8,1.9-2.2,1.9c-1.4,0-2.2-0.7-2.2-2h0.7c0.1,0.9,0.6,1.4,1.5,1.4c0.9,0,1.4-0.5,1.4-1.2
		c0-0.4-0.1-0.6-0.4-0.8c-0.2-0.1-0.3-0.2-1.4-0.5c-0.7-0.2-1-0.4-1.3-0.7c-0.2-0.3-0.4-0.6-0.4-1c0-1,0.8-1.7,2-1.7
		c1.3,0,2,0.6,2,1.8H110.8z"/>
	<path class="st0" d="M117.3,35c0,0.3-0.2,0.6-0.6,0.6c-0.3,0-0.6-0.2-0.6-0.6c0-0.3,0.3-0.6,0.6-0.6
		C117.1,34.4,117.3,34.7,117.3,35z M117.1,37v6.2h-0.7V37H117.1z"/>
	<path class="st0" d="M119.6,37c0.1,0.3,0.1,0.5,0.1,0.9c0.4-0.7,1-1.1,1.9-1.1c0.9,0,1.6,0.4,1.8,1c0.1,0.4,0.2,0.5,0.2,1.8v3.5
		h-0.7v-3.6c0-1,0-1.2-0.2-1.5c-0.2-0.4-0.6-0.6-1.1-0.6c-1.1,0-1.8,0.8-1.8,2.2v3.5h-0.7v-4.1c0-1.5,0-1.5-0.1-2.1H119.6z"/>
	<path class="st0" d="M133.2,38.4V39h-3.5v3.5h3.9v0.7h-4.6v-8.7h4.5v0.7h-3.8v3.2H133.2z"/>
	<path class="st0" d="M135.4,37l1.6,2.4l1.6-2.4h0.8l-2,2.9l2.2,3.3h-0.8l-1.8-2.7l-1.9,2.7h-0.8l2.2-3.3l-1.9-2.9H135.4z"/>
	<path class="st0" d="M144.2,39c-0.2-1-0.7-1.6-1.5-1.6c-1.1,0-1.9,1.1-1.9,2.6c0,1.6,0.8,2.6,1.9,2.6c0.9,0,1.4-0.6,1.5-1.6h0.7
		c-0.1,1.4-0.9,2.2-2.2,2.2c-1.6,0-2.6-1.3-2.6-3.2c0-2,1-3.3,2.6-3.3c1.3,0,2,0.8,2.2,2.2H144.2z"/>
	<path class="st0" d="M146.9,40.2c0,1.7,0.7,2.6,1.9,2.6c0.7,0,1.1-0.3,1.5-1l0.7,0.1c-0.4,1-1.1,1.5-2.2,1.5
		c-1.6,0-2.6-1.2-2.6-3.2c0-2,1-3.3,2.5-3.3c1.5,0,2.4,1.2,2.4,3.1v0.2H146.9z M150.4,39.6c-0.1-1.4-0.7-2.2-1.7-2.2
		c-1,0-1.6,0.8-1.8,2.2H150.4z"/>
	<path class="st0" d="M153.5,34.5v8.7h-0.7v-8.7H153.5z"/>
	<path class="st0" d="M156.2,34.5v8.7h-0.7v-8.7H156.2z"/>
	<path class="st0" d="M158.5,40.2c0,1.7,0.7,2.6,1.9,2.6c0.7,0,1.1-0.3,1.5-1l0.7,0.1c-0.4,1-1.1,1.5-2.2,1.5
		c-1.6,0-2.6-1.2-2.6-3.2c0-2,1-3.3,2.5-3.3c1.5,0,2.4,1.2,2.4,3.1v0.2H158.5z M162,39.6c-0.1-1.4-0.7-2.2-1.7-2.2
		c-1,0-1.6,0.8-1.8,2.2H162z"/>
	<path class="st0" d="M164.9,37c0.1,0.3,0.1,0.5,0.1,0.9c0.4-0.7,1-1.1,1.9-1.1c0.9,0,1.6,0.4,1.8,1c0.1,0.4,0.2,0.5,0.2,1.8v3.5
		h-0.7v-3.6c0-1,0-1.2-0.2-1.5c-0.2-0.4-0.6-0.6-1.1-0.6c-1.1,0-1.8,0.8-1.8,2.2v3.5h-0.7v-4.1c0-1.5,0-1.5-0.1-2.1H164.9z"/>
	<path class="st0" d="M174.5,39c-0.2-1-0.7-1.6-1.5-1.6c-1.1,0-1.9,1.1-1.9,2.6c0,1.6,0.8,2.6,1.9,2.6c0.9,0,1.4-0.6,1.5-1.6h0.7
		c-0.1,1.4-0.9,2.2-2.2,2.2c-1.6,0-2.6-1.3-2.6-3.2c0-2,1-3.3,2.6-3.3c1.3,0,2,0.8,2.2,2.2H174.5z"/>
	<path class="st0" d="M177.2,40.2c0,1.7,0.7,2.6,1.9,2.6c0.7,0,1.1-0.3,1.5-1l0.7,0.1c-0.4,1-1.1,1.5-2.2,1.5
		c-1.6,0-2.6-1.2-2.6-3.2c0-2,1-3.3,2.5-3.3c1.5,0,2.4,1.2,2.4,3.1v0.2H177.2z M180.7,39.6c-0.1-1.4-0.7-2.2-1.7-2.2
		c-1,0-1.6,0.8-1.8,2.2H180.7z"/>
</g>
<line class="st1" x1="0" y1="26.8" x2="221.1" y2="26.8"/>
</svg>
