<?xml version="1.0" encoding="utf-8"?>
<!-- Generator: Adobe Illustrator 20.0.0, SVG Export Plug-In . SVG Version: 6.00 Build 0)  -->
<svg version="1.1" id="Layer_1" xmlns="http://www.w3.org/2000/svg" xmlns:xlink="http://www.w3.org/1999/xlink" x="0px" y="0px"
	 viewBox="0 0 170.7 32" style="enable-background:new 0 0 170.7 32;" xml:space="preserve">
<style type="text/css">
	.st0{fill:#FFFFFF;}
</style>
<g>
	<g>
		<path class="st0" d="M59.6,13.4h-5.8c-2.5,0-3.1-1-3.1-3.5V8c0-2.2,0.5-3.5,3.4-3.5H60c1.6,0,2.5,0.4,2.5,1.6v0.5H68
			C68,1.6,67,0,59.3,0H53c-4.9,0-7.7,1.2-7.7,6.4v5.2c0,5.1,2.9,6.4,7.7,6.4h8.7c5.4,0,6.5-2.3,6.5-5.3V11h-5.4
			C62.8,13.2,62.1,13.4,59.6,13.4z"/>
		<polygon class="st0" points="87.7,6.5 76.3,6.5 76.3,0.2 70.9,0.2 70.9,17.8 76.3,17.8 76.3,11.1 87.7,11.1 87.7,17.8 93.1,17.8 
			93.1,0.2 87.7,0.2 		"/>
		<polygon class="st0" points="118.7,0.2 111.4,0.2 104.6,6.6 102.1,6.6 102.1,0.2 96.7,0.2 96.7,17.8 102.1,17.8 102.1,11 
			104.5,11 112.2,17.8 119.9,17.8 109.2,8.8 		"/>
		<polygon class="st0" points="28.3,10.7 41.4,10.7 41.4,7.1 28.3,7.1 28.3,4.3 42.1,4.3 42.1,0.2 22.9,0.2 22.9,17.8 42.4,17.8 
			42.4,13.5 28.3,13.5 		"/>
		<polygon class="st0" points="0,4.6 7.6,4.6 7.6,17.8 13,17.8 13,4.6 20.5,4.6 20.5,0.2 0,0.2 		"/>
		<path class="st0" d="M135.7,0H127c-4.9,0-7.7,1.2-7.7,6.4v5.2c0,5.1,2.9,6.4,7.7,6.4h8.6c4.9,0,7.7-1.2,7.7-6.4V6.4
			C143.4,1.2,140.5,0,135.7,0z M137.9,9.9c0,2.5-0.5,3.5-3.1,3.5h-6.9c-2.5,0-3.1-1-3.1-3.5V8c0-2.2,0.5-3.5,3.4-3.5h6.3
			c2.8,0,3.4,1.3,3.4,3.5V9.9z"/>
		<polygon class="st0" points="164.7,13 164.6,13 154.5,0.2 146.2,0.2 146.2,17.8 151.6,17.8 151.6,5 151.6,5 161.7,17.8 
			170.1,17.8 170.1,0.2 164.7,0.2 		"/>
	</g>
	<path class="st0" d="M114.9,29.6h1v-5.6h-1V29.6z M109.4,24.8L109.4,24.8c-0.3-0.5-0.8-1-1.8-1c-1.3,0-2.5,1.1-2.5,3
		c0,1.6,1,2.7,2.4,2.7c0.9,0,1.5-0.4,1.8-0.9h0v0.6c0,1.4-0.8,2-1.8,2c-0.7,0-1.3-0.2-1.6-0.5l-0.3,0.8c0.5,0.3,1.2,0.5,1.9,0.5
		c0.7,0,1.5-0.2,2-0.7c0.5-0.5,0.8-1.3,0.8-2.6v-3.3c0-0.7,0-1.1,0-1.5h-0.9L109.4,24.8z M109.3,27.2c0,0.2,0,0.4-0.1,0.5
		c-0.2,0.6-0.8,1-1.4,1c-1.1,0-1.7-0.9-1.7-2c0-1.3,0.7-2.1,1.7-2.1c0.8,0,1.2,0.5,1.4,1.1c0,0.1,0.1,0.3,0.1,0.5V27.2z M102.5,29.6
		h1v-8.2h-1V29.6z M88.4,25.1L88.4,25.1l-0.1-1.1h-0.9c0,0.5,0,1.1,0,1.7v3.9h1v-3c0-0.2,0-0.3,0-0.5c0.1-0.8,0.6-1.3,1.4-1.3
		c0.1,0,0.2,0,0.3,0v-1c-0.1,0-0.2,0-0.3,0C89.3,23.8,88.7,24.3,88.4,25.1z M82.4,25.9h3v-0.8h-3v-2.5h3.2v-0.8h-4.2v7.8h4.4v-0.8
		h-3.4V25.9z M92.8,21.7c-0.5,0.5-0.6,1.2-0.6,2v0.3h-0.8v0.8h0.8v4.8h1v-4.8h1.4v-0.8h-1.4v-0.3c0-0.9,0.2-1.6,1.1-1.6
		c0.3,0,0.5,0.1,0.6,0.1l0.1-0.8c-0.2-0.1-0.5-0.2-0.9-0.2C93.7,21.2,93.2,21.3,92.8,21.7z M115.4,21.7c-0.4,0-0.6,0.3-0.6,0.6
		c0,0.3,0.2,0.6,0.6,0.6c0.4,0,0.6-0.3,0.6-0.6C116.1,22,115.8,21.7,115.4,21.7z M98.1,23.8c-1.5,0-2.8,1.1-2.8,3
		c0,1.8,1.2,2.9,2.7,2.9c1.3,0,2.8-0.9,2.8-3C100.8,25,99.7,23.8,98.1,23.8z M98.1,28.9c-1,0-1.7-0.9-1.7-2.2c0-1.1,0.5-2.2,1.7-2.2
		c1.2,0,1.7,1.2,1.7,2.1C99.8,28,99.1,28.9,98.1,28.9z M166.1,26.1c0-1.1-0.4-2.3-2.1-2.3c-0.7,0-1.4,0.2-1.9,0.5l0.2,0.7
		c0.4-0.3,0.9-0.4,1.5-0.4c1.1,0,1.3,0.8,1.3,1.3V26c-2.2,0-3.4,0.7-3.4,2.1c0,0.8,0.6,1.6,1.7,1.6c0.8,0,1.4-0.4,1.7-0.8h0l0.1,0.7
		h0.9c-0.1-0.4-0.1-0.9-0.1-1.3V26.1z M165.1,27.7c0,0.1,0,0.2,0,0.3c-0.2,0.5-0.6,0.9-1.4,0.9c-0.5,0-1-0.3-1-1
		c0-1.1,1.3-1.3,2.4-1.3V27.7z M158.2,23.8c-0.9,0-1.6,0.4-1.9,1h0v-3.5h-1v6.8c0,0.5,0,1.1,0,1.4h0.9l0.1-0.9h0
		c0.4,0.7,1.1,1,1.9,1c1.3,0,2.5-1,2.5-3C160.6,25,159.6,23.8,158.2,23.8z M157.8,28.9c-0.7,0-1.3-0.5-1.5-1.2c0-0.1,0-0.2,0-0.4v-1
		c0-0.2,0-0.3,0.1-0.4c0.2-0.8,0.9-1.2,1.5-1.2c1.1,0,1.7,1,1.7,2.1C159.5,28,158.9,28.9,157.8,28.9z M170.4,23.8
		c-0.7,0-1.3,0.5-1.6,1.2h0l0-1.1h-0.9c0,0.5,0,1.1,0,1.7v3.9h1v-3c0-0.2,0-0.3,0-0.5c0.1-0.8,0.6-1.3,1.4-1.3c0.1,0,0.2,0,0.3,0v-1
		C170.6,23.8,170.5,23.8,170.4,23.8z M152.2,26.3c-0.7-0.3-1.1-0.5-1.1-1c0-0.4,0.3-0.8,0.9-0.8c0.5,0,0.9,0.2,1.1,0.3l0.2-0.7
		c-0.3-0.2-0.8-0.3-1.4-0.3c-1.2,0-1.9,0.7-1.9,1.6c0,0.7,0.5,1.2,1.5,1.6c0.7,0.3,1,0.5,1,1c0,0.5-0.3,0.8-1.1,0.8
		c-0.5,0-1-0.2-1.4-0.4l-0.2,0.8c0.4,0.2,1,0.4,1.6,0.4c1.3,0,2.1-0.7,2.1-1.7C153.6,27.2,153.1,26.7,152.2,26.3z M141.5,23.8
		c-1.6,0-2.6,1.3-2.6,3c0,1.7,1,2.8,2.8,2.8c0.9,0,1.5-0.2,1.9-0.4l-0.2-0.7c-0.4,0.2-0.8,0.3-1.6,0.3c-1,0-1.9-0.6-1.9-1.9h3.9
		c0-0.1,0-0.3,0-0.5C143.9,25.4,143.4,23.8,141.5,23.8z M139.9,26.2c0.1-0.7,0.5-1.6,1.6-1.6c1.1,0,1.4,1,1.4,1.6H139.9z
		 M123.9,22.6l-1,0.3v1H122v0.8h0.9v3.1c0,0.7,0.1,1.2,0.4,1.5c0.2,0.3,0.6,0.4,1.1,0.4c0.4,0,0.7-0.1,0.9-0.1l0-0.8
		c-0.2,0-0.3,0.1-0.6,0.1c-0.6,0-0.8-0.4-0.8-1.1v-3h1.5v-0.8h-1.5V22.6z M135.6,23.8c-0.5,0-0.9,0.1-1.2,0.4
		c-0.2,0.2-0.5,0.4-0.6,0.7h0c-0.2-0.7-0.8-1.1-1.6-1.1c-0.9,0-1.5,0.5-1.8,1h0l0-0.9h-0.9c0,0.5,0,0.9,0,1.5v4.1h1v-3.4
		c0-0.2,0-0.4,0.1-0.5c0.2-0.5,0.6-1,1.3-1c0.8,0,1.2,0.6,1.2,1.5v3.4h1v-3.5c0-0.2,0-0.4,0.1-0.5c0.2-0.5,0.6-0.9,1.2-0.9
		c0.8,0,1.2,0.6,1.2,1.7v3.2h1v-3.3C137.5,24.3,136.4,23.8,135.6,23.8z M147.3,26.3c-0.7-0.3-1.1-0.5-1.1-1c0-0.4,0.3-0.8,0.9-0.8
		c0.5,0,0.9,0.2,1.1,0.3l0.2-0.7c-0.3-0.2-0.8-0.3-1.4-0.3c-1.2,0-1.9,0.7-1.9,1.6c0,0.7,0.5,1.2,1.5,1.6c0.7,0.3,1,0.5,1,1
		c0,0.5-0.3,0.8-1.1,0.8c-0.5,0-1-0.2-1.4-0.4l-0.2,0.8c0.4,0.2,1,0.4,1.6,0.4c1.3,0,2.1-0.7,2.1-1.7
		C148.7,27.2,148.2,26.7,147.3,26.3z M119.7,26.3c-0.7-0.3-1.1-0.5-1.1-1c0-0.4,0.3-0.8,0.9-0.8c0.5,0,0.9,0.2,1.1,0.3l0.2-0.7
		c-0.3-0.2-0.8-0.3-1.4-0.3c-1.2,0-1.9,0.7-1.9,1.6c0,0.7,0.5,1.2,1.5,1.6c0.7,0.3,1,0.5,1,1c0,0.5-0.3,0.8-1.1,0.8
		c-0.5,0-1-0.2-1.4-0.4l-0.2,0.8c0.4,0.2,1,0.4,1.6,0.4c1.3,0,2.1-0.7,2.1-1.7C121.1,27.2,120.6,26.7,119.7,26.3z"/>
</g>
</svg>
