<?xml version="1.0" encoding="utf-8"?>
<!-- Generator: Adobe Illustrator 20.0.0, SVG Export Plug-In . SVG Version: 6.00 Build 0)  -->
<svg version="1.1" id="_x5B_0_x5D__Base_-_K_x3D_100_x25_"
	 xmlns="http://www.w3.org/2000/svg" xmlns:xlink="http://www.w3.org/1999/xlink" x="0px" y="0px" viewBox="0 0 445.6 210.5"
	 style="enable-background:new 0 0 445.6 210.5;" xml:space="preserve">
<style type="text/css">
	.st0{opacity:0.3;fill:#FFFFFF;enable-background:new    ;}
	.st1{fill:#FFFFFF;}
</style>
<g>
	<path class="st0" d="M315.1,31.7c-8.5,0.3-14.7,33.3-15.3,40c-0.8,8.1-2.6,30.8,4.9,44.5c10.2-15.7,15.7-38.3,18.1-58.2l0.8-9.6
		C324.3,43.6,321.5,32.2,315.1,31.7L315.1,31.7z M326.4,0c6.9-0.2,15.6,9.9,19.2,20.4c2.2,12.2,1.2,21.1,1.2,21.1
		c0,15.1-16.5,53.6-21.4,62.3c-3.1,5.6-12.2,22.5-12.2,23.6c0,5,18.5,12.9,22.1,14.3l-4.7,11.6c-9.3-4-24.2-16.2-24.7-15.7
		c-6.2,5.5-47.8,74-88.6,72.9c-18.8-0.5-26.4-4.8-26.8-18.4v-7.2l2.4-16.2c0,0,0.2-0.1-0.3-0.1c-3.5,0-45.7,41.5-71.2,41.8
		c-16.8,0.2-23.4-5.1-23.6-15.2c-0.6-29.5,40.1-110.9,41.7-127.3c0.2-2-0.2-2.8-1.2-3.1l-32,9.8c0.1,0-0.8-2.8-0.8-3.2
		c0.2-3.3,43.8-27.6,58.6-36.3c12.8-7.5,27.7-14.9,41.2-26.5h2.4c-7.4,25.7-66.1,159.5-48.8,163c13.5,2.8,32.5-11.2,42.5-34.6
		c8.9-20.6,13.9-42.6,21.3-63.8c3-8.7,6.3-17.6,9.3-26.5l49.6-11.8c-6.5,20.3-12.6,40.8-19.7,60.7c-17.9,50.6-25.9,72.7-24.4,77.2
		c1.5,4.4,5,4.8,10.3,3.7c12.5-2.6,35.2-30.1,39.3-36.1c2.9-4.1,9.5-12.9,9.1-13.6c-4.2-7-7.3-23.5-7.8-34.8c0,0-1.2-12.9-0.3-23.4
		c1.2-13.6,9-57.5,32.2-67.4C322,0.3,324.2,0.1,326.4,0L326.4,0z"/>
	<path class="st1" d="M58.5,102.9h-6l-7.7,30.2c-0.6,2.4-1.1,4.7-1.5,7.2h-0.1c-0.5-2.7-1.1-5.5-1.8-7.8l-8.5-29.6H26l-8.2,29.3
		c-0.7,2.6-1.3,5.4-1.8,8.2h-0.1c-0.5-2.9-1-5.6-1.8-8.6l-7.5-29H0.1l11.8,44.6h7.2l8.3-30c0.7-2.6,1.3-5.1,1.6-7.6h0.1
		c0.4,2.5,0.9,5.1,1.6,7.7l8.5,29.9h7.4L58.5,102.9L58.5,102.9z"/>
	<polygon class="st1" points="107.3,147.4 107.3,142.3 90.5,142.3 90.5,126.9 106.5,126.9 106.5,122 90.5,122 90.5,107.9 
		107.3,107.9 107.3,102.9 84.5,102.9 84.5,147.4 	"/>
	<path class="st1" d="M159.8,134.2c0-13.9-20.1-10.4-20.1-20c0-4.2,3.2-6.9,9.2-6.9c2.6,0,5.5,0.5,8,1.2l0.3-5.4
		c-2.6-0.5-5.3-0.8-8-0.8c-10,0-15.8,5.3-15.8,12.6c0,14.2,20,10.2,20,20.2c0,5.5-4.4,7.6-9.8,7.6c-3.1,0-6.6-0.7-9.2-1.6l-0.3,5.8
		c2.6,0.7,5.7,1.1,9,1.1C153.5,147.9,159.8,142.2,159.8,134.2L159.8,134.2z"/>
	<polygon class="st1" points="212.1,108 212.1,102.9 180.4,102.9 180.4,108 193.2,108 193.2,147.4 199.2,147.4 199.2,108 	"/>
	<polygon class="st1" points="258.4,147.4 258.4,142.2 242.4,142.2 242.4,102.9 236.4,102.9 236.4,147.4 	"/>
	<path class="st1" d="M317.3,147.4L301,102.9h-6.7l-16.2,44.5h6.2L288,137h18.9l3.7,10.4H317.3L317.3,147.4z M305.2,132.1h-15.7
		l5.7-15.8c0.9-2.2,1.5-4.5,2-6.7h0.1c0.5,2.3,1.1,4.4,2,6.7L305.2,132.1L305.2,132.1z"/>
	<path class="st1" d="M377.1,147.4v-44.5h-5.9v12.7c0,7.4,0.2,18.3,0.5,23.8c-1.6-3.2-3.5-6.5-5.5-9.8l-16.5-26.7h-8v44.5h5.9v-14.3
		c0-7-0.2-17.7-0.5-22.5c1.4,3,3,6,5.1,9.2l16.9,27.5h8V147.4z"/>
	<path class="st1" d="M443.8,124.6c0-15.3-8.5-21.9-22.7-21.9c-4.9,0-9.9,0.2-13.3,0.3v44.4c3.3,0,6.8,0.3,11.3,0.3
		C433.6,147.6,443.8,139.8,443.8,124.6L443.8,124.6z M437.4,125c0,12.1-7.3,17.5-17.7,17.5c-1.8,0-4.2-0.1-5.9-0.4v-34.3
		c1.6-0.1,4.3-0.2,6.7-0.2C432,107.6,437.4,113.7,437.4,125L437.4,125z"/>
	<g>
		<path class="st1" d="M0,173.4v-4.6v-0.7h445.6v5.3H0L0,173.4z M1.4,172.1h442.9v-2.5H1.4V172.1L1.4,172.1z"/>
	</g>
</g>
</svg>
