<?xml version="1.0" encoding="utf-8"?>
<!-- Generator: Adobe Illustrator 20.0.0, SVG Export Plug-In . SVG Version: 6.00 Build 0)  -->
<svg version="1.1" id="Ebene_1" xmlns="http://www.w3.org/2000/svg" xmlns:xlink="http://www.w3.org/1999/xlink" x="0px" y="0px"
	 viewBox="0 0 144.6 79.4" style="enable-background:new 0 0 144.6 79.4;" xml:space="preserve">
<style type="text/css">
	.st0{opacity:0.5;clip-path:url(#SVGID_2_);fill-rule:evenodd;clip-rule:evenodd;fill:#FFFFFF;}
	.st1{fill:#FFFFFF;}
	.st2{clip-path:url(#SVGID_4_);fill:#FFFFFF;}
	.st3{clip-path:url(#SVGID_4_);fill-rule:evenodd;clip-rule:evenodd;fill:#FFFFFF;}
</style>
<g>
	<defs>
		<rect id="SVGID_1_" y="0" width="144.6" height="79.4"/>
	</defs>
	<clipPath id="SVGID_2_">
		<use xlink:href="#SVGID_1_"  style="overflow:visible;"/>
	</clipPath>
	<path class="st0" d="M102.6,9.9c1.9-0.1,4.4,2.8,5.4,5.8c0.6,3.5,0.3,6,0.3,6c0,4.3-4.7,15.2-6.1,17.7c-0.9,1.6-3.4,6.4-3.4,6.7
		c0,1.4,5.2,3.6,6.3,4l-1.3,3.3c-2.6-1.1-6.9-4.6-7-4.5c-1.8,1.6-13.6,21-25.1,20.7c-5.3-0.1-7.5-1.4-7.6-5.2v-2.1l0.6-4.6
		c0,0,0.1,0-0.1,0c-1,0-13,11.8-20.2,11.8c-4.7,0.1-6.6-1.4-6.7-4.3c-0.2-8.4,11.4-31.4,11.8-36.1c0.1-0.6,0-0.8-0.3-0.9L40.2,31
		c0,0-0.2-0.8-0.2-0.9c0.1-0.9,12.4-7.8,16.6-10.3c3.6-2.1,7.9-4.2,11.7-7.5h0.7c-2.1,7.3-18.7,45.2-13.8,46.2
		c3.8,0.8,9.2-3.2,12.1-9.8c2.5-5.9,3.9-12.1,6-18.1c0.9-2.5,1.8-5,2.6-7.5l14.1-3.4c-1.8,5.7-3.6,11.6-5.6,17.2
		c-5.1,14.4-7.3,20.6-6.9,21.9c0.4,1.2,1.4,1.4,2.9,1c3.5-0.7,10-8.5,11.1-10.2c0.8-1.2,2.7-3.7,2.6-3.9c-1.2-2-2.1-6.6-2.2-9.9
		c0,0-0.3-3.6-0.1-6.6c0.3-3.8,2.5-16.3,9.1-19.1C101.4,9.9,102,9.9,102.6,9.9 M99.4,18.8c-2.4,0.1-4.2,9.4-4.3,11.3
		c-0.2,2.3-0.7,8.7,1.4,12.6c2.9-4.5,4.5-10.8,5.1-16.5l0.2-2.7C102,22.2,101.2,19,99.4,18.8"/>
</g>
<g>
	<path class="st1" d="M52.5,55.6l-1.2,4.7h-0.8l-0.9-3.2c-0.1-0.2-0.1-0.5-0.2-0.8h0c0,0.3-0.1,0.5-0.2,0.8l-0.9,3.2h-0.8l-1.2-4.7
		H47l0.8,3.1c0.1,0.3,0.1,0.6,0.2,0.9h0c0.1-0.3,0.1-0.6,0.2-0.9l0.9-3.1h0.7l0.9,3.1c0.1,0.3,0.1,0.5,0.2,0.8h0
		c0.1-0.3,0.1-0.6,0.2-0.8l0.8-3.2H52.5z"/>
	<path class="st1" d="M55.7,58.2c0,0.1,0,0.2,0,0.3h-2.3c0,0.9,0.3,1.3,1.1,1.3c0.4,0,0.7-0.1,1-0.2l0.1,0.5
		c-0.3,0.1-0.7,0.2-1.2,0.2c-1.1,0-1.6-0.6-1.6-1.8c0-0.5,0.1-1,0.4-1.3c0.3-0.3,0.7-0.5,1.1-0.5c0.5,0,0.8,0.1,1.1,0.4
		C55.6,57.5,55.7,57.8,55.7,58.2z M55.1,58.1c0-0.3-0.1-0.5-0.2-0.6s-0.3-0.2-0.6-0.2c-0.2,0-0.4,0.1-0.6,0.2
		c-0.2,0.2-0.2,0.4-0.3,0.6H55.1z"/>
	<path class="st1" d="M58.7,59.3c0,0.3-0.1,0.6-0.4,0.8c-0.3,0.2-0.6,0.3-1.1,0.3c-0.3,0-0.5,0-0.7-0.1l0-0.6
		c0.2,0.1,0.5,0.1,0.8,0.1c0.2,0,0.4,0,0.6-0.1c0.1-0.1,0.2-0.2,0.2-0.4c0-0.2-0.1-0.4-0.4-0.5c-0.3-0.1-0.5-0.2-0.8-0.3
		c-0.3-0.2-0.4-0.4-0.4-0.8c0-0.3,0.1-0.6,0.4-0.7c0.2-0.2,0.6-0.3,1-0.3c0.2,0,0.4,0,0.7,0.1l0,0.5c-0.2-0.1-0.5-0.1-0.7-0.1
		c-0.5,0-0.7,0.2-0.7,0.5c0,0.2,0.1,0.4,0.4,0.5c0.3,0.1,0.5,0.2,0.8,0.3C58.5,58.7,58.7,58.9,58.7,59.3z"/>
	<path class="st1" d="M61.4,60.3c-0.2,0-0.4,0.1-0.7,0.1c-0.3,0-0.6-0.1-0.7-0.2s-0.2-0.4-0.2-0.8v-2h-0.7v-0.5h0.7v-1.1l0.6-0.2
		v1.3h1v0.5h-1v1.8c0,0.3,0,0.5,0.1,0.6c0.1,0.1,0.2,0.1,0.4,0.1c0.1,0,0.3,0,0.5-0.1V60.3z"/>
	<path class="st1" d="M62.9,60.3h-0.6v-5.1h0.6V60.3z"/>
	<path class="st1" d="M66.5,60.3h-0.6c0-0.3,0-0.6,0-0.7h0c-0.1,0.2-0.2,0.4-0.4,0.5c-0.2,0.1-0.5,0.2-0.7,0.2
		c-0.3,0-0.5-0.1-0.7-0.2c-0.2-0.2-0.3-0.4-0.3-0.6c0-0.4,0.2-0.7,0.6-0.9c0.4-0.2,0.9-0.3,1.5-0.3V58c0-0.3-0.1-0.4-0.2-0.6
		c-0.1-0.1-0.3-0.2-0.6-0.2c-0.4,0-0.7,0.1-1.1,0.3L64,57c0.4-0.2,0.8-0.3,1.2-0.3c0.5,0,0.8,0.1,1,0.3c0.2,0.2,0.3,0.5,0.3,0.8v1.4
		C66.5,59.6,66.5,59.9,66.5,60.3z M65.9,58.8L65.9,58.8c-1-0.1-1.5,0.2-1.5,0.6c0,0.1,0,0.3,0.1,0.3c0.1,0.1,0.2,0.1,0.4,0.1
		c0.3,0,0.5-0.1,0.7-0.4C65.8,59.3,65.9,59.1,65.9,58.8z"/>
	<path class="st1" d="M70.5,60.3h-0.6v-2.3c0-0.5-0.2-0.8-0.6-0.8c-0.3,0-0.5,0.1-0.7,0.4c-0.2,0.3-0.3,0.6-0.3,1v1.7h-0.6v-3.5h0.6
		c0,0.3,0,0.5-0.1,0.7l0,0c0.2-0.5,0.6-0.8,1.2-0.8c0.7,0,1,0.4,1,1.1V60.3z"/>
	<path class="st1" d="M74.4,60.3h-0.6c0-0.3,0-0.5,0.1-0.7l0,0c-0.1,0.2-0.2,0.4-0.5,0.6c-0.2,0.1-0.4,0.2-0.7,0.2
		c-0.4,0-0.7-0.1-1-0.4c-0.2-0.3-0.3-0.7-0.3-1.2c0-0.6,0.2-1.1,0.5-1.4s0.8-0.5,1.3-0.5c0.2,0,0.4,0,0.6,0v-1.6h0.6V60.3z
		 M73.8,58.5v-1.2c-0.2-0.1-0.4-0.1-0.6-0.1c-0.7,0-1.1,0.5-1.1,1.4c0,0.8,0.3,1.2,0.8,1.2c0.3,0,0.5-0.1,0.7-0.4
		C73.7,59.2,73.8,58.9,73.8,58.5z"/>
	<path class="st1" d="M82.7,55.6l-1.2,4.7h-0.8l-0.9-3.2c-0.1-0.2-0.1-0.5-0.2-0.8h0c0,0.3-0.1,0.5-0.2,0.8l-0.9,3.2h-0.8l-1.2-4.7
		h0.7l0.8,3.1c0.1,0.3,0.1,0.6,0.2,0.9h0c0.1-0.3,0.1-0.6,0.2-0.9l0.9-3.1H80l0.9,3.1c0.1,0.3,0.1,0.5,0.2,0.8h0
		c0.1-0.3,0.1-0.6,0.2-0.8l0.8-3.2H82.7z"/>
	<path class="st1" d="M85.6,60.3H85c0-0.3,0-0.6,0-0.7h0c-0.1,0.2-0.2,0.4-0.4,0.5s-0.5,0.2-0.7,0.2c-0.3,0-0.5-0.1-0.7-0.2
		c-0.2-0.2-0.3-0.4-0.3-0.6c0-0.4,0.2-0.7,0.6-0.9s0.9-0.3,1.5-0.3V58c0-0.3-0.1-0.4-0.2-0.6c-0.1-0.1-0.3-0.2-0.6-0.2
		c-0.4,0-0.7,0.1-1,0.3L83.1,57c0.4-0.2,0.8-0.3,1.2-0.3c0.5,0,0.8,0.1,1,0.3c0.2,0.2,0.3,0.5,0.3,0.8v1.4
		C85.6,59.6,85.6,59.9,85.6,60.3z M85,58.8L85,58.8c-1-0.1-1.5,0.2-1.5,0.6c0,0.1,0,0.3,0.1,0.3c0.1,0.1,0.2,0.1,0.4,0.1
		c0.3,0,0.5-0.1,0.7-0.4C84.9,59.3,85,59.1,85,58.8z"/>
	<path class="st1" d="M87.4,60.3h-0.6v-5.1h0.6V60.3z"/>
	<path class="st1" d="M90.8,60.3h-2.4v-0.4l1.7-2.5c-0.3,0-0.6,0-0.9,0h-0.7v-0.6h2.4v0.4l-1.6,2.5c0.3,0,0.6,0,0.9,0h0.7V60.3z"/>
	<path class="st1" d="M94.3,58.2c0,0.1,0,0.2,0,0.3H92c0,0.9,0.3,1.3,1.1,1.3c0.4,0,0.7-0.1,1-0.2l0.1,0.5c-0.3,0.1-0.7,0.2-1.2,0.2
		c-1.1,0-1.6-0.6-1.6-1.8c0-0.5,0.1-1,0.4-1.3c0.3-0.3,0.7-0.5,1.1-0.5c0.5,0,0.8,0.1,1.1,0.4C94.2,57.5,94.3,57.8,94.3,58.2z
		 M93.7,58.1c0-0.3-0.1-0.5-0.2-0.6s-0.3-0.2-0.6-0.2c-0.2,0-0.4,0.1-0.6,0.2c-0.2,0.2-0.2,0.4-0.3,0.6H93.7z"/>
	<path class="st1" d="M98.1,60.3h-0.6v-2.3c0-0.5-0.2-0.8-0.6-0.8c-0.3,0-0.5,0.1-0.7,0.4c-0.2,0.3-0.3,0.6-0.3,1v1.7h-0.6v-3.5h0.6
		c0,0.3,0,0.5-0.1,0.7l0,0c0.2-0.5,0.6-0.8,1.2-0.8c0.7,0,1,0.4,1,1.1V60.3z"/>
</g>
<g>
	<defs>
		<rect id="SVGID_3_" y="0" width="144.6" height="79.4"/>
	</defs>
	<clipPath id="SVGID_4_">
		<use xlink:href="#SVGID_3_"  style="overflow:visible;"/>
	</clipPath>
	<path class="st2" d="M25.8,38.9h-1.7l-2.2,8.6c-0.2,0.7-0.3,1.3-0.4,2.1h0c-0.1-0.8-0.3-1.6-0.5-2.2l-2.4-8.4h-1.9l-2.3,8.3
		c-0.2,0.7-0.4,1.5-0.5,2.3h0c-0.1-0.8-0.3-1.6-0.5-2.4l-2.1-8.2H9.2l3.3,12.6h2.1L17,43c0.2-0.7,0.4-1.4,0.4-2.2h0
		c0.1,0.7,0.3,1.5,0.5,2.2l2.4,8.5h2.1L25.8,38.9"/>
	<polygon class="st2" points="39.6,51.5 39.6,50.1 34.8,50.1 34.8,45.7 39.4,45.7 39.4,44.3 34.8,44.3 34.8,40.3 39.6,40.3 
		39.6,38.9 33.1,38.9 33.1,51.5 	"/>
	<path class="st2" d="M54.5,47.8c0-3.9-5.7-2.9-5.7-5.7c0-1.2,0.9-2,2.6-2c0.7,0,1.6,0.1,2.3,0.3l0.1-1.5c-0.7-0.1-1.5-0.2-2.3-0.2
		c-2.8,0-4.5,1.5-4.5,3.6c0,4,5.7,2.9,5.7,5.7c0,1.5-1.3,2.2-2.8,2.2c-0.9,0-1.9-0.2-2.6-0.5l-0.1,1.6c0.7,0.2,1.6,0.3,2.5,0.3
		C52.7,51.7,54.5,50.1,54.5,47.8"/>
	<polygon class="st2" points="69.3,40.4 69.3,38.9 60.3,38.9 60.3,40.4 63.9,40.4 63.9,51.5 65.7,51.5 65.7,40.4 	"/>
	<polygon class="st2" points="82.4,51.5 82.4,50.1 77.9,50.1 77.9,38.9 76.2,38.9 76.2,51.5 	"/>
	<path class="st3" d="M95.7,47.2h-4.4l1.6-4.5c0.2-0.6,0.4-1.3,0.6-1.9h0c0.1,0.7,0.3,1.3,0.6,1.9L95.7,47.2 M99.1,51.5l-4.6-12.6
		h-1.9L88,51.5h1.8l1-3h5.4l1,3H99.1z"/>
	<path class="st2" d="M116.1,51.5V38.9h-1.7v3.6c0,2.1,0.1,5.2,0.1,6.7c-0.5-0.9-1-1.8-1.5-2.8l-4.7-7.6H106v12.6h1.7v-4.1
		c0-2-0.1-5-0.1-6.4c0.4,0.8,0.9,1.7,1.4,2.6l4.8,7.8H116.1"/>
	<path class="st3" d="M133.2,45.2c0,3.4-2.1,5-5,5c-0.5,0-1.2,0-1.7-0.1v-9.7c0.5,0,1.2-0.1,1.9-0.1C131.6,40.3,133.2,42,133.2,45.2
		 M135,45.1c0-4.3-2.4-6.2-6.4-6.2c-1.4,0-2.8,0.1-3.8,0.1v12.6c0.9,0,1.9,0.1,3.2,0.1C132.1,51.6,135,49.4,135,45.1"/>
</g>
<path class="st1" d="M135,58.9h-33v-1.5h33V58.9z M102.4,58.5h32.2v-0.7h-32.2V58.5z"/>
<path class="st1" d="M42.6,58.9H9.2v-1.5h33.4V58.9z M9.6,58.5h32.6v-0.7H9.6V58.5z"/>
</svg>
