<?xml version="1.0" encoding="utf-8"?>
<!-- Generator: Adobe Illustrator 20.0.0, SVG Export Plug-In . SVG Version: 6.00 Build 0)  -->
<svg version="1.1" id="Layer_1" xmlns="http://www.w3.org/2000/svg" xmlns:xlink="http://www.w3.org/1999/xlink" x="0px" y="0px"
	 viewBox="0 0 176.3 189.4" style="enable-background:new 0 0 176.3 189.4;" xml:space="preserve">
<style type="text/css">
	.st0{fill:#C7C6C6;}
	.st1{fill:#FFFFFF;}
</style>
<g>
	<polyline class="st0" points="65.2,13.1 16,13.1 42.4,33.8 65.2,13.1 	"/>
	<polyline class="st0" points="142.4,111.9 166.8,131.4 165.9,13.6 93.6,13.2 93.6,43.1 115.8,23.3 115.8,74.6 142.8,98 
		142.4,111.9 	"/>
	<g>
		<path class="st1" d="M29,161.3h-0.1l-7.5,27.4h-9.6L0,149.3h9.7l7.1,28.9h0.1l7.2-28.9h9.8l7.5,28.9h0.1l6.6-28.9h9.6l-11.6,39.4
			h-9.6L29,161.3z"/>
		<path class="st1" d="M84.4,148.6c14.2,0,22.2,9.8,22.2,20.4c0,10.6-8,20.4-22.2,20.4s-22.2-9.8-22.2-20.4
			C62.2,158.4,70.2,148.6,84.4,148.6z M84.4,155.6c-8.5,0-12.7,6.3-12.7,13.4c0,7.1,4.2,13.4,12.7,13.4c8.5,0,12.7-6.3,12.7-13.4
			C97.1,161.9,92.9,155.6,84.4,155.6z"/>
		<path class="st1" d="M114.6,149.3h9.1v32h17.5v7.3h-26.6V149.3z"/>
		<path class="st1" d="M148.3,149.3H175v7h-17.6v8.9h17.2v7h-17.2v16.4h-9.1V149.3z"/>
	</g>
	<g>
		<path class="st1" d="M59.1,129.7c-2.9,0-4.3,2.5-4.3,5.3c0,2.8,1.4,5.3,4.3,5.3s4.3-2.5,4.3-5.3C63.5,132.2,62,129.7,59.1,129.7z"
			/>
		<path class="st1" d="M137.3,114.5v-13.4l-27-23.4V35.2L88.8,56.4V0L41.3,40.9L0.2,7.6v138h176.1L137.3,114.5z M81.6,18.8v0.4v44.2
			L53,68.2L81.6,18.8z M18.2,142.7l-1.1-3.2h-5.7l-1,3.2H7.1l5.7-15.5h3.3l5.6,15.5H18.2z M36.4,136.3c0,4.9-3.1,6.7-6.5,6.7
			c-3.4,0-6.5-1.9-6.5-6.7v-9.1h3.1v9.1c0,2.6,1.2,3.9,3.4,3.9c2.2,0,3.4-1.4,3.4-3.9v-9.1h3.1V136.3z M49.9,130h-4.1v12.8h-3.1V130
			h-4.1v-2.8h11.3V130z M59.1,143c-4.8,0-7.6-3.9-7.6-8.1c0-4.2,2.7-8.1,7.6-8.1c4.8,0,7.6,3.9,7.6,8.1C66.7,139.1,64,143,59.1,143z
			 M112.3,104.7c-0.2,2.5-1.1,4.6-2.6,6.6c-1.6,2.1-3.7,3-6.3,2.6c-2.5-0.5-4.9-1.2-7.2-2.2c-5-2.1-9.7-4.5-14.5-7
			c-1.4-0.8-2.9-1.5-4.4-2.3c-2-1-3.6-2.3-5-3.9c-0.3-0.5-0.3-0.9,0.2-1.3c1-0.7,2.1-1.2,3.4-1.4c4.6-0.8,9.2-1.2,13.8-1.3
			c5.6-0.2,11-0.1,16.5,0.3c2.1,0.1,3.9,0.9,5.4,2.2c0.3,0.3,0.5,0.5,0.5,0.8C112.7,100.1,112.8,102.4,112.3,104.7z"/>
		<polygon class="st1" points="14.3,130.9 12.4,137 16.4,137 14.4,130.9 		"/>
	</g>
</g>
</svg>
